<svg id="Layer_1" data-name="Layer 1" xmlns="http://www.w3.org/2000/svg" xmlns:xlink="http://www.w3.org/1999/xlink" width="1400" height="563" viewBox="0 0 1400 563"><defs><style>.cls-1{fill:url(#linear-gradient);}.cls-2{fill:#bcadd5;}.cls-3{fill:#476098;}.cls-4{fill:url(#linear-gradient-2);}.cls-5{fill:#535277;}.cls-6{fill:#393854;}.cls-7{fill:url(#linear-gradient-3);}.cls-8{fill:url(#linear-gradient-4);}.cls-9{fill:url(#linear-gradient-5);}.cls-10{fill:url(#linear-gradient-6);}.cls-11{fill:url(#linear-gradient-7);}.cls-12{fill:url(#linear-gradient-8);}.cls-13{fill:url(#linear-gradient-9);}.cls-14{fill:url(#linear-gradient-10);}.cls-15{fill:url(#linear-gradient-11);}.cls-16{fill:url(#linear-gradient-12);}.cls-17{fill:url(#linear-gradient-13);}.cls-18{fill:url(#linear-gradient-14);}.cls-19{fill:url(#linear-gradient-15);}.cls-20{fill:url(#linear-gradient-16);}.cls-21{fill:url(#linear-gradient-17);}.cls-22{fill:url(#linear-gradient-18);}.cls-23{fill:url(#linear-gradient-19);}.cls-24{fill:url(#linear-gradient-20);}.cls-25{fill:#273751;}.cls-26{fill:#0a1825;}.cls-27{fill:#9dabd4;}.cls-28{fill:#f8e5f0;}.cls-29{fill:#aab680;}.cls-30{fill:#eef6e6;opacity:0.16;}.cls-31{fill:#bdd07d;}</style><linearGradient id="linear-gradient" x1="700" y1="980" x2="700" gradientTransform="matrix(1, 0, 0, -1, 0, 980)" gradientUnits="userSpaceOnUse"><stop offset="0" stop-color="#083643"/><stop offset="0.07" stop-color="#293f48"/><stop offset="0.24" stop-color="#6e6056"/><stop offset="0.42" stop-color="#b28063"/><stop offset="0.44" stop-color="#b38163"/><stop offset="0.62" stop-color="#bb8464"/><stop offset="1" stop-color="#bd8564"/></linearGradient><linearGradient id="linear-gradient-2" x1="700" x2="700" y2="568.44" gradientTransform="matrix(1, 0, 0, -1, 0, 980)" gradientUnits="userSpaceOnUse"><stop offset="0" stop-color="#3c7782"/><stop offset="0.17" stop-color="#407781"/><stop offset="0.34" stop-color="#4d797e"/><stop offset="0.53" stop-color="#637b79"/><stop offset="0.72" stop-color="#817f72"/><stop offset="0.91" stop-color="#a88369"/><stop offset="1" stop-color="#bd8564"/></linearGradient><linearGradient id="linear-gradient-3" x1="1185.19" y1="692.11" x2="1256.38" y2="692.11" gradientTransform="matrix(1, 0, 0, -1, 0, 980)" gradientUnits="userSpaceOnUse"><stop offset="0" stop-color="#535277"/><stop offset="0.18" stop-color="#575476"/><stop offset="0.38" stop-color="#645a74"/><stop offset="0.59" stop-color="#7a6570"/><stop offset="0.8" stop-color="#98736b"/><stop offset="1" stop-color="#bd8564"/></linearGradient><linearGradient id="linear-gradient-4" x1="1257.86" y1="726.7" x2="1344.4" y2="726.7" xlink:href="#linear-gradient-3"/><linearGradient id="linear-gradient-5" x1="871.25" y1="844.78" x2="958.93" y2="844.78" xlink:href="#linear-gradient-3"/><linearGradient id="linear-gradient-6" x1="673.03" y1="877.7" x2="674.11" y2="877.7" xlink:href="#linear-gradient-3"/><linearGradient id="linear-gradient-7" x1="667.74" y1="875.69" x2="668.68" y2="875.69" xlink:href="#linear-gradient-3"/><linearGradient id="linear-gradient-8" x1="675.32" y1="878.41" x2="676.43" y2="878.41" xlink:href="#linear-gradient-3"/><linearGradient id="linear-gradient-9" x1="666.07" y1="874.86" x2="666.44" y2="874.86" xlink:href="#linear-gradient-3"/><linearGradient id="linear-gradient-10" x1="629.54" y1="842.86" x2="825.9" y2="842.86" xlink:href="#linear-gradient-3"/><linearGradient id="linear-gradient-11" x1="670.78" y1="876.9" x2="671.74" y2="876.9" xlink:href="#linear-gradient-3"/><linearGradient id="linear-gradient-12" x1="685.74" y1="880.45" x2="686.92" y2="880.45" xlink:href="#linear-gradient-3"/><linearGradient id="linear-gradient-13" x1="688.22" y1="880.63" x2="689.39" y2="880.63" xlink:href="#linear-gradient-3"/><linearGradient id="linear-gradient-14" x1="683.32" y1="880.15" x2="684.45" y2="880.15" xlink:href="#linear-gradient-3"/><linearGradient id="linear-gradient-15" x1="677.68" y1="879.05" x2="678.75" y2="879.05" xlink:href="#linear-gradient-3"/><linearGradient id="linear-gradient-16" x1="680.41" y1="879.68" x2="681.87" y2="879.68" xlink:href="#linear-gradient-3"/><linearGradient id="linear-gradient-17" x1="360.51" y1="729.27" x2="492.02" y2="729.27" xlink:href="#linear-gradient-3"/><linearGradient id="linear-gradient-18" x1="271.39" y1="668.5" x2="338.42" y2="668.5" xlink:href="#linear-gradient-3"/><linearGradient id="linear-gradient-19" x1="182.01" y1="644.6" x2="186.69" y2="644.6" xlink:href="#linear-gradient-3"/><linearGradient id="linear-gradient-20" x1="170.26" y1="666.92" x2="321.04" y2="666.92" xlink:href="#linear-gradient-3"/></defs><title>BG5-01</title><g id="Layer_1-2" data-name="Layer 1"><rect class="cls-1" width="1400" height="980"/><path class="cls-2" d="M1400,109.72c-24.7-1.55-42.5,12.8-41.7,42.8-9.08-25.66-51.22-1.5-32.55,20.52-12-10.21-17,10.2-10.75,18-5.32-5.26-12.85-5.65-18,0-.94-12.46-22.8-31.7-31.35-16.5-29.39-25.31-35.26,13.49-34.82,15.77-4.09-.05-29-3.64-28.48,20.52-13.44-2-19.23,7-26.79,16.43a66,66,0,0,0,9.6,5.47,30.55,30.55,0,0,0,3.93,1.39l.37.1q.84.22,1.72.4l.43.08c.71.13,1.43.24,2.18.32a40.59,40.59,0,0,0,13.72-1.17c10.79-2.57,24.7-17,35.34-16.8,4,.06,10.23,2.77,17,6.43l.43.23,1.67.93.37.21c1.37.77,2.74,1.58,4.12,2.39l.35.21,1.74,1,.37.22c1.38.84,2.74,1.69,4.08,2.53l.19.12,1.79,1.13.32.2c2.74,1.75,5.33,3.43,7.61,4.91l1.41.91.35.23,1.07.69.43.28.91.58.38.24,1.14.71,1.55.94.47.28,1.16.7.52.31,1.23.73.25.15,6.7,4,.17.1,1.58.94.42.25,1.51.91.49.3,1.51.92.51.31,1.5.92.54.33,1.51.94.54.34,1.52,1,.53.34,1.53,1,.53.35,1.52,1,.53.35,1.51,1,.53.36,1.51,1,.5.35,1.51,1.06.48.34,1.5,1.09.45.33,1.49,1.11.42.32,1.49,1.15.36.29,1.5,1.19.3.25,1.5,1.25.22.19,1.37,1.19a64.09,64.09,0,0,0,8.48-2.76c14.36-5.84,26.84-15.93,40.58-22.78A64.89,64.89,0,0,0,1400,233Z"/><path class="cls-3" d="M202.22,270.22c-3.16-16.3-20.89-24.55-31.19-8.79-6.54-7.48-17.73-11.33-28.89-9.13-1.75-16.09-11.68-30.77-30-27,1.55-18.47-24.21-43.35-42-36C66.55,152.81,37.25,113.58,0,114.46V292.4c1.2-.2,2.43-.38,3.72-.51,11.63-1.2,23.43-9.48,36.3-8,11.9,1.38,24.1,4.49,36.36,7.47,12,2.91,25.54,1.56,37.21,5.35,12.08,3.93,22.73,11.83,33.81,16,12.52,4.75,22.14,14.6,32.42,18.75,11.55,4.66,26.13-6.67,36.62-4.6,11.94,2.36,20.69,2.28,31.71,1.87a10.44,10.44,0,0,1,2.44.22,63.05,63.05,0,0,0-.72-10.25C246.62,297,226.24,268.69,202.22,270.22Z"/><rect class="cls-4" y="411.56" width="1400" height="568.44"/><path class="cls-5" d="M1345.39,285.29c-8.68-17.1-40.59-34-56.85-44-9.59-5.88-35.28-24-45.68-24.2-10.64-.16-24.55,14.23-35.34,16.8-28.55,6.8-30.16-14.32-58.4-16.57-27.1-2.16-44.21,31.46-65.19,32.61-20.75,1.14-48.4-37.88-63.25-51.22-25.86-23.24-51.09-44.14-75.81-68.48-26.34-25.93-28.61-38.31-62.57-21.59-31.93,15.71-56.38,32-90.23,24.9-29.43-6.19-54.86-23.56-82.67-31.67-33.48-9.76-54.79,9.49-82.12,27.61-21,13.93-41.44,28.82-62.94,41.8C546,182.28,512.56,211,492.65,214c-12.43,1.86-21.12-11.07-36-7-8.71,2.37-13.74,10.83-20.79,16.33-19.2,15-37.32,30.44-57.16,44.5-30,21.23-39.09,30.42-69.58,14.84-28.4-14.51-32.82-14.78-59.42,6.75-21.48,17.38-38.94,37.29-65.2,47.08l-9.81,12.26c-18.07,11.4-26.13,27.58-35.78,48.53a156.2,156.2,0,0,1-8.11,14.28H1400V262.09C1380.56,269.21,1365.17,284.45,1345.39,285.29Z"/><path class="cls-6" d="M775.35,411.56c5.4-11.55,10.62-23.32,14.41-35.82,8.26-27.23,26.84-51.67,36.06-77.93,7.24-20.61,6.24-45.49,14.86-66.18,11.76-28.22,25.93-57.53,41.56-83.39,8.27-13.68,14.82-32,24.24-47.2-6.11,0-13.61,2.42-24.18,7.62-20.93,10.3-38.64,20.85-57.9,24.9-29,31.14-53.19,70.17-79.57,106.19-33.5,45.75-47.56,97-75,144.4q-8,13.81-16.19,27.41Z"/><path class="cls-6" d="M691.9,99.27c-24.09,0-42.36,15.48-64.62,30.24-21,13.93-41.44,28.82-62.94,41.8-18.29,11-51.78,39.74-71.69,42.72-12.43,1.86-21.12-11.07-36-7-8.71,2.37-13.74,10.83-20.79,16.33-19.2,15-37.32,30.44-57.16,44.5-17.85,12.65-28.3,21-40.29,22.43-30.55,31-63.86,57.85-106.47,62.16,21.2,7,58.89,30.75,83.1,24.82,31.58-7.73,45.62-38.55,80.7-43.49,51.72-7.28,96-20.31,136.16-57C591.74,222,626.31,147.32,691.9,99.27Z"/><path class="cls-6" d="M691.9,99.27c-24.09,0-42.36,15.48-64.62,30.24-21,13.93-41.44,28.82-62.94,41.8-18.29,11-51.78,39.74-71.69,42.72-12.43,1.86-21.12-11.07-36-7-8.71,2.37-13.74,10.83-20.79,16.33-19.2,15-37.32,30.44-57.16,44.5-17.85,12.65-28.3,21-40.29,22.43-30.55,31-63.86,57.85-106.47,62.16,21.2,7,58.89,30.75,83.1,24.82,31.58-7.73,45.62-38.55,80.7-43.49,51.72-7.28,96-20.31,136.16-57C591.74,222,626.31,147.32,691.9,99.27Z"/><path class="cls-7" d="M1217.23,277.53c15.66,19.32,17.77,51.08,39.15,65.44-3.71-12.44-10.34-25.1-11.59-37.09,16.77-3.27-25.9-38.1-31.68-44.16-7.37-7.73-11.05-16.66-17.92-25.09-.43-.53-.89-1-1.37-1.54a29.14,29.14,0,0,1-8.63-2.28C1196.67,246.28,1206.09,263.8,1217.23,277.53Z"/><path class="cls-8" d="M1287.69,255a111.35,111.35,0,0,0,33.41,25.42,37.48,37.48,0,0,0,23.3,3c-9.89-16.49-40.16-32.58-55.85-42.19-6.27-3.84-19.43-12.94-30.69-18.82C1266.21,233.81,1280.06,246.45,1287.69,255Z"/><path class="cls-9" d="M944.88,130.25c-18.14-17.86-24.87-29.27-38.4-29.2-9.41,15.17-16,33.51-24.23,47.19-3.76,6.21-7.43,12.63-11,19.18,10.85,1.64,22.69,3.38,31.41.2,10.65-3.87,11.43-19.78,20.7-25.33-.52,8,3.36,17.92,7.69,24.06,8.44-4.7,11.61-15,18.37-19.46a22.6,22.6,0,0,1,9.51-3.2Q951.87,137.12,944.88,130.25Z"/><path class="cls-10" d="M674.11,102.12l-1.07.35Z"/><path class="cls-11" d="M668.68,104.11l-.93.4Z"/><path class="cls-12" d="M676.43,101.43l-1.1.32Z"/><path class="cls-13" d="M666.08,105.22h0l.38-.17Z"/><path class="cls-14" d="M792.08,133.56c-29.43-6.19-54.86-23.56-82.67-31.67a61.82,61.82,0,0,0-18.54-2.61h1c-24,17.6-43.87,38.77-62.33,61.22,8.87,6.21,24.17,13.65,28.56,14.5,5.46-7.66,14.88-12.34,19.5-20.4,2.73,3.78,6.55,7,8.92,11.09,5.67-4.32,7.38-12.24,7.87-18.92,11.68,13.43,29.15,38,29.93,7.46,14.1-1.93,13.69,4.58,22.31,11.87,6.51-6.82,23.93-18,31.09-8,15.41-10.49,33.78-13.76,48.18-24.9A77,77,0,0,1,792.08,133.56Z"/><path class="cls-15" d="M671.74,102.93l-1,.35Z"/><path class="cls-16" d="M686.92,99.49l-1.18.12Z"/><path class="cls-17" d="M689.39,99.33l-1.17.07Z"/><path class="cls-18" d="M684.45,99.77l-1.13.16Z"/><path class="cls-19" d="M678.75,100.82l-1.07.27Z"/><path class="cls-20" d="M681.87,100.18l-1.46.28Z"/><path class="cls-21" d="M417.17,272.52c15.13-11.8,30.33-23.83,46-34.06,12-7.82,19.23-15.14,28.85-24.37C480,215.4,471.3,203,456.69,207,448,209.36,443,217.82,435.9,223.32c-7.42,5.79-14.68,11.65-21.94,17.47-15,21.66-30,44.29-53.45,54.47C381.84,289.51,398.79,286.86,417.17,272.52Z"/><path class="cls-22" d="M328.92,290c-9.06,3-19.26,5.11-27.35,10.1-13,8-18.32,22.13-30.18,30.71,7.38,3.92,14.3,2.33,20.89-1.1,16.47-10.89,31.62-24.68,46.14-39.4h0A33,33,0,0,1,328.92,290Z"/><path class="cls-23" d="M183.26,337l1.23-.46,2.19-2.74C185.74,335.08,179.36,337.13,183.26,337Z"/><path class="cls-24" d="M170.26,351.79c12.89,3.3,28.6,2.12,36.84-1.17,28.84-11.52,54.29-26.26,77.48-46.8,10.39-9.19,12.42-12.3,25.57-14.7,2.69-.49,6.8-1,10.89-1.27a94,94,0,0,1-11.92-5.2c-28.4-14.51-32.82-14.78-59.42,6.75-21.48,17.38-38.94,37.29-65.2,47.08l-9.81,12.26C173.14,349.73,171.67,350.75,170.26,351.79Z"/><path class="cls-25" d="M1265.64,324c-10.8-1.61-24.06,15-35.55,14.73-11-.27-22.09-2.84-33.45-2.36-11.14.48-23.4-14.39-34.61-13.63s-21.82,11-32.88,11.62c-11.45.64-22.46,14.9-33.37,14.9-12.2,0-25.12-2.07-37.5-3-12.17-.94-24.18-6.84-36.5-8.18s-23.74-9.22-36-10.43-25.36,12.06-37.68,11.45c-11.38-.56-22.46-23.86-34.64-24.12-11.62-.25-24,19.33-35.93,19s-23.4-10-35.17-10.71c-12-.68-24.43,4.43-36,3.06-12-1.43-25.81,3.4-37,.86-10.73-2.44-23.69-5.29-33.69-9.61S723.94,290,714.08,285.41s-23.61-.39-34-3.73c-11.51-3.72-21.24-13.77-32.56-15.43-11.57-1.7-24.12,9.61-35.92,9.19-11.43-.4-22.8-6.06-34.83-6.06-11.37,0-22.5,3.68-33.58,3.86-11.35.18-22.89-9.66-34-9.06-11.29.6-20.68,19.63-31.76,20.91s-22.49-4-33.5-1.74-21.47,3.69-32.3,7c-10.53,3.27-23.12.89-33.62,5.49-11,4.8-21.79,8.71-31.88,13.25-10.88,4.9-22,7.73-32.3,11.8-11,4.34-17.34,23.74-28.24,26.49-11.17,2.82-25.87-19.07-37.5-18.64-11,.41-19.77.5-31.71-1.87-10.48-2.08-25.06,9.26-36.62,4.6-10.28-4.15-19.89-14-32.42-18.75-11.08-4.2-21.72-12.1-33.81-16-11.67-3.8-25.24-2.44-37.21-5.35-12.26-3-24.45-6.09-36.36-7.47-12.87-1.49-24.67,6.79-36.3,8-1.3.13-2.52.31-3.72.51V411.56H1300.89c1.41-6.74,2.8-13.2,3.17-19.52,1.1-18.76,7-33.49.06-41.91C1296.88,341.32,1283.54,326.66,1265.64,324Z"/><path class="cls-26" d="M1400,321.06c-18.5,3.27-36.93,8.94-55.93,9.69-23.17.92-45.25.43-68.06,3.67-42.13,6-84.38,10-126.23,14.33-63.76,6.65-128.56,4.38-191.91,12.06-39,4.73-85.64,1.51-125.53-.06-49.45-2-84.68,12.33-132.61,18-99.3,11.75-199.9.07-299.43-2.52-73.2-1.9-170.54,15.9-243.63,11.52C110.2,385,47,391.2,0,393.34v18.22H1400Z"/><path class="cls-27" d="M187.22,321.38c-2.42-11.53-9.59-18.17-21-18.16-2.86-13-12.07-19.75-23.77-14.78-10.9-25.78-31.27-47.27-54.16-17.93-2.3-21.67-27.32-16.8-39.15-6,1.18-18.46-16.79-33.23-25.19-12C18.76,236.59,9.75,230,0,229.83V292.4c1.2-.2,2.43-.38,3.72-.51,11.63-1.2,23.43-9.48,36.3-8,11.9,1.38,24.1,4.49,36.36,7.47,12,2.91,25.54,1.56,37.21,5.35,12.08,3.93,22.73,11.83,33.81,16,12.52,4.75,22.14,14.6,32.42,18.75,8,3.24,17.51-1.24,26.07-3.59C201.78,321.62,195.81,318,187.22,321.38Z"/><path class="cls-28" d="M1400,188.44c-16.59-13.75-39.2,5.19-38.7,31.2-6.28-11.58-13.3-3.93-13.52,5.21-9-5.13-16.91,1.37-14.31,11.42-8.27-6.7-19.69-1.21-24.66,7.3-6.87-4.39-12.41-3.62-16.78-.15l.22.13,1.23.73.25.15,6.7,4,.17.1,1.58.94.42.25,1.51.91.49.3,1.51.92.51.31,1.5.92.54.33,1.51.94.54.34,1.52,1,.53.34,1.53,1,.53.35,1.52,1,.53.35,1.51,1,.53.36,1.51,1,.5.35,1.51,1.06.48.34,1.5,1.09.45.33,1.49,1.11.42.32,1.49,1.15.36.29,1.5,1.19.3.25,1.5,1.25.22.19,1.52,1.32.12.11a54.74,54.74,0,0,1,10.59,12.1h0c.36.59.69,1.19,1,1.78,19.78-.84,35.17-16.08,54.61-23.21Z"/><circle class="cls-29" cx="1157.29" cy="56.22" r="28.5"/><path class="cls-30" d="M1157.29,27.72a28.37,28.37,0,0,0-16.05,5,28.5,28.5,0,0,0,39.6,39.6,28.5,28.5,0,0,0-23.55-44.56Z"/><path class="cls-31" d="M1179.24,73.29a27.94,27.94,0,0,0,4.4-15.07c0-15.74-13-28.5-29.09-28.5A29.43,29.43,0,0,0,1141,33a28.49,28.49,0,0,0,38.19,40.31Z"/><path class="cls-30" d="M129,90c3.22,0,3.22-5,0-5S125.78,90,129,90Z"/><path class="cls-30" d="M198,83a1,1,0,1,0-1-1A1,1,0,0,0,198,83Z"/><path class="cls-30" d="M207.5,120a1,1,0,1,0-1-1A1,1,0,0,0,207.5,120Z"/><path class="cls-30" d="M231.5,57.5c-.1,0-.38-.07-.08,0l.44.26h0l.29.71h0L232,59h0l.22-.23a1,1,0,0,0-1.41-1.41c-.39.39-.79.83-.63,1.43a1.24,1.24,0,0,0,1.34.78,1,1,0,1,0,0-2Z"/><path class="cls-30" d="M246.5,101.5h.5a1,1,0,0,0,0-2h-.5a1,1,0,0,0,0,2Z"/><path class="cls-30" d="M567.67,83h.5a1,1,0,0,0,0-2h-.5a1,1,0,0,0,0,2Z"/><path class="cls-30" d="M577,28.72h.5a1,1,0,0,0,0-2H577a1,1,0,0,0,0,2Z"/><path class="cls-30" d="M1067.36,85.72h.5a1,1,0,0,0,0-2h-.5a1,1,0,0,0,0,2Z"/><path class="cls-30" d="M1240.5,83.19h.5a1,1,0,0,0,0-2h-.5a1,1,0,0,0,0,2Z"/><path class="cls-30" d="M1307.18,107.33h.5a1,1,0,0,0,0-2h-.5a1,1,0,0,0,0,2Z"/><path class="cls-30" d="M1274.35,54.47h.5a1,1,0,0,0,0-2h-.5a1,1,0,0,0,0,2Z"/><path class="cls-30" d="M281,75.5a1,1,0,1,0-1-1A1,1,0,0,0,281,75.5Z"/><path class="cls-30" d="M146,37.5a1,1,0,1,0-1-1A1,1,0,0,0,146,37.5Z"/><path class="cls-30" d="M56.5,101a1,1,0,1,0-1-1A1,1,0,0,0,56.5,101Z"/><path class="cls-30" d="M103,134.5h.5a1,1,0,0,0,0-2H103a1,1,0,0,0,0,2Z"/><path class="cls-30" d="M96.29,50.79l-.5.5A1,1,0,0,0,97.2,52.7l.5-.5a1,1,0,0,0-1.41-1.41Z"/><path class="cls-30" d="M379.79,84.29l-.23.22h.87l-.23-.22a1,1,0,0,0-1.41,1.41,1.43,1.43,0,0,0,2.41,0,1,1,0,0,0-1.41-1.41Z"/><path class="cls-30" d="M745.29,32.29l-.23.22h.87l-.23-.22a1,1,0,0,0-1.41,1.41,1.43,1.43,0,0,0,2.41,0,1,1,0,0,0-1.41-1.41Z"/><path class="cls-30" d="M985,55.33l-.23.22h.87l-.23-.22A1,1,0,0,0,984,56.74a1.43,1.43,0,0,0,2.41,0A1,1,0,0,0,985,55.33Z"/><path class="cls-30" d="M958.72,86.61l-.23.22h.87l-.23-.22A1,1,0,0,0,957.72,88a1.43,1.43,0,0,0,2.41,0,1,1,0,0,0-1.41-1.41Z"/><path class="cls-30" d="M417.63,136.23l-.23.22h.87l-.23-.22a1,1,0,0,0-1.41,1.41,1.43,1.43,0,0,0,2.41,0,1,1,0,0,0-1.41-1.41Z"/><path class="cls-30" d="M377.5,59.5h.5a1,1,0,0,0,0-2h-.5a1,1,0,0,0,0,2Z"/><path class="cls-30" d="M749,77.14h.5a1,1,0,0,0,0-2H749a1,1,0,0,0,0,2Z"/><path class="cls-30" d="M779.81,54.47h.5a1,1,0,0,0,0-2h-.5a1,1,0,0,0,0,2Z"/><path class="cls-30" d="M825.69,28.72h.5a1,1,0,0,0,0-2h-.5a1,1,0,0,0,0,2Z"/><path class="cls-30" d="M347,109v-.37a1,1,0,0,0-2,0V109a1,1,0,0,0,2,0v-.37a1,1,0,0,0-2,0V109a1,1,0,0,0,2,0Z"/><path class="cls-30" d="M627.33,68.33V68a1,1,0,0,0-2,0v.38a1,1,0,0,0,2,0V68a1,1,0,0,0-2,0v.38a1,1,0,0,0,2,0Z"/><path class="cls-30" d="M604,77.41V77a1,1,0,0,0-2,0v.38a1,1,0,0,0,2,0V77a1,1,0,0,0-2,0v.38a1,1,0,0,0,2,0Z"/><path class="cls-30" d="M1195.33,117v-.37a1,1,0,0,0-2,0V117a1,1,0,0,0,2,0v-.37a1,1,0,0,0-2,0V117a1,1,0,0,0,2,0Z"/><path class="cls-30" d="M1028.67,135.42V135a1,1,0,0,0-2,0v.38a1,1,0,0,0,2,0V135a1,1,0,0,0-2,0v.38a1,1,0,0,0,2,0Z"/><path class="cls-30" d="M1013.33,82.19v-.37a1,1,0,0,0-2,0v.38a1,1,0,1,0,2,0v-.37a1,1,0,0,0-2,0v.38a1,1,0,1,0,2,0Z"/><path class="cls-30" d="M948,29.91v-.37a1,1,0,1,0-2,0v.38a1,1,0,0,0,2,0v-.37a1,1,0,1,0-2,0v.38a1,1,0,1,0,2,0Z"/><path class="cls-30" d="M874.67,85.56v-.37a1,1,0,0,0-2,0v.38a1,1,0,1,0,2,0V85.2a1,1,0,1,0-2,0v.38a1,1,0,0,0,2,0Z"/><path class="cls-30" d="M303,143.5h-.5a1,1,0,0,0,0,2h.5a1,1,0,0,0,0-2Z"/><path class="cls-30" d="M268,161a1,1,0,1,0-1-1A1,1,0,0,0,268,161Z"/><path class="cls-30" d="M499.14,78.14c2.58,0,2.58-4,0-4S496.56,78.14,499.14,78.14Z"/><path class="cls-30" d="M515.64,130.64c2.58,0,2.58-4,0-4S513.06,130.64,515.64,130.64Z"/><path class="cls-30" d="M698.63,49.64c2.58,0,2.58-4,0-4S696,49.64,698.63,49.64Z"/><path class="cls-30" d="M825.94,70c2.58,0,2.58-4,0-4S823.36,70,825.94,70Z"/><path class="cls-30" d="M321,76.5c2.58,0,2.58-4,0-4S318.42,76.5,321,76.5Z"/><path class="cls-30" d="M447,38.5c2.58,0,2.58-4,0-4S444.42,38.5,447,38.5Z"/><path class="cls-30" d="M1088.61,111.14c2.58,0,2.58-4,0-4S1086,111.14,1088.61,111.14Z"/><path class="cls-30" d="M1220.78,29.72c2.58,0,2.58-4,0-4S1218.2,29.72,1220.78,29.72Z"/><path class="cls-30" d="M1067.61,45.14c2.58,0,2.58-4,0-4S1065,45.14,1067.61,45.14Z"/><path class="cls-30" d="M1274.6,132.14c2.58,0,2.58-4,0-4S1272,132.14,1274.6,132.14Z"/><path class="cls-30" d="M271.38,121c2.58,0,2.58-4,0-4S268.8,121,271.38,121Z"/><path class="cls-30" d="M1345.1,54.14c2.58,0,2.58-4,0-4S1342.52,54.14,1345.1,54.14Z"/><path class="cls-30" d="M898.12,46.64c2.58,0,2.58-4,0-4S895.54,46.64,898.12,46.64Z"/></g><rect class="cls-26" x="-8" y="411.56" width="1426" height="162.44"/></svg>