<svg id="Layer_1" data-name="Layer 1" xmlns="http://www.w3.org/2000/svg" xmlns:xlink="http://www.w3.org/1999/xlink" width="800.95" height="462.53" viewBox="0 0 800.95 462.53"><defs><style>.cls-1{fill:url(#linear-gradient);}.cls-2{fill:url(#linear-gradient-2);}.cls-3{fill:url(#linear-gradient-3);}.cls-4{fill:#231f20;}.cls-10,.cls-11,.cls-12,.cls-13,.cls-14,.cls-15,.cls-16,.cls-17,.cls-18,.cls-19,.cls-20,.cls-21,.cls-22,.cls-5,.cls-6,.cls-7,.cls-8,.cls-9{stroke:#000;stroke-miterlimit:22.93;stroke-width:0.22px;}.cls-5{fill:url(#GradientFill_1);}.cls-6{fill:url(#GradientFill_1-2);}.cls-7{fill:url(#GradientFill_1-3);}.cls-8{fill:url(#GradientFill_1-4);}.cls-9{fill:url(#GradientFill_1-5);}.cls-10{fill:url(#GradientFill_1-6);}.cls-11{fill:url(#GradientFill_1-7);}.cls-12{fill:url(#GradientFill_1-8);}.cls-13{fill:url(#GradientFill_1-9);}.cls-14{fill:url(#GradientFill_1-10);}.cls-15{fill:url(#GradientFill_1-11);}.cls-16{fill:url(#GradientFill_1-12);}.cls-17{fill:url(#GradientFill_1-13);}.cls-18{fill:url(#GradientFill_1-14);}.cls-19{fill:url(#GradientFill_1-15);}.cls-20{fill:url(#GradientFill_1-16);}.cls-21{fill:url(#GradientFill_1-17);}.cls-22{fill:url(#GradientFill_1-18);}.cls-23{fill:none;}.cls-24{fill:#010101;}</style><linearGradient id="linear-gradient" x1="548" y1="-317.47" x2="548" y2="462.53" gradientUnits="userSpaceOnUse"><stop offset="0" stop-color="#fab93f"/><stop offset="0.25" stop-color="#bdd68d"/><stop offset="0.55" stop-color="#558b75"/><stop offset="0.63" stop-color="#4b7e6d"/><stop offset="1" stop-color="#1b4046"/></linearGradient><linearGradient id="linear-gradient-2" x1="548" y1="382.5" x2="548" y2="150.69" xlink:href="#linear-gradient"/><linearGradient id="linear-gradient-3" x1="548" y1="382.5" x2="548" y2="194.19" gradientTransform="matrix(-1, 0, 0, 1, 1096, 0)" xlink:href="#linear-gradient"/><linearGradient id="GradientFill_1" x1="561.21" y1="442.04" x2="561.21" y2="422.41" gradientUnits="userSpaceOnUse"><stop offset="0" stop-color="#0095da"/><stop offset="1" stop-color="#00313c"/></linearGradient><linearGradient id="GradientFill_1-2" x1="571.84" y1="442.17" x2="571.84" y2="427.8" xlink:href="#GradientFill_1"/><linearGradient id="GradientFill_1-3" x1="584.21" y1="442.17" x2="584.21" y2="427.8" xlink:href="#GradientFill_1"/><linearGradient id="GradientFill_1-4" x1="596.17" y1="442.17" x2="596.17" y2="424.72" xlink:href="#GradientFill_1"/><linearGradient id="GradientFill_1-5" x1="606.67" y1="442.17" x2="606.67" y2="427.8" xlink:href="#GradientFill_1"/><linearGradient id="GradientFill_1-6" x1="619" y1="442.17" x2="619" y2="427.8" xlink:href="#GradientFill_1"/><linearGradient id="GradientFill_1-7" x1="630.65" y1="442.17" x2="630.65" y2="427.8" xlink:href="#GradientFill_1"/><linearGradient id="GradientFill_1-8" x1="643.87" y1="448.26" x2="643.87" y2="427.8" xlink:href="#GradientFill_1"/><linearGradient id="GradientFill_1-9" x1="450.02" y1="441.46" x2="450.02" y2="428.57" xlink:href="#GradientFill_1"/><linearGradient id="GradientFill_1-10" x1="460.89" y1="441.67" x2="460.89" y2="431.91" xlink:href="#GradientFill_1"/><linearGradient id="GradientFill_1-11" x1="470.39" y1="441.67" x2="470.39" y2="431.91" xlink:href="#GradientFill_1"/><linearGradient id="GradientFill_1-12" x1="477.79" y1="441.46" x2="477.79" y2="428.57" xlink:href="#GradientFill_1"/><linearGradient id="GradientFill_1-13" x1="485.19" y1="445.25" x2="485.19" y2="431.91" xlink:href="#GradientFill_1"/><linearGradient id="GradientFill_1-14" x1="496.07" y1="441.46" x2="496.07" y2="431.91" xlink:href="#GradientFill_1"/><linearGradient id="GradientFill_1-15" x1="506.1" y1="441.67" x2="506.1" y2="431.91" xlink:href="#GradientFill_1"/><linearGradient id="GradientFill_1-16" x1="516.12" y1="441.67" x2="516.12" y2="428.57" xlink:href="#GradientFill_1"/><linearGradient id="GradientFill_1-17" x1="531.84" y1="441.67" x2="531.84" y2="428.57" xlink:href="#GradientFill_1"/><linearGradient id="GradientFill_1-18" x1="541.66" y1="445.25" x2="541.66" y2="432.12" xlink:href="#GradientFill_1"/></defs><title>BG9</title><rect class="cls-1" y="-317.47" width="1096" height="780" transform="translate(1096 145.05) rotate(180)"/><path class="cls-2" d="M1063.84,241.88c-11-7.68-40.21-9-56.66-7.68-11.93.93-34-.84-50.38-6.77-6.22-2.24-11.65-5.08-15.41-8.6-1.17-1.1-2.31-2-3.43-2.88-11.33-8.67-20.18-5.58-28.88,2.7-.5.48-1,1-1.5,1.47-2.51,2.56-6.28,3.6-10.74,3.78-13.37.54-32.9-6.66-43.18-3.78C840,224,830.82,248.28,813.45,248.28c-8.88,0-26.62-8-44.15-14.52-4.95-1.83-9.88-3.54-14.6-4.91-11.22-3.25-21.19-4.57-27.16-1.05-10.37,6.12-28.24,21.82-43.48,32.93-6.56,4.78-12.62,8.7-17.4,10.65-2.71,1.1-5,1.59-6.74,1.22-11.88-2.56-37.46-26.88-56.66-20.48s-35.64,47.35-44.78,42.24-19.19-17.92-19.19-17.92-11,19.19-26.5,5.12-29.24-26.88-50.26-23-38.38,16.64-44.78,5.12-18.28-12.8-29.24-12.8S350.14,215,328.21,215s-45.69,23-53.92,20.48-27.42-32-36.55-48.63-21.93-11.52-30.16-9-11.88-23-34.72-26.87-41.12,28.16-50.26,33.28-20.1,0-24.67,5.12S93.36,213.72,86,217.56s-26.5,1.28-32.9-5.12-13.71-12.8-18.27-1.28-18.28,25.6-23.76,17.92c-1.55-2.17-5.81-4.76-11.12-7.34V382.5H1096V242.65C1082.71,244.59,1068.93,245.45,1063.84,241.88Z"/><path class="cls-3" d="M32.16,268.27C43.13,262,72.37,261,88.82,262c11.93.75,34-.68,50.38-5.5,6.22-1.82,11.65-4.13,15.41-7,1.17-.89,2.31-1.65,3.43-2.34,11.33-7,20.18-4.53,28.88,2.19.5.39,1,.78,1.5,1.19,2.51,2.08,6.28,2.92,10.74,3.07,13.37.44,32.9-5.41,43.18-3.07,13.71,3.12,22.84,22.87,40.21,22.87,8.88,0,26.62-6.53,44.15-11.79,4.95-1.49,9.88-2.88,14.6-4,11.22-2.64,21.19-3.71,27.16-.85,10.37,5,28.24,17.72,43.48,26.75,6.56,3.88,12.62,7.07,17.4,8.65a14.78,14.78,0,0,0,6.74,1c11.88-2.08,37.46-21.83,56.66-16.64s35.64,38.47,44.78,34.31,19.19-14.56,19.19-14.56,11,15.59,26.5,4.16,29.24-21.83,50.26-18.71,38.38,13.52,44.78,4.16,18.28-10.4,29.24-10.4,38.38-29.11,60.31-29.11,45.69,18.71,53.92,16.63,27.42-26,36.55-39.51,21.93-9.36,30.16-7.28,11.88-18.71,34.72-21.83,41.12,22.87,50.26,27,20.1,0,24.67,4.16,4.57,19.75,11.88,22.87,26.5,1,32.9-4.16,13.71-10.39,18.27-1,18.28,20.79,23.76,14.56c1.55-1.77,5.81-3.86,11.12-6V382.5H0V268.9C13.29,270.47,27.07,271.17,32.16,268.27Z"/><rect class="cls-4" y="420.6" width="1096" height="41.93" transform="translate(1096 883.13) rotate(180)"/><path class="cls-5" d="M568.61,422.41a1.78,1.78,0,0,1,1,.47l-8.9,19c-1,0-3.32.14-3.89.14a1.79,1.79,0,0,1-1-.47l-3-19c1.85,0,4.16-.14,4.85-.14a1.77,1.77,0,0,1,1,.47l.93,9.3a26.73,26.73,0,0,1,.05,3.09,26,26,0,0,1,1-3.31l3.7-9.42c1.64,0,3.68-.14,4.31-.14Z"/><path class="cls-6" d="M577.79,431.79c0,2.07-1.16,3.44-4,4l-3,.62a2.18,2.18,0,0,0,2.41,1.94,4.06,4.06,0,0,0,2.78-1.26,1.75,1.75,0,0,1,.85,1.45c0,1.73-2.65,3.6-5.72,3.6s-5.16-2-5.16-5.3c0-3.85,2.73-9.07,7.58-9.07,2.66,0,4.32,1.57,4.32,4Zm-5.11,2a1.24,1.24,0,0,0,.84-1.34c0-.57-.19-1.43-.85-1.43-1.2,0-1.73,1.94-1.92,3.38Z"/><path class="cls-7" d="M585.93,427.8c2.45,0,4.29,1.3,4.29,3,0,2.11-2.55,2.88-2.55,2.88s-.75-2.3-2.46-2.3c-1.16,0-1.83,1.18-1.83,3.68,0,2.31.61,3.35,2.1,3.35a3.57,3.57,0,0,0,2.48-1,1.74,1.74,0,0,1,.85,1.42c0,1.65-2.54,3.41-5.5,3.41-3.15,0-5.09-2-5.09-5.25,0-3.9,2.79-9.12,7.72-9.12Z"/><path class="cls-8" d="M597.7,424.72a1.43,1.43,0,0,1,1,.45l-.46,2.9h3.07l-.69,2.21c-.22.71-.58,1.11-1.3,1.11h-1.61L596.8,437c-.15.91.05,1.34.68,1.34a2.44,2.44,0,0,0,1.12-.34,1.72,1.72,0,0,1,.86,1.37c0,1.38-2,2.76-4.47,2.76-2.65,0-3.72-1.62-3.27-4.46l1-6.33H591l.72-2.31a1.36,1.36,0,0,1,1.27-1h.81l1-2.67a20.69,20.69,0,0,1,2.87-.68Z"/><path class="cls-9" d="M612.62,431.79c0,2.07-1.15,3.44-4,4l-3,.62a2.18,2.18,0,0,0,2.41,1.94,4.07,4.07,0,0,0,2.78-1.26,1.75,1.75,0,0,1,.85,1.45c0,1.73-2.65,3.6-5.72,3.6s-5.16-2-5.16-5.3c0-3.85,2.73-9.07,7.58-9.07,2.66,0,4.32,1.57,4.32,4Zm-5.11,2a1.24,1.24,0,0,0,.84-1.34c0-.57-.19-1.43-.85-1.43-1.2,0-1.73,1.94-1.92,3.38Z"/><path class="cls-10" d="M624.95,431.79c0,2.07-1.16,3.44-4,4l-3,.62a2.17,2.17,0,0,0,2.41,1.94,4.05,4.05,0,0,0,2.78-1.26,1.75,1.75,0,0,1,.85,1.45c0,1.73-2.65,3.6-5.72,3.6s-5.16-2-5.16-5.3c0-3.85,2.73-9.07,7.58-9.07,2.66,0,4.33,1.57,4.33,4Zm-5.11,2a1.24,1.24,0,0,0,.84-1.34c0-.57-.19-1.43-.85-1.43-1.2,0-1.73,1.94-1.92,3.38Z"/><path class="cls-11" d="M635,437a3.69,3.69,0,0,1,1,2.55c0,2.12-1.79,2.67-3.3,2.67-2,0-3.38-.93-4.87-1.44-.42.48-.82,1-1.21,1.44,0,0-2.21-.05-2.21-1.56,0-1.83,3.06-5,6.35-8.54a6.2,6.2,0,0,0-1.07-.12,3.27,3.27,0,0,0-2.6.94,4,4,0,0,1-.88-2.55c.11-2,2-2.54,3.5-2.54a9.14,9.14,0,0,1,3.89,1.11l.93-1.11s2.23.07,2.23,1.58c0,1.77-3,4.86-6.16,8.31a7.26,7.26,0,0,0,1.93.34A3.06,3.06,0,0,0,635,437Z"/><path class="cls-12" d="M649.37,441c-.79,4.84-4.11,7.3-8.31,7.3-2.68,0-4.68-1.41-4.68-3a1.88,1.88,0,0,1,.9-1.58,4.18,4.18,0,0,0,2.71.83c1.69,0,4-.72,4.37-3.26l.31-2c-1.13,1.63-2.63,2.95-4.53,2.95-2.13,0-3.08-1.74-2.52-5.29l.61-3.84c.37-2.35.48-4.27.48-4.27,1.52-.28,3.52-1,4.22-1a1.85,1.85,0,0,1,1,.45l-.76,4.8-.7,4.43c-.06.41,0,.64.38.64,1.77,0,2.76-5.07,2.76-5.07.37-2.35.47-4.27.47-4.27,1.51-.28,3.52-1,4.21-1a1.85,1.85,0,0,1,1,.45l-.76,4.8Z"/><path class="cls-13" d="M444.62,428.57h4.75a9.28,9.28,0,0,1,2.45.25,4.31,4.31,0,0,1,1.94,1.19,5.63,5.63,0,0,1,1.23,2.09,9.52,9.52,0,0,1,.42,3,8.47,8.47,0,0,1-.4,2.74,5.68,5.68,0,0,1-1.38,2.28,4.58,4.58,0,0,1-1.83,1,7.88,7.88,0,0,1-2.3.27h-4.9Zm2.6,2.18v8.54h1.94a7.09,7.09,0,0,0,1.57-.12,2.4,2.4,0,0,0,1-.54,2.73,2.73,0,0,0,.68-1.24,8.4,8.4,0,0,0,.26-2.36,7.69,7.69,0,0,0-.26-2.29,3,3,0,0,0-.74-1.25,2.48,2.48,0,0,0-1.2-.61,11.8,11.8,0,0,0-2.14-.12Z"/><path class="cls-14" d="M462.66,438.49l2.46.41a4,4,0,0,1-1.5,2.06,4.4,4.4,0,0,1-2.56.71,4.18,4.18,0,0,1-3.6-1.59,5.34,5.34,0,0,1-.92-3.22,5.16,5.16,0,0,1,1.21-3.63,4,4,0,0,1,3.07-1.31,4.15,4.15,0,0,1,3.29,1.38,6.09,6.09,0,0,1,1.15,4.21h-6.19a2.5,2.5,0,0,0,.6,1.71,1.87,1.87,0,0,0,1.42.61,1.51,1.51,0,0,0,1-.32A2,2,0,0,0,462.66,438.49Zm.14-2.5a2.38,2.38,0,0,0-.55-1.63,1.78,1.78,0,0,0-2.62,0,2.28,2.28,0,0,0-.52,1.6Z"/><path class="cls-15" d="M466,438.8l2.48-.38a1.81,1.81,0,0,0,.64,1.09,2.16,2.16,0,0,0,1.35.38,2.44,2.44,0,0,0,1.44-.35.79.79,0,0,0,.33-.66.65.65,0,0,0-.18-.46,2,2,0,0,0-.83-.33,13.34,13.34,0,0,1-3.79-1.2,2.41,2.41,0,0,1-1.11-2.1,2.59,2.59,0,0,1,1-2,4.47,4.47,0,0,1,3-.83,5.18,5.18,0,0,1,2.85.63,3.19,3.19,0,0,1,1.28,1.85l-2.33.43a1.44,1.44,0,0,0-.57-.83,2.07,2.07,0,0,0-1.19-.29,2.68,2.68,0,0,0-1.4.27.58.58,0,0,0-.28.5.55.55,0,0,0,.25.45,9.29,9.29,0,0,0,2.31.69,6.86,6.86,0,0,1,2.75,1.1,2.28,2.28,0,0,1,.77,1.84,2.82,2.82,0,0,1-1.07,2.21,4.75,4.75,0,0,1-3.17.92,5.2,5.2,0,0,1-3-.77A3.56,3.56,0,0,1,466,438.8Z"/><path class="cls-16" d="M476.55,430.86v-2.29H479v2.29Zm0,10.6v-9.33H479v9.33Z"/><path class="cls-17" d="M481,442.07l2.82.34a1,1,0,0,0,.33.68,1.86,1.86,0,0,0,1.11.26,2.88,2.88,0,0,0,1.45-.29,1.2,1.2,0,0,0,.49-.62,3.75,3.75,0,0,0,.11-1.13v-1.36a3.34,3.34,0,0,1-2.79,1.51,3.44,3.44,0,0,1-3-1.59,5.41,5.41,0,0,1-.86-3.13,5.15,5.15,0,0,1,1.13-3.59,3.64,3.64,0,0,1,2.81-1.24,3.42,3.42,0,0,1,2.86,1.52v-1.31h2.31v8.38a8.34,8.34,0,0,1-.27,2.47,3.06,3.06,0,0,1-.76,1.28,3.38,3.38,0,0,1-1.31.73,6.92,6.92,0,0,1-2.08.26,5.37,5.37,0,0,1-3.37-.81,2.55,2.55,0,0,1-1-2.06Q481,442.25,481,442.07Zm2.21-5.47a3.36,3.36,0,0,0,.58,2.17,1.78,1.78,0,0,0,1.42.69,2,2,0,0,0,1.53-.71,3.08,3.08,0,0,0,.62-2.1,3.27,3.27,0,0,0-.6-2.15,1.9,1.9,0,0,0-1.51-.7,1.82,1.82,0,0,0-1.46.69A3.24,3.24,0,0,0,483.17,436.6Z"/><path class="cls-18" d="M500.32,441.46h-2.47v-4.76a7.36,7.36,0,0,0-.16-2,1.37,1.37,0,0,0-.51-.69,1.47,1.47,0,0,0-.86-.25,2,2,0,0,0-1.15.35,1.77,1.77,0,0,0-.7.93,8.06,8.06,0,0,0-.19,2.14v4.23h-2.47v-9.33h2.29v1.37a3.82,3.82,0,0,1,4.57-1.29,2.51,2.51,0,0,1,1,.75,2.72,2.72,0,0,1,.48,1,7.7,7.7,0,0,1,.14,1.66Z"/><path class="cls-19" d="M507.87,438.49l2.46.41a4,4,0,0,1-1.5,2.06,4.39,4.39,0,0,1-2.56.71,4.18,4.18,0,0,1-3.6-1.59,5.34,5.34,0,0,1-.92-3.22,5.16,5.16,0,0,1,1.21-3.63,4,4,0,0,1,3.07-1.31,4.15,4.15,0,0,1,3.29,1.38,6.09,6.09,0,0,1,1.15,4.21h-6.19a2.5,2.5,0,0,0,.6,1.71,1.87,1.87,0,0,0,1.42.61,1.51,1.51,0,0,0,1-.32A2,2,0,0,0,507.87,438.49ZM508,436a2.38,2.38,0,0,0-.55-1.63,1.78,1.78,0,0,0-2.62,0,2.28,2.28,0,0,0-.52,1.6Z"/><path class="cls-20" d="M520.67,441.46h-2.29v-1.37a3.69,3.69,0,0,1-1.35,1.19,3.47,3.47,0,0,1-1.57.39,3.55,3.55,0,0,1-2.75-1.3,6.33,6.33,0,0,1,0-7.22,3.64,3.64,0,0,1,2.82-1.23,3.49,3.49,0,0,1,2.71,1.3v-4.64h2.47Zm-6.59-4.87a4.27,4.27,0,0,0,.41,2.16,1.87,1.87,0,0,0,1.67,1,1.82,1.82,0,0,0,1.45-.72,3.35,3.35,0,0,0,.6-2.17,3.67,3.67,0,0,0-.58-2.32,1.91,1.91,0,0,0-3,0A3.16,3.16,0,0,0,514.08,436.59Z"/><path class="cls-21" d="M527.29,441.46V428.57h2.47v4.64a3.49,3.49,0,0,1,2.71-1.3,3.64,3.64,0,0,1,2.82,1.23,5.12,5.12,0,0,1,1.12,3.55,5.4,5.4,0,0,1-1.14,3.68,3.55,3.55,0,0,1-2.76,1.29,3.4,3.4,0,0,1-1.58-.4,3.76,3.76,0,0,1-1.34-1.18v1.37Zm2.45-4.87a4,4,0,0,0,.46,2.14,2,2,0,0,0,1.71,1,1.75,1.75,0,0,0,1.39-.7,3.43,3.43,0,0,0,.58-2.2,3.65,3.65,0,0,0-.58-2.31,1.84,1.84,0,0,0-1.48-.71,1.86,1.86,0,0,0-1.48.69A3.17,3.17,0,0,0,529.74,436.59Z"/><path class="cls-22" d="M536.86,432.12h2.63l2.23,6.63,2.18-6.63h2.56l-3.3,9-.59,1.63a6.57,6.57,0,0,1-.62,1.25,2.68,2.68,0,0,1-.68.7,2.94,2.94,0,0,1-.94.42,4.87,4.87,0,0,1-1.26.15,6.54,6.54,0,0,1-1.4-.15l-.22-1.93a5.48,5.48,0,0,0,1,.12,1.55,1.55,0,0,0,1.27-.51,3.51,3.51,0,0,0,.63-1.29Z"/><path class="cls-23" d="M228.54,448.95l.16.37,0,0-.13-.41Z"/><path class="cls-23" d="M109.47,399.86l0,.05.28-.42-.12-.13Z"/><path class="cls-23" d="M456.92,408.84q.45-1,.89-2l-.24-.3C457.34,407.31,457.12,408.08,456.92,408.84Z"/><path class="cls-23" d="M88.26,402.18c.31-5.23.86-10.69,1.74-16.28a106.63,106.63,0,0,0-4,12.73Q87.19,400.4,88.26,402.18Z"/><path class="cls-23" d="M96.1,404.38c.27.51.54,1,.79,1.55a51.94,51.94,0,0,1,3.89-10.49c-.17-.64-.35-1.29-.53-1.94-1.55,2.92-2.93,5.82-4.16,8.68Q96.09,403.29,96.1,404.38Z"/><path class="cls-23" d="M309,404.25q.49.88,1,1.76l.53-.35q-1.21-3-2.64-6.12Q308.53,401.89,309,404.25Z"/><path class="cls-23" d="M311.18,407.37l-.32-.83-.3.24Z"/><path class="cls-23" d="M243.94,403.43l1.22,1q-.93-1.43-1.92-2.86Q243.6,402.47,243.94,403.43Z"/><path class="cls-23" d="M215.71,413.44l.46.28.35-1.28c.08-1.16.2-2.32.36-3.48l-1.09-1C215.73,409.86,215.7,411.67,215.71,413.44Z"/><path class="cls-23" d="M248.19,403.27v0l0,0Z"/><path class="cls-23" d="M111.64,407.06q.68-1.49,1.46-2.95-.85-1.45-1.75-2.9l-.74-.8c-.19.4-.39.8-.58,1.19Q110.92,404.34,111.64,407.06Z"/><path class="cls-23" d="M492.05,398.17q.94,1.36,1.8,2.73l.83-1,.07-.15q-.84-1.81-1.76-3.64Q492.51,397.13,492.05,398.17Z"/><path class="cls-23" d="M285.94,451.18c0-.87,0-1.85,0-3a58.23,58.23,0,0,0-1.52-7.59h0a98.57,98.57,0,0,1,1.47,10.58Z"/><path class="cls-23" d="M523,406.39l.35.28q.7-1.43,1.45-2.86l-.45-.36Q523.7,404.92,523,406.39Z"/><path class="cls-23" d="M487.66,392l.18.68c.31.38.63.75.94,1.13q.76-1.35,1.56-2.69c-.88-1.57-1.8-3.14-2.78-4.71Q487.69,389.18,487.66,392Z"/><path class="cls-23" d="M457.92,406.59q.51-1.18,1-2.37l-1.07,1.37-.23.75Z"/><path class="cls-23" d="M533.6,406.52q.62-.79,1.27-1.57-.7-1.89-1.33-3.8-.48,1-.93,2.08A33.53,33.53,0,0,1,533.6,406.52Z"/><path class="cls-23" d="M588.87,395q1.09,2,2,4,.2-1.22.35-2.44-1.12-2.51-2.34-5Q588.9,393.33,588.87,395Z"/><path class="cls-23" d="M710.07,450.72l-.09.21.32.32Z"/><path class="cls-23" d="M744.3,410.22l.08.32.48.84Z"/><path class="cls-23" d="M712.6,419.12l.06.16.77.9q1.51-4,3-8.28-.9-1.55-1.85-3.09A64.35,64.35,0,0,1,712.6,419.12Z"/><path class="cls-23" d="M534.67,414.38l0,0,.13-.44-.18.19C534.66,414.24,534.66,414.31,534.67,414.38Z"/><path class="cls-23" d="M183.81,444.77q2.55,2.58,4.86,5.09l0-.06c-1.08-2.06-2.34-4.54-3.68-7.35Q184.43,443.63,183.81,444.77Z"/><path class="cls-23" d="M269.36,420.62c.27-.25.54-.51.82-.76-.25.31-.48.62-.72.93l.22.34,1.68-1.83c0-.54,0-1.08-.05-1.63l-.11-.26q-1,1.41-2.11,2.82Z"/><path class="cls-23" d="M668.26,423.28l.33-.32-.6-.83Q668.13,422.7,668.26,423.28Z"/><path class="cls-23" d="M425.12,418.06l.62-.75-.6-.82Q425.12,417.27,425.12,418.06Z"/><path class="cls-23" d="M527.41,450.49l-.7.71-.06.56Z"/><path class="cls-23" d="M666.14,425.32l1.57-1.51q0-1.08-.07-2.15l-.36-.49q-.54,1.62-1.11,3.2Q666.16,424.84,666.14,425.32Z"/><path class="cls-23" d="M600.7,432.83l.06-.09-.08-.13,0,.11Z"/><path class="cls-23" d="M572.52,416.45l1,1.17.38-.22c.12-.37.23-.73.33-1.1l-1.16-1.82Q572.84,415.46,572.52,416.45Z"/><path class="cls-23" d="M405.46,396.23a39.81,39.81,0,0,1,2.52,8.34q.75-1.49,1.47-3-.41-2.2-.7-4.42-1.89-1.92-3.89-3.84Q405.15,394.77,405.46,396.23Z"/><path class="cls-23" d="M490,403q.21,1.26.4,2.51l.73-1q-.54-.87-1-1.73Z"/><path class="cls-23" d="M244.54,405.16l.4-.44-.87-.91C244.23,404.25,244.39,404.71,244.54,405.16Z"/><path class="cls-23" d="M196.51,427.59l.05.09-.07-.23Z"/><path class="cls-23" d="M594.94,412.83l.06-.41-.21-.4C594.84,412.3,594.89,412.57,594.94,412.83Z"/><path class="cls-23" d="M667.92,419.21l.92,1q0-.73.07-1.46l-.66-.63Z"/><path class="cls-23" d="M570.59,404.69l.25.27.11-.41-.14-.54Z"/><path class="cls-23" d="M712.49,451.49q-.82-1.18-1.69-2.37l-.08.19q.78,1.3,1.47,2.62Z"/><path class="cls-23" d="M245.36,407.17l.81.74.49-1.17-.32-.52-.18-.2Z"/><path class="cls-23" d="M404.49,391.27q2,1.52,4,3.09c-.09-1-.17-1.95-.22-2.92q-.49-1-1-2.05-1.69-1.31-3.44-2.61Q404.09,389,404.49,391.27Z"/><path class="cls-23" d="M426.26,411.36q1.13,1.27,2.22,2.54l.07-.09c0-.27,0-.55.07-.82q-1.13-1-2.29-1.94Z"/><path class="cls-23" d="M365.2,423.09l-.19-.44c-.21.54-.43,1.07-.65,1.6l-.11.49Z"/><path class="cls-23" d="M293.5,418.84l.94-.84c0-1,0-2.06,0-3.12q-1.31-2.33-2.79-4.68l-1.23,1.48A45.92,45.92,0,0,1,293.5,418.84Z"/><path class="cls-23" d="M672.56,438.62l-.06.23,0-.09Z"/><path class="cls-23" d="M152,443l-1.29,1.18q.11,1,.19,2Q151.53,444.66,152,443Z"/><path class="cls-23" d="M730,445.75l-.05.06q0,1.4,0,2.77l1.33,1.58Q730.69,448,730,445.75Z"/><path class="cls-23" d="M777,437.92a27.89,27.89,0,0,1,.77,2.72l.1.21.1-.26q.14-1.28.24-2.57c-.22-.63-.46-1.25-.69-1.88q-.42,1.14-.86,2.28l.39.78C777.06,438.76,777.05,438.34,777,437.92Z"/><path class="cls-23" d="M709.78,453.05c.06.28.13.55.19.83l.29.58.36-.45Z"/><path class="cls-23" d="M457,400.42l.25-.29-.12-.19Z"/><path class="cls-23" d="M505.94,396.26l.23.6q-.07-.42-.15-.84Z"/><path class="cls-23" d="M620.5,431.07l.27-.44c-.09-.33-.19-.67-.29-1Q620.49,430.35,620.5,431.07Z"/><path class="cls-23" d="M453.51,395l.18-.55-.32-.46C453.42,394.37,453.47,394.7,453.51,395Z"/><path class="cls-23" d="M530,394.6q.54-.86,1.1-1.73c-.08-.32-.16-.65-.23-1l-1.65-1.45A33.17,33.17,0,0,1,530,394.6Z"/><path class="cls-23" d="M713.47,402.11q.53-1.33,1-2.66l0-.23v.11c.32-.89.63-1.78.91-2.67a45.13,45.13,0,0,1-.7,5.37,45.84,45.84,0,0,1-.08,5.36q1.18,1.4,2.3,2.82.89-2.68,1.74-5.45-.77-3.89-1.75-7.83-1.54-3.18-3.25-6.36C713.74,394.47,713.66,398.33,713.47,402.11Z"/><path class="cls-23" d="M606.35,409.31q.25.92.5,1.84.89,1.86,1.64,3.77,0-2-.18-4-.81-1.79-1.67-3.58Q606.5,408.35,606.35,409.31Z"/><path class="cls-23" d="M560.73,379.53a37.1,37.1,0,0,1,.61,10.76,69.27,69.27,0,0,1,2,7l.22.25q.55-1.79,1.23-3.56a105.21,105.21,0,0,0-2.08-12.12q-.94-1.36-1.93-2.72C560.76,379.23,560.74,379.38,560.73,379.53Z"/><path class="cls-23" d="M168,415l.12.1q.16-1.91.25-3.84l-1.23-1A43.36,43.36,0,0,0,168,415Z"/><path class="cls-23" d="M242,396.39q2.82,2.86,5.33,5.82.81-.83,1.66-1.64-3-3.71-6.32-7.47Q242.28,394.75,242,396.39Z"/><path class="cls-23" d="M237.35,387.59v.08l.12-.1-.06-.06Z"/><path class="cls-23" d="M389.26,397.58c0-.14,0-.29,0-.43l-.61-.45Z"/><path class="cls-23" d="M262.88,411.44q.79,1,1.56,2.09-.38-1.59-.88-3.18a37.75,37.75,0,0,1,1.94,3.29q1.49-2,3.1-4a88.91,88.91,0,0,0-6.41-10.7q-1.55,2.39-2.94,4.78Q261.23,407.6,262.88,411.44Z"/><path class="cls-23" d="M175.67,420.42l.21-.45-.18-.54C175.69,419.76,175.68,420.09,175.67,420.42Z"/><path class="cls-23" d="M166.77,411.17q.06-.53.15-1.06l-.23-.18C166.72,410.34,166.74,410.76,166.77,411.17Z"/><path class="cls-23" d="M302.59,399l-.15-.31,0,0q.2,1,.38,1.92C302.73,400,302.67,399.51,302.59,399Z"/><path class="cls-23" d="M388.23,406.72c0-.21.09-.41.13-.62a23.18,23.18,0,0,1,.35,4.18l.22.57c.22-2.21.37-4.45.43-6.73q-1.15-2.77-2.53-5.56Q387.68,402.69,388.23,406.72Z"/><path class="cls-23" d="M294.29,407.92c0-.23,0-.47,0-.7l-.24.27Z"/><path class="cls-23" d="M262.34,398.68a74.58,74.58,0,0,1,7.86,9l.33-.39c0-.38-.09-.77-.13-1.15l-.37-.45.35.31q-.49-4-1.24-8-1.46-2.32-3.06-4.64Q264.11,396,262.34,398.68Z"/><path class="cls-23" d="M158.23,415.36q-.23-1.43-.45-2.91a56.26,56.26,0,0,1-1.79-6.07l-1.16-1,1.1.72q-.39-1.73-.64-3.45l-1.6,1.59C155.15,408.15,156.68,411.86,158.23,415.36Z"/><path class="cls-23" d="M99.45,390.81q-1.08-3.48-2.41-7c-.42,4.1-.69,8.11-.83,12Q97.74,393.29,99.45,390.81Z"/><path class="cls-23" d="M83.31,394.56l0,0,.67-.82a80.27,80.27,0,0,1,6.44-12.85q-.19-2.17-.51-4.34A144.45,144.45,0,0,0,83.31,394.56Z"/><path class="cls-23" d="M109.76,399l.2.16.05-.08-.18-.28Z"/><path class="cls-23" d="M33,423.57q0-2.49-.19-5a88.63,88.63,0,0,0-6.38-12.33l-1.37-1.25A71.85,71.85,0,0,0,33,423.57Z"/><path class="cls-23" d="M54.27,417.29l0,.07-.06-.18Z"/><path class="cls-23" d="M135.46,403l.15-.24c0-.43-.09-.85-.14-1.28l-.62.7Z"/><path class="cls-23" d="M112.3,397.17q1.48,1.74,2.86,3.51v0q-1.3-2.11-2.45-4.22Z"/><path class="cls-23" d="M24.79,403.74l.13.09-.16-.24Z"/><path class="cls-23" d="M148.07,411.77l-.38-1.07-.21.24Z"/><path class="cls-23" d="M133.6,399.5q-.05.45-.11.89l.3.38,1.42-1.4c-.08-.57-.16-1.15-.25-1.72Z"/><path class="cls-23" d="M254.77,412.1l.65,1,0,0c-.15-.45-.31-.9-.47-1.35Z"/><path class="cls-23" d="M167.33,392a95.89,95.89,0,0,0-.7,16.35l1.81,1.19A92.2,92.2,0,0,0,167.33,392Z"/><path class="cls-23" d="M91.38,378.41q.52-2.49,1.14-5l-.47-.94-.64.91q-.61,1.28-1.19,2.55Q90.84,377.16,91.38,378.41Z"/><path class="cls-23" d="M134.34,393.81c-.08-.43-.16-.86-.24-1.28,0,.54,0,1.08,0,1.62Z"/><path class="cls-23" d="M253.3,393.12c1.71-3.07,3.59-6.14,5.63-9.16-1.23-1.47-2.51-2.93-3.85-4.38,1.51,1.19,3,2.41,4.36,3.64q2-2.84,4.12-5.63-1.8-4.88-4.11-9.79-2.5-3.54-5.31-7.08A124.24,124.24,0,0,0,245.52,382,130.47,130.47,0,0,1,253.3,393.12Z"/><path class="cls-23" d="M25.43,381.51q-.7-1.92-1.47-3.85a106,106,0,0,0-.3,20.84q3.58,2.06,7,4.23A146.45,146.45,0,0,1,25.43,381.51Z"/><path class="cls-23" d="M292.84,405.75l1.24-1.14q-.07-1-.16-1.93l-1-.78-1.79,1.6Q292,404.61,292.84,405.75Z"/><path class="cls-23" d="M115.84,419.53l-.1-.23-.37,1Z"/><path class="cls-23" d="M74.82,440.46c.22.29.42.59.63.89l.39-.75Z"/><path class="cls-23" d="M178.13,428.9q-1,2-2,3.89,0,.62-.08,1.24.6,1,1.21,2,1.35-2.45,2.66-5Q179,430,178.13,428.9Z"/><path class="cls-23" d="M531.12,409.77c0-.25,0-.5,0-.75l-.67-.57-.13.32c.25.35.5.71.76,1.06Z"/><path class="cls-23" d="M552.63,419.4l1.23-1.11c-.31-.79-.6-1.58-.85-2.37q-.45.86-.92,1.7,0,.39,0,.78Z"/><path class="cls-23" d="M83.54,412.37q1.36,1.72,2.62,3.46.34-1.11.66-2.22-1.2-3-2.58-6.12Q83.84,410,83.54,412.37Z"/><path class="cls-23" d="M82.79,420.85q.16,1,.35,2l.48.47q.45-1.19.87-2.38-.74-1.38-1.52-2.77Q82.86,419.52,82.79,420.85Z"/><path class="cls-23" d="M90.87,446.61h0l0,.06Z"/><path class="cls-23" d="M92,447.1,91,447l.5,1.07Z"/><path class="cls-23" d="M114.05,410.57c.41-.84.82-1.69,1.26-2.55-.5-.92-1-1.85-1.54-2.78q-.6,1.8-1.08,3.59Q113.39,409.7,114.05,410.57Z"/><path class="cls-23" d="M132.06,408.56h0v0Z"/><path class="cls-23" d="M719.8,437.75l.67.65.8-1.49q-.46-1.05-1-2.11l-1.08,1.37Q719.53,437,719.8,437.75Z"/><path class="cls-23" d="M281.83,425.84q.08,1.53.13,3c.18.27.35.54.52.81l.47-.5Q282.45,427.52,281.83,425.84Z"/><path class="cls-23" d="M310.68,424.15c0,.42,0,.84,0,1.26l.19-.39C310.78,424.73,310.73,424.44,310.68,424.15Z"/><path class="cls-23" d="M572.76,420.66c.12-.3.24-.6.36-.91l-.62-.83-.49.38Z"/><path class="cls-23" d="M696.18,440.46l-.12-.24-.4.56-.8,1.92.19.27Q695.63,441.72,696.18,440.46Z"/><path class="cls-23" d="M251.57,426.42q-.54-1.41-1.15-2.83c-.14.32-.27.63-.4.94q.73,1,1.44,2Z"/><path class="cls-23" d="M368.84,440.49l-.11.23.13-.15Z"/><path class="cls-23" d="M239.27,421.57l.28-.32c-.06-.62-.13-1.25-.2-1.88Q239.3,420.48,239.27,421.57Z"/><path class="cls-23" d="M721.24,423.14l0-.2-.13-.17-.42,1.26Z"/><path class="cls-23" d="M231.35,418.16q.32-3,.78-6.2-.9,2.62-1.9,5.17Z"/><path class="cls-23" d="M256.57,427.14l-.68-.72.1.2.57.52Z"/><path class="cls-23" d="M428.41,410.68q-.24-1.5-.43-3l-.76-.76q-.23,1.27-.51,2.55Z"/><path class="cls-23" d="M389.79,451.37l.2-.33-2.58,0q-.23,1.33-.45,2.48l.25-.14Q388.42,452.48,389.79,451.37Z"/><path class="cls-23" d="M594.67,411.37l.41.56q.32-2.12.57-4.3-.9-2.46-1.88-4.93-.06,1.84-.28,3.7Q594.19,408.88,594.67,411.37Z"/><path class="cls-23" d="M668.95,418q0-.86,0-1.73l-.13-.14q-.22.73-.44,1.46Z"/><path class="cls-23" d="M44,434.42l-.34-.65q0,.29,0,.57l.16.5Z"/><path class="cls-23" d="M744,402.55q-.26-2-.58-4-.17,1.3-.4,2.62Z"/><path class="cls-23" d="M571.77,418.72l.39-.24-.21-.27Z"/><path class="cls-23" d="M525.43,402.56l0-.05q-.14-.68-.24-1.36c-.12.34-.25.68-.38,1Z"/><path class="cls-23" d="M551.78,402.48c.11.57.25,1.15.39,1.72q.43-.92.85-1.84-.06-1.05-.09-2.12l-1.17,1.07q0,.72,0,1.43C551.76,402.66,551.76,402.57,551.78,402.48Z"/><path class="cls-23" d="M237.29,388.43l.27.51.32-.94-.21-.21-.36.41C237.3,388.27,237.29,388.35,237.29,388.43Z"/><path class="cls-23" d="M133.26,415.29q.42,1.38.74,2.77l.53.57q.81-1.17,1.67-2.36-.95-1.61-1.85-3.25Q133.79,414.15,133.26,415.29Z"/><path class="cls-23" d="M146.78,419.51q.42-1,.79-1.93L146.52,416C146.63,417.21,146.71,418.37,146.78,419.51Z"/><path class="cls-23" d="M340.47,417.61l.07-.49-.39-.48-.1.29.05.29Z"/><path class="cls-23" d="M135.11,426.8c0,.18,0,.36,0,.54q.43,1.64.81,3.2.14-1.74.25-3.55l-.7-.73Z"/><path class="cls-23" d="M117.32,415.22l.43.68c.25-.51.5-1,.76-1.53l-.46-1Z"/><path class="cls-23" d="M153.42,432.13c0-.83-.07-1.67-.16-2.5a23.07,23.07,0,0,1,1.2,3.26c.23-1.45.39-2.93.5-4.41q-.61-1.32-1.24-2.71l-.72-.9q-.56,2.39-1.32,4.78C152.26,430.5,152.84,431.32,153.42,432.13Z"/><path class="cls-23" d="M90.39,444l-.08-.48c-.44-.8-.91-1.6-1.4-2.4C89.47,442.2,90,443.17,90.39,444Z"/><path class="cls-23" d="M89.06,434.2q-.67,1.77-1.38,3.5,1.11,1.16,2.11,2.36C89.55,438.37,89.3,436.41,89.06,434.2Z"/><path class="cls-23" d="M83.36,424h0Z"/><path class="cls-23" d="M122.6,448.79l-.33-.08q-.69,1.41-1.24,2.62.72-.9,1.42-1.82C122.5,449.27,122.55,449,122.6,448.79Z"/><path class="cls-23" d="M555,377l.76-1q.36-1.25.77-2.49-1.61-2-3.33-4-.94,1.15-1.84,2.31Q553.32,374.33,555,377Z"/><path class="cls-23" d="M582.58,387.39c-.1-.59-.21-1.18-.32-1.77q-1.33,1.76-2.59,3.52a68.37,68.37,0,0,1,2.07,6.74C582.12,393.1,582.4,390.27,582.58,387.39Z"/><path class="cls-23" d="M544,395.11l.41-.85a94.55,94.55,0,0,0-.43-12.19q-1.88,2.9-3.57,5.78a42.85,42.85,0,0,1,1.71,9.08Q543.07,396,544,395.11Z"/><path class="cls-23" d="M509.15,384.82q.62.76,1.22,1.53.42-1,.86-2-.3-2.24-.68-4.51c-.24.51-.48,1-.72,1.54C509.62,382.55,509.4,383.69,509.15,384.82Z"/><path class="cls-23" d="M588.29,376.63h0c0,.48,0,1,.06,1.45h0c0,.94.06,1.89.12,2.84v0q.21,3.41.59,6.84,1.27,1.64,2.5,3.31c0-.69,0-1.39,0-2.08a31.3,31.3,0,0,1,1.2,3.71q1.86,2.61,3.59,5.27,0-1.8,0-3.63A211.14,211.14,0,0,0,587,368.76q.33,1.12.61,2.24c.2.28.42.56.62.85Q588.23,374.23,588.29,376.63Z"/><path class="cls-23" d="M526.86,386.69c.05-.25.11-.5.16-.75,0,.16,0,.33.07.49q1.13-1.26,2.31-2.5c-1.34-9.65-.92-19.38,2.26-28.59a117.78,117.78,0,0,0-12.52,25.57,123.15,123.15,0,0,1,2.44,12.15Q524.07,389.82,526.86,386.69Z"/><path class="cls-23" d="M634.91,385.4q-.7-1.66-1.44-3.31.27,1.1.53,2.21Z"/><path class="cls-23" d="M629.64,393.74c-.68-6-1.61-12-2.85-18.2a66,66,0,0,1,.25,9.61Q628.45,389.49,629.64,393.74Z"/><path class="cls-23" d="M609.66,365.32l.36,1C609.9,366,609.79,365.65,609.66,365.32Z"/><path class="cls-23" d="M607.6,395a55.08,55.08,0,0,1,4.35,10.44q-.16-2.49-.37-5-1.84-4.41-4-8.82Q607.63,393.33,607.6,395Z"/><path class="cls-23" d="M610.12,366.58c.28.77.54,1.55.8,2.33Q610.54,367.74,610.12,366.58Z"/><path class="cls-23" d="M502.6,378.43q-1.4,2.19-2.69,4.39c.29.57.58,1.14.86,1.71C501.43,382.51,502,380.48,502.6,378.43Z"/><path class="cls-23" d="M448.81,385.54a51.77,51.77,0,0,1,2.93-9.37q-2.4-3.95-5.16-7.91-1.13,2.57-2.06,5.16a69.12,69.12,0,0,1,3.27,11.18Z"/><path class="cls-23" d="M433,392.72q-.49-1.81-1.09-3.62.08,1.38.19,2.76Z"/><path class="cls-23" d="M442,388.33c-.06-1.72-.15-3.44-.31-5.18a84.16,84.16,0,0,0-1.65,11.19A48.6,48.6,0,0,0,442,388.33Z"/><path class="cls-23" d="M421.09,397.82q1.53,1.2,3,2.41c.16-.44.33-.87.5-1.31a53.6,53.6,0,0,0,1.08-9.88l-1.58-1.63c-.84,3.39-1.86,6.75-3,10C421.1,397.58,421.09,397.7,421.09,397.82Z"/><path class="cls-23" d="M427.2,391.87c0-.39,0-.77.06-1.16l-.44-.47Q427,391.05,427.2,391.87Z"/><path class="cls-23" d="M472.81,380.35c.72,1.32,1.39,2.65,2,4q.89-2.23,1.88-4.44a121.59,121.59,0,0,0-5.08-14.84A62.23,62.23,0,0,1,472.81,380.35Z"/><path class="cls-23" d="M484.23,366.13c-.33-.56-.66-1.12-1-1.69q.38,1,.73,2.1Z"/><path class="cls-23" d="M486.55,377.08l.06-.07-.05.11c.19,1.15.36,2.3.5,3.46q3,3.37,5.55,6.84.58-.89,1.17-1.78a147.55,147.55,0,0,0-7.9-16.63c-.24.54-.48,1.08-.71,1.62C485.74,372.78,486.19,374.93,486.55,377.08Z"/><path class="cls-23" d="M453.72,379.52l-.67-1.15q-.11,1.33-.17,2.65Q453.29,380.27,453.72,379.52Z"/><path class="cls-23" d="M668.83,399.05l-.06-.06c0,.24-.06.48-.1.73Z"/><path class="cls-23" d="M456.86,375.45l-.15.38.16.21C456.87,375.84,456.86,375.64,456.86,375.45Z"/><path class="cls-23" d="M672.7,398.11q-.23,1.93-.55,3.85l1.2,1.13Q673.08,400.6,672.7,398.11Z"/><path class="cls-23" d="M417.45,381l-.88-.8c.18.67.35,1.34.51,2C417.21,381.77,417.33,381.37,417.45,381Z"/><path class="cls-23" d="M782.13,418.56q-.12.85-.26,1.71.46,1.22.9,2.44Q782.49,420.64,782.13,418.56Z"/><path class="cls-23" d="M734.16,396.66c-.09,1.32-.25,2.65-.46,4q.92,2.12,1.77,4.23c.49-.86,1-1.73,1.44-2.59q-1-4.83-2.42-9.73c-.29-.46-.57-.92-.87-1.38.24.27.48.55.72.83q-1.59-5.51-3.68-11c-.38,3.44-.87,6.86-1.46,10.25q2.16,4.13,4,8.28C733.53,398.55,733.86,397.6,734.16,396.66Z"/><path class="cls-23" d="M713,378.29a109,109,0,0,1,8.25,17.54q1.07-4.05,2-8.23a155,155,0,0,0-10.48-19.19q-.06,2.89-.25,5.78Q712.78,376.25,713,378.29Z"/><path class="cls-23" d="M702.74,394.92q-.27-3.29-.71-6.61-.3,3.78-.8,7.53l.88,1.45Q702.43,396.12,702.74,394.92Z"/><path class="cls-23" d="M742.1,391.35c-.45-2.21-1-4.43-1.51-6.66a154,154,0,0,0-9.1-16.27q-.09,4.35-.46,8.72a108.45,108.45,0,0,1,9,18.92Q741.14,393.71,742.1,391.35Z"/><path class="cls-23" d="M694.95,395.88q.4-1.94.76-3.9l-.76-1.41Q695,393.24,694.95,395.88Z"/><path class="cls-23" d="M757.37,410.15a40.84,40.84,0,0,1,1.53,8.13q.31,1,.61,2a62.6,62.6,0,0,0-1.21-6.68,49.55,49.55,0,0,1,4.92,20.5c.41-2.09.77-4.22,1-6.39q0-1.56,0-3.15a88.92,88.92,0,0,0-1.93-11.17,98.82,98.82,0,0,0-4.16-9.46q-1.09,2.54-2.37,5.08.83,2.25,1.57,4.47C757.4,412.39,757.4,411.27,757.37,410.15Z"/><path class="cls-23" d="M731.52,367.1q3.32,3.78,6.24,7.76a135.76,135.76,0,0,0-6.45-16.18C731.48,361.47,731.54,364.28,731.52,367.1Z"/><path class="cls-23" d="M761.48,394.65l-.15.56.39.81C761.64,395.56,761.56,395.11,761.48,394.65Z"/><path class="cls-23" d="M768.92,400q-.5-1.14-1-2.28.84,3.49,1.5,7Q769.22,402.37,768.92,400Z"/><path class="cls-23" d="M775.82,418q-.39-1.18-.8-2.37.25,3.23.31,6.44Q775.63,420.09,775.82,418Z"/><path class="cls-23" d="M763.64,411.48q-1.58-6.15-3.6-12.29c-.49,1.39-1,2.77-1.62,4.17A73.21,73.21,0,0,1,763.64,411.48Z"/><path class="cls-23" d="M553.76,378.6q-1.11-3.33-2.55-6.64-1.69,2.18-3.26,4.36a69.9,69.9,0,0,1,2.1,7.76Q551.79,381.32,553.76,378.6Z"/><path class="cls-23" d="M9.8,422q.12.58.23,1.15l.91,1.25C10.58,423.62,10.2,422.82,9.8,422Z"/><path class="cls-23" d="M16.79,441.29c-1.14-.9-2.78-2.21-4.79-3.87.33,4,.48,7.83.49,11.49A109.07,109.07,0,0,1,18,461.81q.69-2.37,1.22-4.83A98.08,98.08,0,0,0,16.79,441.29Z"/><path class="cls-23" d="M15.79,426.57c-1.2-2.25-2.49-4.77-3.82-7.53q-2.09-2.44-4.08-5,.28,1,.54,2A74.54,74.54,0,0,1,15.79,426.57Z"/><path class="cls-23" d="M188.9,460.43l-.2.19.28-.19Z"/><path class="cls-23" d="M19.31,385.66A73,73,0,0,1,22,373.16q-1.71-3.81-3.76-7.61A137,137,0,0,0,19.31,385.66Z"/><path class="cls-23" d="M115,457.41c0,.34-.07.67-.11,1l.35-.37Z"/><path class="cls-23" d="M58.41,404.89a27.77,27.77,0,0,1,.87-3.11,44.46,44.46,0,0,0-.11,4.65,38.66,38.66,0,0,1,2.09,5.65l.32.33q.25-2.27.6-4.62A73,73,0,0,1,58.5,388a63.54,63.54,0,0,0-.19,16.68Z"/><path class="cls-23" d="M90.54,369.57q-.89-1.65-1.84-3.29c-1.69,4.8-3.11,9.49-4.29,14A112.16,112.16,0,0,1,90.54,369.57Z"/><path class="cls-23" d="M42.36,410.88a46.38,46.38,0,0,1-.58-5.91,107.52,107.52,0,0,1-4.44-12.52l-2-1.69a112.86,112.86,0,0,1,5,16.17q.76,1.82,1.53,3.59Z"/><path class="cls-23" d="M95.39,362.72q-1.77-2.19-3.67-4.36-1.33,3.24-2.48,6.44c.87,1,1.7,2,2.52,3Q93.48,365.2,95.39,362.72Z"/><path class="cls-23" d="M62.17,392.13q.36,1.58.78,3.16C62.71,394.23,62.45,393.18,62.17,392.13Z"/><path class="cls-23" d="M323.2,453l-3.49.36c-.13,2.86-.36,5.29-.59,7.17q1.39-1.64,2.71-3.33C322.32,455.92,322.79,454.51,323.2,453Z"/><path class="cls-23" d="M72.44,400.35l.5.46c.09-.44.17-.87.26-1.31A57.9,57.9,0,0,1,74.29,389q-1-1.58-2.06-3.16C72.11,390.92,72.2,395.79,72.44,400.35Z"/><path class="cls-23" d="M403.06,380.62a74.41,74.41,0,0,1,5.07,5.92q0-2.54.3-5.07a126.22,126.22,0,0,0-5.1-20.89A95.21,95.21,0,0,0,403.06,380.62Z"/><path class="cls-23" d="M370.49,458.52l.3.51c0-.17,0-.34,0-.53Z"/><path class="cls-23" d="M370.88,457.28c0-.11,0-.23,0-.35l-1,.63.5.83C370.5,458.22,370.66,457.84,370.88,457.28Z"/><path class="cls-23" d="M385.7,459.3l0,.07,0-.08Z"/><path class="cls-23" d="M293.59,399.39c-.42-3.76-1-7.61-1.81-11.52q-3.62,3.45-6.87,7,4.1,2.47,8,5.07Z"/><path class="cls-23" d="M299.07,384l-.15-.44q-.72-1.09-1.47-2.18.36,1,.7,1.92Z"/><path class="cls-23" d="M317.78,390.2a38.07,38.07,0,0,1,4.95,10.85q1.48,1.22,2.91,2.45c0-2.74-.06-5.56-.22-8.44q-1.61-3.81-3.67-7.64c-3.81-3.89-8-7.77-12.49-11.57a140.74,140.74,0,0,1,10.11,21A49.18,49.18,0,0,0,317.78,390.2Z"/><path class="cls-23" d="M254.19,357.9q-1.37-2.3-2.86-4.58l-1.21,1.59q2,1.64,3.81,3.33Z"/><path class="cls-23" d="M282.94,394.27l-2.28-1.61q.67,1.25,1.31,2.49Z"/><path class="cls-23" d="M355.41,404.28q.33,1.35.59,2.71l.44.38q.28-1.86.51-3.76-.7-1.25-1.44-2.51Q355.5,402.7,355.41,404.28Z"/><path class="cls-23" d="M372.95,407.81l.64-1.46q-1-1.38-2-2.77c-.14.42-.29.84-.44,1.25Q372,406.33,372.95,407.81Z"/><path class="cls-23" d="M392.87,391.11q.64.94,1.26,1.88a148.58,148.58,0,0,0-5.7-14.26q0,.81,0,1.62A55.09,55.09,0,0,1,392.87,391.11Z"/><path class="cls-23" d="M337.62,408.14c.16-.47.32-.94.48-1.41q-1.05-1.45-2.16-2.9l0,.26Q336.87,406.1,337.62,408.14Z"/><path class="cls-23" d="M350.56,402.89a70,70,0,0,0-3-13.73c-.78-1-1.58-2.06-2.41-3.08A77.16,77.16,0,0,1,349,410.5,75.66,75.66,0,0,0,350.56,402.89Z"/><path class="cls-23" d="M242,377.66a95.33,95.33,0,0,1,11-18.3q-1.61-2-3.33-3.93a139.68,139.68,0,0,0-11.43,18Q240.22,375.55,242,377.66Z"/><path class="cls-23" d="M157.9,375.82q.45-2.48,1.05-5c-4.23,3.89-8.15,7.88-11.76,11.86q.38,1.67.79,3.33A123.61,123.61,0,0,1,157.9,375.82Z"/><path class="cls-23" d="M104.65,384l.77-.89q.63-1.61,1.29-3.23-.1-.73-.17-1.45-3.22-5.24-7.08-10.49-.53,2.59-1,5.16A63.5,63.5,0,0,1,104.65,384Z"/><path class="cls-23" d="M162.52,386.87q1.55-1.35,3.15-2.67a79.62,79.62,0,0,0-2.75-8.5C162.59,379.48,162.47,383.21,162.52,386.87Z"/><path class="cls-23" d="M181.25,405.72q-1.38-1.37-2.82-2.73.88,3.06,1.85,6Q180.81,407.38,181.25,405.72Z"/><path class="cls-23" d="M141.12,386.3A110.27,110.27,0,0,1,139.71,375q-1.33,1.78-2.59,3.55,1.86,4.21,3.31,8.44Z"/><path class="cls-23" d="M126.31,366.89a128.45,128.45,0,0,0-10.38,17.53c2.41,3.59,4.58,7.2,6.52,10.79q1.71-2.79,3.6-5.58a29.47,29.47,0,0,1,.31-9.22,50.64,50.64,0,0,0,1.22,7l1-1.37a81.26,81.26,0,0,0,.35-12.57,119.37,119.37,0,0,0-7.16-16.06,164.55,164.55,0,0,0-9.41,21.94q1,1.36,2,2.73A97.34,97.34,0,0,1,126.31,366.89Z"/><path class="cls-23" d="M211.8,383l-1.32-.91q.45,1.39.84,2.8Q211.55,384,211.8,383Z"/><path class="cls-23" d="M225.06,380.51A85,85,0,0,0,220.5,388q2,1.27,3.87,2.57c1.36-3,2.87-6.12,4.53-9.21q-.78-1.7-1.62-3.4c-1-.84-1.94-1.68-2.94-2.52q1.27.82,2.5,1.65-2.18-4.3-4.81-8.58a141,141,0,0,0-4.16,17.82l1.35.85A64.68,64.68,0,0,1,225.06,380.51Z"/><path class="cls-23" d="M230.76,378c.45-.79.92-1.57,1.4-2.36q.21-2.67.25-5.34-3.63-4.69-7.84-9.32-1.25,3.35-2.29,6.7A99.26,99.26,0,0,1,230.76,378Z"/><path class="cls-23" d="M198.32,381.91a59.27,59.27,0,0,1,.75,6.07,50.17,50.17,0,0,1,2.85-4.26,70.09,70.09,0,0,0-2.7,7.29c0,1,0,2.06,0,3.09q1.7,1,3.37,2a35.67,35.67,0,0,1,2.15-8.69,58.42,58.42,0,0,0,0,10.07l2,1.27c.07-3,0-5.95-.21-9q-3.47-5.09-7.59-10.17Q198.61,380.79,198.32,381.91Z"/><path class="cls-23" d="M194,374.5a106.42,106.42,0,0,0-2.36,25.44A88,88,0,0,0,194,374.5Z"/><path class="cls-23" d="M198.79,379.48l-1.36-1.63c.24,1,.46,1.91.65,2.87Q198.42,380.09,198.79,379.48Z"/><path class="cls-23" d="M737.41,410q.34-.83.66-1.67c-.06-.33-.11-.66-.17-1q-.41.85-.84,1.71Z"/><path class="cls-23" d="M731.56,411.35l.33-.52-.38-1.28C731.54,410.15,731.56,410.74,731.56,411.35Z"/><path class="cls-23" d="M733.44,416.46l-.14-.52-.07.11Z"/><path class="cls-23" d="M775.6,441.1h0c0,.11,0,.22,0,.32q.3,1.83.58,3.65l.44-1.05C776.29,443,775.95,442.07,775.6,441.1Z"/><path class="cls-23" d="M537.2,383.76a49.14,49.14,0,0,0-1.25-5.17Q536.51,381.19,537.2,383.76Z"/><path class="cls-23" d="M551.38,392.81c.25,2.67.37,5.33.38,8l1.16-.82a85.25,85.25,0,0,1,.55-12.63Q552.34,390.07,551.38,392.81Z"/><path class="cls-23" d="M726.44,404.3q1.48,2.23,2.83,4.51.62-1.28,1.2-2.57-1.23-3.82-2.7-7.73Q727.14,401.42,726.44,404.3Z"/><path class="cls-23" d="M529.11,389.91l1.58,1.08q-.51-2.29-.9-4.59-.62.87-1.21,1.74Q528.87,389,529.11,389.91Z"/><path class="cls-23" d="M528.06,389.22c0-.11,0-.23,0-.34l-.16.24Z"/><path class="cls-23" d="M588.52,385.77c0,.21,0,.43.06.64s0,.53.07.79l.34.43c-.33-2.3-.58-3.84-.79-4.74C588.33,383.85,588.43,384.81,588.52,385.77Z"/><path class="cls-23" d="M699.64,405.78q.53-1.72,1-3.47l-.31-.7Q700,403.71,699.64,405.78Z"/><path class="cls-23" d="M713.56,386.38l.53.71c-.19-.58-.39-1.16-.58-1.73C713.52,385.7,713.54,386,713.56,386.38Z"/><path class="cls-23" d="M607,404.4l.73,1.17c-.15-1.07-.33-2.14-.53-3.22Q607.11,403.38,607,404.4Z"/><path class="cls-23" d="M635,388.79l.55,1.14q-.11-1.62-.25-3.27-.58-1-1.18-1.92C634.39,386.09,634.69,387.44,635,388.79Z"/><path class="cls-23" d="M525.36,400.77c.17.32.34.64.52,1l.83-1.5a54.72,54.72,0,0,0,1.35-10.8l-.23-.2-.45.67A32.26,32.26,0,0,1,525.36,400.77Z"/><path class="cls-23" d="M670.58,409.71q.51,2.65.78,5.35l.14-.48c-.07-.32-.14-.65-.22-1l.3.67q1.1-3.72,2.11-7.57-.09-1.13-.2-2.26L672,402.69Q671.42,406.22,670.58,409.71Z"/><path class="cls-23" d="M221.13,398.37l.57-1.48-.21-.22C221.36,397.24,221.24,397.8,221.13,398.37Z"/><path class="cls-23" d="M262.35,385.86q2.41,2.28,4.6,4.63l.46-.44c-.72-2.87-1.56-5.77-2.52-8.68Q263.57,383.62,262.35,385.86Z"/><path class="cls-23" d="M257.77,400.85a92.65,92.65,0,0,1,7.51-8.69q-1.75-2.46-3.67-4.92c-2,3.71-3.7,7.4-5.26,11C256.84,399.13,257.32,400,257.77,400.85Z"/><path class="cls-23" d="M286.51,404.92l1-.85q-1.58-2.18-3.33-4.35Q285.43,402.34,286.51,404.92Z"/><path class="cls-23" d="M238.61,385.93l.29-.77-.43.66Z"/><path class="cls-23" d="M24,402l.06.06c0-.49.08-1,.15-1.46.1.65.22,1.29.35,1.94q1.61,1.6,3.08,3.25,2.24,1.66,4.37,3.37-.24-2-.55-4l-.21-.63q-3.63-2.81-7.54-5.59Q23.82,400.5,24,402Z"/><path class="cls-23" d="M300.28,389.91l.66.49q-.62-2.5-1.4-5l-.85-.62Q299.56,387.36,300.28,389.91Z"/><path class="cls-23" d="M289.13,409.36l1.23-1.23c-.52-.79-1.07-1.59-1.62-2.38l-1.22,1.16Q288.37,408.12,289.13,409.36Z"/><path class="cls-23" d="M324.31,411.83l.34.38.14-.47-.49-.41C324.3,411.5,324.3,411.67,324.31,411.83Z"/><path class="cls-23" d="M291.94,405.61q-.41-1-.85-2l-.52.47Q291.27,404.82,291.94,405.61Z"/><path class="cls-23" d="M301.38,392.25l-.61-.57.25,1,.59.71C301.54,393,301.47,392.62,301.38,392.25Z"/><path class="cls-23" d="M267.74,391.34l0-.19-.06.07Z"/><path class="cls-23" d="M152.26,400.29q.54,1.54,1.09,3.05.91-.77,1.83-1.52a33.55,33.55,0,0,1-.24-4.74Q153.57,398.68,152.26,400.29Z"/><path class="cls-23" d="M146.53,409.58l.57-.56-.49-1.46-.75,1Z"/><path class="cls-23" d="M143.31,396.74q1,4.09,1.72,8.1l.51-.6q-1.16-3.72-2.16-7.6Z"/><path class="cls-23" d="M108.33,392.55c.42-.84.85-1.67,1.3-2.51-.13-.3-.25-.61-.37-.91Q108.78,390.85,108.33,392.55Z"/><path class="cls-23" d="M216.54,396.3c0,.24-.05.48-.07.72q1.23,1.67,2.39,3.35a39.55,39.55,0,0,1,1.83-4.51c-.9-.9-1.83-1.81-2.78-2.71Q217.19,394.73,216.54,396.3Z"/><path class="cls-23" d="M111,395.68l.79.92c.19-.25.4-.5.59-.75q-.43-.8-.83-1.6Z"/><path class="cls-23" d="M206.23,406.89c0-.28.05-.56.08-.83l-.35-.43C206,406,206.14,406.47,206.23,406.89Z"/><path class="cls-23" d="M202,401.58l.24.61c0-.29,0-.59,0-.88l-.15-.16Z"/><path class="cls-23" d="M197.46,409.06l.1.61c.42-.75.86-1.5,1.35-2.22-.44,1.18-.81,2.36-1.13,3.56q.19,1.09.4,2.16a42.68,42.68,0,0,1,1.2-7.29q-.3-2-.71-4Q198.21,405.47,197.46,409.06Z"/><path class="cls-23" d="M202.21,400.82l.08.06c0-.14,0-.29,0-.43Z"/><path class="cls-23" d="M243.33,390q2,1.85,4,3.72-1.57-3.08-3.35-6.19Q243.62,388.8,243.33,390Z"/><path class="cls-23" d="M522.57,397.9l-.3.42c0,.29.06.58.09.87q1.18-2.35,2.13-4.73-1.12,1.84-2.17,3.68Z"/><path class="cls-23" d="M387.21,394.82l1.94,1.18q-.13-1.66-.33-3.34c-.47-.87-1-1.74-1.45-2.61-.22,1.34-.48,2.67-.76,4Z"/><path class="cls-23" d="M141.28,389.56q.54,1.7,1,3.39l.14-.12q-.42-1.85-.8-3.71Z"/><path class="cls-23" d="M148.66,388.66c.83,3.07,1.74,6.08,2.71,9q1.87-2,3.85-4c.07-.47.15-.94.24-1.4,0,.34.08.69.12,1l.81-.8A100.66,100.66,0,0,1,157.7,377C154.42,380.85,151.41,384.76,148.66,388.66Z"/><path class="cls-23" d="M125.66,401.51q.81-3,1.45-6.13l-.14-.57q-1.25,2.26-2.39,4.48Q125.13,400.41,125.66,401.51Z"/><path class="cls-23" d="M114.47,393.17c-.43-.91-.87-1.83-1.32-2.74l-.14.32Q113.72,392,114.47,393.17Z"/><path class="cls-23" d="M110.26,385.72q.41.81.84,1.63l.25-.44c-.3-.58-.61-1.15-.93-1.73Z"/><path class="cls-23" d="M210,458.23c-.25-.45-.51-.9-.77-1.34,0,.35,0,.56,0,.56l-1.16-.25c-.81,1.13-1.56,2.16-2.26,3.09l.51.9C207.38,460.31,208.63,459.32,210,458.23Z"/><path class="cls-23" d="M256.81,457l-.62-1.06q-.15.68-.27,1.34l.45,1.26C256.52,458,256.67,457.49,256.81,457Z"/><path class="cls-23" d="M48.16,452.79H48l-.62-.48c.08.74.15,1.47.21,2.2C47.75,453.95,48,453.37,48.16,452.79Z"/><path class="cls-23" d="M156.48,398.43q-.06-1.51-.08-3.05l-.43.5Q156.19,397.15,156.48,398.43Z"/><path class="cls-23" d="M98,376.23q.71,1.08,1.39,2.17-.55-1.73-1.19-3.45C98.14,375.37,98.07,375.8,98,376.23Z"/><path class="cls-23" d="M72.57,402.71l0-.09,0,0Z"/><path class="cls-23" d="M93.45,369.88c.11-.41.23-.82.35-1.23l-.53,1Z"/><path class="cls-23" d="M433.06,400q.16-1.15.35-2.29l-.8-1C432.74,397.82,432.9,398.9,433.06,400Z"/><path class="cls-23" d="M403.62,385.68l2.44,1.52q-1.32-2.42-2.83-4.83Q403.4,384,403.62,385.68Z"/><path class="cls-23" d="M421.2,405.75l1,.64.08-.1q.42-1.64.92-3.27l-2.1-1.95Q421.09,403.43,421.2,405.75Z"/><path class="cls-23" d="M441.59,401.6q.2-2,.32-4c-.28,1.09-.62,2.19-1,3.28Z"/><path class="cls-23" d="M340.6,416.71q.17-1.16.32-2.33c-.21.67-.44,1.35-.68,2Z"/><path class="cls-23" d="M324.18,409.34l1.09.78.24-.87c0-.54,0-1.08.06-1.63l-1.8-1.78C324,407,324.08,408.18,324.18,409.34Z"/><path class="cls-23" d="M298.41,384l.49.29-.61-.63Z"/><path class="cls-23" d="M356.27,408.46l.08-.5-.22-.28C356.18,407.95,356.23,408.21,356.27,408.46Z"/><path class="cls-23" d="M448.37,387.84c0-.18.05-.36.09-.54l-.22-.28C448.29,387.3,448.33,387.57,448.37,387.84Z"/><path class="cls-23" d="M495.32,391.23q.61.89,1.19,1.78-.41-1.22-.86-2.45Z"/><path class="cls-23" d="M162.88,395a64.76,64.76,0,0,1,2.58-9.36q-1.48,1.48-2.91,3Q162.64,391.89,162.88,395Z"/><path class="cls-23" d="M506.72,393.86q.25.48.47,1,1-3,2.13-5.93-.39-.75-.79-1.49Q507.73,390.65,506.72,393.86Z"/><path class="cls-23" d="M458.22,395.58q.72.87,1.41,1.74.92-1.15,1.79-2.3-1.13-2.66-2.41-5.36A47.52,47.52,0,0,1,458.22,395.58Z"/><path class="cls-23" d="M452.88,387.88c0,.6.06,1.2.1,1.79q.84.88,1.65,1.77a62.55,62.55,0,0,0,1.61-7.33c-.49-.93-1-1.87-1.51-2.81Q453.67,384.58,452.88,387.88Z"/><path class="cls-23" d="M470.4,397l.16.15c.67-2.48,1.43-5,2.28-7.46-.16-1-.35-2-.55-3A91.12,91.12,0,0,1,470.4,397Z"/><path class="cls-23" d="M184.65,420.93l.17-.39a40.89,40.89,0,0,1-.28-5.53q-.29-.75-.56-1.5-.42,1.66-.93,3.32Q183.83,418.92,184.65,420.93Z"/><path class="cls-23" d="M217.33,389.78q.62-.9,1.27-1.78l-.9-.68Q217.51,388.56,217.33,389.78Z"/><path class="cls-23" d="M237.53,383.39q1.12-1.31,2.3-2.6-1.23-1.91-2.55-3.82Q237.56,380.16,237.53,383.39Z"/><path class="cls-23" d="M205.61,403.71l.84.75q.16-2,.24-4L204.93,399C205.1,400.6,205.33,402.16,205.61,403.71Z"/><path class="cls-23" d="M218.51,391.89c1,.78,2,1.57,3,2.36.37-.69.77-1.37,1.19-2-.26.81-.49,1.62-.71,2.44l.46.38c.41-1,.84-2,1.27-3q-1.85-1.49-3.78-3Q219.2,390.46,218.51,391.89Z"/><path class="cls-23" d="M283.26,396.67q3.23,2.92,6,6,1.15-.91,2.33-1.81-3.47-2.75-7.2-5.48Z"/><path class="cls-23" d="M199.19,395.52q1.24,2.25,2.23,4.56.46-1,1-2,0-.47.08-.93-1.61-1.21-3.28-2.41C199.2,395,199.2,395.27,199.19,395.52Z"/><path class="cls-24" d="M1084.75,462.53A226,226,0,0,0,1096,427.06V412.75A217.12,217.12,0,0,1,1086,447a96.1,96.1,0,0,0,2.09-18c4.06-6.72,7-13.54,7.87-20v-1.31a84.57,84.57,0,0,1-7.89,15.23,88.34,88.34,0,0,0,1.84-15.79,168.53,168.53,0,0,1-6.11,22q-1.72,2.34-3.54,4.63c6.13-32.32,9.64-71.67.24-102.9,3.31,27.55.83,56.57-3.72,82.49a30.3,30.3,0,0,0-.27-4,65.27,65.27,0,0,1-4.57,15.81,75.07,75.07,0,0,0-.4-12.3c-.19,3.17-.51,6.36-.94,9.55.62-26.41-1.84-56.56-12.48-80.55,6.49,25,7.65,51.72,6.58,75.31-.4-3.46-.91-6.91-1.52-10.32,2.22-14.3,1.91-29.05-3.4-42.26a105.06,105.06,0,0,1-.14,27.44l-.19-.62c-.19-14.67-1.87-29-5.77-42,3.07,25.56,1.15,52.39-2.77,76.84-1.14,3.07-2.33,6.05-3.55,8.93,3-17.28,4-35.41.41-50.9a168.94,168.94,0,0,1-1.12,28.29c-.21-14.35-3-29.46-10.95-42.59a100.77,100.77,0,0,1,4.67,21.07,136.08,136.08,0,0,0-9.08-30.63,232.61,232.61,0,0,1,6.8,51.28,64.28,64.28,0,0,0-2.7-7.94,71.78,71.78,0,0,0-4.66-29.05,98.9,98.9,0,0,1,.72,17.69c-.08-.23-.16-.46-.25-.69.08.4.15.8.22,1.21-.18,3.58-.53,7.13-1,10.66-.53-1.39-1.09-2.76-1.68-4.11q.76,3,1.41,6c-.59,3.77-1.33,7.5-2.21,11.17a86.34,86.34,0,0,0-1.79-11.32,158.16,158.16,0,0,1-.24,19q-1.22,4.19-2.62,8.22-.19-3-.43-6.1c2.43-9.64,3.14-19.54.45-28.51a71.45,71.45,0,0,1-1.56,16.46c-3.1-28.45-9.86-59.48-23.73-84.29,7.68,20.74,12.28,42.64,14.9,63.53a69.63,69.63,0,0,0-6.23-13.44,101.18,101.18,0,0,1,4.76,21.9c-1.26-2.59-2.59-5.12-4-7.56,1.66,4.11,3.13,8.28,4.45,12.49a127.27,127.27,0,0,1,.13,13.56,78.21,78.21,0,0,0-2.42-7.79c.6,3.16,1.07,6.35,1.44,9.56q-.37-1.65-.76-3.31a48.23,48.23,0,0,0-4.54-17.2c-6.05-20.54-14.65-41.55-26.88-58.72,12.54,24.37,20.3,50.91,25.1,74.55a167.73,167.73,0,0,0-11.52-25.2c-3.83-14.63-9-28.8-16.06-41.38A247.86,247.86,0,0,1,984.07,376a100.56,100.56,0,0,0-11.59-19.58,141.09,141.09,0,0,1,11.92,35A116.21,116.21,0,0,1,978,404.5c-5.39-14.37-12.19-28.35-20.79-40.42,2.48,4.82,4.77,9.73,6.89,14.68a115.67,115.67,0,0,0-9-11.66,94.77,94.77,0,0,0-4.7-31.85,144.75,144.75,0,0,1-.49,34.84c-.36-.49-.71-1-1.08-1.46.34.68.67,1.37,1,2.05a203,203,0,0,1-5.42,26.61,123.23,123.23,0,0,0-7.28-10.93c-.66-15.25-3.64-31-10.81-44.84a142.86,142.86,0,0,1,5.42,38.16q-1.77-2-3.66-4,1.92,2.73,3.67,5.49a190.11,190.11,0,0,1-1.06,20.67,92.58,92.58,0,0,0-4.69-21c.3-11.63-1-23.17-4.65-33.85,2.22,19.3-.24,39-4.68,57q-1.09-1.06-2.22-2.11c1.56-9.53,1.71-19.12-.56-27.94a101.6,101.6,0,0,1-2.75,25l-.06-.05c0-.24.07-.48.1-.72-.87,1.77-1.86,3.53-3,5.3-.15-16.89-2.93-34.73-11-50.21,5.27,18,6.15,36.6,5,53.44l-1.18-.88c.09-9.5-1.22-19.13-5-27.79a89.94,89.94,0,0,1,1.75,17.23A73.31,73.31,0,0,0,893.18,384a115.29,115.29,0,0,1,4.12,23.21c-.31,3.16-.73,6.25-1.25,9.27-.36-1-.76-1.92-1.2-2.85.37,1.5.66,3,.91,4.5q-.13.74-.28,1.47l-.25.26a57.38,57.38,0,0,0-3.29-18.12,57.36,57.36,0,0,0-1.71-13.42,105,105,0,0,1-3.68,28.78l-.12-.57c-.33-27.3-5-62.76-23.4-90.87,9.26,21.56,13.37,44,14.77,64.29a86.34,86.34,0,0,0-7.05-12.26,127.07,127.07,0,0,1,7.48,20.41c.25,7.08.19,13.81-.06,20.05l-.6,1-.19-1.12c-.12-8.8-1.5-17.64-5-25.64.53,2.58.92,5.18,1.2,7.77-1.22-4.87-2.64-9.9-4.3-15,.46-10.12-1.21-20.17-6.13-29.46a74.39,74.39,0,0,1,1,15.61,145.61,145.61,0,0,0-22-37.42,199.74,199.74,0,0,1,20.78,48.89q-.35,2.11-.8,4.21l-.26-.5a88.74,88.74,0,0,0-5-21.58,135.63,135.63,0,0,1,1.4,15q-1.63-2.76-3.41-5.44a130.49,130.49,0,0,0-15.57-34.52c10.27,23.92,14.21,49,15.13,70.87l-.65,1.48-.55-1a33.08,33.08,0,0,0,.58-4c-.29.76-.59,1.53-.91,2.29v-.1l0,.2-.23.55a103.28,103.28,0,0,0-7-11,71.13,71.13,0,0,0-6.84-26.39,61.25,61.25,0,0,0-2.61-8.13c.18,1.36.33,2.72.45,4.09a63.72,63.72,0,0,0-5.23-7.65,79.63,79.63,0,0,1,5.13,15.54,138.86,138.86,0,0,0-18-28.47,194.63,194.63,0,0,1,17.95,39.62q-.37,4-1,7.86-.85-1.48-1.74-2.94a82.23,82.23,0,0,0-3.7-13.1c.45,2.95.78,5.92,1,8.91l-.16-.24c0-.07,0-.14,0-.21,0-.55-.08-1.1-.13-1.65,0-.21,0-.43-.06-.64a65.93,65.93,0,0,0-4.34-18.45q.16,1.18.28,2.36c-.56-1.3-1.16-2.6-1.84-3.87a74.37,74.37,0,0,1,1,15.56c-.37-.46-.73-.92-1.11-1.37.37.61.73,1.23,1.08,1.84a95.73,95.73,0,0,1-3.22,20.6l-.25-.41q-.22-2-.52-4c.86-11.45-.21-22.93-4.43-33.43a99.24,99.24,0,0,1,.69,18.27,69.4,69.4,0,0,0-6-12.88,102,102,0,0,1,5,23.82l-.84-1.2a31.29,31.29,0,0,0-1.2-3.71c0,.69,0,1.39,0,2.08q-2.33-3.19-4.86-6.27a62,62,0,0,0-3-10c.32,2.39.54,4.79.67,7.19q-.8-.92-1.62-1.83a67.41,67.41,0,0,0-3.86-7.4c.55,1.62,1.05,3.25,1.51,4.88-.78-.82-1.57-1.63-2.38-2.43q1.37,1.76,2.68,3.54a105.87,105.87,0,0,1,3.28,19.62c0,.32-.06.64-.09,1q-.88-1-1.77-2a65.43,65.43,0,0,0-9-21.27,67,67,0,0,0-3.18-5.94c.3.87.57,1.73.84,2.6-.36-.48-.72-1-1.1-1.44.9,2,1.68,4,2.39,6a103.16,103.16,0,0,1,2.29,11.87l-1.46-1.41c.32.74.56,1.51.85,2.25l.85,1c.05.44.1.88.15,1.32,0,.11,0,.22,0,.34l0,.15a125.23,125.23,0,0,1,.42,18.87c-.38,2.24-.87,4.47-1.43,6.68a67.91,67.91,0,0,0-4.15-14.45,71.78,71.78,0,0,0-4.66-29.05,99.24,99.24,0,0,1,.68,18.27q-.67-1.9-1.44-3.77a118.21,118.21,0,0,0-13.26-25,182.79,182.79,0,0,1,13.34,41.59q-.7,4.4-1.66,8.71A45.77,45.77,0,0,0,782,401.4a66.63,66.63,0,0,1,1.74,14.77c-.33-.89-.69-1.78-1.06-2.66A45,45,0,0,0,781,397.9a67.41,67.41,0,0,1-.62,10.94c-.43-.81-.88-1.61-1.35-2.4q.63,1.86,1.16,3.73c-.21,1.36-.46,2.72-.73,4.07a167.44,167.44,0,0,0-7.19-15.16,71.9,71.9,0,0,0-7.88-18.93,96.26,96.26,0,0,1,2.89,10.38q-1.27-2-2.61-4a105.28,105.28,0,0,0-15.76-30.17A135.54,135.54,0,0,1,757,376.54q-.86-1-1.75-2c.76,1.16,1.49,2.33,2.21,3.51,1.34,4.46,2.45,8.9,3.35,13.3-.22.54-.44,1.07-.67,1.61a108.57,108.57,0,0,0-7.36-12.11c2.3,4.92,4.31,9.92,6.09,15-1.42,3.05-3,6.08-4.69,9.07A145.82,145.82,0,0,0,746.75,389a107.22,107.22,0,0,0-15.51-31.21,88.27,88.27,0,0,0-4.42-22.55,144.74,144.74,0,0,1-.48,34.84c-.36-.49-.71-1-1.08-1.46.34.68.67,1.37,1,2.05-.53,4-1.2,8-2,11.94a117.66,117.66,0,0,0-11.5-15.53,94.78,94.78,0,0,0-4.7-31.84,134.64,134.64,0,0,1,.69,21.29,87.62,87.62,0,0,0-6-15,136.27,136.27,0,0,1,5,27.78c0,.26-.06.53-.09.79-.36-.49-.71-1-1.08-1.46.34.68.67,1.37,1,2q-.47,3.57-1.08,7.09-1-1-1.94-2.07c.63.89,1.24,1.79,1.84,2.69q-.81,4.66-1.84,9.21-.89-3.39-2.08-6.7c.3-11.63-1-23.18-4.66-33.86a149.88,149.88,0,0,1-1.45,41.38q-.74-1-1.5-2.05c-.66-15.26-3.64-31-10.81-44.85a142.88,142.88,0,0,1,5.42,38.17q-1.77-2-3.66-4,1.92,2.73,3.67,5.5,0,4.45-.17,8.8c-.38,2.6-.86,5.19-1.42,7.75a89.39,89.39,0,0,0-4.15-16.85c.3-11.63-1-23.18-4.65-33.85a134.66,134.66,0,0,1,.68,21.3,87.62,87.62,0,0,0-6-15,136.3,136.3,0,0,1,5,27.8q-.77,6.21-1.94,12.27a59.83,59.83,0,0,0-4.18-15.31,90,90,0,0,1,1.75,17.22c-.33-1-.69-2.07-1.06-3.1A60.77,60.77,0,0,0,671.58,374a91.39,91.39,0,0,1-.62,12.74c-.43-.94-.88-1.87-1.35-2.79q.63,2.17,1.16,4.34c-.47,3.6-1.13,7.17-1.94,10.7l-.06-.05c0-.24.07-.48.1-.72-.18.37-.38.74-.57,1.11a55.76,55.76,0,0,0-1.63-11.07,92.39,92.39,0,0,1-.77,13.94c-.28-16.5-3.12-33.82-10.94-48.91A136.82,136.82,0,0,1,660,382c-3.13-19.16-9.25-39.13-20.5-56.34,9.26,21.55,13.38,44,14.77,64.29a86.34,86.34,0,0,0-7-12.25,123.89,123.89,0,0,1,5.7,14.48,119.41,119.41,0,0,1,1.93,13q0,1.83,0,3.63c-.28,2.54-.64,5-1,7.49a65.7,65.7,0,0,0-4.92-23.9c.53,2.58.92,5.17,1.2,7.77q-.29-1.18-.61-2.37a54.71,54.71,0,0,0-1.53-9.47q0,2,0,3.91-1-3.5-2.17-7.06c.46-10.12-1.21-20.17-6.13-29.46a74.39,74.39,0,0,1,1,15.62q-1.58-3.83-3.37-7.65a132.85,132.85,0,0,0-16.57-38,172.88,172.88,0,0,1,7.57,21.52,127.73,127.73,0,0,0-9.59-13.28,186.38,186.38,0,0,1,12.43,24.74c1.52,7,2.63,14,3.4,20.83q-1.51-2.54-3.16-5a130.5,130.5,0,0,0-15.57-34.52,172.49,172.49,0,0,1,7.29,20.56,51.16,51.16,0,0,0-2.22-4.8,74.39,74.39,0,0,1,1,15.62,145.61,145.61,0,0,0-22-37.42,199.72,199.72,0,0,1,20.78,48.89q-.29,1.73-.64,3.46a64.65,64.65,0,0,0-12-24.78,122,122,0,0,0-11.08-21.53,173,173,0,0,1,7.57,21.52,127.78,127.78,0,0,0-9.6-13.29,186.45,186.45,0,0,1,12.44,24.76c1.52,7,2.62,14,3.4,20.81q-1.65-2.77-3.46-5.46s0-.09,0-.14c0-.61-.09-1.23-.14-1.84,0-.16,0-.32,0-.47a66,66,0,0,0-4.34-18.5q.16,1.18.28,2.37c-.56-1.31-1.16-2.6-1.84-3.88a74.36,74.36,0,0,1,1,15.57c-.37-.46-.73-.92-1.11-1.38.37.61.73,1.23,1.08,1.84q-.13,3.22-.51,6.43a65,65,0,0,0-12.7-27.19,79.63,79.63,0,0,1,5.13,15.54,142.74,142.74,0,0,0-14.55-24.15,63.39,63.39,0,0,0-4.16-5.89,79.65,79.65,0,0,1,5.2,15.88c-1.28-1.44-2.6-2.86-4-4.26,1.69,2.57,3.24,5.15,4.68,7.74a90,90,0,0,1,1.28,14.23l-.06-.06a67.41,67.41,0,0,0-3.86-7.4c.55,1.62,1.05,3.25,1.51,4.88-.78-.82-1.57-1.63-2.38-2.43q1.37,1.76,2.68,3.54.53,2,1,4-1.66,1.62-3.24,3.26a63.88,63.88,0,0,0-3.18-6.45,61.08,61.08,0,0,0-1.53-15.77c.19-2,.45-4,.81-6q-.85,1.55-1.57,3.14a51.5,51.5,0,0,0-3.87-9.55A75.28,75.28,0,0,1,570,369a57.33,57.33,0,0,0-1.87,13.52l-.14.65q-2.58-3.06-5.43-6c-.4-.8-.82-1.6-1.26-2.39q.33-2.25.79-4.52,1.46-2.39,3.07-4.76c-.89.86-1.75,1.74-2.6,2.62A78,78,0,0,1,567.74,353a63.27,63.27,0,0,0-10.66,18.81q-1.64-1.51-3.37-3,3.51-4.27,7.51-8.49-4.69,3.58-8.82,7.38c-1-.81-2-1.62-3-2.42.86.93,1.7,1.87,2.53,2.81q-2.71,2.5-5.18,5.07a63.61,63.61,0,0,0-9.48-16.46,80.44,80.44,0,0,1,6,20.19q-2.57,2.88-4.89,5.81a37.72,37.72,0,0,0-2.44-4.39c.69-.83,1.39-1.67,2.11-2.49-.79.65-1.56,1.32-2.32,2a79.14,79.14,0,0,1-.72-30.2,50.54,50.54,0,0,0-3,6.65A99.55,99.55,0,0,0,517,373.41c-.38-1.14-.77-2.29-1.19-3.44q.74-1.26,1.52-2.5-.89.94-1.75,1.9-1-2.75-2.22-5.5l1.29-1.51-1.42,1.21q-1.29-2.92-2.79-5.82A52.67,52.67,0,0,0,505,341.19a71.79,71.79,0,0,1,1,8.82,99.27,99.27,0,0,0-13.73-17.07,119.28,119.28,0,0,1,13.55,27.8A94.46,94.46,0,0,1,504,372.51q-3.11,3.43-5.86,7A132.55,132.55,0,0,0,488.22,364c1.67-3.36,3.52-6.7,5.59-10a87.5,87.5,0,0,0-6.9,8.27,126.88,126.88,0,0,0-12-13.45c-.55-.75-1.11-1.51-1.7-2.25.15.34.3.69.45,1q-4.13-3.91-8.81-7.61a151,151,0,0,1,11.07,13.43,82.78,82.78,0,0,1,3.92,17.79,99.35,99.35,0,0,0-18.81-26,119.42,119.42,0,0,1,6.28,10.69,87.64,87.64,0,0,1-2.75,31.68c-2-3.42-4.28-6.85-6.76-10.24-.22-.78-.48-1.54-.77-2.31.21-.5.42-1,.64-1.51-.27.36-.53.73-.79,1.09l-.05-.14c0,.07,0,.14,0,.21l-.49.69c-.81-1.07-1.65-2.15-2.51-3.21,0-.17.05-.35.09-.52l-.2.38a126.53,126.53,0,0,0-20.05-19.74,150.59,150.59,0,0,1,12.68,15.67q-1.39,1.76-2.61,3.57a63.54,63.54,0,0,0-8.8-14.81,80.3,80.3,0,0,1,5.9,19.5,63.6,63.6,0,0,0-3.93,8.43,37.75,37.75,0,0,0-3.52-6.68,50.24,50.24,0,0,1,2.11,10.81c-.23.77-.45,1.53-.66,2.3a53.48,53.48,0,0,0-3-5,87,87,0,0,1,1.61-19.58,58.8,58.8,0,0,0-5.92,21.23c-.94-.81-1.9-1.61-2.87-2.41a80.31,80.31,0,0,0,2.1-19c.58-1.57,1.19-3.12,1.87-4.67-.68.9-1.32,1.83-1.94,2.76a54.38,54.38,0,0,0-6.12-23.17c2.3,13,.79,26.21-2.79,38.76l-1.52-1.08c-.79-2.87-1.69-5.75-2.74-8.64a69.74,69.74,0,0,1,1-8.73,50.45,50.45,0,0,0-2.41,5.1,99.94,99.94,0,0,0-22.25-33.66,119.19,119.19,0,0,1,12.72,25.42,56.58,56.58,0,0,0-2.8,8.88,64,64,0,0,0-11-20.66,83.59,83.59,0,0,1,7.15,33.23,133.14,133.14,0,0,0-8.56-13.69,52.31,52.31,0,0,0-5.15-14.81,72,72,0,0,1,1,9.34A126.5,126.5,0,0,0,362.48,340a148.93,148.93,0,0,1,20.73,28.49,89.45,89.45,0,0,1-1,9.36q-1.46-1.55-3-3.07a99.59,99.59,0,0,0-20.51-29.6A121.81,121.81,0,0,1,377.6,396c-.89,2.6-1.86,5.17-2.89,7.69q-1.13-1.26-2.33-2.5c2.74-9.08,3.36-18.33,0-26.76a49.05,49.05,0,0,1-.23,6.73,53.46,53.46,0,0,0-5.88-19.83,82,82,0,0,1-.92,31.26c-.13-.36-.26-.72-.39-1.09,0,.36,0,.72.06,1.08l-.62-1.14a66.67,66.67,0,0,0-13.92-34.75,80.92,80.92,0,0,1,6.37,22.64,126.83,126.83,0,0,0-25.58-27.07,148.22,148.22,0,0,1,26.37,39.64c0,1.92-.08,3.82-.19,5.71q-1.15-1.47-2.38-2.93A39.14,39.14,0,0,0,349,377.95a50.67,50.67,0,0,1,2.22,12.33q-1.5-1.59-3.09-3.15c-.91-1.4-1.89-2.78-3-4.14.33.73.63,1.47.93,2.2q-.94-.87-1.91-1.73a63.64,63.64,0,0,0-9.58-16.73,81.32,81.32,0,0,1,6.61,24.54,57.19,57.19,0,0,1-1.68,10.63q-2-2.26-4.15-4.5c-2.41-20.86-10.16-44.77-29.95-64.47a122.43,122.43,0,0,1,19.39,54.46l-1.21-1a74.77,74.77,0,0,0-8-8.79q1.83,2.53,3.42,5.09-4.66-3.61-9.83-7A127.71,127.71,0,0,0,278,340a148,148,0,0,1,30.81,50.59l-1.46-1a107.54,107.54,0,0,0-12.64-14.82,99.58,99.58,0,0,0-20.51-29.6,120.48,120.48,0,0,1,17.39,41.94c-2.92,2.16-5.68,4.44-8.29,6.78q-1.43-.84-2.88-1.65a132.34,132.34,0,0,0-11.37-17.54A135.19,135.19,0,0,1,279.54,361a104.53,104.53,0,0,0-12,11.73q-2-2.51-4.19-5a98.94,98.94,0,0,0-7.67-9.9c1-1.74,2-3.47,3.06-5.19-1.34,1.41-2.61,2.86-3.82,4.33q-1.71-1.89-3.55-3.74,2.24-2.87,4.69-5.69-3.72,3.08-7,6.4-1.06-.87-2.15-1.73.94,1,1.84,2a111.46,111.46,0,0,0-12.58,15.2,52,52,0,0,0-4.81-13.14,72.64,72.64,0,0,1,1.07,11.2q-3.67-3.45-7.77-6.74a119.15,119.15,0,0,1,10.61-21.57c-12.2,12.89-19.32,28.41-23.37,43.53l-1.44-.8a64,64,0,0,0-10.83-20.22,80.93,80.93,0,0,1,6.4,22.8q-4.23-4.43-9.11-8.64a51.93,51.93,0,0,0-1.92-5.37,83.85,83.85,0,0,1,4.15-11.82,60.29,60.29,0,0,0-5.51,8.87c-.18-.37-.36-.74-.56-1.11.1.56.18,1.13.27,1.69-5.54,11.17-7.6,23.55-7.81,35.23l0-.14a34,34,0,0,0-2.24-13.65,48.35,48.35,0,0,1-.11,5.44,66.73,66.73,0,0,1-1.86-21c-3.48,8.89-2.93,19.15-.47,29.16-1-.74-1.93-1.48-2.91-2.21-4.27-15.68-6.36-32.89-3-49.28-4.23,8.3-6,17.49-6.25,26.89q-.64,1.21-1.21,2.44a63.43,63.43,0,0,0-4.32-6.83,90.16,90.16,0,0,1,7-27.34,65.4,65.4,0,0,0-10.95,23.55,138.81,138.81,0,0,0-12.32,10.35c-.84-4-1.51-8-2-12.12q2.45-3,5.12-5.87-2.72,2.28-5.24,4.7a92.11,92.11,0,0,1,1.09-27.66c-5.11,10-6.7,21.37-6.18,32.79q-1.77,1.89-3.44,3.83a99.7,99.7,0,0,0-13.31-21,150.52,150.52,0,0,1,9.79-15.8,113.3,113.3,0,0,0-11.46,13.83c-1.56-1.79-3.19-3.56-4.93-5.29,1.44,2.18,2.78,4.38,4,6.58a133.93,133.93,0,0,0-11.36,20.2,126.73,126.73,0,0,0-8.82-9.77,139.1,139.1,0,0,1,11.55-32.61,104.28,104.28,0,0,0-15.47,28.86q-2-1.85-4.16-3.65a154.85,154.85,0,0,1,16.71-30.4,123.14,123.14,0,0,0-23,33.73l-.67-.69.58.9A161.22,161.22,0,0,0,77,384.16a62,62,0,0,1,1.21-6.66,42.8,42.8,0,0,0-2.77,6.9q-1.34-1.55-2.74-3.09a98.57,98.57,0,0,1,7.2-16.43,72.21,72.21,0,0,0-7.12,10.51c1.41-17.39,5.57-36.66,14.93-55.15C75,336.8,68.72,356.33,66,374.52q-3.89-3.64-8.26-7.1Q62,372,65.63,376.73c-.62,4.53-1,9-1.29,13.23a63.32,63.32,0,0,0-3.63-6,66,66,0,0,1-.5-9.94,40,40,0,0,0-1.46,7.24c-.28-.37-.56-.74-.85-1.1.27.6.52,1.19.77,1.79-.11,1.19-.17,2.38-.19,3.59a43.07,43.07,0,0,0-3.36,16.32q-.26-1.12-.51-2.26c.25-1.29.55-2.58.92-3.87-.45.81-.84,1.63-1.21,2.47-.52-2.59-1-5.25-1.26-8a85.51,85.51,0,0,1,4.17-19.92A58,58,0,0,0,52.52,380a65.91,65.91,0,0,1,1.77-14.78c-4.17,8.19-5.35,17.39-4.94,26.34q-.39,2.08-.66,4.17c-2-15.92-1.65-34.17,4.42-51.76-9.14,15-11.56,32.52-11,48.56-3.67-9.83-6.1-20.4-5.8-30.81-2.87,9.49-1.91,20,.9,30.18l-1.87-1.23q-1.23-3.1-2.68-6.18c-3.95-14.62-6-30.42-3.89-45.92a71.05,71.05,0,0,0-4.71,29q-.28.66-.54,1.31-2.38-3.33-5.12-6.56a103.3,103.3,0,0,1,5.34-28.53,73.82,73.82,0,0,0-9.21,24.25c-.56-.59-1.13-1.18-1.71-1.76q.81,1.23,1.58,2.46a113.27,113.27,0,0,0-1.21,30.92,55.58,55.58,0,0,1-1.33-6.39,32.61,32.61,0,0,0,0,8.29q-2.62-3.82-5.62-7.59A153.9,153.9,0,0,1,0,359.15V388.5c1.15,3.91,2.42,7.71,3.77,11.35Q3,399,2.15,398.24,1.13,396,0,393.79V419l.62.84c0,.33.08.65.13,1L0,420.17v6.72l1.49,1.38q.14,1.86.22,3.68Q.88,430.88,0,429.83v5.29q1,1.61,1.87,3.2c0,1.72,0,3.4-.08,5.05l-.83-.9q-.43-1.34-1-2.67v22.73H75q1.24-2,2.49-4.19c.6,1.42,1.13,2.82,1.59,4.19h94c2-2.94,4.13-6.27,6.31-9.91,1.55,1.41,2.95,2.66,4.16,3.72-1.84,2.15-3.75,4.21-5.67,6.19h49.34L227,462l1.42.12.15.36H363.42c.07-.3.14-.61.21-.93l2.78-1.75,4.38-.81c-.09,1.24-.2,1.93-.2,1.93l2.11-.2c0,.64,0,1.23,0,1.76h9.48c0-.7-.11-1.57-.2-2.58l3.49-.25c-.58,1-1.13,1.84-1.64,2.64l-.2.19H403.3c.29-2,.67-5.14.85-9.12l1.88-.2,1.28,1c-.42,1.38-.89,2.7-1.38,4-.94,1.81-1.8,3.3-2.48,4.4h8.95c.55-.7,1.14-1.46,1.75-2.28,1.14,1,2.06,1.76,2.68,2.28h473c.39-.61.88-1.41,1.46-2.37-.11.47-.23.94-.34,1.4l-.33,1h14c2.15-4.71,4.66-10.57,7.19-17.23q1.87,2.08,3.61,4.16c-2.5,4.68-5.21,9.08-7.88,13.07h30.07l2.17-2.14c.52.71,1.06,1.42,1.57,2.14h12.24a69.65,69.65,0,0,0-1.05-7.45q1.59,3.75,3,7.45H1074.4a206.32,206.32,0,0,0,11.28-29.63l.92-1.39a170.71,170.71,0,0,1-8.22,31Zm-11-33.44c-1.25,5.82-2.57,11.4-3.92,16.7l-.57.6c.06-.67.12-1.34.18-2,.6-2.88,1.12-5.76,1.53-8.63C1072,433.55,1072.95,431.32,1073.76,429.09Zm-12.41.27c-1.63,2.79-3.43,5.55-5.36,8.27q.38-2.54.73-5.1c1.6-4.67,3.06-9.56,4.28-14.57C1061.21,421.79,1061.32,425.6,1061.35,429.35Zm-27.78-1.22c-.16,4-.43,8-.79,11.84q-.57-1.75-1.25-3.42c.41,1.83.75,3.67,1,5.52q-.17,1.71-.37,3.4a107.13,107.13,0,0,0-1.38-13c.83-3,1.58-6.11,2.23-9.24C1033.24,424.85,1033.41,426.49,1033.56,428.13ZM929.38,459.59l.86-1.73.25.6-1.05,1.23ZM24,377.66q.77,1.93,1.47,3.85a146.45,146.45,0,0,0,5.21,21.22q-3.4-2.17-7-4.23A106,106,0,0,1,24,377.66Zm235.5-9.86q2.32,4.9,4.11,9.79-2.17,2.78-4.12,5.63c-1.4-1.23-2.85-2.45-4.36-3.64,1.34,1.45,2.62,2.92,3.85,4.38-2,3-3.92,6.09-5.63,9.16A130.47,130.47,0,0,0,245.52,382a124.24,124.24,0,0,1,8.63-21.23Q257,364.25,259.46,367.8Zm709.69,48.3q-.5-2.54-1.1-5.1,1.25,2.72,2.41,5.47l-.56.82C969.65,416.88,969.4,416.49,969.15,416.09Zm36,20-.23,1-.27-.91q-.1-1.76-.32-3.51Q1004.72,434.37,1005.11,436.06Zm-3.76-11.88c.17,1.16.32,2.32.42,3.48l-.52-1.39Q1001.32,425.22,1001.35,424.18Zm.47,13.43c-.08,1.22-.19,2.43-.34,3.63a28.13,28.13,0,0,0-.91-3.32c.09,1.15.12,2.3.12,3.46q-.29-3.18-.65-6.41.27-1.35.5-2.71Q1001.22,434.94,1001.82,437.61ZM966.44,404.8q.75,1.43,1.46,2.86l-.93-1Q966.71,405.75,966.44,404.8Zm.63,2.28q.88,1.2,1.71,2.42.62,1.3,1.2,2.6-1.35-2.3-2.78-4.53Zm5.31,14.08c.28.72.56,1.44.84,2.16q-.48-1-1-1.93Zm27.18-5.37q-.15,2.57-.5,5.13-.64-1.46-1.31-2.9c-.69-4.3-1.48-8.61-2.37-12.91q.88,1.64,1.72,3.3Q998.4,412.1,999.56,415.79Zm-12,20.07q-.45-1.81-.92-3.63c0-.37-.06-.74-.09-1.11q.56,1.28,1.1,2.56Q987.65,434.78,987.6,435.85Zm-11.87-19.4-.2-.4.07-.11ZM973.41,412a106.73,106.73,0,0,0-6.84-10.86,52.22,52.22,0,0,0,.81-9.37,172.67,172.67,0,0,1,6.79,19Zm-9.69,13.63q-1,1.29-2,2.56-1-1.45-2-2.87L959,424c1.35-2.88,2.6-5.83,3.71-8.81C963.14,418.75,963.49,422.24,963.72,425.66ZM944.4,437.71q-.65,1.21-1.32,2.4-1-1.86-2-3.74.75-1.1,1.49-2.22Q943.49,435.93,944.4,437.71Zm-7.25,5,.8-1.92.4-.56q1.08,2.28,2.05,4.49l-.89,1.45C938.78,445,938,443.83,937.15,442.69Zm13.76-3.75c.19.43.38.87.56,1.3l-1.68,1.84-.39-.7Q950.16,440.19,950.91,438.94Zm-.18-15.13q-.25.67-.51,1.33-.54-1-1.11-2,.46-.87.9-1.73Q950.39,422.61,950.74,423.81Zm-2.27,5.58,0,.05q-.81-1.09-1.64-2.17l.45-.78Q947.89,427.94,948.47,429.39Zm-2.52.22q.72,1.13,1.38,2.27-.78,1.66-1.61,3.29-.94-1.51-1.9-3,.94-1.48,1.85-3Zm-9.55-7.9-.71-.91c.4-1.39.77-2.77,1.09-4.15l1,1.34C937.33,419.25,936.87,420.49,936.4,421.71Zm-1,0,.6,1c-.43,1.11-.86,2.19-1.29,3.27l-.27-.41c.09-.56.19-1.12.28-1.7S935.19,422.47,935.41,421.76Zm-13.27,12.61-.67-1,.74.8Zm12.23,14.75q.86,1.19,1.69,2.37l-.82,1.2-.63.79-.82-.81c.25.3.48.62.73.92l-.7.87q-.48-1-1-2Q933.56,450.9,934.36,449.11Zm19.16-3.36q.29.89.56,1.78l-1-1.25Zm5.06-16-.32-1c.37.79.74,1.57,1.1,2.36l0,.05C959.08,430.7,958.83,430.24,958.58,429.78Zm-5.43-15.17q.52-1.25,1-2.5-.3,1.48-.67,3Zm-4.57,2.26q-.77,1.35-1.57,2.68l-.88-1.4q.69-2.21,1.35-4.48C947.87,414.75,948.23,415.82,948.59,416.88Zm-3.22,5.37L944.25,424h0q.41-1.2.8-2.42Zm-7.19-5.32L937,415.64a60.46,60.46,0,0,0,1.09-6.84q1,1.54,1.85,3.08Q939.08,414.45,938.18,416.92Zm-1.44-10.24h0ZM926,421.35c0-.69-.09-1.38-.16-2.07a65.46,65.46,0,0,1-1.6,8.22q-2.35-2.69-4.88-5.34,1.33-4.84,2.47-9.89,2.31,3.18,4.4,6.36Q926.14,420,926,421.35Zm-2.65,9.28q-.33,1.09-.7,2.18-2.17-2-4.48-4l-.55-.72q.52-1.7,1-3.44Q921.13,427.68,923.37,430.63ZM911.8,421q-.78-.89-1.58-1.77.48-1.52.93-3.06l1.63,1.77Q912.29,419.46,911.8,421ZM92.06,372.48l.47.94q-.62,2.5-1.14,5-.54-1.24-1.15-2.47.58-1.27,1.19-2.55Zm42.28,21.33-.29.34c0-.54,0-1.08,0-1.62C134.18,393,134.26,393.39,134.34,393.81Zm33-1.79a92.2,92.2,0,0,1,1.11,17.53l-1.81-1.19A95.89,95.89,0,0,1,167.33,392Zm126.59,10.65q.09,1,.16,1.93l-1.24,1.14q-.79-1.14-1.66-2.25l1.79-1.6Zm46.23,14,.39.48-.07.49-.37-.38-.05-.29Zm185.07-15.49q.1.68.24,1.36l0,.05-.59-.39C525,401.83,525.1,401.49,525.22,401.16Zm27.7-.91q0,1.06.09,2.12-.41.93-.85,1.84c-.14-.57-.27-1.15-.39-1.72,0,.09,0,.18,0,.27q0-.72,0-1.43ZM744,402.55l-1-1.38q.23-1.31.4-2.62Q743.72,400.56,744,402.55Zm147.28,20.93c0,.11,0,.22,0,.33l-.12.12Zm-.75,11.36Q890,437.5,889.4,440c-.13-2.37-.31-4.84-.56-7.37q1.11-1,2.18-2.11Q890.83,432.7,890.52,434.84ZM387,453.56q.22-1.14.45-2.48l2.58,0-.2.33q-1.37,1.11-2.58,2.06Zm208.69-45.93q-.25,2.17-.57,4.3l-.41-.56q-.48-2.49-1.19-5,.22-1.85.28-3.7Q594.75,405.18,595.65,407.63ZM669,416.29q0,.87,0,1.73l-.53-.41q.22-.73.44-1.46ZM43.63,433.77l.34.65-.17.42-.16-.5Q43.64,434.05,43.63,433.77ZM237.88,388l-.32.94-.27-.51c0-.08,0-.16,0-.24l.36-.41ZM428,407.66q.2,1.51.43,3l-1.71-1.22q.29-1.27.51-2.55ZM90.39,444c-.43-.8-.93-1.77-1.48-2.88.49.8,1,1.6,1.4,2.4Zm63.34-18.19q.62,1.4,1.24,2.71c-.11,1.48-.27,3-.5,4.41a23.07,23.07,0,0,0-1.2-3.26c.09.83.14,1.66.16,2.5-.58-.81-1.16-1.64-1.73-2.48q.76-2.38,1.32-4.78ZM89.06,434.2c.24,2.21.49,4.17.73,5.86q-1-1.2-2.11-2.36Q88.39,436,89.06,434.2ZM83.36,424v0h0Zm52.57,6.56q-.38-1.57-.81-3.2c0-.18,0-.36,0-.54l.37-.54.7.73Q136.08,428.8,135.93,430.55Zm10.85-11c-.07-1.15-.16-2.3-.26-3.47l1.06,1.54Q147.2,418.55,146.78,419.51Zm-12.25-.89-.53-.57q-.32-1.39-.74-2.77.53-1.13,1.09-2.28.9,1.65,1.85,3.25Q135.35,417.45,134.53,418.62Zm-16.79-2.72-.43-.68.74-1.81.46,1C118.25,414.87,118,415.39,117.75,415.9Zm-1.91,3.63-.47.78.37-1ZM83.62,423.3l-.48-.47q-.19-1-.35-2,.08-1.34.18-2.71.79,1.39,1.52,2.77Q84.06,422.11,83.62,423.3Zm7.26,23.31v.06l0-.06Zm1.15.49-.48,1L91,447Zm40-38.54v0ZM115.31,408c-.43.86-.85,1.71-1.26,2.55q-.67-.87-1.37-1.74.48-1.8,1.08-3.59C114.3,406.17,114.81,407.09,115.31,408Zm-29.14,7.81q-1.26-1.74-2.62-3.46.3-2.41.7-4.89,1.39,3.09,2.58,6.12Q86.51,414.72,86.17,415.83ZM74.82,440.46l1,.14-.39.75C75.24,441.05,75,440.76,74.82,440.46ZM176,434q.05-.62.08-1.24,1.06-1.92,2-3.89.89,1.09,1.75,2.18-1.3,2.54-2.66,5Q176.61,435.06,176,434Zm354.42-25.58.67.57c0,.25,0,.5,0,.75l0,.06c-.26-.35-.51-.71-.76-1.06ZM553,415.93c.25.79.54,1.58.85,2.37l-1.23,1.11-.58-1q0-.39,0-.78Q552.56,416.79,553,415.93Zm168.26,21-.8,1.49-.67-.65q-.27-.79-.57-1.58l1.08-1.37Q720.8,435.86,721.27,436.91Zm-25.61,3.86.4-.56.12.24q-.55,1.26-1.12,2.51l-.19-.27Zm25.56-17.83,0,.2-.57.89.42-1.26Zm-482-1.36q0-1.09.08-2.21c.07.63.14,1.26.2,1.88Zm16.63,4.85.68.72h0l-.57-.52Zm-24.55-8.26-1.11-1q1-2.56,1.9-5.17Q231.67,415.11,231.35,418.16Zm19.07,5.43q.6,1.42,1.15,2.83l-.11.14q-.7-1-1.44-2C250.15,424.22,250.28,423.9,250.42,423.59ZM282,428.86q0-1.49-.13-3,.62,1.68,1.12,3.33l-.47.5C282.31,429.4,282.15,429.12,282,428.86Zm28.71-4.71c0,.29.1.58.14.87l-.19.39C310.65,425,310.67,424.57,310.68,424.15Zm58.16,16.34,0,.08-.13.15Zm204.28-20.74c-.12.3-.24.61-.36.91L572,419.3l.49-.38Zm-1.35-1,.18-.51.21.27Zm48.73,12.36q0-.72,0-1.44c.09.33.19.67.29,1Zm-19.73,1.66-.06.09-.06-.11,0-.11ZM573.94,417.4l-.38.22-1-1.17q.31-1,.59-2l1.16,1.82C574.16,416.66,574.05,417,573.94,417.4Zm-39.23-3,0,0c0-.07,0-.14,0-.21l.18-.19Zm-44.27-8.93q-.19-1.25-.4-2.51l.1-.25q.49.86,1,1.73Zm-65.32,12.55q0-.78,0-1.57l.6.82Zm-153.8-.4c0,.55,0,1.09.05,1.63l-1.68,1.83-.22-.34c.24-.31.47-.62.72-.93-.28.25-.55.51-.82.76l-.27-.4q1.1-1.41,2.11-2.82Zm-82.64,32.2q-2.32-2.51-4.86-5.09.62-1.15,1.23-2.32c1.34,2.82,2.6,5.29,3.68,7.35Zm338.74.63-.76,1.26.06-.56Zm145.14-11.88,0,.14,0,.09Zm-4.29-15.34q-.13-.58-.27-1.15l.6.83Zm-.62-1.62q.05,1.08.07,2.15l-1.57,1.51q0-.48,0-1,.57-1.59,1.11-3.2ZM570.84,405l-.25-.27.22-.69.14.54Zm-142.29,8.86-.07.09q-1.09-1.27-2.22-2.54l.06-.31q1.17,1,2.29,1.94C428.6,413.26,428.57,413.53,428.55,413.81ZM365,422.66l.19.44-.95,1.65.11-.49C364.58,423.72,364.79,423.19,365,422.66Zm-70.54-7.78c0,1.05,0,2.09,0,3.12l-.94.84a45.92,45.92,0,0,0-3-7.15l1.23-1.48Q293.16,412.55,294.47,414.88Zm-39.05-1.81-.65-1,.19-.41c.16.45.32.9.47,1.35Zm-8.76-6.32-.49,1.17-.81-.74.8-1.15.18.2Zm-2.12-1.59c-.15-.45-.31-.91-.47-1.36l.87.91Zm-48,22.43v-.14l.07.23Zm514.3,21.52q.86,1.19,1.69,2.37l-.3.44q-.69-1.32-1.47-2.62Zm-42-28.88-.92-1,.33-1.07.66.63Q668.89,419.51,668.84,420.23Zm-73.9-7.4c0-.27-.1-.53-.15-.8l.21.4Zm-138-4c.2-.77.42-1.53.65-2.3l.24.3Q457.37,407.85,456.92,408.84Zm-145.74-1.47-.63-.59.3-.24ZM310,406q-.46-.88-1-1.76-.5-2.36-1.16-4.7,1.44,3.09,2.64,6.12Zm-61.8-2.74h0l0,0Zm-4.25.16q-.34-1-.7-1.91,1,1.43,1.92,2.86ZM216.87,409c-.16,1.16-.27,2.32-.36,3.48l-.35,1.28-.46-.28c0-1.77,0-3.59.08-5.45Zm-105.52-7.75q.91,1.45,1.75,2.9-.79,1.46-1.46,2.95-.72-2.72-1.6-5.45c.19-.4.38-.8.58-1.19Zm-1.87-1.3,0-.05.17-.5.12.13Zm-8.7-4.47a51.94,51.94,0,0,0-3.89,10.49c-.26-.52-.52-1-.79-1.55q0-1.09,0-2.19c1.23-2.87,2.62-5.77,4.16-8.68C100.44,394.15,100.62,394.8,100.79,395.44Zm-12.53,6.73q-1.07-1.77-2.21-3.55a106.63,106.63,0,0,1,4-12.73C89.12,391.49,88.57,397,88.26,402.18Zm34,46.53.33.08c-.05.24-.1.48-.15.72q-.7.92-1.42,1.82Q121.59,450.13,122.27,448.71Zm106.43.61-.16-.37.06-.06.13.41Zm55.75-8.69a58.23,58.23,0,0,1,1.52,7.59c0,1.11,0,2.09,0,3l0,0a98.57,98.57,0,0,0-1.47-10.58Zm425.62,10.09.23.53-.32-.32Zm34.23-40.51.55,1.16-.48-.84Zm-30.88,10-.77-.9-.06-.16a64.35,64.35,0,0,0,1.93-10.31q1,1.54,1.85,3.09Q714.94,416.15,713.42,420.17Zm-122.57-21.1q-.9-2-2-4,0-1.71,0-3.42,1.22,2.5,2.34,5Q591.05,397.85,590.85,399.07Zm-56,5.89q-.64.78-1.27,1.57a33.53,33.53,0,0,0-1-3.29q.45-1,.93-2.08Q534.17,403.07,534.86,405Zm-11.54,1.72-.35-.28q.73-1.47,1.35-2.94l.45.36Q524,405.25,523.32,406.67Zm-28.65-6.8-.83,1q-.86-1.37-1.8-2.73.46-1,.94-2.09.92,1.83,1.76,3.64Zm-5.91-6.1c-.3-.38-.62-.75-.94-1.13l-.18-.68q0-2.78-.11-5.59c1,1.58,1.9,3.15,2.78,4.71Q489.52,392.42,488.77,393.77Zm-29.84,10.46q-.49,1.19-1,2.37l-.29-.25.23-.75Zm-49.47-2.66q-.72,1.52-1.47,3a39.81,39.81,0,0,0-2.52-8.34q-.31-1.45-.6-2.92,2,1.91,3.89,3.84Q409,399.36,409.45,401.57Zm-20.19-4-.63-.88.61.45C389.25,397.29,389.25,397.43,389.26,397.58Zm.1,6.53c-.06,2.28-.2,4.52-.43,6.73l-.22-.57a23.18,23.18,0,0,0-.35-4.18c0,.21-.09.41-.13.62q-.56-4-1.4-8.16Q388.21,401.34,389.36,404.11Zm-86.92-5.46.15.31c.08.54.14,1.08.21,1.62q-.18-1-.38-1.92Zm-8.16,9.27-.28-.43.24-.27C294.26,407.45,294.27,407.69,294.29,407.92Zm-23.91-2-.35-.31.37.45c0,.39.09.77.13,1.15l-.33.39a74.58,74.58,0,0,0-7.86-9q1.76-2.71,3.73-5.39,1.61,2.32,3.06,4.64Q269.89,402,270.38,405.95Zm-8.19-7a88.91,88.91,0,0,1,6.41,10.7q-1.61,2-3.1,4a37.75,37.75,0,0,0-1.94-3.29q.5,1.59.88,3.18-.76-1-1.56-2.09-1.65-3.83-3.63-7.75Q260.65,401.3,262.19,398.91Zm-14.89,3.29q-2.51-3-5.33-5.82.31-1.64.67-3.29,3.36,3.75,6.32,7.47Q248.11,401.38,247.3,402.21Zm-10-14.53v-.08l.05-.08.06.06Zm-61.68,32.74c0-.33,0-.65,0-1l.18.54Zm-7.55-5.33L168,415a43.36,43.36,0,0,1-.86-4.71l1.23,1Q168.28,413.18,168.12,415.09Zm-1.35-3.92c0-.41,0-.82-.07-1.24l.23.18Q166.83,410.63,166.77,411.17Zm-10.84-5-1.1-.72,1.16,1a56.26,56.26,0,0,0,1.79,6.07q.21,1.49.45,2.91c-1.55-3.5-3.08-7.21-4.53-11.09l1.6-1.59Q155.54,404.39,155.93,406.12Zm-7.86,5.65-.59-.83.21-.24Zm-12.46-9-.15.24-.6-.81.62-.7C135.52,401.87,135.57,402.3,135.61,402.72Zm-1.83-1.95-.3-.38q.06-.45.11-.89l1.36-1.86c.09.58.17,1.15.25,1.72Zm-18.63-.09q-1.38-1.77-2.86-3.51l.42-.73q1.15,2.11,2.45,4.22Zm-5.2-1.49-.2-.16.07-.2.18.28Zm-10.51-8.39q-1.71,2.47-3.23,5c.14-3.88.4-7.89.83-12Q98.37,387.33,99.45,390.81Zm-15.44,3-.67.82,0,0a144.45,144.45,0,0,1,6.62-18q.32,2.17.51,4.34A80.27,80.27,0,0,0,84,393.78ZM54.27,417.29l0-.11.06.18Zm-21.45,1.23q.14,2.56.19,5a71.85,71.85,0,0,1-7.94-18.63l1.37,1.25A88.63,88.63,0,0,1,32.83,418.52Zm-8-14.78,0-.15.16.24ZM152,443q-.52,1.63-1.09,3.19-.08-1-.19-2ZM710,453.88c-.06-.28-.13-.55-.19-.83l.84,1-.36.45Zm19.94-8.07.05-.06q.73,2.23,1.31,4.41l-1.33-1.58Q729.93,447.21,729.91,445.81Zm47.64-9.68c.23.63.46,1.25.69,1.88q-.1,1.29-.24,2.57l-.1.26-.1-.21a27.89,27.89,0,0,0-.77-2.72c0,.42,0,.84.06,1.26l-.39-.78Q777.13,437.28,777.55,436.13Zm86.09-23.78q1,4,1.68,7.92-1.31,1.7-2.72,3.39-.14-3.64-.4-7.41Q862.95,414.31,863.64,412.35ZM865.7,406q.93,3.24,1.72,6.41l-.73-1q-.67-2-1.42-4C865.42,406.91,865.56,406.44,865.7,406Zm-2.9,25.9q1.76-2.69,3.27-5.41c-.11.42-.22.85-.34,1.27-.86,1.82-1.85,3.62-2.92,5.4C862.8,432.71,862.8,432.3,862.8,431.87Zm3.54-5.47h0Zm.71,5.55q.07.67.14,1.32-.77.91-1.56,1.8Q866.4,433.51,867,431.95Zm-20.52,20.22.68-.73c.06.32.1.64.16,1l-1.18,1.18Q846.35,452.88,846.52,452.17Zm19.05-9.34q1.1-1.22,2.19-2.48.08,1.3.14,2.58l-.07.51-1.77,1.3Q865.83,443.79,865.57,442.83Zm-38.42-15.92-.66-1.08c0-.12,0-.25,0-.37.23.46.46.92.68,1.38Zm.37-1q-.43-.66-.88-1.32.56-2.07,1.07-4.17.49,1.16,1,2.3Q828.11,424.33,827.52,425.91ZM718.69,404.75q-.85,2.77-1.74,5.45-1.12-1.43-2.3-2.82a45.84,45.84,0,0,0,.08-5.36,45.13,45.13,0,0,0,.7-5.37c-.29.89-.59,1.78-.91,2.67v-.11l0,.23q-.48,1.33-1,2.66c.19-3.77.27-7.63.21-11.54q1.72,3.18,3.25,6.36Q717.92,400.86,718.69,404.75Zm-110.2,10.18q-.75-1.91-1.64-3.77-.24-.92-.5-1.84.15-1,.28-1.94.87,1.79,1.67,3.58Q608.45,413,608.49,414.93Zm-43.7-21q-.68,1.77-1.23,3.56l-.22-.25a69.27,69.27,0,0,0-2-7,37.1,37.1,0,0,0-.61-10.76c0-.15,0-.3,0-.44q1,1.36,1.93,2.72A105.21,105.21,0,0,1,564.79,393.93Zm-33.66-1.06q-.56.86-1.1,1.73a33.17,33.17,0,0,0-.79-4.15l1.65,1.45C531,392.22,531.05,392.55,531.13,392.87Zm-25.19,3.39L506,396q.08.42.15.84ZM457,400.42l.14-.48.12.19ZM453.51,395c0-.34-.09-.67-.13-1l.32.46Zm-45.29-3.61c.05,1,.13,1.95.22,2.92q-1.93-1.56-4-3.09-.4-2.24-.72-4.5,1.75,1.3,3.44,2.61Q407.73,390.41,408.22,391.44Zm-19.4,1.23q.2,1.67.33,3.34l-1.94-1.18-.59-.76c.28-1.33.54-2.66.76-4C387.88,390.93,388.36,391.8,388.83,392.66Zm-64.18,19.55-.34-.38c0-.17,0-.33,0-.5l.49.41Zm-23.7-21.81-.66-.49q-.73-2.55-1.59-5.12l.85.62Q300.33,387.91,300.95,390.4Zm-.17,1.28.61.57c.08.37.15.74.23,1.11l-.59-.71Zm-9.68,11.89q.45,1,.85,2-.67-.79-1.37-1.57Zm-.73,4.56-1.23,1.23q-.76-1.24-1.61-2.45l1.22-1.16C289.29,406.55,289.83,407.34,290.35,408.13Zm-3.84-3.21q-1.08-2.58-2.3-5.2,1.75,2.17,3.33,4.35Zm-18.77-13.59-.1-.12.06-.07Zm-.78-.84q-2.2-2.35-4.6-4.63,1.22-2.24,2.54-4.49c1,2.91,1.8,5.81,2.52,8.68Zm-1.68,1.67a92.65,92.65,0,0,0-7.51,8.69c-.46-.86-.93-1.72-1.42-2.58,1.55-3.63,3.29-7.32,5.26-11Q263.54,389.7,265.28,392.16Zm-22-2.13q.29-1.23.61-2.47,1.78,3.11,3.35,6.19Q245.36,391.88,243.33,390Zm-4.72-4.1-.14-.11.43-.66Zm-17.48,12.44c.11-.57.23-1.13.36-1.69l.21.22Zm-2.28,2q-1.16-1.68-2.39-3.35c0-.24,0-.48.07-.72q.65-1.57,1.37-3.14c.94.9,1.87,1.8,2.78,2.71A39.55,39.55,0,0,0,218.86,400.38Zm-12.63,6.51c-.09-.42-.18-.84-.27-1.26l.35.43C206.28,406.34,206.26,406.61,206.23,406.89Zm-3.95-4.7-.24-.61.09-.43.15.16C202.28,401.6,202.28,401.9,202.28,402.19Zm-.07-1.37.08-.37c0,.14,0,.29,0,.43Zm-4,12.35q-.21-1.07-.4-2.16c.32-1.19.69-2.38,1.13-3.56-.5.72-.94,1.47-1.35,2.22l-.1-.61q.75-3.59,1.2-7.2.42,2,.71,4A42.68,42.68,0,0,0,198.17,413.17Zm-43-11.35q-.93.75-1.83,1.52-.55-1.51-1.09-3.05,1.31-1.6,2.68-3.22A33.55,33.55,0,0,0,155.18,401.82Zm-8.08,7.2-.57.56-.67-1,.75-1ZM145,404.84q-.71-4-1.72-8.1l.06-.1q1,3.88,2.16,7.6ZM111.8,396.6l-.79-.92.56-1.43q.4.8.83,1.6C112.2,396.1,112,396.35,111.8,396.6Zm-3.47-4.05q.44-1.69.93-3.42c.12.3.24.61.37.91C109.19,390.87,108.75,391.71,108.33,392.55ZM31.45,405.19q.31,2,.55,4-2.13-1.71-4.37-3.37-1.47-1.65-3.08-3.25c-.13-.65-.25-1.29-.35-1.94-.07.48-.11,1-.15,1.46L24,402q-.16-1.5-.29-3,3.91,2.77,7.54,5.59Zm744.14,36.24c0-.11,0-.22,0-.32h0c.35,1,.68,1.95,1,2.92l-.44,1.05Q775.89,443.26,775.59,441.43Zm120.51-2.67,0,.09.06-.24Zm12.08-30.57a37.23,37.23,0,0,0,1.72-4.24q-.82,3-1.76,6C908.16,409.36,908.17,408.77,908.18,408.19Zm-6.44,4.32-.22.27q-.12-1-.25-1.94l.57.65C901.81,411.83,901.78,412.17,901.74,412.5Zm-9.53,10.4-.39.38c-.07-.33-.15-.67-.24-1,.29-1.22.54-2.43.76-3.63l.13.12Q892.39,420.85,892.21,422.9Zm.3-4.88,0,0,.06-.36C892.52,417.76,892.51,417.89,892.51,418Zm-1.19-.93-.59-.45a86.15,86.15,0,0,0,1.2-12.1,79,79,0,0,1,.62,8.5C892.16,414.39,891.76,415.74,891.32,417.09Zm-.15.43c-.42,1.26-.87,2.51-1.34,3.77q.45-2.12.82-4.25Zm-32.69-29q-.39-1.91-.83-3.82l.85,1.38Q858.5,387.34,858.48,388.56ZM831,415.44l-.41,1.35q-.72-1.46-1.48-2.92c.73-3.81,1.29-7.66,1.64-11.52.32,1.67.57,3.33.76,5Q831.36,411.4,831,415.44Zm-92.95-7.12q-.32.84-.66,1.67l-.35-1q.43-.85.84-1.71C738,407.66,738,408,738.07,408.32Zm-4.63,8.14-.2-.4.07-.11Zm-1.88-5.11c0-.6,0-1.2-.05-1.8l.38,1.28Zm-2.28-2.54q-1.35-2.27-2.83-4.51.7-2.87,1.33-5.8,1.47,3.91,2.7,7.73Q729.89,407.52,729.27,408.8Zm-15.72-22.42c0-.34,0-.68,0-1,.2.58.39,1.16.58,1.73Zm-13.92,19.4q.39-2.07.74-4.17l.31.7Q700.17,404.06,699.64,405.78Zm-25.94.92q-1,3.85-2.11,7.57l-.3-.67c.08.32.14.65.22,1l-.14.48q-.27-2.69-.78-5.35.83-3.49,1.44-7l1.47,1.75Q673.6,405.58,673.7,406.7Zm-38.18-16.77-.55-1.14c-.28-1.35-.57-2.7-.88-4.05q.6,1,1.18,1.92Q635.4,388.31,635.52,389.93ZM607,404.4q.11-1,.2-2c.2,1.07.38,2.15.53,3.22Zm-18.36-17.2c0-.26,0-.53-.07-.79s0-.43-.06-.64c-.09-1-.19-1.92-.32-2.87.2.9.46,2.43.79,4.74ZM552.91,400l-1.16.82c0-2.63-.12-5.29-.38-8q1-2.74,2.08-5.48A85.25,85.25,0,0,0,552.91,400Zm-17-21.37a49.14,49.14,0,0,1,1.25,5.17Q536.52,381.19,536,378.58ZM530.69,391l-1.58-1.08q-.24-.89-.54-1.77.6-.87,1.21-1.74Q530.17,388.7,530.69,391Zm-2.62-2.11c0,.11,0,.23,0,.34l-.16-.1Zm-.24.36.23.2a54.72,54.72,0,0,1-1.35,10.8l-.83,1.5c-.17-.32-.35-.64-.52-1a32.26,32.26,0,0,0,2-10.87Zm-5.47,10c0-.29-.06-.58-.09-.87l.3-.42-.26.24q1-1.84,2.17-3.68Q523.53,396.84,522.35,399.19Zm-15.16-4.37q-.23-.48-.47-1,1-3.2,1.82-6.47.4.75.79,1.49Q508.17,391.86,507.2,394.82Zm-11.88-3.59.33-.66q.44,1.23.86,2.45Q495.93,392.12,495.32,391.23Zm-24.76,5.89-.16-.15a91.12,91.12,0,0,0,1.89-10.27c.2,1,.39,2,.55,3C472,392.14,471.23,394.63,470.56,397.12Zm-10.94.21q-.69-.87-1.41-1.74a47.52,47.52,0,0,0,.79-5.92q1.28,2.7,2.41,5.36Q460.54,396.18,459.62,397.32Zm-5-5.89q-.81-.89-1.65-1.77c0-.6-.07-1.2-.1-1.79q.79-3.29,1.84-6.57c.52.94,1,1.87,1.51,2.81A62.55,62.55,0,0,1,454.63,391.44Zm-6.26-3.6c0-.27-.08-.54-.13-.81l.22.28C448.42,387.48,448.4,387.66,448.37,387.84Zm-6.78,13.76-.68-.77c.39-1.1.72-2.19,1-3.28Q441.79,399.6,441.59,401.6ZM433.06,400c-.16-1.08-.32-2.16-.45-3.25l.8,1Q433.22,398.83,433.06,400Zm-10.81,6.3-.08.1-1-.64q-.11-2.32-.12-4.69l2.1,1.95Q422.67,404.64,422.25,406.28Zm-18.63-20.6q-.22-1.65-.39-3.32,1.52,2.41,2.83,4.83Zm-47.35,22.78c0-.26-.09-.52-.14-.78l.22.28Zm-15.67,8.24-.36-.32c.24-.67.46-1.34.68-2Q340.77,415.55,340.6,416.71Zm-15.1-7.45-.24.87-1.09-.78c-.09-1.17-.22-2.33-.41-3.49l1.8,1.78C325.55,408.17,325.53,408.71,325.51,409.25ZM298.41,384l-.12-.34.61.63Zm-9.1,18.67q-2.82-3-6-6l1.18-1.31q3.73,2.72,7.2,5.48Q290.46,401.74,289.31,402.65Zm-51.78-19.26q0-3.22-.25-6.42,1.32,1.91,2.55,3.82Q238.65,382.07,237.53,383.39ZM222.45,395l-.46-.38c.22-.81.45-1.63.71-2.44-.42.67-.82,1.35-1.19,2-1-.79-2-1.58-3-2.36q.69-1.44,1.44-2.87,1.93,1.49,3.78,3C223.29,393,222.86,394,222.45,395Zm-5.12-5.24q.18-1.22.37-2.46l.9.68Q218,388.89,217.33,389.78Zm-10.89,14.68-.84-.75c-.27-1.55-.5-3.11-.67-4.67l1.75,1.37Q206.61,402.45,206.45,404.46Zm-4-6.35q-.53,1-1,2-1-2.31-2.23-4.56c0-.25,0-.5,0-.75q1.66,1.2,3.28,2.41Q202.44,397.65,202.41,398.12ZM184.54,415a40.89,40.89,0,0,0,.28,5.53l-.17.39q-.81-2-1.6-4.1.51-1.66.93-3.32Q184.25,414.27,184.54,415Zm-21.66-20q-.24-3.15-.33-6.4,1.42-1.49,2.91-3A64.76,64.76,0,0,0,162.88,395Zm-6.4,3.38q-.29-1.28-.52-2.55l.43-.5Q156.42,396.91,156.48,398.43Zm-.9-5.09c0-.35-.09-.69-.12-1-.1.46-.17.93-.24,1.4q-2,2-3.85,4c-1-2.93-1.88-5.94-2.71-9,2.75-3.91,5.76-7.82,9-11.68a100.66,100.66,0,0,0-1.31,15.55ZM142.31,393q-.48-1.69-1-3.39l.37-.44q.37,1.87.8,3.71ZM127,394.81l.14.57q-.63,3.09-1.45,6.13-.53-1.11-1.08-2.22Q125.72,397.07,127,394.81Zm-12.49-1.64q-.75-1.21-1.46-2.42l.14-.32C113.6,391.35,114,392.26,114.47,393.17Zm-3.37-5.83q-.43-.81-.84-1.63l.17-.54c.31.58.62,1.15.93,1.73ZM98,376.23c.06-.43.13-.85.2-1.28q.64,1.72,1.19,3.45Q98.72,377.31,98,376.23Zm-4.55-6.35-.17-.23.53-1C93.69,369.06,93.57,369.47,93.45,369.88ZM72.57,402.71v-.12l0,0ZM48,452.8h.2c-.2.59-.41,1.16-.62,1.73-.06-.72-.13-1.46-.21-2.2Zm157.79,7.49c.7-.93,1.45-2,2.26-3.09l1.16.25s0-.2,0-.56c.26.45.53.9.77,1.34-1.35,1.09-2.59,2.08-3.72,3Zm50.44-4.37.62,1.06c-.14.52-.29,1-.44,1.54l-.45-1.26Q256,456.59,256.19,455.91Zm606.66.15-.37.79c.1-.38.2-.76.29-1.15ZM907.78,432a64.25,64.25,0,0,0,.69-7.62q.57-1.58,1.11-3.19.75,1,1.48,2-1.54,4.58-3.17,8.89Zm8.82-.5q2.15,3.42,4,6.78c-.78,1.92-1.61,3.81-2.49,5.67q-2-2.47-4.08-5Q915.37,435.35,916.61,431.48Zm31,12.79,0,.17-.52.56Zm7.65,7.37c.12.5.25,1,.36,1.51q-.87-1.8-1.78-3.59C954.26,450.25,954.74,450.94,955.21,451.64Zm8.27-9.19a55.5,55.5,0,0,0-1.94-6.28l.07-.09q1.32,3,2.54,6c0,.44,0,.87,0,1.3Zm8.76,6.46a179,179,0,0,0-1.74-24.9l.28-.42A116.61,116.61,0,0,1,977.06,453c-.51-1.14-1-2.27-1.61-3.36.66,2,1.26,4,1.81,6,0,.42.05.84.08,1.26q-.4,2.47-.93,4.85A129.92,129.92,0,0,0,972.23,448.92Zm23.95-43.1-.91-1.26q-.29-1.38-.59-2.75Q995.45,403.81,996.18,405.82Zm-8.94,5.73a73.23,73.23,0,0,0-5.25-8.18,71.74,71.74,0,0,0,3.06-8.71A169.42,169.42,0,0,1,987.24,411.54ZM981.73,404a100.6,100.6,0,0,1,5.94,14.56c.16,3.93.2,7.74.13,11.39q-.85-1.52-1.73-3a45.82,45.82,0,0,0-4.2-13.27c.41,1.71.73,3.43,1,5.15q-1.56-5-3.34-10.06Q980.7,406.35,981.73,404Zm-26.67-35.54a155.91,155.91,0,0,1,11.66,21.8,81.53,81.53,0,0,1-1.9,8.56l-.43-.54a109.6,109.6,0,0,0-9.79-21.1Q955,372.78,955.05,368.42ZM954.22,381a148.43,148.43,0,0,1,7.42,27.36c-1.52,3.94-3.26,7.8-5.14,11.53q-.87-1.42-1.76-2.81a40.75,40.75,0,0,0,.33-7.55,52.31,52.31,0,0,0,2.66-12.82,99.4,99.4,0,0,1-6.1,14.6q-1-2.33-2.19-4.66A186.29,186.29,0,0,0,954.22,381ZM943,402.31q-1.19,4-2.47,7.9-1.12-1.43-2.3-2.82a43.56,43.56,0,0,0-.15-8.17c-.27,2.22-.66,4.45-1.15,6.67l-.11-.13c.35-4.92.52-10,.43-15.2C939.36,394.48,941.27,398.41,943,402.31Zm-17.39-14a140.68,140.68,0,0,1,.92,26.55q-2-2.46-4.16-4.86A170.14,170.14,0,0,0,925.59,388.31Zm-9.21,16.87c-.94,3.74-2,7.41-3.06,11l-1.71-1.58a116.73,116.73,0,0,0,2.71-11.88Q915.37,403.93,916.38,405.17Zm-5.26-6.12-.15.66c0-.24.06-.48.1-.72Zm-8.92,8.13q-.14,1.88-.3,3.72l-.7-.63q-.11-.74-.22-1.47c0-.89.06-1.79.07-2.69ZM858.47,385.4l-.92-1.1q-.25-1.11-.53-2.21Q857.77,383.75,858.47,385.4Zm-7.83,29.18q-.7-1.74-1.5-3.43-1-3.8-2.19-7.69c1.65,3.15,3.15,6.31,4.51,9.45Q851.07,413.75,850.64,414.58Zm-19-18.74-.43-.81q0-1.71,0-3.42l.28.58C831.5,393.42,831.56,394.63,831.59,395.85Zm-16.67-.94a56.29,56.29,0,0,1-1.08,7.12q-.94-2.74-2-5.4a76.38,76.38,0,0,0-.85-8.18Q813,391.68,814.92,394.91ZM808,384c0,.12,0,.24,0,.37-.1-.27-.21-.53-.31-.8Zm-.92,18.3c-.07.51-.14,1-.21,1.53q-.16-1.15-.36-2.31Zm-24.92,16.28q.37,2.08.64,4.15-.44-1.22-.9-2.44Q782,419.42,782.13,418.56Zm-6.3-.51q-.19,2-.49,4.07-.06-3.2-.31-6.44Q775.43,416.87,775.82,418Zm-6.9-18q.29,2.34.49,4.67-.66-3.46-1.5-7Q768.43,398.89,768.92,400Zm-7.45-5.38c.08.46.16.91.24,1.37l-.39-.81Zm2.16,16.83a73.21,73.21,0,0,0-5.22-8.12c.59-1.39,1.13-2.78,1.62-4.17Q762.07,405.32,763.64,411.48ZM758.17,404a98.82,98.82,0,0,1,4.16,9.46,88.92,88.92,0,0,1,1.93,11.17q0,1.59,0,3.15c-.28,2.17-.63,4.3-1,6.39a49.55,49.55,0,0,0-4.92-20.5,62.6,62.6,0,0,1,1.21,6.68q-.3-1-.61-2a40.84,40.84,0,0,0-1.53-8.13c0,1.12,0,2.24,0,3.36q-.75-2.22-1.57-4.47Q757.07,406.5,758.17,404Zm-20.41-29.1q-2.92-4-6.24-7.76c0-2.82,0-5.63-.21-8.42A135.76,135.76,0,0,1,737.75,374.86Zm-6.26-6.44a154,154,0,0,1,9.1,16.27c.56,2.23,1.06,4.45,1.51,6.66q-1,2.36-2.06,4.7a108.45,108.45,0,0,0-9-18.92Q731.4,372.78,731.49,368.42ZM730.65,381q2.1,5.52,3.68,11c-.24-.27-.47-.56-.72-.83.3.46.58.92.87,1.38q1.39,4.89,2.42,9.73c-.47.87-1,1.73-1.44,2.59q-.84-2.11-1.77-4.23c.21-1.34.37-2.67.46-4-.3.94-.63,1.89-1,2.83q-1.84-4.14-4-8.28C729.78,387.83,730.27,384.4,730.65,381Zm-7.42,6.65q-.93,4.17-2,8.23A109,109,0,0,0,713,378.29q-.2-2-.47-4.09.19-2.89.25-5.78A155,155,0,0,1,723.24,387.61Zm-21.21.71q.45,3.31.71,6.61-.31,1.2-.63,2.38l-.88-1.45Q701.72,392.1,702,388.32ZM695.7,392q-.36,2-.76,3.9,0-2.64,0-5.32Zm-23,6.12q.38,2.49.65,5l-1.2-1.13Q672.46,400,672.7,398.11Zm-3.87.95-.16.66c0-.24.07-.48.1-.73ZM634.91,385.4l-.92-1.1q-.25-1.1-.53-2.21Q634.2,383.75,634.91,385.4Zm-8.11-9.86c1.24,6.16,2.17,12.25,2.85,18.2q-1.19-4.25-2.61-8.6A66,66,0,0,0,626.79,375.54ZM610,366.3l-.36-1C609.79,365.65,609.9,366,610,366.3Zm.9,2.6c-.26-.78-.53-1.55-.8-2.33Q610.54,367.74,610.92,368.91Zm1,36.57A55.08,55.08,0,0,0,607.6,395q0-1.71,0-3.42,2.15,4.41,4,8.82Q611.79,403,611.95,405.48ZM587,368.76a211.14,211.14,0,0,1,9.32,25.54q0,1.82,0,3.63-1.73-2.66-3.59-5.27a31.3,31.3,0,0,0-1.2-3.71c0,.69,0,1.39,0,2.08q-1.22-1.67-2.5-3.31-.38-3.43-.59-6.84v0c-.06-.95-.09-1.89-.12-2.84h0c0-.49,0-1-.06-1.45h0q-.06-2.4-.05-4.78c-.2-.29-.42-.56-.62-.85Q587.33,369.88,587,368.76Zm-4.76,16.86c.11.59.22,1.18.32,1.77-.17,2.88-.46,5.72-.85,8.49a68.37,68.37,0,0,0-2.07-6.74Q580.92,387.38,582.25,385.62Zm-25.75-12.13q-.41,1.24-.77,2.49l-.76,1q-1.66-2.63-3.64-5.18.9-1.16,1.84-2.31Q554.9,371.48,556.51,373.49Zm-5.3-1.53q1.45,3.31,2.55,6.64-2,2.71-3.71,5.48a69.9,69.9,0,0,0-2.1-7.76Q549.52,374.14,551.21,372ZM544,382.08a94.55,94.55,0,0,1,.43,12.19l-.41.85q-1,.91-1.88,1.83a42.85,42.85,0,0,0-1.71-9.08Q542.12,385,544,382.08Zm-12.34-26.73c-3.18,9.21-3.61,18.94-2.26,28.59q-1.18,1.24-2.31,2.5c0-.16,0-.33-.07-.49,0,.25-.1.5-.16.75q-2.79,3.12-5.27,6.37a123.15,123.15,0,0,0-2.44-12.15A117.78,117.78,0,0,1,531.66,355.35Zm-20.44,29q-.44,1-.86,2-.6-.77-1.22-1.53c.25-1.14.47-2.27.68-3.41.23-.51.47-1,.72-1.54Q510.93,382.14,511.23,384.38Zm-8.63-5.95c-.55,2-1.17,4.08-1.83,6.09-.28-.57-.56-1.14-.86-1.71Q501.2,380.62,502.6,378.43Zm-8.82,7.21q-.6.89-1.17,1.78-2.58-3.46-5.55-6.84c-.14-1.15-.31-2.3-.5-3.46l.05-.11-.06.07c-.36-2.15-.81-4.3-1.38-6.45.23-.54.47-1.08.71-1.62A147.55,147.55,0,0,1,493.78,385.64Zm-9.54-19.51-.27.41q-.35-1.05-.73-2.1C483.58,365,483.91,365.57,484.23,366.13Zm-7.55,13.78q-1,2.21-1.88,4.44c-.6-1.34-1.27-2.68-2-4a62.23,62.23,0,0,0-1.2-15.29A121.59,121.59,0,0,1,476.68,379.9Zm-19.82-4.46c0,.2,0,.39,0,.59l-.16-.21Zm-3.14,4.08q-.43.75-.84,1.5.06-1.33.17-2.65Zm-7.14-11.27q2.77,4,5.16,7.91a51.77,51.77,0,0,0-2.93,9.37l-1-.95a69.12,69.12,0,0,0-3.27-11.18Q445.44,370.83,446.58,368.26ZM442,388.33a48.6,48.6,0,0,1-2,6,84.16,84.16,0,0,1,1.65-11.19C441.9,384.89,442,386.61,442,388.33Zm-9,4.39-.91-.85q-.11-1.38-.19-2.76Q432.52,390.91,433,392.72Zm-5.81-.85q-.17-.82-.38-1.63l.44.47C427.24,391.1,427.22,391.48,427.2,391.87ZM425.69,389a53.6,53.6,0,0,1-1.08,9.88c-.17.43-.34.87-.5,1.31q-1.48-1.21-3-2.41c0-.12,0-.24,0-.36,1.15-3.29,2.17-6.65,3-10ZM417.45,381c-.12.4-.25.81-.37,1.21-.16-.67-.33-1.34-.51-2Zm-9,.51q-.26,2.52-.3,5.07a74.41,74.41,0,0,0-5.07-5.92,95.21,95.21,0,0,1,.27-20A126.22,126.22,0,0,1,408.43,381.47ZM394.13,393q-.62-.94-1.26-1.88a55.09,55.09,0,0,0-4.49-10.75q0-.81,0-1.62A148.58,148.58,0,0,1,394.13,393Zm-20.54,13.36-.64,1.46q-.92-1.48-1.78-3c.15-.42.3-.83.44-1.25Q372.63,405,373.59,406.36Zm-17.15,1L356,407q-.26-1.36-.59-2.71.09-1.58.1-3.17.74,1.26,1.44,2.51Q356.72,405.52,356.44,407.38Zm-8.92-18.22a70,70,0,0,1,3,13.73A75.66,75.66,0,0,1,349,410.5a77.16,77.16,0,0,0-3.9-24.42C345.93,387.1,346.74,388.13,347.51,389.16Zm-9.42,17.57c-.16.47-.31.94-.48,1.41q-.74-2-1.66-4.06l0-.26Q337,405.28,338.09,406.73Zm-16.34-19.3q2.06,3.82,3.67,7.64c.16,2.89.23,5.7.22,8.44q-1.43-1.23-2.91-2.45a38.07,38.07,0,0,0-4.95-10.85,49.18,49.18,0,0,1,1.59,6.68,140.74,140.74,0,0,0-10.11-21C313.78,379.66,317.94,383.53,321.75,387.43Zm-22.83-3.89.15.44-.91-.71q-.34-1-.7-1.92Q298.21,382.44,298.93,383.53Zm-7.16,4.34c.8,3.91,1.39,7.76,1.81,11.52l-.73.54q-3.85-2.6-8-5.07Q288.15,391.33,291.77,387.87Zm-8.83,6.4-1,.89q-.64-1.24-1.31-2.49Zm-31.61-41q1.5,2.28,2.86,4.58l-.27.33q-1.85-1.68-3.81-3.33Zm1.72,6a95.33,95.33,0,0,0-11,18.3q-1.8-2.11-3.73-4.19a139.68,139.68,0,0,1,11.43-18Q251.43,357.39,253,359.36ZM232.41,370.3q0,2.67-.25,5.34c-.48.78-.94,1.57-1.4,2.36a99.26,99.26,0,0,0-8.48-10.32q1-3.34,2.29-6.7Q228.79,365.6,232.41,370.3ZM222,368.51q2.63,4.27,4.81,8.58-1.24-.83-2.5-1.65c1,.84,2,1.68,2.94,2.52q.85,1.7,1.62,3.4c-1.66,3.08-3.17,6.16-4.53,9.21q-1.9-1.3-3.87-2.57a85,85,0,0,1,4.56-7.48,64.68,64.68,0,0,0-5.84,6.67l-1.35-.85A141,141,0,0,1,222,368.51ZM211.8,383q-.25.94-.48,1.88-.39-1.4-.84-2.8Zm-5.06,15.76-2-1.27a58.42,58.42,0,0,1,0-10.07,35.67,35.67,0,0,0-2.15,8.69q-1.66-1-3.37-2c0-1,0-2.06,0-3.09a70.09,70.09,0,0,1,2.7-7.29,50.17,50.17,0,0,0-2.85,4.26,59.27,59.27,0,0,0-.75-6.07q.29-1.13.62-2.25,4.12,5.06,7.59,10.17C206.75,392.85,206.81,395.85,206.74,398.8Zm-8-19.32q-.37.61-.71,1.24c-.19-1-.41-1.92-.65-2.87Zm-4.8-5a88,88,0,0,1-2.36,25.44A106.42,106.42,0,0,1,194,374.5Zm-12.74,31.22q-.44,1.66-1,3.3-1-3-1.85-6Q179.87,404.35,181.25,405.72ZM165.66,384.2q-1.6,1.32-3.15,2.67c0-3.66.07-7.39.4-11.17A79.62,79.62,0,0,1,165.66,384.2ZM159,370.87q-.6,2.47-1.05,5A123.61,123.61,0,0,0,148,386.06q-.42-1.66-.79-3.33C150.8,378.74,154.72,374.76,159,370.87ZM139.71,375a110.27,110.27,0,0,0,1.41,11.27l-.68.72q-1.46-4.22-3.31-8.44Q138.38,376.8,139.71,375Zm-18-17.64a119.37,119.37,0,0,1,7.16,16.06,81.26,81.26,0,0,1-.35,12.57l-1,1.37a50.64,50.64,0,0,1-1.22-7,29.47,29.47,0,0,0-.31,9.22q-1.89,2.79-3.6,5.58c-1.94-3.59-4.11-7.2-6.52-10.79a128.45,128.45,0,0,1,10.38-17.53,97.34,97.34,0,0,0-12,15.17q-1-1.37-2-2.73A164.55,164.55,0,0,1,121.75,357.39Zm-15.21,21.07q.07.72.17,1.45-.67,1.62-1.29,3.23l-.77.89a63.5,63.5,0,0,0-6.15-10.9q.43-2.56,1-5.16Q103.33,373.21,106.54,378.46Zm-14.82-20.1q1.9,2.17,3.67,4.36-1.91,2.48-3.64,5c-.82-1-1.65-2-2.52-3Q90.39,361.6,91.72,358.35Zm-1.18,11.22a112.16,112.16,0,0,0-6.13,10.73c1.18-4.53,2.6-9.22,4.29-14Q89.65,367.92,90.54,369.57ZM73.2,399.5c-.09.44-.18.88-.26,1.31l-.5-.46c-.24-4.56-.33-9.43-.21-14.53q1.06,1.58,2.06,3.16A57.9,57.9,0,0,0,73.2,399.5Zm-10.25-4.21q-.42-1.57-.78-3.16C62.45,393.18,62.71,394.23,62.95,395.28ZM58.5,388a73,73,0,0,0,3.68,19.77q-.35,2.35-.6,4.62l-.32-.33a38.66,38.66,0,0,0-2.09-5.65,44.46,44.46,0,0,1,.11-4.65,27.77,27.77,0,0,0-.87,3.11l-.09-.18A63.54,63.54,0,0,1,58.5,388Zm-23.15,2.74,2,1.69A107.52,107.52,0,0,0,41.78,405a46.38,46.38,0,0,0,.58,5.91l-.47-.35q-.77-1.77-1.53-3.59A112.86,112.86,0,0,0,35.35,390.77ZM22,373.16a73,73,0,0,0-2.72,12.5,137,137,0,0,1-1-20.12Q20.33,369.35,22,373.16ZM12,419c1.34,2.76,2.63,5.28,3.82,7.53A74.54,74.54,0,0,0,8.43,416.1q-.26-1-.54-2Q9.87,416.59,12,419ZM9.8,422c.4.8.78,1.6,1.15,2.4L10,423.17Q9.92,422.59,9.8,422Zm2.69,26.9c0-3.66-.16-7.51-.49-11.49,2,1.66,3.65,3,4.79,3.87A98.08,98.08,0,0,1,19.22,457q-.53,2.46-1.22,4.83A109.07,109.07,0,0,0,12.49,448.92ZM115,457.41l.24.62-.35.37C114.94,458.07,115,457.74,115,457.41Zm73.88,3H189l-.28.19Zm130.82-7,3.49-.36c-.41,1.46-.88,2.87-1.37,4.21q-1.32,1.69-2.71,3.33C319.35,458.7,319.58,456.27,319.71,453.41Zm51.18,3.52c0,.12,0,.24,0,.35-.22.56-.38.93-.46,1.11l-.5-.83Zm-.39,1.59.33,0c0,.19,0,.36,0,.53Zm15.2.78h0l0,.08Zm526.64-15.49L913,442q1.9,2.54,3.64,5l-.35.67Q914.37,445.75,912.34,443.81Zm6.28,12.09.28,0-.87.92Zm29.91-4.6.51-.55c.16.89.29,1.78.42,2.67C949.15,452.72,948.84,452,948.52,451.3Zm77.4,3.79c.67-4,1.23-8.09,1.65-12.16q.94-2.74,1.82-5.58c.18,4.47.15,8.93,0,13.3-.28-1.61-.61-3.19-1-4.73.27,3.28.37,6.61.33,9.94q-1,2-2.18,4Q1026.23,457.48,1025.92,455.09Zm28.73-9.2a95.74,95.74,0,0,0,6.68-10.68q0,1.33,0,2.64a88.13,88.13,0,0,1-8,15.59Q1054,449.72,1054.65,445.88Zm1.86,12.91q1.1-1.43,2.22-3c-.08.38-.15.75-.23,1.13Zm21.87-15.48.17-.82.35-.43Z"/></svg>