<?xml version="1.0" encoding="UTF-8"?>
<svg width="28px" height="51px" viewBox="0 0 28 51" version="1.1" xmlns="http://www.w3.org/2000/svg" xmlns:xlink="http://www.w3.org/1999/xlink">
    <!-- Generator: Sketch 45.1 (43504) - http://www.bohemiancoding.com/sketch -->
    <title>Page 1</title>
    <desc>Created with Sketch.</desc>
    <defs></defs>
    <g id="Welcome" stroke="none" stroke-width="1" fill="none" fill-rule="evenodd">
        <g id="Artboard" transform="translate(-14.000000, -3.000000)">
            <g id="Page-1" transform="translate(14.000000, 2.000000)">
                <path d="M24.8172486,19.8358271 C24.5306376,20.7374787 24.9059858,21.6085314 24.5683764,22.417366 C24.4724995,22.6437989 24.4276209,22.956929 24.6968924,23.0354666 C25.0212422,23.1313436 25.1966767,22.8355529 25.2599147,22.5530217 C25.4669682,21.6177111 25.251755,20.7486984 24.8172486,19.8358271 M24.9049659,14.3677788 C25.8321168,15.9477092 26.6674705,17.5735381 27.385528,19.2615851 C28.0026086,20.7140195 28.021988,22.1052558 27.5007843,23.6403076 C26.9143028,25.3660934 26.0187709,26.8776859 24.9814635,28.3260404 C24.6826129,28.7442273 24.6673133,29.1420148 24.6683333,29.581621 C24.676493,35.9411213 24.6948525,42.3006216 24.6989323,48.6611418 C24.6999523,50.4583254 23.7666816,51.5252119 22.2459094,51.5180721 C20.7047378,51.5119523 19.8489847,50.4919843 19.8479647,48.6438024 C19.8449048,43.2216526 19.8469447,37.798483 19.8438848,32.3753133 C19.8438848,32.0101647 19.8489847,31.6399164 19.8102259,31.2768078 C19.7714671,30.9085993 19.5429943,30.7046057 19.1615262,30.6699268 C18.7209001,30.6281081 18.5750447,30.9463381 18.5138466,31.2594683 C18.437349,31.6541959 18.4393889,32.0683029 18.4393889,32.4742502 C18.4342891,37.9371986 18.4404089,43.401167 18.4302092,48.8651354 C18.4281693,50.3675482 17.6744129,51.331418 16.431072,51.4997127 C15.0541152,51.6863668 14.1667431,51.0590865 13.6526792,49.5352544 L13.6526792,17.163511 C12.5368343,17.8887082 11.5801043,18.4129717 10.7376108,19.0820707 C9.57076743,20.0082016 8.47532184,19.8552065 7.25850005,19.2075268 C5.38379892,18.2110181 3.72533101,16.8952594 1.94446693,15.763095 C1.29882721,14.3749186 1.67519539,13.5987229 3.12252994,13.3243516 C4.29447313,14.2770016 5.60207207,15.0185183 6.88213187,15.8100135 C8.32640651,16.7014655 9.64726503,16.939118 10.9110053,15.5621613 C11.4230293,15.0032188 11.9156738,15.1449944 12.5103151,15.4856637 C14.1004452,16.3964951 15.7527933,17.1981899 17.3286438,18.1294207 C18.3465718,18.7312018 19.2053849,18.5812665 20.1396755,17.9876451 C21.8307824,16.9115789 23.3525746,15.6213194 24.9049659,14.3677788" id="Fill-1" fill="#6BCCEC"></path>
                <path d="M1.94416094,15.763401 C3.72604498,16.8945454 5.3845129,18.2113241 7.25819406,19.2078328 C8.47501585,19.8544925 9.57046144,20.0085076 10.7383248,19.0823767 C11.5808183,18.4132777 12.5375483,17.8879942 13.6523733,17.163817 L13.6523733,49.5355604 C12.7231824,51.7070722 10.57309,52.2272558 9.29201019,50.6014269 C8.85342396,50.0465643 8.81058531,49.4223439 8.81058531,48.7583448 C8.81772508,43.4167725 8.81364521,38.0741803 8.81262524,32.7315881 C8.81262524,32.5275945 8.81466518,32.3236009 8.81160527,32.1206273 C8.8014056,31.5280259 8.91054217,30.7365307 8.09966763,30.7140914 C7.19495605,30.6896122 7.39588973,31.5321057 7.39486977,32.1012479 C7.38365012,37.607035 7.38772999,43.1128221 7.38467009,48.6175892 C7.38365012,50.4851505 6.54523645,51.5030786 5.01222459,51.5173581 C3.47921274,51.5326576 2.54798198,50.4871905 2.54798198,48.6777673 C2.54798198,42.5610194 2.642839,36.4442715 2.53064253,30.3305835 C2.50820323,29.1086619 2.70097718,25.696869 2.26137098,24.0547206 C2.05839736,23.2948444 1.23018337,23.5406567 1.06188865,23.4325401 C-0.0610960813,22.7053029 -0.142693519,21.6679955 0.133717801,20.5307312 C0.538645084,18.8692034 1.16694535,17.2872331 1.94416094,15.763401" id="Fill-3" fill="#F4D731"></path>
                <path d="M24.9048639,14.3674728 C23.3534926,15.6210134 21.8306804,16.9122929 20.1395735,17.9873391 C19.2052829,18.5809605 18.3464698,18.7308958 17.3285418,18.1291147 C15.7526913,17.1978839 14.1003432,16.3961891 12.5102131,15.4863777 C11.9155718,15.1457084 11.4229273,15.0039328 10.9109033,15.5618553 C9.64716303,16.938812 8.32630452,16.7021795 6.88202987,15.8097075 C5.60197007,15.0182124 4.29437114,14.2777156 3.12242794,13.3250655 C3.90270344,11.8297925 5.34595811,11.2943093 6.91466885,10.8312438 C3.7925469,9.46448677 2.53594636,7.2633959 3.23870429,4.53702152 C3.81906606,2.28697218 5.8304429,0.861056959 8.1580098,1.04975103 C10.2448643,1.22008568 12.0593873,3.13558553 12.2572611,5.37951506 C12.4857339,7.97125367 10.9904608,10.0162894 8.02949384,10.827164 C10.5753339,10.7414867 12.1603641,12.2500193 13.9922266,13.1914497 C15.2059885,13.913587 16.42995,14.6214448 17.6314723,15.3650015 C18.1914347,15.7107706 18.6524602,15.6495725 19.1889634,15.2905438 C20.602639,14.3440135 21.9693961,13.3362852 23.2871947,12.2612389 C24.8181666,12.0705049 25.2587928,12.6437269 24.9048639,14.3674728" id="Fill-5" fill="#F4D731"></path>
                <g id="Group-9" transform="translate(13.259584, 0.555883)" fill="#6BCCEC">
                    <path d="M10.0277131,11.7053564 C8.70991447,12.7804026 7.34315739,13.788131 5.92846182,14.7346613 C5.39297864,15.09369 4.93195311,15.1548881 4.3719907,14.808099 C3.17046843,14.0645423 1.94650687,13.3577045 0.732744988,12.6355672 C1.90876806,11.4014059 3.247986,10.4548757 5.27772226,10.2641417 C3.75491008,9.64298117 2.64008509,8.90146445 2.02402444,7.6040652 C1.4232633,6.33930492 1.29882721,5.03374592 1.74557318,3.69452797 C2.47077041,1.5189363 4.50356657,0.227656851 6.76279562,0.499988298 C8.80273155,0.746820546 10.5101579,2.68577965 10.7202713,4.99498713 C10.9314047,7.3174542 9.47489044,9.31455148 6.86275248,10.1937639 C8.00817651,10.6150106 9.18419957,10.8292039 10.0277131,11.7053564" id="Fill-7"></path>
                </g>
            </g>
        </g>
    </g>
</svg>