<?xml version="1.0" encoding="UTF-8"?>
<svg width="55px" height="55px" viewBox="0 0 55 55" version="1.1" xmlns="http://www.w3.org/2000/svg" xmlns:xlink="http://www.w3.org/1999/xlink">
    <!-- Generator: Sketch 45.1 (43504) - http://www.bohemiancoding.com/sketch -->
    <title>Artboard</title>
    <desc>Created with Sketch.</desc>
    <defs></defs>
    <g id="Welcome" stroke="none" stroke-width="1" fill="none" fill-rule="evenodd">
        <g id="Artboard">
            <g id="Gratitude-icon" transform="translate(5.000000, 2.000000)">
                <path d="M45.0176321,50.8806049 L0.451595518,50.8806049 L0.451595518,23.4786308 L21.4965429,1.15450905 C21.4965429,1.15450905 22.1225795,0.451685855 22.7350655,0.451685855 C23.3466481,0.451685855 24.0259837,1.21051809 24.0259837,1.21051809 L45.0176321,23.4786308 L45.0176321,50.8806049 Z" id="Fill-1" fill="#F58282"></path>
                <path d="M45.0176321,50.8806049 L0.451595518,50.8806049 L0.451595518,23.4786308 L21.4965429,1.15450905 C21.4965429,1.15450905 22.1225795,0.451685855 22.7350655,0.451685855 C23.3466481,0.451685855 24.0259837,1.21051809 24.0259837,1.21051809 L45.0176321,23.4786308 L45.0176321,50.8806049 Z" id="Stroke-3" stroke="#FDC1C1"></path>
                <g id="Group-8" transform="translate(5.420230, 6.163615)">
                    <path d="M0.47454116,21.1164041 L0.47454116,2.50875358 C0.47454116,1.51052784 1.28396221,0.702010156 2.28128458,0.702010156 L32.7989877,0.702010156 C33.7972134,0.702010156 34.6057311,1.51052784 34.6057311,2.50875358 L34.6057311,21.2672671 C30.1812955,25.293819 26.9710691,27.5929001 24.9750519,28.1645102 C22.9790346,28.7361203 18.1610522,28.7361203 10.5211045,28.1645102" id="Fill-5" fill="#FFFFFF"></path>
                    <path d="M0.47454116,21.1164041 L0.47454116,2.50875358 C0.47454116,1.51052784 1.28396221,0.702010156 2.28128458,0.702010156 L32.7989877,0.702010156 C33.7972134,0.702010156 34.6057311,1.51052784 34.6057311,2.50875358 L34.6057311,21.2672671" id="Stroke-7" stroke="#DAD9DB"></path>
                </g>
                <path d="M44.5659463,50.8806049 L1.35496723,50.8806049 L21.946422,27.9214128 C21.946422,27.9214128 22.5092226,27.2800189 22.9609084,27.2800189 C23.4125943,27.2800189 23.9067386,27.8446262 23.9067386,27.8446262 L44.5659463,50.8806049 Z" id="Fill-9" fill="#F58282"></path>
                <path d="M44.5659463,50.8806049 L1.35496723,50.8806049 L21.946422,27.9214128 C21.946422,27.9214128 22.5092226,27.2800189 22.9609084,27.2800189 C23.4125943,27.2800189 23.9067386,27.8446262 23.9067386,27.8446262 L44.5659463,50.8806049 Z" id="Stroke-11" stroke="#FDC1C1"></path>
                <path d="M0.451595518,23.4781791 L15.9715215,34.5833275" id="Stroke-13" stroke="#FDC1C1"></path>
                <path d="M30.3837331,35.0671734 L45.0174514,23.4778177" id="Stroke-15" stroke="#FDC1C1"></path>
                <text id="Thank-you" font-family="CircularStd-Medium, Circular Std" font-size="6" font-weight="400" fill="#9B9B9B">
                    <tspan x="8.90330846" y="20.4539474">Thank you</tspan>
                </text>
            </g>
        </g>
    </g>
</svg>