<svg id="Layer_1" data-name="Layer 1" xmlns="http://www.w3.org/2000/svg" xmlns:xlink="http://www.w3.org/1999/xlink" width="168" height="121" viewBox="0 0 168 121"><defs><style>.cls-1,.cls-2,.cls-3,.cls-32,.cls-33{fill:none;}.cls-2{fill-rule:evenodd;}.cls-3{clip-rule:evenodd;}.cls-4{clip-path:url(#clip-path);}.cls-5{fill:#38323a;}.cls-6{clip-path:url(#clip-path-2);}.cls-7{fill:#f9f9ca;}.cls-8{clip-path:url(#clip-path-3);}.cls-9{isolation:isolate;}.cls-10{clip-path:url(#clip-path-4);}.cls-11{clip-path:url(#clip-path-5);}.cls-12{clip-path:url(#clip-path-6);}.cls-13{fill:#a7f5f9;}.cls-14{clip-path:url(#clip-path-8);}.cls-15{clip-path:url(#clip-path-9);}.cls-16{clip-path:url(#clip-path-12);}.cls-17{clip-path:url(#clip-path-13);}.cls-18{clip-path:url(#clip-path-16);}.cls-19{clip-path:url(#clip-path-17);}.cls-20{clip-path:url(#clip-path-20);}.cls-21{clip-path:url(#clip-path-21);}.cls-22{clip-path:url(#clip-path-24);}.cls-23{clip-path:url(#clip-path-25);}.cls-24{clip-path:url(#clip-path-28);}.cls-25{clip-path:url(#clip-path-29);}.cls-26{fill:#df7cf7;}.cls-27{clip-path:url(#clip-path-31);}.cls-28{clip-path:url(#clip-path-32);}.cls-29{clip-path:url(#clip-path-33);}.cls-30{clip-path:url(#clip-path-34);}.cls-31{clip-path:url(#clip-path-35);}.cls-32,.cls-33{stroke:#f9f9ca;stroke-miterlimit:10;}.cls-32{stroke-width:2px;stroke-dasharray:2 2;}.cls-33{stroke-linecap:square;stroke-width:1px;}.cls-34{clip-path:url(#clip-path-36);}</style><clipPath id="clip-path"><path class="cls-1" d="M98.26.18q42.31,7,53.6,40.36L136.76,49q2.73-12.85-9.34-27.51C115.35,6.87,98.26.18,98.26.18Z"/></clipPath><clipPath id="clip-path-2"><path class="cls-1" d="M117.06,120.85a48.88,48.88,0,0,0,50.56-47.15c.94-27-19.8-44.7-46.78-45.65C99.1,27.3,0,59.42.06,58l30.63,5.59a73,73,0,0,0-1.93,20.07c.11,8.64,4.87,14.48,3.59,14.92L5.84,116.15C6.66,116.17,103.75,120.39,117.06,120.85Z"/></clipPath><clipPath id="clip-path-3"><path class="cls-3" d="M117.06,120.85a48.88,48.88,0,0,0,50.56-47.15c.94-27-19.8-44.7-46.78-45.65C99.1,27.3,0,59.42.06,58l30.63,5.59a73,73,0,0,0-1.93,20.07c.11,8.64,4.87,14.48,3.59,14.92L5.84,116.15C6.66,116.17,103.75,120.39,117.06,120.85Z"/></clipPath><clipPath id="clip-path-4"><rect class="cls-1" x="29" y="27" width="159" height="8"/></clipPath><clipPath id="clip-path-5"><rect class="cls-1" x="29.22" y="27.2" width="158.56" height="7.39"/></clipPath><clipPath id="clip-path-6"><rect class="cls-1" y="27" width="168" height="94"/></clipPath><clipPath id="clip-path-8"><rect class="cls-1" x="3" y="44" width="185" height="8"/></clipPath><clipPath id="clip-path-9"><rect class="cls-1" x="3.78" y="44.07" width="183.71" height="7.39"/></clipPath><clipPath id="clip-path-12"><rect class="cls-1" x="3" y="61" width="185" height="8"/></clipPath><clipPath id="clip-path-13"><rect class="cls-1" x="3.7" y="61.31" width="183.71" height="7.39"/></clipPath><clipPath id="clip-path-16"><rect class="cls-1" x="3" y="78" width="185" height="8"/></clipPath><clipPath id="clip-path-17"><rect class="cls-1" x="3.71" y="78.43" width="183.71" height="7.39"/></clipPath><clipPath id="clip-path-20"><rect class="cls-1" x="3" y="96" width="185" height="8"/></clipPath><clipPath id="clip-path-21"><rect class="cls-1" x="3.75" y="96.21" width="183.71" height="7.39"/></clipPath><clipPath id="clip-path-24"><rect class="cls-1" x="3" y="112" width="185" height="14"/></clipPath><clipPath id="clip-path-25"><rect class="cls-1" x="3.72" y="112.3" width="183.71" height="12.92"/></clipPath><clipPath id="clip-path-28"><rect class="cls-1" x="124" y="49" width="46" height="33"/></clipPath><clipPath id="clip-path-29"><path class="cls-1" d="M134.17,49.93l35.47,1.24-2,30.29H134.55a9,9,0,0,1-8.74-6.85,41.23,41.23,0,0,1-1.41-11,23.25,23.25,0,0,1,2.22-9A8,8,0,0,1,134.17,49.93Z"/></clipPath><clipPath id="clip-path-31"><circle class="cls-1" cx="142.6" cy="61.32" r="2.88" transform="translate(76.34 201.69) rotate(-88)"/></clipPath><clipPath id="clip-path-32"><circle class="cls-1" cx="154.09" cy="61.72" r="2.88" transform="translate(87.03 213.57) rotate(-88)"/></clipPath><clipPath id="clip-path-33"><path class="cls-3" d="M135.7,51.73l25.4,1.39q4,7.6,4.3,12.92t0,13.78h-29a9,9,0,0,1-8.79-7.07,40,40,0,0,1-1.14-9.61,19.24,19.24,0,0,1,1.33-6.31A8,8,0,0,1,135.7,51.73Z"/></clipPath><clipPath id="clip-path-34"><rect class="cls-1" x="116" y="41" width="60" height="50"/></clipPath><clipPath id="clip-path-35"><rect class="cls-1" x="126" y="51" width="40" height="29"/></clipPath><clipPath id="clip-path-36"><path class="cls-1" d="M61.68,3.65q39.79,2.29,64.46,36.93a29.61,29.61,0,0,0-7.39,2.61,26.82,26.82,0,0,0-5.3,5.41q-6.28-10-19.59-23.6C80.55,11.45,61.68,3.65,61.68,3.65Z"/></clipPath></defs><title>Himnae2</title><g class="cls-4"><rect class="cls-5" x="96.15" y="-7.62" width="57.5" height="64.98" transform="matrix(0.03, -1, 1, 0.03, 95.69, 148.83)"/></g><g class="cls-6"><rect class="cls-7" x="32.15" y="-15.78" width="102.87" height="178.01" transform="translate(7.49 154.2) rotate(-88)"/></g><g class="cls-8"><g class="cls-9"><g class="cls-10"><g class="cls-11"><g class="cls-12"><rect class="cls-13" x="24.22" y="22.2" width="168.56" height="17.39"/></g></g></g></g></g><g class="cls-8"><g class="cls-9"><g class="cls-14"><g class="cls-15"><g class="cls-12"><rect class="cls-13" x="-1.22" y="39.07" width="193.71" height="17.39"/></g></g></g></g></g><g class="cls-8"><g class="cls-9"><g class="cls-16"><g class="cls-17"><g class="cls-12"><rect class="cls-13" x="-1.3" y="56.31" width="193.71" height="17.39"/></g></g></g></g></g><g class="cls-8"><g class="cls-9"><g class="cls-18"><g class="cls-19"><g class="cls-12"><rect class="cls-13" x="-1.29" y="73.43" width="193.71" height="17.39"/></g></g></g></g></g><g class="cls-8"><g class="cls-9"><g class="cls-20"><g class="cls-21"><g class="cls-12"><rect class="cls-13" x="-1.25" y="91.21" width="193.71" height="17.39"/></g></g></g></g></g><g class="cls-8"><g class="cls-9"><g class="cls-22"><g class="cls-23"><g class="cls-12"><rect class="cls-13" x="-1.28" y="107.3" width="193.71" height="22.92"/></g></g></g></g></g><g class="cls-8"><g class="cls-9"><g class="cls-24"><g class="cls-25"><g class="cls-12"><rect class="cls-26" x="125.96" y="38.74" width="41.5" height="54.77" transform="translate(75.51 210.45) rotate(-88)"/></g></g></g></g></g><g class="cls-27"><rect x="134.72" y="53.45" width="15.75" height="15.75" transform="translate(76.34 201.69) rotate(-88)"/></g><g class="cls-28"><rect x="146.22" y="53.85" width="15.75" height="15.75" transform="matrix(0.03, -1, 1, 0.03, 87.03, 213.57)"/></g><g class="cls-29"><g class="cls-9"><g class="cls-30"><g class="cls-31"><path class="cls-32" d="M135.7,51.73l25.4,1.39q4,7.6,4.3,12.92t0,13.78h-29a9,9,0,0,1-8.79-7.07,40,40,0,0,1-1.14-9.61,19.24,19.24,0,0,1,1.33-6.31A8,8,0,0,1,135.7,51.73Z"/></g></g></g></g><path class="cls-33" d="M141.9,69.52q1.56,2.93,6.48,3.1T155,70"/><g class="cls-34"><rect class="cls-5" x="57.88" y="-3.01" width="72.44" height="57.6" transform="translate(-1.22 4.96) rotate(-3)"/></g></svg>