<?xml version="1.0" encoding="UTF-8"?>
<svg width="55px" height="55px" viewBox="0 0 55 55" version="1.1" xmlns="http://www.w3.org/2000/svg" xmlns:xlink="http://www.w3.org/1999/xlink">
    <!-- Generator: Sketch 45.1 (43504) - http://www.bohemiancoding.com/sketch -->
    <title>Artboard</title>
    <desc>Created with Sketch.</desc>
    <defs></defs>
    <g id="Welcome" stroke="none" stroke-width="1" fill="none" fill-rule="evenodd">
        <g id="Artboard">
            <g id="Integrity" transform="translate(1.000000, 7.000000)">
                <path d="M27.3653921,5.01865875 C27.3749883,9.7303772 27.3928097,14.4414102 27.3914389,19.1531287 C27.3893825,24.7895065 27.3866408,30.4265697 27.3407163,36.0636329 C27.3338619,36.8793072 27.4805461,37.2062623 28.3825859,37.1507417 C29.7747157,37.0643761 31.1764417,37.1486853 32.5733695,37.123324 C33.4527898,37.1075589 34.0422687,37.3899604 34.2472154,38.3242159 C34.4082939,39.0583228 34.9127782,39.4161227 35.6852697,39.3935032 C36.0375862,39.3832216 36.4084095,39.3784235 36.7415336,39.4736997 C37.336496,39.6423181 37.6579677,40.0666058 37.5722876,40.7102345 C37.4934619,41.3065678 37.1164696,41.6204996 36.5331597,41.6924709 C36.3707103,41.7130341 36.2048337,41.702067 36.0403279,41.702067 C29.5197318,41.6986398 22.9984503,41.6945272 16.4778541,41.6897291 C16.2859308,41.6897291 16.093322,41.6938417 15.9027695,41.6753348 C15.2701079,41.616387 14.8917447,41.2647559 14.8410221,40.6334652 C14.7875577,39.9809258 15.1604374,39.6046189 15.7663668,39.4750706 C16.0837258,39.407212 16.4195917,39.3976158 16.7458614,39.4058411 C17.5197238,39.4250335 18.0221517,39.0528392 18.1798031,38.3242159 C18.3744682,37.4269742 18.9152808,37.1336056 19.7748233,37.1493708 C21.254004,37.1774738 22.7352411,37.1198968 24.2123655,37.1733612 C24.8943789,37.1980371 25.0773915,37.0054283 25.0746497,36.3193022 C25.0479176,29.3051889 25.0575137,22.2910756 25.0575137,15.2769623 C25.0568283,11.8518158 25.0568283,8.42735469 25.0561428,5.00220817 C25.8238363,5.31202731 26.5942715,5.26678823 27.3653921,5.01865875" id="Fill-1" fill="#9B9B9B"></path>
                <path d="M15.6985082,20.0230899 C16.1577534,20.066958 16.0021584,20.4151619 15.971999,20.6482116 C15.5511385,23.9122796 13.9266444,26.3387392 10.8085752,27.5190679 C7.8666643,28.6329088 5.09542809,28.1339081 2.70735315,26.0460561 C1.15345939,24.6868275 0.235654467,22.9437521 0.0499000733,20.8600128 C0.0259096534,20.5872074 -0.120774628,20.2513416 0.23908167,20.0539347 C0.490638358,20.424758 0.72231727,20.3740354 0.93960193,20.021719 C1.23776858,20.0402259 1.53593522,20.0765542 1.83341643,20.0765542 C6.22640502,20.0710707 10.6187082,20.0607891 15.0116968,20.0518784 C15.2502301,20.2725902 15.4908197,20.5330576 15.6985082,20.0230899" id="Fill-3" fill="#6BCCEC"></path>
                <path d="M52.3215977,21.3653881 C51.8554981,24.4546687 49.372147,27.1107509 46.3322181,27.8386888 C43.1771351,28.5940443 39.9199215,27.3904107 37.9979462,24.786422 C36.991034,23.4230807 36.4687283,21.9178532 36.5256199,20.218646 C36.5667463,20.1795759 36.6346049,20.1261116 36.7024635,20.0719618 C36.9608746,20.5737043 37.2110604,20.2645706 37.4626171,20.0651074 L51.4497173,20.034948 C51.6827671,20.3495652 51.9151315,20.5174981 52.1420123,20.0294644 C52.6307314,20.4139966 52.3860291,20.9369878 52.3215977,21.3653881 Z" id="Fill-5" fill="#6BCCEC"></path>
                <path d="M52.1420123,20.0294644 C51.9151315,20.5174981 51.6827671,20.3495652 51.4490319,20.0356334 C51.4284687,19.9561223 51.4195579,19.8718131 51.3866568,19.7971001 C49.1898198,14.723469 46.9909264,9.64983794 44.7899768,4.57826318 C44.7173201,4.41101568 44.695386,4.18276397 44.4534255,4.16082988 C44.1463481,4.13341225 44.1278412,4.41101568 44.0469592,4.59608464 C42.9221512,7.18088101 41.782949,9.75950843 40.6889859,12.3566427 C39.6080461,14.9236177 38.3626006,17.4220485 37.4626171,20.0651074 C37.2110604,20.2645706 36.9608746,20.5737043 36.7024635,20.0719618 C38.069232,16.9113953 39.4353151,13.7501434 40.8034544,10.5902624 C41.6177578,8.70872804 42.4375448,6.82925 43.253219,4.94771565 C43.5993665,4.14917739 43.5973102,4.14712106 42.6897869,4.14643562 C37.8690834,4.14369386 33.0483799,4.14163754 28.2276764,4.13958122 C28.5244721,3.36571882 28.532012,2.59528362 28.1995733,1.82896107 C33.4006963,1.83307371 38.6018193,1.83650091 43.8029424,1.84198444 C44.0764331,1.84198444 44.354722,1.82896107 44.6220438,1.87420014 C45.3307894,1.99483768 45.8195085,2.73648438 45.4644503,3.33281767 C45.1114484,3.92503832 45.3444982,4.33767354 45.5590411,4.83393251 C47.7579344,9.89659654 49.9492879,14.9633732 52.1420123,20.0294644" id="Fill-7" fill="#9B9B9B"></path>
                <path d="M0.939739018,20.0213762 C0.722454358,20.3736927 0.490775446,20.4251007 0.239218758,20.0542774 C2.514196,14.8188823 4.78711692,9.58280185 7.06757769,4.34946312 C7.18341714,4.08351218 7.1978114,3.8895325 7.04907079,3.60370378 C6.54869918,2.64271611 7.0374183,1.85994298 8.14646114,1.85240313 C10.9094721,1.83183992 13.6731684,1.83869432 16.4361794,1.84280697 C19.0072669,1.84623417 21.5783545,1.86131386 24.1494421,1.87159547 C23.8279704,2.62489465 23.8642988,3.36996855 24.202221,4.1075026 C19.7413738,4.12052597 15.2798411,4.12875126 10.8196794,4.15068535 C10.1986702,4.15342712 9.30005762,3.87650913 9.02862315,4.26858113 C8.73936723,4.68738532 9.36243271,5.3899619 9.60644955,5.95613581 C11.6264429,10.6493474 13.6649431,15.3350191 15.6979599,20.0227471 C15.4909568,20.5334004 15.2503672,20.2722475 15.0118339,20.0522211 C15.0111484,20.0248035 15.0193737,19.9939586 15.0090921,19.9706536 C12.7882647,14.8346475 10.5660663,9.69795587 8.34044082,4.56400602 C8.269155,4.39950028 8.24653546,4.16782137 7.99566422,4.1582252 C7.69544125,4.14794359 7.681047,4.41732174 7.60085045,4.60307613 C5.37796669,9.74182406 3.15919557,14.8812574 0.939739018,20.0213762" id="Fill-9" fill="#9B9B9B"></path>
                <g id="Group-13" transform="translate(23.304979, 0.578580)" fill="#B9E6F6">
                    <path d="M0.896898982,3.5290593 C0.558976783,2.79152525 0.522648433,2.04645136 0.844120059,1.29315217 C2.13206288,-0.273079522 3.74627542,-0.289530096 4.89507381,1.25065486 C5.22682705,2.01629197 5.2192872,2.78672717 4.92249143,3.56058957 C4.6346064,3.85395813 4.3474068,4.14664126 4.0602072,4.44000982 C3.28908656,4.6881393 2.51865136,4.73337838 1.75164337,4.42355924 C1.37053841,4.21655619 1.14297215,3.86423974 0.896898982,3.5290593" id="Fill-11"></path>
                </g>
                <path d="M36.4993675,20.2329032 C36.4993675,20.2329032 36.5260997,20.218509 36.5260997,20.218509 L36.4993675,20.2329032 Z" id="Fill-14" fill="#9B9B9B"></path>
            </g>
        </g>
    </g>
</svg>