<?xml version="1.0" encoding="UTF-8"?>
<svg width="55px" height="55px" viewBox="0 0 55 55" version="1.1" xmlns="http://www.w3.org/2000/svg" xmlns:xlink="http://www.w3.org/1999/xlink">
    <!-- Generator: Sketch 45.1 (43504) - http://www.bohemiancoding.com/sketch -->
    <title>Artboard</title>
    <desc>Created with Sketch.</desc>
    <defs>
        <polygon id="path-1" points="0.208209107 0.446501578 32.0701164 0.446501578 32.0701164 24.8727478 0.208209107 24.8727478"></polygon>
        <polygon id="path-3" points="20.9905118 0.0705373741 20.9905118 33.8685202 0.336533812 33.8685202 0.336533812 0.0705373741"></polygon>
        <polygon id="path-5" points="0 47.5190539 47.794714 47.5190539 47.794714 0.705514816 0 0.705514816"></polygon>
    </defs>
    <g id="Welcome" stroke="none" stroke-width="1" fill="none" fill-rule="evenodd">
        <g id="Artboard">
            <g id="Kindness-icon" transform="translate(4.000000, 4.000000)">
                <g id="Group-3" transform="translate(7.759111, 0.259013)">
                    <mask id="mask-2" fill="white">
                        <use xlink:href="#path-1"></use>
                    </mask>
                    <g id="Clip-2"></g>
                    <path d="M7.83973538,0.446360504 C5.67353261,0.446360504 3.64064549,1.23920059 2.26022908,2.62384924 C0.908732991,3.9788722 0.199127007,5.86010397 0.208296866,8.06510229 C0.228752704,14.4212251 5.40831209,18.1949746 9.91847179,20.7724102 C13.0192948,22.5443091 15.6080164,24.4706848 16.1391628,24.8727478 C16.6710146,24.4706848 19.2618524,22.5443091 22.3584431,20.7724102 C30.945663,15.8665359 32.0587428,11.4036362 32.0700288,8.06510229 C32.0791986,5.86010397 31.3688873,3.9788722 30.0173912,2.62384924 C28.6369748,1.23920059 26.6054984,0.446360504 24.4364741,0.446360504 C22.9615376,0.446360504 21.529629,0.805395738 20.291698,1.48396528 C18.4810036,2.48206912 17.422943,3.93725515 16.8537064,4.98473516 C16.7119263,5.24642881 16.4368305,5.40937015 16.1391628,5.40937015 C15.8414951,5.40937015 15.5663993,5.24642881 15.4239138,4.98473516 C14.856088,3.93725515 13.7980274,2.48206912 11.9852169,1.48396528 C10.7494021,0.805395738 9.31537724,0.446360504 7.83973538,0.446360504" id="Fill-1" fill="#F58282" mask="url(#mask-2)"></path>
                </g>
                <g id="Group-6" transform="translate(26.804202, 8.018124)">
                    <mask id="mask-4" fill="white">
                        <use xlink:href="#path-3"></use>
                    </mask>
                    <g id="Clip-5"></g>
                    <path d="M8.78620586,22.6015854 L15.3588784,16.0317344 L15.3588784,15.0921766 C15.3588784,13.5354167 14.095554,12.2756192 12.5402049,12.2756192 L11.6027632,12.2756192 L2.21494409,21.662733 C0.336533812,23.5404379 0.336533812,26.3569952 0.336533812,26.3569952 L0.336533812,33.8685202 L10.6653215,33.8685202 L10.6653215,31.992226 C10.6653215,31.992226 10.6653215,30.1109943 12.5402049,28.2361109 L19.1149936,21.662733 C20.9905823,19.7850281 20.9905823,17.9073232 20.9905823,17.9073232 L20.9905823,2.88709472 C20.9905823,1.33104025 19.7300795,0.0705373741 18.1761411,0.0705373741 C16.6193813,0.0705373741 15.3588784,1.33104025 15.3588784,2.88709472 L15.3588784,14.6421481" id="Fill-4" fill="#F8D8C1" mask="url(#mask-4)"></path>
                </g>
                <path d="M35.590408,31.378833 C35.3971356,31.378833 35.2038632,31.3040634 35.0550294,31.1552296 C34.7587724,30.8603833 34.7587724,30.3807292 35.0550294,30.0830615 L41.6277019,23.5146212 C41.9239589,23.2169535 42.4029076,23.2169535 42.69987,23.5146212 C42.9940108,23.8094674 42.9940108,24.2877108 42.69987,24.5839678 L36.1271975,31.1552296 C35.979069,31.3040634 35.7836804,31.378833 35.590408,31.378833" id="Fill-7" fill="#F6CBAD"></path>
                <mask id="mask-6" fill="white">
                    <use xlink:href="#path-5"></use>
                </mask>
                <g id="Clip-10"></g>
                <polygon id="Fill-9" fill="#62E0E2" mask="url(#mask-6)" points="25.2643713 47.5190539 39.3443366 47.5190539 39.3443366 40.3707964 25.2643713 40.3707964"></polygon>
                <path d="M12.2055756,30.6197098 L5.63290309,24.0498588 L5.63290309,23.110301 C5.63290309,21.5535411 6.89552208,20.2937436 8.45016581,20.2937436 L9.39113438,20.2937436 L18.776132,29.6808574 C20.6545423,31.5585623 20.6545423,34.3751196 20.6545423,34.3751196 L20.6545423,41.8866446 L10.3278707,41.8866446 L10.3278707,40.0103504 C10.3278707,40.0103504 10.3278707,38.1291187 8.45016581,36.2542353 L1.87749329,29.6808574 C-0.000211612122,27.8031525 -0.000211612122,25.9254476 -0.000211612122,25.9254476 L-0.000211612122,10.9052191 C-0.000211612122,9.34916464 1.26170201,8.08866177 2.81634574,8.08866177 C4.37240021,8.08866177 5.63290309,9.34916464 5.63290309,10.9052191 L5.63290309,22.6602725" id="Fill-11" fill="#F8D8C1" mask="url(#mask-6)"></path>
                <path d="M12.2055756,31.378833 C12.398848,31.378833 12.5928258,31.3040634 12.7402489,31.1552296 C13.0379166,30.8603833 13.0379166,30.3807292 12.7402489,30.0830615 L6.16828176,23.5146212 C5.87273016,23.2169535 5.39307602,23.2169535 5.09681904,23.5146212 C4.80056207,23.8094674 4.80056207,24.2877108 5.09681904,24.5839678 L11.6701969,31.1552296 C11.8176201,31.3040634 12.0115978,31.378833 12.2055756,31.378833" id="Fill-12" fill="#F6CBAD" mask="url(#mask-6)"></path>
                <polygon id="Fill-13" fill="#62E0E2" mask="url(#mask-6)" points="8.44967205 47.5190539 22.5310481 47.5190539 22.5310481 40.3707964 8.44967205 40.3707964"></polygon>
            </g>
        </g>
    </g>
</svg>