<svg id="Layer_1" data-name="Layer 1" xmlns="http://www.w3.org/2000/svg" xmlns:xlink="http://www.w3.org/1999/xlink" width="192" height="262" viewBox="0 0 192 262"><defs><style>.cls-1,.cls-10,.cls-14,.cls-9{fill:none;}.cls-2{fill:url(#New_Gradient_Swatch);}.cls-3{clip-path:url(#clip-path);}.cls-4{fill:#a67c52;}.cls-5{fill:#10e80a;}.cls-6{fill:#f9e1a5;}.cls-7{clip-path:url(#clip-path-2);}.cls-8{fill:#f7ea72;}.cls-9{stroke:#10e80a;stroke-width:0.5px;stroke-dasharray:2.02 2.02;}.cls-10,.cls-14,.cls-9{stroke-miterlimit:10;}.cls-10,.cls-14{stroke:#736357;stroke-linecap:round;}.cls-11{fill:url(#radial-gradient);}.cls-12{fill:url(#radial-gradient-2);}.cls-13{fill:url(#radial-gradient-3);}.cls-14{stroke-width:0.75px;}</style><linearGradient id="New_Gradient_Swatch" x1="36.37" y1="131" x2="165.32" y2="131" gradientUnits="userSpaceOnUse"><stop offset="0.02" stop-color="#fff"/><stop offset="0.12" stop-color="#f4fbfd"/><stop offset="0.28" stop-color="#d6eff9"/><stop offset="0.5" stop-color="#a5dcf3"/><stop offset="0.75" stop-color="#62c1ea"/><stop offset="0.96" stop-color="#29abe2"/></linearGradient><clipPath id="clip-path"><path class="cls-1" d="M119.25.92,126.61,23C158.82,17.48,192,91.49,192,91.49S179.06-2.76,119.25.92Z"/></clipPath><clipPath id="clip-path-2"><path class="cls-1" d="M104.1.92,93.57,23C47.52,17.48,0,91.49,0,91.49S18.57-2.76,104.1.92Z"/></clipPath><radialGradient id="radial-gradient" cx="131.36" cy="63.14" r="7.05" gradientUnits="userSpaceOnUse"><stop offset="0.04" stop-color="#fff"/><stop offset="0.26" stop-color="#fcee21"/><stop offset="0.63" stop-color="#80eb15"/><stop offset="0.88" stop-color="#30e90d"/><stop offset="1" stop-color="#10e80a"/></radialGradient><radialGradient id="radial-gradient-2" cx="142.68" cy="80.58" r="7.05" xlink:href="#radial-gradient"/><radialGradient id="radial-gradient-3" cx="120.63" cy="137.99" r="194.06" gradientTransform="translate(19.13) scale(0.7 1)" gradientUnits="userSpaceOnUse"><stop offset="0" stop-color="#fff"/><stop offset="0.71" stop-color="#fcdf90"/></radialGradient></defs><title>6</title><path class="cls-2" d="M162.65,247.39l-27.55-39L80.6,209l-5.41,53C75.06,261.28,24.54,122.32,39,59,55.46-9.84,140.64-23.05,156.27,44,171.77,140.79,162.65,247.39,162.65,247.39Z"/><g class="cls-3"><rect class="cls-4" x="87.99" y="-25.52" width="115.53" height="144.41"/><path class="cls-5" d="M127.23,100.87,140,102l.53,12.64-13.21.14Zm.67,13.26,12-.13-.49-11.49-11.56-1Z"/><polygon class="cls-6" points="130.21 111.49 111.47 114.58 111.47 107.17 130 106.97 130.21 111.49"/><path class="cls-5" d="M93.12,94.65l18.82.3,3.33,21.38-21.72.28Zm1,21.35,20.43-.27-3.14-20.19-17.69-.28Z"/><polygon class="cls-6" points="90 114.12 103.98 113.2 103.05 103.18 91.15 104.22 90 114.12"/><polygon class="cls-6" points="119.89 103.41 119.19 81.95 138.78 80.32 139.16 104.08 119.89 103.41"/><path class="cls-5" d="M113,80.58l.62,10.79-22-1.76.66-8.18ZM92.83,82l-.57,7.05L113,90.72l-.54-9.51Z"/><polygon class="cls-6" points="100.84 87.81 102.33 68.46 114.48 67.22 118.19 87.61 100.84 87.81"/><path class="cls-5" d="M91.79,70.45l16.14.21.67,7.18-16.82.22Zm.6,7,15.55-.2-.56-6-15-.19Z"/><polygon class="cls-6" points="93.92 73.33 99.75 73.09 99.24 61.28 94.71 61.28 93.92 73.33"/><path class="cls-5" d="M128.28,54.59l2.2,9.88L103.68,64l-1-8.74Zm-24.89,1.3.83,7.56,25.5.4-1.92-8.65Z"/><path class="cls-5" d="M138.1,66.7l2.12,23.48H122.12l-1.68-12.42-.85-9.57Zm-17.86,2,.79,9,1.61,11.89h16.91l-2-22.23Z"/><polygon class="cls-6" points="127.64 73.96 124.15 58.52 134.44 57.49 133.21 73.76 127.64 73.96"/><polygon class="cls-6" points="89.73 99.47 96.02 98.92 95.34 93.45 90.55 93.31 89.73 99.47"/><polygon class="cls-6" points="142.68 109.86 137.21 110.41 136.8 106.03 142.68 105.62 142.68 109.86"/><polygon class="cls-6" points="137.1 79.39 158.09 79.16 157.39 69.13 136.63 70.53 137.1 79.39"/><path class="cls-5" d="M154.84,83.74,158,101.41,127.9,99l1.46-13.86Zm-24.93,2-1.34,12.73,28.69,2.28-2.92-16.38Z"/><polygon class="cls-6" points="146.66 115.54 148.06 95.01 162.29 94.31 165.09 113.91 146.66 115.54"/><path class="cls-5" d="M172.58,102.38l1.25,10.22L152,110.92l-.25-6.62Zm-20.24,2.47.21,5.51,20.59,1.58L172.05,103Z"/><path class="cls-5" d="M145.4,53.43l17.62.24,2.88,22.54-18.81-1Zm2.24,21.24,17.57.9-2.72-21.31L146.05,54Z"/><polygon class="cls-6" points="139.66 61.66 153.19 61.43 149.46 47.2 141.76 47.2 139.66 61.66"/><polygon class="cls-6" points="147.13 89.88 160.19 90.58 158.56 83.35 147.13 82.65 147.13 89.88"/><path class="cls-5" d="M178.16,78.38l4.32,20.88-17.21,1-.95-21.29v-.31Zm-13.22.83.91,20.38,15.91-.9L177.67,79Z"/><path class="cls-5" d="M185.94,94.71l15.12.24.72,20.69-12-1.22Zm4.35,19.15L201.16,115l-.68-19.43-13.8-.22Z"/><polygon class="cls-6" points="169.28 115.77 168.58 105.98 185.38 105.74 186.54 115.77 169.28 115.77"/><polygon class="cls-6" points="184.21 100.61 192.84 100.38 190.51 89.18 184.21 89.42 184.21 100.61"/><polygon class="cls-6" points="173.01 83.82 197.74 85.22 196.34 72.86 172.31 72.63 173.01 83.82"/><path class="cls-5" d="M197.76,52.73l3.35,23.46-15.61.24L187.9,53Zm-9.32.83-2.27,22.26,14.25-.22-3.18-22.25Z"/><polygon class="cls-6" points="160.19 68.43 182.58 65.86 181.18 58.87 159.72 57.23 160.19 68.43"/><path class="cls-5" d="M175.6,46.9l4.3,23.91-13.48.74V47.14Zm-8.58.83V70.91l12.17-.66L175.1,47.51Z"/><polygon class="cls-6" points="90.45 57.47 116.34 58.4 114.94 49.07 91.62 47.44 90.45 57.47"/><path class="cls-5" d="M126.58,34.3l17.07.48,3.14,16.92H123.92Zm-2,16.8h21.44l-2.92-15.73-16.05-.45Z"/><polygon class="cls-6" points="181.18 53.5 200.07 56.53 197.74 35.78 183.04 37.64 181.18 53.5"/><path class="cls-5" d="M173,39.15l17.57,3.37,1,6.59L172.23,51Zm-.1,11.22,18-1.8L190,43l-16.48-3.16Z"/><polygon class="cls-6" points="154.82 47.9 169.28 49.54 166.25 27.15 155.06 28.08 154.82 47.9"/><polygon class="cls-6" points="120.77 39.27 135 40.44 134.77 30.41 121.24 30.41 120.77 39.27"/><path class="cls-5" d="M97,30.11l11.5.24,1.44,22.29L93.6,52.4ZM94.3,51.81l15,.22L107.9,30.94l-10.42-.22Z"/><polygon class="cls-6" points="90.22 37.17 102.12 37.88 100.25 23.41 91.39 23.41 90.22 37.17"/><path class="cls-5" d="M123.66,34.07,122.92,45l-17.14-1.69V34.55Zm-17.28,1.07v7.6l16,1.58.66-9.62Z"/><path class="cls-5" d="M156.94,19.61l3.37,19.71-20.51,1,1.92-20.44Zm-14.67.83-1.81,19.21,19.14-.9-3.16-18.53Z"/><polygon class="cls-6" points="150.16 27.61 124.97 27.38 124.5 15.02 149.69 14.55 150.16 27.61"/><path class="cls-5" d="M184.24,22.41l1.71,13-21.63.24V23.12Zm-19.32,1.3V35l20.35-.23L183.71,23Z"/><polygon class="cls-6" points="177.68 27.85 177.21 13.39 187.24 13.62 187.94 24.82 177.68 27.85"/><path class="cls-5" d="M132,5.14l2.42,17.67-16.53-1.22,1.21-15.72Zm-12.34,1.3L118.53,21l15.19,1.12L131.47,5.77Z"/><polygon class="cls-6" points="107.71 26.21 120.77 26.21 120.77 -1.07 106.08 0.79 107.71 26.21"/><path class="cls-5" d="M112.68,9.11V23.93L93,25.61l-.24-15.54ZM93.33,10.64,93.55,25l18.53-1.58V9.74Z"/><polygon class="cls-6" points="89.52 14.09 101.65 14.32 101.65 6.86 90.69 6.16 89.52 14.09"/><path class="cls-5" d="M177.21-.7l4.34,18.57-24.06.72L160.87.75Zm-15.84,2L158.22,18l22.58-.68L176.75-.05Z"/><path class="cls-5" d="M165.62-4.19V6.92l-19.41.24L143-2.75Zm-21.82,2,2.84,8.75L165,6.33V-3.55Z"/><polygon class="cls-6" points="139.66 13.51 155.76 13.04 153.66 -0.48 139.9 -0.25 139.66 13.51"/><polygon class="cls-6" points="172.31 9.89 192.84 10.36 191.67 1.49 172.31 2.89 172.31 9.89"/><polygon class="cls-6" points="169.98 20.62 169.52 14.55 162.99 14.79 163.22 20.85 169.98 20.62"/><path class="cls-5" d="M185.08,5.85l13.13.24,3.9,15.83L184.84,19Zm.37,12.65,15.85,2.68L197.73,6.69l-12.06-.22Z"/><path class="cls-5" d="M139.44-8.39l3.62,18.6-16.28-.73-1-16.65Zm-13,1.76.9,15.53,15,.67L139-7.75Z"/><path class="cls-5" d="M115.42-5.59l2,10.2-24-.72.76-7.57ZM94.69-3.13,94.05,3.3,116.67,4l-1.74-8.93Z"/><polygon class="cls-6" points="137.56 -2.24 137.56 -18.56 123.34 -18.1 124.5 0.56 137.56 -2.24"/><path class="cls-1" d="M174.63,103.6,160.78,84l-27.4.33-2.72,26.65c-.07-.36-25.47-70.22-18.22-102,8.3-34.63,51.12-41.27,59-7.56C179.21,50,174.63,103.6,174.63,103.6Z"/></g><g class="cls-7"><rect class="cls-4" x="-16.42" y="-25.52" width="165.24" height="144.41"/><path class="cls-5" d="M92.69,100.87,74.47,102l-.76,12.64,18.89.14Zm-1,13.26L74.6,114l.69-11.49,16.53-1Z"/><polygon class="cls-6" points="88.43 111.49 115.23 114.58 115.23 107.17 88.72 106.97 88.43 111.49"/><path class="cls-5" d="M141.48,94.65l-26.92.3-4.76,21.38,31.07.28ZM140,116l-29.22-.27,4.49-20.19,25.3-.28Z"/><polygon class="cls-6" points="145.94 114.12 125.94 113.2 127.28 103.18 144.3 104.22 145.94 114.12"/><polygon class="cls-6" points="103.19 103.41 104.19 81.95 76.17 80.32 75.62 104.08 103.19 103.41"/><path class="cls-5" d="M113,80.58l-.88,10.79,31.49-1.76-.95-8.18ZM141.89,82l.82,7.05-29.65,1.66.78-9.51Z"/><polygon class="cls-6" points="130.43 87.81 128.3 68.46 110.93 67.22 105.63 87.61 130.43 87.81"/><path class="cls-5" d="M143.39,70.45l-23.09.21-1,7.18,24,.22Zm-.86,7-22.25-.2.8-6,21.44-.19Z"/><polygon class="cls-6" points="140.34 73.33 132 73.09 132.72 61.28 139.2 61.28 140.34 73.33"/><path class="cls-5" d="M91.19,54.59l-3.14,9.88L126.38,64l1.38-8.74Zm35.61,1.3-1.19,7.56-36.48.4,2.75-8.65Z"/><path class="cls-5" d="M77.14,66.7l-3,23.48H100l2.41-12.42,1.22-9.57Zm25.54,2-1.14,9L99.24,89.57H75.06l2.86-22.23Z"/><polygon class="cls-6" points="92.1 73.96 97.1 58.52 82.38 57.49 84.15 73.76 92.1 73.96"/><polygon class="cls-6" points="146.33 99.47 137.33 98.92 138.3 93.45 145.16 93.31 146.33 99.47"/><polygon class="cls-6" points="70.59 109.86 78.42 110.41 79.01 106.03 70.59 105.62 70.59 109.86"/><polygon class="cls-6" points="78.58 79.39 48.56 79.16 49.56 69.13 79.24 70.53 78.58 79.39"/><path class="cls-5" d="M53.2,83.74l-4.5,17.67,43-2.39L89.64,85.17Zm35.66,2,1.92,12.73-41,2.28,4.17-16.38Z"/><polygon class="cls-6" points="64.9 115.54 62.9 95.01 42.55 94.31 38.55 113.91 64.9 115.54"/><path class="cls-5" d="M27.83,102.38,26,112.6l31.26-1.68.36-6.62Zm29,2.47-.3,5.51L27,111.94,28.58,103Z"/><path class="cls-5" d="M66.7,53.43l-25.2.24L37.39,76.21l26.91-1ZM63.5,74.67l-25.13.9,3.89-21.31L65.77,54Z"/><polygon class="cls-6" points="74.91 61.66 55.56 61.43 60.9 47.2 71.91 47.2 74.91 61.66"/><polygon class="cls-6" points="64.23 89.88 45.55 90.58 47.89 83.35 64.23 82.65 64.23 89.88"/><path class="cls-5" d="M19.85,78.38,13.68,99.26l24.62,1,1.35-21.29,0-.31Zm18.91.83-1.3,20.38-22.75-.9L20.55,79Z"/><path class="cls-5" d="M8.72,94.71-12.9,95l-1,20.69,17.15-1.22ZM2.5,113.86-13,115l1-19.43,19.74-.22Z"/><polygon class="cls-6" points="32.55 115.77 33.55 105.98 9.53 105.74 7.86 115.77 32.55 115.77"/><polygon class="cls-6" points="11.2 100.61 -1.15 100.38 2.19 89.18 11.2 89.42 11.2 100.61"/><polygon class="cls-6" points="27.21 83.82 -8.15 85.22 -6.15 72.86 28.21 72.63 27.21 83.82"/><path class="cls-5" d="M-8.19,52.73-13,76.19l22.32.24L5.92,53Zm13.33.83L8.38,75.82-12,75.59l4.55-22.25Z"/><polygon class="cls-6" points="45.55 68.43 13.53 65.86 15.53 58.87 46.22 57.23 45.55 68.43"/><path class="cls-5" d="M23.51,46.9,17.36,70.81l19.29.74V47.14Zm12.27.83V70.91l-17.41-.66,5.85-22.73Z"/><polygon class="cls-6" points="145.29 57.47 108.26 58.4 110.27 49.07 143.62 47.44 145.29 57.47"/><path class="cls-5" d="M93.62,34.3l-24.41.48L64.72,51.7H97.42Zm2.8,16.8H65.75l4.18-15.73,23-.45Z"/><polygon class="cls-6" points="15.53 53.5 -11.49 56.53 -8.15 35.78 12.87 37.64 15.53 53.5"/><path class="cls-5" d="M27.27,39.15,2.15,42.52.7,49.1,28.34,51Zm.14,11.22L1.68,48.57,2.9,43l23.57-3.16Z"/><polygon class="cls-6" points="53.23 47.9 32.55 49.54 36.88 27.15 52.89 28.08 53.23 47.9"/><polygon class="cls-6" points="101.93 39.27 81.58 40.44 81.91 30.41 101.26 30.41 101.93 39.27"/><path class="cls-5" d="M136,30.11l-16.45.24-2.06,22.29,23.31-.24Zm3.8,21.7L118.4,52l1.95-21.09,14.9-.22Z"/><polygon class="cls-6" points="145.62 37.17 128.61 37.88 131.28 23.41 143.96 23.41 145.62 37.17"/><path class="cls-5" d="M97.8,34.07,98.86,45l24.51-1.69V34.55Zm24.72,1.07v7.6L99.66,44.31l-.94-9.62Z"/><path class="cls-5" d="M50.2,19.61,45.38,39.33l29.33,1L72,19.85Zm21,.83,2.59,19.21-27.37-.9,4.53-18.53Z"/><polygon class="cls-6" points="59.9 27.61 95.92 27.38 96.59 15.02 60.56 14.55 59.9 27.61"/><path class="cls-5" d="M11.15,22.41l-2.45,13,30.94.24V23.12Zm27.63,1.3V35l-29.1-.23L11.91,23Z"/><polygon class="cls-6" points="20.54 27.85 21.2 13.39 6.86 13.62 5.86 24.82 20.54 27.85"/><path class="cls-5" d="M85.88,5.14,82.41,22.81l23.64-1.22L104.33,5.87Zm17.65,1.3L105.13,21,83.41,22.15,86.62,5.77Z"/><polygon class="cls-6" points="120.61 26.21 101.93 26.21 101.93 -1.07 122.94 0.79 120.61 26.21"/><path class="cls-5" d="M113.5,9.11V23.93l28.21,1.68.35-15.54Zm27.68,1.53L140.86,25l-26.5-1.58V9.74Z"/><polygon class="cls-6" points="146.62 14.09 129.28 14.32 129.28 6.86 144.96 6.16 146.62 14.09"/><path class="cls-5" d="M21.2-.7,15,17.87l34.42.72L44.58.75Zm22.65,2L48.37,18l-32.3-.68L21.87-.05Z"/><path class="cls-5" d="M37.79-4.19V6.92l27.76.24,4.61-9.91ZM69-2.2,64.92,6.55,38.65,6.33V-3.55Z"/><polygon class="cls-6" points="74.91 13.51 51.89 13.04 54.89 -0.48 74.57 -0.25 74.91 13.51"/><polygon class="cls-6" points="28.21 9.89 -1.15 10.36 0.52 1.49 28.21 2.89 28.21 9.89"/><polygon class="cls-6" points="31.54 20.62 32.21 14.55 41.55 14.79 41.22 20.85 31.54 20.62"/><path class="cls-5" d="M10,5.85l-18.77.24L-14.4,21.92,10.3,19ZM9.43,18.5l-22.67,2.68,5.1-14.49L9.11,6.46Z"/><path class="cls-5" d="M75.23-8.39,70,10.21l23.28-.73L94.71-7.18ZM93.8-6.63,92.51,8.9,71.1,9.57,75.92-7.75Z"/><path class="cls-5" d="M109.58-5.59,106.74,4.6l34.36-.72L140-3.68Zm29.64,2.47.92,6.43L107.79,4l2.49-8.93Z"/><polygon class="cls-6" points="77.91 -2.24 77.91 -18.56 98.26 -18.1 96.59 0.56 77.91 -2.24"/><path class="cls-1" d="M24.9,103.6,44.71,84l39.18.33,3.89,26.65c.1-.36,36.42-70.22,26.06-102C102-25.71,40.73-32.35,29.48,1.36,18.34,50,24.9,103.6,24.9,103.6Z"/></g><rect class="cls-8" x="61.73" y="36.08" width="83.78" height="36.7" rx="9.97" ry="9.97"/><rect class="cls-9" x="66.75" y="38.72" width="76.17" height="29.29" rx="7.61" ry="7.61"/><path class="cls-10" d="M115.88,63.14c-1.65-6.63-14.2-11.73-18.25-1.05"/><path class="cls-11" d="M126.52,68.63c-.9-4.19,4-14.15,4-14.15s7.4,10,5.53,14.15C133.51,72.85,129.75,72.85,126.52,68.63Z"/><path class="cls-12" d="M137.84,86.07c-.9-4.19,4-14.15,4-14.15s7.4,10,5.53,14.15C144.83,90.3,141.07,90.3,137.84,86.07Z"/><ellipse class="cls-13" cx="103.98" cy="137.99" rx="39.48" ry="56.12"/><path class="cls-14" d="M110.12,45.19c1.14,4.46,9.62,7.85,12.31.64"/><path class="cls-14" d="M88.37,44.87c1.14,4.46,9.62,7.85,12.31.64"/><path class="cls-4" d="M123.75,128.31a4.41,4.41,0,1,0-4.41-4.41A4.41,4.41,0,0,0,123.75,128.31Zm11.27,17-3-12.82c-.16-.77-1.75-3-8.3-3s-8.14,2.2-8.3,3l-3,12.82a.66.66,0,0,0,.67.83h1a1.27,1.27,0,0,0,1.12-.8l2.95-9.22.23,7.31-2.63,7.22a.71.71,0,0,0,.71,1h2.19l.1,3.09a1.2,1.2,0,0,0,1.17,1.08h7.49a1.2,1.2,0,0,0,1.17-1.08l.1-3.09h2.19a.71.71,0,0,0,.71-1L129,143.43l.23-7.31,2.95,9.22a1.27,1.27,0,0,0,1.12.8h1A.66.66,0,0,0,135,145.31Z"/><path class="cls-4" d="M81.08,127.71a4.78,4.78,0,1,0-4.78-4.78A4.78,4.78,0,0,0,81.08,127.71Zm11.87,17.6-2.8-13.42a2.86,2.86,0,0,0-.82-1.37s-1.3-1.6-8.26-1.6-8.26,1.6-8.26,1.6a2.86,2.86,0,0,0-.82,1.37l-2.8,13.42a.66.66,0,0,0,.67.83h1a1.27,1.27,0,0,0,1.12-.8L75,136.12l1.19,18.64a1.2,1.2,0,0,0,1.17,1.08h7.49A1.2,1.2,0,0,0,86,154.76l1.19-18.64,2.95,9.22a1.27,1.27,0,0,0,1.12.8h1A.66.66,0,0,0,92.95,145.31Z"/><path class="cls-4" d="M102.7,135a3.13,3.13,0,1,0-3.13-3.13A3.13,3.13,0,0,0,102.7,135Zm11.51,9.65-5.33-6.47c-.55-.75-2.73-2.07-6.15-2.07s-5.6,1.32-6.15,2.07l-5.33,6.47a.68.68,0,0,0,.1.9l.52.44a.71.71,0,0,0,.92,0l5.37-5,1.11,14.14a.88.88,0,0,0,.86.79h5.18a.88.88,0,0,0,.86-.79l1.11-14.14,5.37,5a.71.71,0,0,0,.92,0l.52-.44A.68.68,0,0,0,114.21,144.62Z"/></svg>