<svg id="Layer_1" data-name="Layer 1" xmlns="http://www.w3.org/2000/svg" xmlns:xlink="http://www.w3.org/1999/xlink" width="163" height="262" viewBox="0 0 163 262"><defs><style>.cls-1,.cls-11,.cls-12,.cls-13{fill:none;}.cls-2{fill:#f7f3d7;}.cls-3{fill:#e2705c;}.cls-4{fill:#f5bf88;}.cls-5{fill:url(#linear-gradient);}.cls-6{clip-path:url(#clip-path);}.cls-7{fill:url(#Nueva_muestra_de_motivo_2);}.cls-8{clip-path:url(#clip-path-2);}.cls-9{fill:url(#Nueva_muestra_de_motivo_2-3);}.cls-10{fill:url(#radial-gradient);}.cls-11{stroke:#ed1c24;stroke-width:0.5px;stroke-dasharray:2.01 2.01;}.cls-11,.cls-12,.cls-13{stroke-miterlimit:10;}.cls-12{stroke:#d47662;}.cls-12,.cls-13{stroke-linecap:round;}.cls-13{stroke:#603813;stroke-width:0.75px;}.cls-14{opacity:0.85;}.cls-15{clip-path:url(#clip-path-3);}.cls-16{fill:url(#Nueva_muestra_de_motivo_2-5);}.cls-17{fill:#29abe2;}</style><linearGradient id="linear-gradient" x1="31.09" y1="131.75" x2="159.3" y2="131.75" gradientUnits="userSpaceOnUse"><stop offset="0.02" stop-color="#fff"/><stop offset="0.11" stop-color="#fffff4"/><stop offset="0.25" stop-color="#ffffd6"/><stop offset="0.44" stop-color="#ffffa5"/><stop offset="0.66" stop-color="#ffff61"/><stop offset="0.92" stop-color="#ffff0c"/><stop offset="0.96" stop-color="#ff0"/></linearGradient><clipPath id="clip-path"><path class="cls-1" d="M102.57,1.46l6.63,24c25.89,4.93,53.37,47.28,53.37,47.28s-2.46-16.91-13.26-36.59C136.51,12.84,125.8-5.4,102.57,1.46Z"/></clipPath><pattern id="Nueva_muestra_de_motivo_2" data-name="Nueva muestra de motivo 2" width="266.69" height="150" patternTransform="translate(-425.32 -64.43) scale(0.2)" patternUnits="userSpaceOnUse" viewBox="0 0 266.69 150"><rect class="cls-1" width="266.69" height="150"/><polygon class="cls-2" points="133.35 122.99 133.35 107.99 133.34 108 66.67 60 66.67 75 133.34 123 133.35 122.99"/><polygon class="cls-3" points="133.35 107.99 133.35 47.99 133.34 48 66.67 0 66.67 60 133.34 108 133.35 107.99"/><polygon class="cls-4" points="133.35 32.99 133.35 0 87.5 0 133.34 33 133.35 32.99"/><polygon class="cls-2" points="133.35 47.99 133.35 32.99 133.34 33 87.5 0 66.67 0 66.67 0 133.34 48 133.35 47.99"/><polygon class="cls-4" points="133.35 122.99 133.34 123 66.67 75 66.67 135 87.5 150 133.35 150 133.35 122.99"/><polygon class="cls-2" points="200.02 0.01 266.67 48 266.69 47.98 266.69 32.98 266.67 33 220.83 0 200.02 0 200.02 0.01"/><polygon class="cls-3" points="66.67 135 66.67 75 66.67 75 0 123 0 150 45.84 150 66.67 135 66.67 135"/><polygon class="cls-3" points="0 0 0 33 45.84 0 0 0"/><polygon class="cls-2" points="66.67 135 66.67 135 45.84 150 66.67 150 66.67 150 66.67 135"/><polygon class="cls-2" points="66.67 150 87.5 150 66.67 135 66.67 150"/><polygon class="cls-3" points="179.17 0 133.35 0 133.35 32.99 179.17 0"/><polygon class="cls-2" points="133.35 47.99 200 0 179.17 0 133.35 32.99 133.35 47.99"/><polygon class="cls-3" points="133.35 122.99 133.35 150 179.17 150 200 135 200.02 135.01 200.02 75.01 200 75 133.35 122.99"/><polygon class="cls-2" points="200.02 150 220.83 150 200.02 135.01 200.02 150"/><polygon class="cls-4" points="200.02 75.01 200.02 135.01 220.83 150 266.69 150 266.69 122.98 266.67 123 200.02 75.01"/><polygon class="cls-2" points="200.02 60.01 200.02 75.01 266.67 123 266.69 122.98 266.69 107.98 266.67 108 200.02 60.01"/><polygon class="cls-2" points="200 135 179.17 150 200 150 200.02 150 200.02 135.01 200 135"/><polygon class="cls-4" points="66.67 60 66.67 0 66.67 0 0 48 0 108 66.67 60 66.67 60"/><polygon class="cls-2" points="45.84 0 0 33 0 48 66.67 0 45.84 0"/><polygon class="cls-2" points="66.67 75 66.67 60 66.67 60 0 108 0 123 66.67 75 66.67 75"/><polygon class="cls-3" points="200.02 0.01 200.02 60.01 266.67 108 266.69 107.98 266.69 47.98 266.67 48 200.02 0.01"/><polygon class="cls-4" points="133.35 47.99 133.35 107.99 200 60 200.02 60.01 200.02 0.01 200 0 133.35 47.99"/><polygon class="cls-2" points="133.35 107.99 133.35 122.99 200 75 200.02 75.01 200.02 60.01 200 60 133.35 107.99"/><polygon class="cls-4" points="266.69 32.98 266.69 0 220.83 0 266.67 33 266.69 32.98"/></pattern><clipPath id="clip-path-2"><path class="cls-1" d="M90.22,0l2.84,25.86C66.32,5.64.28,72.75.28,72.75S51.64,1.07,90.22,0Z"/></clipPath><pattern id="Nueva_muestra_de_motivo_2-3" data-name="Nueva muestra de motivo 2" width="266.69" height="150" patternTransform="translate(-336.49 -211.31) rotate(3.85) scale(0.15)" patternUnits="userSpaceOnUse" viewBox="0 0 266.69 150"><rect class="cls-1" width="266.69" height="150"/><polygon class="cls-2" points="133.35 122.99 133.35 107.99 133.34 108 66.67 60 66.67 75 133.34 123 133.35 122.99"/><polygon class="cls-3" points="133.35 107.99 133.35 47.99 133.34 48 66.67 0 66.67 60 133.34 108 133.35 107.99"/><polygon class="cls-4" points="133.35 32.99 133.35 0 87.5 0 133.34 33 133.35 32.99"/><polygon class="cls-2" points="133.35 47.99 133.35 32.99 133.34 33 87.5 0 66.67 0 66.67 0 133.34 48 133.35 47.99"/><polygon class="cls-4" points="133.35 122.99 133.34 123 66.67 75 66.67 135 87.5 150 133.35 150 133.35 122.99"/><polygon class="cls-2" points="200.02 0.01 266.67 48 266.69 47.98 266.69 32.98 266.67 33 220.83 0 200.02 0 200.02 0.01"/><polygon class="cls-3" points="66.67 135 66.67 75 66.67 75 0 123 0 150 45.84 150 66.67 135 66.67 135"/><polygon class="cls-3" points="0 0 0 33 45.84 0 0 0"/><polygon class="cls-2" points="66.67 135 66.67 135 45.84 150 66.67 150 66.67 150 66.67 135"/><polygon class="cls-2" points="66.67 150 87.5 150 66.67 135 66.67 150"/><polygon class="cls-3" points="179.17 0 133.35 0 133.35 32.99 179.17 0"/><polygon class="cls-2" points="133.35 47.99 200 0 179.17 0 133.35 32.99 133.35 47.99"/><polygon class="cls-3" points="133.35 122.99 133.35 150 179.17 150 200 135 200.02 135.01 200.02 75.01 200 75 133.35 122.99"/><polygon class="cls-2" points="200.02 150 220.83 150 200.02 135.01 200.02 150"/><polygon class="cls-4" points="200.02 75.01 200.02 135.01 220.83 150 266.69 150 266.69 122.98 266.67 123 200.02 75.01"/><polygon class="cls-2" points="200.02 60.01 200.02 75.01 266.67 123 266.69 122.98 266.69 107.98 266.67 108 200.02 60.01"/><polygon class="cls-2" points="200 135 179.17 150 200 150 200.02 150 200.02 135.01 200 135"/><polygon class="cls-4" points="66.67 60 66.67 0 66.67 0 0 48 0 108 66.67 60 66.67 60"/><polygon class="cls-2" points="45.84 0 0 33 0 48 66.67 0 45.84 0"/><polygon class="cls-2" points="66.67 75 66.67 60 66.67 60 0 108 0 123 66.67 75 66.67 75"/><polygon class="cls-3" points="200.02 0.01 200.02 60.01 266.67 108 266.69 107.98 266.69 47.98 266.67 48 200.02 0.01"/><polygon class="cls-4" points="133.35 47.99 133.35 107.99 200 60 200.02 60.01 200.02 0.01 200 0 133.35 47.99"/><polygon class="cls-2" points="133.35 107.99 133.35 122.99 200 75 200.02 75.01 200.02 60.01 200 60 133.35 107.99"/><polygon class="cls-4" points="266.69 32.98 266.69 0 220.83 0 266.67 33 266.69 32.98"/></pattern><radialGradient id="radial-gradient" cx="101.82" cy="59.62" r="71.13" gradientUnits="userSpaceOnUse"><stop offset="0.38" stop-color="#faf091"/><stop offset="0.48" stop-color="#f6e48c"/><stop offset="0.65" stop-color="#edc580"/><stop offset="0.88" stop-color="#dd926d"/><stop offset="1" stop-color="#d47662"/></radialGradient><clipPath id="clip-path-3"><ellipse class="cls-1" cx="102.57" cy="141.45" rx="39.25" ry="55.8"/></clipPath><pattern id="Nueva_muestra_de_motivo_2-5" data-name="Nueva muestra de motivo 2" width="266.69" height="150" patternTransform="translate(-283.34 -302.68) scale(0.2)" patternUnits="userSpaceOnUse" viewBox="0 0 266.69 150"><rect class="cls-1" width="266.69" height="150"/><polygon class="cls-2" points="133.35 122.99 133.35 107.99 133.34 108 66.67 60 66.67 75 133.34 123 133.35 122.99"/><polygon class="cls-3" points="133.35 107.99 133.35 47.99 133.34 48 66.67 0 66.67 60 133.34 108 133.35 107.99"/><polygon class="cls-4" points="133.35 32.99 133.35 0 87.5 0 133.34 33 133.35 32.99"/><polygon class="cls-2" points="133.35 47.99 133.35 32.99 133.34 33 87.5 0 66.67 0 66.67 0 133.34 48 133.35 47.99"/><polygon class="cls-4" points="133.35 122.99 133.34 123 66.67 75 66.67 135 87.5 150 133.35 150 133.35 122.99"/><polygon class="cls-2" points="200.02 0.01 266.67 48 266.69 47.98 266.69 32.98 266.67 33 220.83 0 200.02 0 200.02 0.01"/><polygon class="cls-3" points="66.67 135 66.67 75 66.67 75 0 123 0 150 45.84 150 66.67 135 66.67 135"/><polygon class="cls-3" points="0 0 0 33 45.84 0 0 0"/><polygon class="cls-2" points="66.67 135 66.67 135 45.84 150 66.67 150 66.67 150 66.67 135"/><polygon class="cls-2" points="66.67 150 87.5 150 66.67 135 66.67 150"/><polygon class="cls-3" points="179.17 0 133.35 0 133.35 32.99 179.17 0"/><polygon class="cls-2" points="133.35 47.99 200 0 179.17 0 133.35 32.99 133.35 47.99"/><polygon class="cls-3" points="133.35 122.99 133.35 150 179.17 150 200 135 200.02 135.01 200.02 75.01 200 75 133.35 122.99"/><polygon class="cls-2" points="200.02 150 220.83 150 200.02 135.01 200.02 150"/><polygon class="cls-4" points="200.02 75.01 200.02 135.01 220.83 150 266.69 150 266.69 122.98 266.67 123 200.02 75.01"/><polygon class="cls-2" points="200.02 60.01 200.02 75.01 266.67 123 266.69 122.98 266.69 107.98 266.67 108 200.02 60.01"/><polygon class="cls-2" points="200 135 179.17 150 200 150 200.02 150 200.02 135.01 200 135"/><polygon class="cls-4" points="66.67 60 66.67 0 66.67 0 0 48 0 108 66.67 60 66.67 60"/><polygon class="cls-2" points="45.84 0 0 33 0 48 66.67 0 45.84 0"/><polygon class="cls-2" points="66.67 75 66.67 60 66.67 60 0 108 0 123 66.67 75 66.67 75"/><polygon class="cls-3" points="200.02 0.01 200.02 60.01 266.67 108 266.69 107.98 266.69 47.98 266.67 48 200.02 0.01"/><polygon class="cls-4" points="133.35 47.99 133.35 107.99 200 60 200.02 60.01 200.02 0.01 200 0 133.35 47.99"/><polygon class="cls-2" points="133.35 107.99 133.35 122.99 200 75 200.02 75.01 200.02 60.01 200 60 133.35 107.99"/><polygon class="cls-4" points="266.69 32.98 266.69 0 220.83 0 266.67 33 266.69 32.98"/></pattern></defs><title>4</title><path class="cls-5" d="M156.65,247.47l-27.39-38.81-54.18.65L69.69,262c-.14-.71-50.36-138.87-36-201.79C50.07-8.27,134.75-21.41,150.3,45.27,165.71,141.49,156.65,247.47,156.65,247.47Z"/><g class="cls-6"><rect class="cls-7" x="71.92" y="-57.44" width="273.06" height="191.14"/></g><g class="cls-8"><polygon class="cls-9" points="188.15 120.55 -23.88 106.27 -13.89 -42.15 198.14 -27.87 188.15 120.55"/></g><rect class="cls-10" x="54.68" y="41.37" width="83.3" height="36.49" rx="9.97" ry="9.97"/><rect class="cls-11" x="58.47" y="45.05" width="75.73" height="29.13" rx="7.61" ry="7.61"/><path class="cls-12" d="M108.52,68.27c-1.64-6.59-14.12-11.66-18.14-1"/><path class="cls-13" d="M102.8,50.42c1.13,4.44,9.56,7.81,12.23.63"/><path class="cls-13" d="M81.17,50.1c1.13,4.44,9.56,7.81,12.23.63"/><g class="cls-14"><g class="cls-15"><rect class="cls-16" x="-46.18" y="26.14" width="273.06" height="191.14"/></g></g><path class="cls-17" d="M119.79,69.07c-.85-4,3.74-13.38,3.74-13.38s7,9.42,5.23,13.38C126.4,73.06,122.84,73.06,119.79,69.07Z"/><path class="cls-17" d="M126.88,89.46c-.9-4.16,3.93-14.07,3.93-14.07s7.36,9.9,5.5,14.07C133.82,93.65,130.08,93.65,126.88,89.46Z"/></svg>