<svg id="Layer_1" data-name="Layer 1" xmlns="http://www.w3.org/2000/svg" xmlns:xlink="http://www.w3.org/1999/xlink" width="149" height="262" viewBox="0 0 149 262"><defs><style>.cls-1,.cls-15,.cls-16,.cls-20,.cls-21,.cls-23{fill:none;}.cls-2{clip-path:url(#clip-path);}.cls-3{fill:#84ccb1;}.cls-4{fill:#2cbdbd;}.cls-5{fill:#f9a72e;}.cls-6{fill:#5e4331;}.cls-7{fill:#ef7374;}.cls-8{fill:#ee7922;}.cls-9{fill:#90b0a5;}.cls-10{fill:#fae9b3;}.cls-11{fill:#61887e;}.cls-12{fill:#f2ca26;}.cls-13{fill:url(#radial-gradient);}.cls-14{fill:url(#radial-gradient-2);}.cls-15,.cls-23{stroke:#ed1e79;}.cls-15,.cls-16,.cls-20,.cls-21,.cls-23{stroke-miterlimit:10;}.cls-15{stroke-width:0.5px;stroke-dasharray:2.01 2.01;}.cls-16{stroke:#f15a24;stroke-linecap:round;}.cls-17{fill:#0071bc;}.cls-18{fill:url(#linear-gradient);}.cls-19{fill:url(#linear-gradient-2);}.cls-20{stroke:#00a99d;}.cls-20,.cls-21,.cls-23{stroke-width:2px;}.cls-21{stroke:#baa008;}.cls-22{fill:#00a99d;}.cls-24{fill:#ed1e79;}</style><clipPath id="clip-path"><path class="cls-1" d="M30.73,255.63l23.92-42.15,55.07-4.77,10.74,53c.07-.74,37.21-146,16.35-208.45C113.28-14.67,26-19.52,16.9,49.73,10.9,148.95,30.73,255.63,30.73,255.63Z"/></clipPath><radialGradient id="radial-gradient" cx="78.22" cy="138.48" r="91.91" gradientUnits="userSpaceOnUse"><stop offset="0" stop-color="#fff"/><stop offset="0.71" stop-color="#fcdf90"/></radialGradient><radialGradient id="radial-gradient-2" cx="74.91" cy="58.08" r="77.84" gradientUnits="userSpaceOnUse"><stop offset="0" stop-color="#fff"/><stop offset="0.47" stop-color="#fcdf90"/><stop offset="1" stop-color="#ed1e79"/></radialGradient><linearGradient id="linear-gradient" x1="48.18" y1="-10.9" x2="123.17" y2="60.18" gradientTransform="matrix(0.78, -0.03, -0.03, 1, 47.59, 6.47)" gradientUnits="userSpaceOnUse"><stop offset="0" stop-color="#fff"/><stop offset="0.14" stop-color="#fcdf90"/><stop offset="1" stop-color="#ed1e79"/></linearGradient><linearGradient id="linear-gradient-2" x1="68.63" y1="0.81" x2="-1.44" y2="59.71" gradientTransform="matrix(1, 0, 0, 1, 0, 0)" xlink:href="#linear-gradient"/></defs><title>7</title><g class="cls-2"><polygon class="cls-3" points="0.64 -9.8 0.65 -9.82 0.62 -9.82 -13.04 -26.26 -26.7 -9.82 -26.73 -9.82 -26.72 -9.8 -26.73 -9.78 -26.7 -9.78 -13.04 6.66 0.62 -9.78 0.65 -9.78 0.64 -9.8"/><polygon class="cls-4" points="0.64 23.18 0.65 23.16 0.62 23.16 -13.04 6.72 -26.7 23.16 -26.73 23.16 -26.72 23.18 -26.73 23.2 -26.7 23.2 -13.04 39.64 0.62 23.2 0.65 23.2 0.64 23.18"/><polygon class="cls-3" points="0.64 56.16 0.65 56.14 0.62 56.14 -13.04 39.7 -26.7 56.14 -26.73 56.14 -26.72 56.16 -26.73 56.18 -26.7 56.18 -13.04 72.62 0.62 56.18 0.65 56.18 0.64 56.16"/><polygon class="cls-4" points="0.64 89.14 0.65 89.12 0.62 89.12 -13.04 72.69 -26.7 89.12 -26.73 89.12 -26.72 89.14 -26.73 89.16 -26.7 89.16 -13.04 105.6 0.62 89.16 0.65 89.16 0.64 89.14"/><polygon class="cls-3" points="0.64 122.12 0.65 122.1 0.62 122.1 -13.04 105.67 -26.7 122.1 -26.73 122.1 -26.72 122.12 -26.73 122.14 -26.7 122.14 -13.04 138.58 0.62 122.14 0.65 122.14 0.64 122.12"/><polygon class="cls-5" points="14.26 6.69 14.27 6.67 14.24 6.67 0.58 -9.77 -13.08 6.67 -13.11 6.67 -13.1 6.69 -13.11 6.71 -13.08 6.71 0.58 23.14 14.24 6.71 14.27 6.71 14.26 6.69"/><polygon class="cls-6" points="14.26 39.67 14.27 39.65 14.24 39.65 0.58 23.21 -13.08 39.65 -13.11 39.65 -13.1 39.67 -13.11 39.69 -13.08 39.69 0.58 56.13 14.24 39.69 14.27 39.69 14.26 39.67"/><polygon class="cls-7" points="14.26 72.65 14.27 72.63 14.24 72.63 0.58 56.19 -13.08 72.63 -13.11 72.63 -13.1 72.65 -13.11 72.67 -13.08 72.67 0.58 89.11 14.24 72.67 14.27 72.67 14.26 72.65"/><polygon class="cls-8" points="14.26 105.63 14.27 105.61 14.24 105.61 0.58 89.17 -13.08 105.61 -13.11 105.61 -13.1 105.63 -13.11 105.65 -13.08 105.65 0.58 122.09 14.24 105.65 14.27 105.65 14.26 105.63"/><polygon class="cls-4" points="27.95 -9.8 27.96 -9.82 27.93 -9.82 14.27 -26.26 0.61 -9.82 0.58 -9.82 0.59 -9.8 0.58 -9.78 0.61 -9.78 14.27 6.66 27.93 -9.78 27.96 -9.78 27.95 -9.8"/><polygon class="cls-9" points="27.95 23.18 27.96 23.16 27.93 23.16 14.27 6.72 0.61 23.16 0.58 23.16 0.59 23.18 0.58 23.2 0.61 23.2 14.27 39.64 27.93 23.2 27.96 23.2 27.95 23.18"/><polygon class="cls-10" points="27.95 56.16 27.96 56.14 27.93 56.14 14.27 39.7 0.61 56.14 0.58 56.14 0.59 56.16 0.58 56.18 0.61 56.18 14.27 72.62 27.93 56.18 27.96 56.18 27.95 56.16"/><polygon class="cls-11" points="27.95 89.14 27.96 89.12 27.93 89.12 14.27 72.69 0.61 89.12 0.58 89.12 0.59 89.14 0.58 89.16 0.61 89.16 14.27 105.6 27.93 89.16 27.96 89.16 27.95 89.14"/><polygon class="cls-12" points="27.95 122.12 27.96 122.1 27.93 122.1 14.27 105.67 0.61 122.1 0.58 122.1 0.59 122.12 0.58 122.14 0.61 122.14 14.27 138.58 27.93 122.14 27.96 122.14 27.95 122.12"/><polygon class="cls-8" points="41.64 6.69 41.66 6.67 41.62 6.67 27.96 -9.77 14.3 6.67 14.27 6.67 14.29 6.69 14.27 6.71 14.3 6.71 27.96 23.14 41.62 6.71 41.66 6.71 41.64 6.69"/><polygon class="cls-11" points="41.64 39.67 41.66 39.65 41.62 39.65 27.96 23.21 14.3 39.65 14.27 39.65 14.29 39.67 14.27 39.69 14.3 39.69 27.96 56.13 41.62 39.69 41.66 39.69 41.64 39.67"/><polygon class="cls-12" points="41.64 72.65 41.66 72.63 41.62 72.63 27.96 56.19 14.3 72.63 14.27 72.63 14.29 72.65 14.27 72.67 14.3 72.67 27.96 89.11 41.62 72.67 41.66 72.67 41.64 72.65"/><polygon class="cls-9" points="41.64 105.63 41.66 105.61 41.62 105.61 27.96 89.17 14.3 105.61 14.27 105.61 14.29 105.63 14.27 105.65 14.3 105.65 27.96 122.09 41.62 105.65 41.66 105.65 41.64 105.63"/><polygon class="cls-3" points="55.33 -9.8 55.35 -9.82 55.32 -9.82 41.66 -26.26 28 -9.82 27.96 -9.82 27.98 -9.8 27.96 -9.78 28 -9.78 41.66 6.66 55.32 -9.78 55.35 -9.78 55.33 -9.8"/><polygon class="cls-12" points="55.33 23.18 55.35 23.16 55.32 23.16 41.66 6.72 28 23.16 27.96 23.16 27.98 23.18 27.96 23.2 28 23.2 41.66 39.64 55.32 23.2 55.35 23.2 55.33 23.18"/><polygon class="cls-7" points="55.33 56.16 55.35 56.14 55.32 56.14 41.66 39.7 28 56.14 27.96 56.14 27.98 56.16 27.96 56.18 28 56.18 41.66 72.62 55.32 56.18 55.35 56.18 55.33 56.16"/><polygon class="cls-8" points="55.33 89.14 55.35 89.12 55.32 89.12 41.66 72.69 28 89.12 27.96 89.12 27.98 89.14 27.96 89.16 28 89.16 41.66 105.6 55.32 89.16 55.35 89.16 55.33 89.14"/><polygon class="cls-5" points="55.33 122.12 55.35 122.1 55.32 122.1 41.66 105.67 28 122.1 27.96 122.1 27.98 122.12 27.96 122.14 28 122.14 41.66 138.58 55.32 122.14 55.35 122.14 55.33 122.12"/><polygon class="cls-7" points="68.76 6.69 68.77 6.67 68.74 6.67 55.08 -9.77 41.42 6.67 41.39 6.67 41.41 6.69 41.39 6.71 41.42 6.71 55.08 23.14 68.74 6.71 68.77 6.71 68.76 6.69"/><polygon class="cls-10" points="68.76 39.67 68.77 39.65 68.74 39.65 55.08 23.21 41.42 39.65 41.39 39.65 41.41 39.67 41.39 39.69 41.42 39.69 55.08 56.13 68.74 39.69 68.77 39.69 68.76 39.67"/><polygon class="cls-3" points="68.76 72.65 68.77 72.63 68.74 72.63 55.08 56.19 41.42 72.63 41.39 72.63 41.41 72.65 41.39 72.67 41.42 72.67 55.08 89.11 68.74 72.67 68.77 72.67 68.76 72.65"/><polygon class="cls-4" points="68.76 105.63 68.77 105.61 68.74 105.61 55.08 89.17 41.42 105.61 41.39 105.61 41.41 105.63 41.39 105.65 41.42 105.65 55.08 122.09 68.74 105.65 68.77 105.65 68.76 105.63"/><polygon class="cls-4" points="82.45 -9.8 82.47 -9.82 82.44 -9.82 68.77 -26.26 55.11 -9.82 55.08 -9.82 55.1 -9.8 55.08 -9.78 55.11 -9.78 68.77 6.66 82.44 -9.78 82.47 -9.78 82.45 -9.8"/><polygon class="cls-11" points="82.45 23.18 82.47 23.16 82.44 23.16 68.77 6.72 55.11 23.16 55.08 23.16 55.1 23.18 55.08 23.2 55.11 23.2 68.77 39.64 82.44 23.2 82.47 23.2 82.45 23.18"/><polygon class="cls-6" points="82.45 56.16 82.47 56.14 82.44 56.14 68.77 39.7 55.11 56.14 55.08 56.14 55.1 56.16 55.08 56.18 55.11 56.18 68.77 72.62 82.44 56.18 82.47 56.18 82.45 56.16"/><polygon class="cls-5" points="82.45 89.14 82.47 89.12 82.44 89.12 68.77 72.69 55.11 89.12 55.08 89.12 55.1 89.14 55.08 89.16 55.11 89.16 68.77 105.6 82.44 89.16 82.47 89.16 82.45 89.14"/><polygon class="cls-6" points="82.45 122.12 82.47 122.1 82.44 122.1 68.77 105.67 55.11 122.1 55.08 122.1 55.1 122.12 55.08 122.14 55.11 122.14 68.77 138.58 82.44 122.14 82.47 122.14 82.45 122.12"/><polygon class="cls-6" points="96.14 6.69 96.16 6.67 96.13 6.67 82.47 -9.77 68.81 6.67 68.77 6.67 68.79 6.69 68.77 6.71 68.81 6.71 82.47 23.14 96.13 6.71 96.16 6.71 96.14 6.69"/><polygon class="cls-9" points="96.14 39.67 96.16 39.65 96.13 39.65 82.47 23.21 68.81 39.65 68.77 39.65 68.79 39.67 68.77 39.69 68.81 39.69 82.47 56.13 96.13 39.69 96.16 39.69 96.14 39.67"/><polygon class="cls-4" points="96.14 72.65 96.16 72.63 96.13 72.63 82.47 56.19 68.81 72.63 68.77 72.63 68.79 72.65 68.77 72.67 68.81 72.67 82.47 89.11 96.13 72.67 96.16 72.67 96.14 72.65"/><polygon class="cls-9" points="96.14 105.63 96.16 105.61 96.13 105.61 82.47 89.17 68.81 105.61 68.77 105.61 68.79 105.63 68.77 105.65 68.81 105.65 82.47 122.09 96.13 105.65 96.16 105.65 96.14 105.63"/><polygon class="cls-3" points="109.84 -9.8 109.85 -9.82 109.82 -9.82 96.16 -26.26 82.5 -9.82 82.47 -9.82 82.48 -9.8 82.47 -9.78 82.5 -9.78 96.16 6.66 109.82 -9.78 109.85 -9.78 109.84 -9.8"/><polygon class="cls-10" points="109.84 23.18 109.85 23.16 109.82 23.16 96.16 6.72 82.5 23.16 82.47 23.16 82.48 23.18 82.47 23.2 82.5 23.2 96.16 39.64 109.82 23.2 109.85 23.2 109.84 23.18"/><polygon class="cls-5" points="109.84 56.16 109.85 56.14 109.82 56.14 96.16 39.7 82.5 56.14 82.47 56.14 82.48 56.16 82.47 56.18 82.5 56.18 96.16 72.62 109.82 56.18 109.85 56.18 109.84 56.16"/><polygon class="cls-8" points="109.84 89.14 109.85 89.12 109.82 89.12 96.16 72.69 82.5 89.12 82.47 89.12 82.48 89.14 82.47 89.16 82.5 89.16 96.16 105.6 109.82 89.16 109.85 89.16 109.84 89.14"/><polygon class="cls-11" points="109.84 122.12 109.85 122.1 109.82 122.1 96.16 105.67 82.5 122.1 82.47 122.1 82.48 122.12 82.47 122.14 82.5 122.14 96.16 138.58 109.82 122.14 109.85 122.14 109.84 122.12"/><polygon class="cls-5" points="123.53 6.69 123.55 6.67 123.51 6.67 109.85 -9.77 96.19 6.67 96.16 6.67 96.18 6.69 96.16 6.71 96.19 6.71 109.85 23.14 123.51 6.71 123.55 6.71 123.53 6.69"/><polygon class="cls-12" points="123.53 39.67 123.55 39.65 123.51 39.65 109.85 23.21 96.19 39.65 96.16 39.65 96.18 39.67 96.16 39.69 96.19 39.69 109.85 56.13 123.51 39.69 123.55 39.69 123.53 39.67"/><polygon class="cls-3" points="123.53 72.65 123.55 72.63 123.51 72.63 109.85 56.19 96.19 72.63 96.16 72.63 96.18 72.65 96.16 72.67 96.19 72.67 109.85 89.11 123.51 72.67 123.55 72.67 123.53 72.65"/><polygon class="cls-12" points="123.53 105.63 123.55 105.61 123.51 105.61 109.85 89.17 96.19 105.61 96.16 105.61 96.18 105.63 96.16 105.65 96.19 105.65 109.85 122.09 123.51 105.65 123.55 105.65 123.53 105.63"/><polygon class="cls-4" points="137.22 -9.8 137.24 -9.82 137.21 -9.82 123.55 -26.26 109.88 -9.82 109.85 -9.82 109.87 -9.8 109.85 -9.78 109.88 -9.78 123.55 6.66 137.21 -9.78 137.24 -9.78 137.22 -9.8"/><polygon class="cls-9" points="137.22 23.18 137.24 23.16 137.21 23.16 123.55 6.72 109.88 23.16 109.85 23.16 109.87 23.18 109.85 23.2 109.88 23.2 123.55 39.64 137.21 23.2 137.24 23.2 137.22 23.18"/><polygon class="cls-8" points="137.22 56.16 137.24 56.14 137.21 56.14 123.55 39.7 109.88 56.14 109.85 56.14 109.87 56.16 109.85 56.18 109.88 56.18 123.55 72.62 137.21 56.18 137.24 56.18 137.22 56.16"/><polygon class="cls-7" points="137.22 89.14 137.24 89.12 137.21 89.12 123.55 72.69 109.88 89.12 109.85 89.12 109.87 89.14 109.85 89.16 109.88 89.16 123.55 105.6 137.21 89.16 137.24 89.16 137.22 89.14"/><polygon class="cls-10" points="137.22 122.12 137.24 122.1 137.21 122.1 123.55 105.67 109.88 122.1 109.85 122.1 109.87 122.12 109.85 122.14 109.88 122.14 123.55 138.58 137.21 122.14 137.24 122.14 137.22 122.12"/><polygon class="cls-8" points="150.91 6.69 150.93 6.67 150.9 6.67 137.24 -9.77 123.58 6.67 123.55 6.67 123.56 6.69 123.55 6.71 123.58 6.71 137.24 23.14 150.9 6.71 150.93 6.71 150.91 6.69"/><polygon class="cls-11" points="150.91 39.67 150.93 39.65 150.9 39.65 137.24 23.21 123.58 39.65 123.55 39.65 123.56 39.67 123.55 39.69 123.58 39.69 137.24 56.13 150.9 39.69 150.93 39.69 150.91 39.67"/><polygon class="cls-4" points="150.91 72.65 150.93 72.63 150.9 72.63 137.24 56.19 123.58 72.63 123.55 72.63 123.56 72.65 123.55 72.67 123.58 72.67 137.24 89.11 150.9 72.67 150.93 72.67 150.91 72.65"/><polygon class="cls-11" points="150.91 105.63 150.93 105.61 150.9 105.61 137.24 89.17 123.58 105.61 123.55 105.61 123.56 105.63 123.55 105.65 123.58 105.65 137.24 122.09 150.9 105.65 150.93 105.65 150.91 105.63"/><polygon class="cls-3" points="164.61 -9.8 164.62 -9.82 164.59 -9.82 150.93 -26.26 137.27 -9.82 137.24 -9.82 137.25 -9.8 137.24 -9.78 137.27 -9.78 150.93 6.66 164.59 -9.78 164.62 -9.78 164.61 -9.8"/><polygon class="cls-12" points="164.61 23.18 164.62 23.16 164.59 23.16 150.93 6.72 137.27 23.16 137.24 23.16 137.25 23.18 137.24 23.2 137.27 23.2 150.93 39.64 164.59 23.2 164.62 23.2 164.61 23.18"/><polygon class="cls-7" points="164.61 56.16 164.62 56.14 164.59 56.14 150.93 39.7 137.27 56.14 137.24 56.14 137.25 56.16 137.24 56.18 137.27 56.18 150.93 72.62 164.59 56.18 164.62 56.18 164.61 56.16"/><polygon class="cls-6" points="164.61 89.14 164.62 89.12 164.59 89.12 150.93 72.69 137.27 89.12 137.24 89.12 137.25 89.14 137.24 89.16 137.27 89.16 150.93 105.6 164.59 89.16 164.62 89.16 164.61 89.14"/><polygon class="cls-9" points="164.61 122.12 164.62 122.1 164.59 122.1 150.93 105.67 137.27 122.1 137.24 122.1 137.25 122.12 137.24 122.14 137.27 122.14 150.93 138.58 164.59 122.14 164.62 122.14 164.61 122.12"/><rect class="cls-1" x="-41.25" y="-42.27" width="233.63" height="163.54"/><polygon class="cls-6" points="0.41 155.04 0.43 155.02 0.4 155.02 -13.29 138.58 -26.99 155.02 -27.02 155.02 -27 155.04 -27.02 155.06 -26.99 155.06 -13.29 171.49 0.4 155.06 0.43 155.06 0.41 155.04"/><polygon class="cls-5" points="0.41 188.02 0.43 188 0.4 188 -13.29 171.56 -26.99 188 -27.02 188 -27 188.02 -27.02 188.04 -26.99 188.04 -13.29 204.47 0.4 188.04 0.43 188.04 0.41 188.02"/><polygon class="cls-6" points="0.41 221 0.43 220.98 0.4 220.98 -13.29 204.54 -26.99 220.98 -27.02 220.98 -27 221 -27.02 221.02 -26.99 221.02 -13.29 237.46 0.4 221.02 0.43 221.02 0.41 221"/><polygon class="cls-7" points="0.41 253.98 0.43 253.96 0.4 253.96 -13.29 237.52 -26.99 253.96 -27.02 253.96 -27 253.98 -27.02 254 -26.99 254 -13.29 270.44 0.4 254 0.43 254 0.41 253.98"/><polygon class="cls-9" points="14.14 138.55 14.15 138.53 14.12 138.53 0.43 122.09 -13.26 138.53 -13.29 138.53 -13.28 138.55 -13.29 138.57 -13.26 138.57 0.43 155 14.12 138.57 14.15 138.57 14.14 138.55"/><polygon class="cls-4" points="14.14 171.53 14.15 171.51 14.12 171.51 0.43 155.07 -13.26 171.51 -13.29 171.51 -13.28 171.53 -13.29 171.55 -13.26 171.55 0.43 187.98 14.12 171.55 14.15 171.55 14.14 171.53"/><polygon class="cls-9" points="14.14 204.51 14.15 204.49 14.12 204.49 0.43 188.05 -13.26 204.49 -13.29 204.49 -13.28 204.51 -13.29 204.53 -13.26 204.53 0.43 220.97 14.12 204.53 14.15 204.53 14.14 204.51"/><polygon class="cls-10" points="14.14 237.49 14.15 237.47 14.12 237.47 0.43 221.03 -13.26 237.47 -13.29 237.47 -13.28 237.49 -13.29 237.51 -13.26 237.51 0.43 253.94 14.12 237.51 14.15 237.51 14.14 237.49"/><polygon class="cls-11" points="14.14 270.47 14.15 270.45 14.12 270.45 0.43 254.01 -13.26 270.45 -13.29 270.45 -13.28 270.47 -13.29 270.49 -13.26 270.49 0.43 286.93 14.12 270.49 14.15 270.49 14.14 270.47"/><polygon class="cls-5" points="27.86 155.04 27.88 155.02 27.84 155.02 14.15 138.58 0.46 155.02 0.43 155.02 0.45 155.04 0.43 155.06 0.46 155.06 14.15 171.49 27.84 155.06 27.88 155.06 27.86 155.04"/><polygon class="cls-8" points="27.86 188.02 27.88 188 27.84 188 14.15 171.56 0.46 188 0.43 188 0.45 188.02 0.43 188.04 0.46 188.04 14.15 204.47 27.84 188.04 27.88 188.04 27.86 188.02"/><polygon class="cls-11" points="27.86 221 27.88 220.98 27.84 220.98 14.15 204.54 0.46 220.98 0.43 220.98 0.45 221 0.43 221.02 0.46 221.02 14.15 237.46 27.84 221.02 27.88 221.02 27.86 221"/><polygon class="cls-12" points="27.86 253.98 27.88 253.96 27.84 253.96 14.15 237.52 0.46 253.96 0.43 253.96 0.45 253.98 0.43 254 0.46 254 14.15 270.44 27.84 254 27.88 254 27.86 253.98"/><polygon class="cls-12" points="41.58 138.55 41.6 138.53 41.57 138.53 27.88 122.09 14.19 138.53 14.15 138.53 14.17 138.55 14.15 138.57 14.19 138.57 27.88 155 41.57 138.57 41.6 138.57 41.58 138.55"/><polygon class="cls-3" points="41.58 171.53 41.6 171.51 41.57 171.51 27.88 155.07 14.19 171.51 14.15 171.51 14.17 171.53 14.15 171.55 14.19 171.55 27.88 187.98 41.57 171.55 41.6 171.55 41.58 171.53"/><polygon class="cls-12" points="41.58 204.51 41.6 204.49 41.57 204.49 27.88 188.05 14.19 204.49 14.15 204.49 14.17 204.51 14.15 204.53 14.19 204.53 27.88 220.97 41.57 204.53 41.6 204.53 41.58 204.51"/><polygon class="cls-7" points="41.58 237.49 41.6 237.47 41.57 237.47 27.88 221.03 14.19 237.47 14.15 237.47 14.17 237.49 14.15 237.51 14.19 237.51 27.88 253.94 41.57 237.51 41.6 237.51 41.58 237.49"/><polygon class="cls-8" points="41.58 270.47 41.6 270.45 41.57 270.45 27.88 254.01 14.19 270.45 14.15 270.45 14.17 270.47 14.15 270.49 14.19 270.49 27.88 286.93 41.57 270.49 41.6 270.49 41.58 270.47"/><polygon class="cls-8" points="55.04 155.04 55.06 155.02 55.02 155.02 41.33 138.58 27.64 155.02 27.61 155.02 27.63 155.04 27.61 155.06 27.64 155.06 41.33 171.49 55.02 155.06 55.06 155.06 55.04 155.04"/><polygon class="cls-7" points="55.04 188.02 55.06 188 55.02 188 41.33 171.56 27.64 188 27.61 188 27.63 188.02 27.61 188.04 27.64 188.04 41.33 204.47 55.02 188.04 55.06 188.04 55.04 188.02"/><polygon class="cls-10" points="55.04 221 55.06 220.98 55.02 220.98 41.33 204.54 27.64 220.98 27.61 220.98 27.63 221 27.61 221.02 27.64 221.02 41.33 237.46 55.02 221.02 55.06 221.02 55.04 221"/><polygon class="cls-3" points="55.04 253.98 55.06 253.96 55.02 253.96 41.33 237.52 27.64 253.96 27.61 253.96 27.63 253.98 27.61 254 27.64 254 41.33 270.44 55.02 254 55.06 254 55.04 253.98"/><polygon class="cls-11" points="68.76 138.55 68.78 138.53 68.75 138.53 55.06 122.09 41.37 138.53 41.33 138.53 41.35 138.55 41.33 138.57 41.37 138.57 55.06 155 68.75 138.57 68.78 138.57 68.76 138.55"/><polygon class="cls-4" points="68.76 171.53 68.78 171.51 68.75 171.51 55.06 155.07 41.37 171.51 41.33 171.51 41.35 171.53 41.33 171.55 41.37 171.55 55.06 187.98 68.75 171.55 68.78 171.55 68.76 171.53"/><polygon class="cls-11" points="68.76 204.51 68.78 204.49 68.75 204.49 55.06 188.05 41.37 204.49 41.33 204.49 41.35 204.51 41.33 204.53 41.37 204.53 55.06 220.97 68.75 204.53 68.78 204.53 68.76 204.51"/><polygon class="cls-6" points="68.76 237.49 68.78 237.47 68.75 237.47 55.06 221.03 41.37 237.47 41.33 237.47 41.35 237.49 41.33 237.51 41.37 237.51 55.06 253.94 68.75 237.51 68.78 237.51 68.76 237.49"/><polygon class="cls-5" points="68.76 270.47 68.78 270.45 68.75 270.45 55.06 254.01 41.37 270.45 41.33 270.45 41.35 270.47 41.33 270.49 41.37 270.49 55.06 286.93 68.75 270.49 68.78 270.49 68.76 270.47"/><polygon class="cls-7" points="82.49 155.04 82.5 155.02 82.47 155.02 68.78 138.58 55.09 155.02 55.06 155.02 55.07 155.04 55.06 155.06 55.09 155.06 68.78 171.49 82.47 155.06 82.5 155.06 82.49 155.04"/><polygon class="cls-6" points="82.49 188.02 82.5 188 82.47 188 68.78 171.56 55.09 188 55.06 188 55.07 188.02 55.06 188.04 55.09 188.04 68.78 204.47 82.47 188.04 82.5 188.04 82.49 188.02"/><polygon class="cls-9" points="82.49 221 82.5 220.98 82.47 220.98 68.78 204.54 55.09 220.98 55.06 220.98 55.07 221 55.06 221.02 55.09 221.02 68.78 237.46 82.47 221.02 82.5 221.02 82.49 221"/><polygon class="cls-4" points="82.49 253.98 82.5 253.96 82.47 253.96 68.78 237.52 55.09 253.96 55.06 253.96 55.07 253.98 55.06 254 55.09 254 68.78 270.44 82.47 254 82.5 254 82.49 253.98"/><polygon class="cls-10" points="96.21 138.55 96.23 138.53 96.2 138.53 82.5 122.09 68.81 138.53 68.78 138.53 68.8 138.55 68.78 138.57 68.81 138.57 82.5 155 96.2 138.57 96.23 138.57 96.21 138.55"/><polygon class="cls-3" points="96.21 171.53 96.23 171.51 96.2 171.51 82.5 155.07 68.81 171.51 68.78 171.51 68.8 171.53 68.78 171.55 68.81 171.55 82.5 187.98 96.2 171.55 96.23 171.55 96.21 171.53"/><polygon class="cls-10" points="96.21 204.51 96.23 204.49 96.2 204.49 82.5 188.05 68.81 204.49 68.78 204.49 68.8 204.51 68.78 204.53 68.81 204.53 82.5 220.97 96.2 204.53 96.23 204.53 96.21 204.51"/><polygon class="cls-5" points="96.21 237.49 96.23 237.47 96.2 237.47 82.5 221.03 68.81 237.47 68.78 237.47 68.8 237.49 68.78 237.51 68.81 237.51 82.5 253.94 96.2 237.51 96.23 237.51 96.21 237.49"/><polygon class="cls-8" points="96.21 270.47 96.23 270.45 96.2 270.45 82.5 254.01 68.81 270.45 68.78 270.45 68.8 270.47 68.78 270.49 68.81 270.49 82.5 286.93 96.2 270.49 96.23 270.49 96.21 270.47"/><polygon class="cls-6" points="109.94 155.04 109.95 155.02 109.92 155.02 96.23 138.58 82.54 155.02 82.5 155.02 82.52 155.04 82.5 155.06 82.54 155.06 96.23 171.49 109.92 155.06 109.95 155.06 109.94 155.04"/><polygon class="cls-5" points="109.94 188.02 109.95 188 109.92 188 96.23 171.56 82.54 188 82.5 188 82.52 188.02 82.5 188.04 82.54 188.04 96.23 204.47 109.92 188.04 109.95 188.04 109.94 188.02"/><polygon class="cls-12" points="109.94 221 109.95 220.98 109.92 220.98 96.23 204.54 82.54 220.98 82.5 220.98 82.52 221 82.5 221.02 82.54 221.02 96.23 237.46 109.92 221.02 109.95 221.02 109.94 221"/><polygon class="cls-3" points="109.94 253.98 109.95 253.96 109.92 253.96 96.23 237.52 82.54 253.96 82.5 253.96 82.52 253.98 82.5 254 82.54 254 96.23 270.44 109.92 254 109.95 254 109.94 253.98"/><polygon class="cls-9" points="123.66 138.55 123.68 138.53 123.64 138.53 109.95 122.09 96.26 138.53 96.23 138.53 96.24 138.55 96.23 138.57 96.26 138.57 109.95 155 123.64 138.57 123.68 138.57 123.66 138.55"/><polygon class="cls-4" points="123.66 171.53 123.68 171.51 123.64 171.51 109.95 155.07 96.26 171.51 96.23 171.51 96.24 171.53 96.23 171.55 96.26 171.55 109.95 187.98 123.64 171.55 123.68 171.55 123.66 171.53"/><polygon class="cls-9" points="123.66 204.51 123.68 204.49 123.64 204.49 109.95 188.05 96.26 204.49 96.23 204.49 96.24 204.51 96.23 204.53 96.26 204.53 109.95 220.97 123.64 204.53 123.68 204.53 123.66 204.51"/><polygon class="cls-8" points="123.66 237.49 123.68 237.47 123.64 237.47 109.95 221.03 96.26 237.47 96.23 237.47 96.24 237.49 96.23 237.51 96.26 237.51 109.95 253.94 123.64 237.51 123.68 237.51 123.66 237.49"/><polygon class="cls-7" points="123.66 270.47 123.68 270.45 123.64 270.45 109.95 254.01 96.26 270.45 96.23 270.45 96.24 270.47 96.23 270.49 96.26 270.49 109.95 286.93 123.64 270.49 123.68 270.49 123.66 270.47"/><polygon class="cls-5" points="137.38 155.04 137.4 155.02 137.37 155.02 123.68 138.58 109.98 155.02 109.95 155.02 109.97 155.04 109.95 155.06 109.98 155.06 123.68 171.49 137.37 155.06 137.4 155.06 137.38 155.04"/><polygon class="cls-8" points="137.38 188.02 137.4 188 137.37 188 123.68 171.56 109.98 188 109.95 188 109.97 188.02 109.95 188.04 109.98 188.04 123.68 204.47 137.37 188.04 137.4 188.04 137.38 188.02"/><polygon class="cls-11" points="137.38 221 137.4 220.98 137.37 220.98 123.68 204.54 109.98 220.98 109.95 220.98 109.97 221 109.95 221.02 109.98 221.02 123.68 237.46 137.37 221.02 137.4 221.02 137.38 221"/><polygon class="cls-4" points="137.38 253.98 137.4 253.96 137.37 253.96 123.68 237.52 109.98 253.96 109.95 253.96 109.97 253.98 109.95 254 109.98 254 123.68 270.44 137.37 254 137.4 254 137.38 253.98"/><polygon class="cls-12" points="151.11 138.55 151.12 138.53 151.09 138.53 137.4 122.09 123.71 138.53 123.68 138.53 123.69 138.55 123.68 138.57 123.71 138.57 137.4 155 151.09 138.57 151.12 138.57 151.11 138.55"/><polygon class="cls-3" points="151.11 171.53 151.12 171.51 151.09 171.51 137.4 155.07 123.71 171.51 123.68 171.51 123.69 171.53 123.68 171.55 123.71 171.55 137.4 187.98 151.09 171.55 151.12 171.55 151.11 171.53"/><polygon class="cls-12" points="151.11 204.51 151.12 204.49 151.09 204.49 137.4 188.05 123.71 204.49 123.68 204.49 123.69 204.51 123.68 204.53 123.71 204.53 137.4 220.97 151.09 204.53 151.12 204.53 151.11 204.51"/><polygon class="cls-7" points="151.11 237.49 151.12 237.47 151.09 237.47 137.4 221.03 123.71 237.47 123.68 237.47 123.69 237.49 123.68 237.51 123.71 237.51 137.4 253.94 151.09 237.51 151.12 237.51 151.11 237.49"/><polygon class="cls-6" points="151.11 270.47 151.12 270.45 151.09 270.45 137.4 254.01 123.71 270.45 123.68 270.45 123.69 270.47 123.68 270.49 123.71 270.49 137.4 286.93 151.09 270.49 151.12 270.49 151.11 270.47"/><polygon class="cls-8" points="164.83 155.04 164.85 155.02 164.81 155.02 151.12 138.58 137.43 155.02 137.4 155.02 137.42 155.04 137.4 155.06 137.43 155.06 151.12 171.49 164.81 155.06 164.85 155.06 164.83 155.04"/><polygon class="cls-7" points="164.83 188.02 164.85 188 164.81 188 151.12 171.56 137.43 188 137.4 188 137.42 188.02 137.4 188.04 137.43 188.04 151.12 204.47 164.81 188.04 164.85 188.04 164.83 188.02"/><polygon class="cls-10" points="164.83 221 164.85 220.98 164.81 220.98 151.12 204.54 137.43 220.98 137.4 220.98 137.42 221 137.4 221.02 137.43 221.02 151.12 237.46 164.81 221.02 164.85 221.02 164.83 221"/><polygon class="cls-3" points="164.83 253.98 164.85 253.96 164.81 253.96 151.12 237.52 137.43 253.96 137.4 253.96 137.42 253.98 137.4 254 137.43 254 151.12 270.44 164.81 254 164.85 254 164.83 253.98"/><rect class="cls-1" x="-55.21" y="139.06" width="234.16" height="163.54"/></g><ellipse class="cls-13" cx="78.22" cy="138.48" rx="48.58" ry="56.52"/><rect class="cls-14" x="36.94" y="41.45" width="75.95" height="33.27" rx="6.24" ry="6.24"/><rect class="cls-15" x="39.19" y="44.43" width="70.91" height="27.91" rx="5.23" ry="5.23"/><path class="cls-16" d="M81.64,67.35c-.84-5.87-11.53-9.32-16.16.78"/><circle class="cls-17" cx="56.21" cy="56.53" r="5.56"/><circle class="cls-17" cx="90.19" cy="55.9" r="5.56"/><path class="cls-18" d="M87.62,2.56l6.76,24.49c26.41,5,54.44,48.23,54.44,48.23S146.32,58,135.3,38C122.23,14.17,111.31-4.44,87.62,2.56Z"/><path class="cls-19" d="M63,.17,60.65,24.9C32.05,6.15,0,60.82,0,60.82S25.66.64,63,.17Z"/><circle class="cls-20" cx="68.72" cy="157.36" r="7.98" transform="translate(-64.66 49.22) rotate(-27.37)"/><line class="cls-21" x1="68.43" y1="148.52" x2="68.14" y2="148.67"/><line class="cls-20" x1="68.14" y1="148.67" x2="69.69" y2="127.15"/><path class="cls-22" d="M74.5,135.17a.56.56,0,0,1-.76-.23l-4.07-7.54-5.11,6.88a.56.56,0,0,1-.9-.67L69.29,126a.56.56,0,0,1,.94.07l4.49,8.31a.56.56,0,0,1-.23.76Z"/><circle class="cls-23" cx="98.59" cy="139.95" r="7.98" transform="translate(-4.17 3.03) rotate(-1.73)"/><line class="cls-23" x1="90.5" y1="136.38" x2="90.51" y2="136.71"/><line class="cls-23" x1="90.51" y1="136.71" x2="71.77" y2="126"/><path class="cls-24" d="M81.09,125.13a.56.56,0,0,1-.53.59l-8.56.41,4,7.58a.56.56,0,0,1-1,.52l-4.4-8.36a.56.56,0,0,1,.47-.82l9.44-.45a.56.56,0,0,1,.59.53Z"/></svg>