<svg id="Layer_1" data-name="Layer 1" xmlns="http://www.w3.org/2000/svg" xmlns:xlink="http://www.w3.org/1999/xlink" width="165" height="262" viewBox="0 0 165 262"><defs><style>.cls-1{fill:url(#radial-gradient);}.cls-2{fill:#050547;}.cls-12,.cls-3,.cls-4{fill:none;}.cls-3{stroke:#10e80a;stroke-width:0.5px;stroke-dasharray:2.02 2.02;}.cls-3,.cls-4{stroke-miterlimit:10;}.cls-4{stroke:#d8f411;stroke-linecap:round;}.cls-5{fill:#06ebf7;}.cls-6{fill:url(#radial-gradient-2);}.cls-7{fill:url(#radial-gradient-3);}.cls-8{fill:url(#linear-gradient);}.cls-9{fill:url(#linear-gradient-2);}.cls-10{fill:url(#radial-gradient-4);}.cls-11{fill:#fff;}.cls-13{fill:#231f20;}</style><radialGradient id="radial-gradient" cx="92.47" cy="74.8" r="170.99" gradientUnits="userSpaceOnUse"><stop offset="0" stop-color="#fff"/><stop offset="0.09" stop-color="#f7fef7"/><stop offset="0.23" stop-color="#e1fce0"/><stop offset="0.4" stop-color="#bdf9bb"/><stop offset="0.6" stop-color="#8af487"/><stop offset="0.82" stop-color="#4bee47"/><stop offset="1" stop-color="#10e80a"/></radialGradient><radialGradient id="radial-gradient-2" cx="122.16" cy="65.35" r="6.7" gradientUnits="userSpaceOnUse"><stop offset="0.04" stop-color="#fff"/><stop offset="0.26" stop-color="#fcee21"/><stop offset="0.72" stop-color="#f9b21f"/><stop offset="1" stop-color="#f7931e"/></radialGradient><radialGradient id="radial-gradient-3" cx="129.51" cy="85.56" r="7.04" xlink:href="#radial-gradient-2"/><linearGradient id="linear-gradient" x1="86.02" y1="-5.71" x2="163.93" y2="68.13" gradientUnits="userSpaceOnUse"><stop offset="0" stop-color="aqua"/><stop offset="0.11" stop-color="#06cdde"/><stop offset="0.23" stop-color="#0b9dbe"/><stop offset="0.35" stop-color="#1073a2"/><stop offset="0.47" stop-color="#14508c"/><stop offset="0.6" stop-color="#17367a"/><stop offset="0.73" stop-color="#19236e"/><stop offset="0.86" stop-color="#1b1866"/><stop offset="1" stop-color="#1b1464"/></linearGradient><linearGradient id="linear-gradient-2" x1="93.93" y1="2.17" x2="0.7" y2="80.53" xlink:href="#linear-gradient"/><radialGradient id="radial-gradient-4" cx="110.01" cy="136.1" r="125.97" gradientTransform="translate(19.13) scale(0.7 1)" gradientUnits="userSpaceOnUse"><stop offset="0.04" stop-color="#fff"/><stop offset="0.2" stop-color="#fefbdf"/><stop offset="0.45" stop-color="#fdf5b4"/><stop offset="0.68" stop-color="#fdf196"/><stop offset="0.87" stop-color="#fcef83"/><stop offset="1" stop-color="#fcee7c"/></radialGradient></defs><title>2</title><path class="cls-1" d="M152.37,247.4l-27.52-39-54.43.65L65,262c-.14-.72-50.59-139.51-36.19-202.71,16.48-68.8,101.56-82,117.18-15C161.47,140.94,152.37,247.4,152.37,247.4Z"/><rect class="cls-2" x="50.66" y="38.36" width="83.68" height="36.66" rx="9.97" ry="9.97"/><rect class="cls-3" x="54.35" y="42.69" width="76.07" height="29.26" rx="7.61" ry="7.61"/><path class="cls-4" d="M100.73,66.72C99.08,60.1,86.55,55,82.51,65.67"/><circle class="cls-5" cx="71.47" cy="51.68" r="4.75"/><circle class="cls-5" cx="111.32" cy="51.55" r="5.33"/><path class="cls-6" d="M117.56,70.57c-.86-4,3.76-13.45,3.76-13.45s7,9.47,5.26,13.45C124.2,74.58,120.63,74.58,117.56,70.57Z"/><path class="cls-7" d="M124.68,91c-.9-4.18,3.95-14.13,3.95-14.13S136,86.87,134.15,91C131.66,95.26,127.9,95.26,124.68,91Z"/><path class="cls-8" d="M91.83.1l7.35,22.05c32.16-5.51,65.35,68.4,65.35,68.4S151.56-3.57,91.83.1Z"/><path class="cls-9" d="M85.4.1,90,25.83C61.83,7.37.17,79.09.17,79.09S46.81,3.78,85.4.1Z"/><ellipse class="cls-10" cx="96.51" cy="136.1" rx="39.43" ry="56.05"/><ellipse class="cls-11" cx="96.32" cy="137.63" rx="23.05" ry="21.43"/><path class="cls-12" d="M113.58,139v-2.61h4.11a21.47,21.47,0,0,0-20.13-20.15v4.13H95v-4.13a21.47,21.47,0,0,0-20.13,20.15h4.11V139H74.83A21.47,21.47,0,0,0,95,159.06V155h2.61v4.09A21.47,21.47,0,0,0,117.68,139Zm-5.45,0h-11a1.79,1.79,0,0,1-2.91-2.07l-8.16-10.73.83-.63L95,136.21a1.79,1.79,0,0,1,2.29.83h10.79Z"/><path class="cls-13" d="M83.61,158.93c-.93,1-1.88,2.53-.61,4.09,1.47,1.81,4-.44,5.37-1.9a24.88,24.88,0,0,0,15.61.05c1.37,1.46,3.87,3.64,5.32,1.85,1.23-1.52.37-3-.54-4a24.78,24.78,0,0,0,7-36.6,9,9,0,1,0-15.28-9.19,25,25,0,0,0-9.39.16A9,9,0,1,0,76.28,123a24.78,24.78,0,0,0,7.34,36Zm13.95.12V155H95v4.09A21.47,21.47,0,0,1,74.83,139h4.11v-2.61H74.82A21.47,21.47,0,0,1,95,116.19v4.13h2.61v-4.13a21.47,21.47,0,0,1,20.13,20.15h-4.11V139h4.11A21.47,21.47,0,0,1,97.56,159.06Z"/><path class="cls-13" d="M95.74,136.07a1.78,1.78,0,0,0-.7.14l-8.13-10.69-.83.63,8.16,10.73A1.79,1.79,0,0,0,97.15,139h11V137H97.33A1.79,1.79,0,0,0,95.74,136.07Z"/></svg>