<svg id="Layer_1" data-name="Layer 1" xmlns="http://www.w3.org/2000/svg" xmlns:xlink="http://www.w3.org/1999/xlink" width="177" height="262" viewBox="0 0 177 262"><defs><style>.cls-1,.cls-4,.cls-5{fill:none;}.cls-2{fill:url(#radial-gradient);}.cls-3{fill:url(#New_Gradient_Swatch);}.cls-4{stroke:#2e3192;stroke-width:0.5px;stroke-dasharray:2.01 2.01;}.cls-4,.cls-5{stroke-miterlimit:10;}.cls-5{stroke:#ed1e79;stroke-linecap:round;}.cls-6{fill:#1b1464;}.cls-7{fill:#00a99d;}.cls-8{clip-path:url(#clip-path);}.cls-9{fill:#90b0a5;}.cls-10{fill:#fae9b3;}.cls-11{fill:#61887e;}.cls-12{fill:#f2ca26;}.cls-13{fill:#f9a72e;}.cls-14{fill:#5e4331;}.cls-15{fill:#ef7374;}.cls-16{fill:#2cbdbd;}.cls-17{fill:#84ccb1;}.cls-18{fill:#ee7922;}.cls-19{fill:url(#radial-gradient-2);}.cls-20{clip-path:url(#clip-path-2);}</style><radialGradient id="radial-gradient" cx="94.04" cy="131.38" r="167.68" gradientUnits="userSpaceOnUse"><stop offset="0" stop-color="#fff"/><stop offset="0.28" stop-color="#fcdf90"/><stop offset="0.31" stop-color="#fac98d"/><stop offset="0.4" stop-color="#f79c88"/><stop offset="0.49" stop-color="#f47583"/><stop offset="0.58" stop-color="#f15680"/><stop offset="0.67" stop-color="#ef3d7d"/><stop offset="0.77" stop-color="#ee2c7b"/><stop offset="0.87" stop-color="#ed2179"/><stop offset="1" stop-color="#ed1e79"/></radialGradient><linearGradient id="New_Gradient_Swatch" x1="54.14" y1="57.03" x2="168.13" y2="57.03" gradientUnits="userSpaceOnUse"><stop offset="0.02" stop-color="#fff"/><stop offset="0.12" stop-color="#f4fbfd"/><stop offset="0.28" stop-color="#d6eff9"/><stop offset="0.5" stop-color="#a5dcf3"/><stop offset="0.75" stop-color="#62c1ea"/><stop offset="0.96" stop-color="#29abe2"/></linearGradient><clipPath id="clip-path"><path class="cls-1" d="M98.62.1l7.34,22c32.11-5.5,65.24,68.29,65.24,68.29S158.25-3.56,98.62.1Z"/></clipPath><radialGradient id="radial-gradient-2" cx="111.89" cy="136.32" r="193.5" gradientTransform="translate(21.21) scale(0.7 1)" gradientUnits="userSpaceOnUse"><stop offset="0" stop-color="#fff"/><stop offset="0.71" stop-color="#fcdf90"/></radialGradient><clipPath id="clip-path-2"><path class="cls-1" d="M85.1,1.3,89.82,27C61.61,8.68.42,80.59.42,80.59S46.59,5.17,85.1,1.3Z"/></clipPath></defs><title>1</title><path class="cls-2" d="M155.67,247.43,128.2,208.5l-54.34.65L68.46,262C68.33,261.28,18,122.73,32.33,59.63c16.45-68.68,101.38-81.86,117-15C164.76,141.14,155.67,247.43,155.67,247.43Z"/><rect class="cls-3" x="54.14" y="38.74" width="83.54" height="36.59" rx="9.97" ry="9.97"/><rect class="cls-4" x="57.83" y="43.07" width="75.94" height="29.21" rx="7.61" ry="7.61"/><path class="cls-5" d="M104.12,67.05c-1.65-6.61-14.16-11.7-18.19-1"/><circle class="cls-6" cx="74.91" cy="52.03" r="4.74"/><circle class="cls-6" cx="114.69" cy="51.91" r="5.32"/><path class="cls-7" d="M120.92,70.89c-.86-4,3.75-13.42,3.75-13.42s7,9.45,5.25,13.42C127.55,74.9,124,74.9,120.92,70.89Z"/><path class="cls-7" d="M128,91.34c-.9-4.17,3.94-14.11,3.94-14.11s7.38,9.93,5.51,14.11C135,95.55,131.24,95.55,128,91.34Z"/><g class="cls-8"><polygon class="cls-9" points="64.2 -16.05 64.22 -16.06 64.18 -16.06 50.72 -32.22 37.26 -16.06 37.23 -16.06 37.25 -16.05 37.23 -16.03 37.26 -16.03 50.72 0.13 64.18 -16.03 64.22 -16.03 64.2 -16.05"/><polygon class="cls-10" points="64.2 16.38 64.22 16.36 64.18 16.36 50.72 0.2 37.26 16.36 37.23 16.36 37.25 16.38 37.23 16.4 37.26 16.4 50.72 32.56 64.18 16.4 64.22 16.4 64.2 16.38"/><polygon class="cls-11" points="64.2 48.8 64.22 48.78 64.18 48.78 50.72 32.63 37.26 48.78 37.23 48.78 37.25 48.8 37.23 48.82 37.26 48.82 50.72 64.98 64.18 48.82 64.22 48.82 64.2 48.8"/><polygon class="cls-12" points="64.2 81.23 64.22 81.21 64.18 81.21 50.72 65.05 37.26 81.21 37.23 81.21 37.25 81.23 37.23 81.25 37.26 81.25 50.72 97.41 64.18 81.25 64.22 81.25 64.2 81.23"/><polygon class="cls-13" points="77.69 0.17 77.71 0.15 77.68 0.15 64.22 -16.01 50.75 0.15 50.72 0.15 50.74 0.17 50.72 0.19 50.75 0.19 64.22 16.34 77.68 0.19 77.71 0.19 77.69 0.17"/><polygon class="cls-14" points="77.69 32.59 77.71 32.57 77.68 32.57 64.22 16.41 50.75 32.57 50.72 32.57 50.74 32.59 50.72 32.61 50.75 32.61 64.22 48.77 77.68 32.61 77.71 32.61 77.69 32.59"/><polygon class="cls-15" points="77.69 65.02 77.71 65 77.68 65 64.22 48.84 50.75 65 50.72 65 50.74 65.02 50.72 65.03 50.75 65.03 64.22 81.19 77.68 65.03 77.71 65.03 77.69 65.02"/><polygon class="cls-16" points="91.18 -16.05 91.2 -16.06 91.17 -16.06 77.71 -32.22 64.25 -16.06 64.22 -16.06 64.23 -16.05 64.22 -16.03 64.25 -16.03 77.71 0.13 91.17 -16.03 91.2 -16.03 91.18 -16.05"/><polygon class="cls-17" points="91.18 16.38 91.2 16.36 91.17 16.36 77.71 0.2 64.25 16.36 64.22 16.36 64.23 16.38 64.22 16.4 64.25 16.4 77.71 32.56 91.17 16.4 91.2 16.4 91.18 16.38"/><polygon class="cls-16" points="91.18 48.8 91.2 48.78 91.17 48.78 77.71 32.63 64.25 48.78 64.22 48.78 64.23 48.8 64.22 48.82 64.25 48.82 77.71 64.98 91.17 48.82 91.2 48.82 91.18 48.8"/><polygon class="cls-17" points="91.18 81.23 91.2 81.21 91.17 81.21 77.71 65.05 64.25 81.21 64.22 81.21 64.23 81.23 64.22 81.25 64.25 81.25 77.71 97.41 91.17 81.25 91.2 81.25 91.18 81.23"/><polygon class="cls-14" points="104.6 0.17 104.62 0.15 104.59 0.15 91.13 -16.01 77.67 0.15 77.63 0.15 77.65 0.17 77.63 0.19 77.67 0.19 91.13 16.34 104.59 0.19 104.62 0.19 104.6 0.17"/><polygon class="cls-15" points="104.6 32.59 104.62 32.57 104.59 32.57 91.13 16.41 77.67 32.57 77.63 32.57 77.65 32.59 77.63 32.61 77.67 32.61 91.13 48.77 104.59 32.61 104.62 32.61 104.6 32.59"/><polygon class="cls-18" points="104.6 65.02 104.62 65 104.59 65 91.13 48.84 77.67 65 77.63 65 77.65 65.02 77.63 65.03 77.67 65.03 91.13 81.19 104.59 65.03 104.62 65.03 104.6 65.02"/><polygon class="cls-9" points="118.09 -16.05 118.11 -16.06 118.08 -16.06 104.62 -32.22 91.16 -16.06 91.13 -16.06 91.14 -16.05 91.13 -16.03 91.16 -16.03 104.62 0.13 118.08 -16.03 118.11 -16.03 118.09 -16.05"/><polygon class="cls-10" points="118.09 16.38 118.11 16.36 118.08 16.36 104.62 0.2 91.16 16.36 91.13 16.36 91.14 16.38 91.13 16.4 91.16 16.4 104.62 32.56 118.08 16.4 118.11 16.4 118.09 16.38"/><polygon class="cls-11" points="118.09 48.8 118.11 48.78 118.08 48.78 104.62 32.63 91.16 48.78 91.13 48.78 91.14 48.8 91.13 48.82 91.16 48.82 104.62 64.98 118.08 48.82 118.11 48.82 118.09 48.8"/><polygon class="cls-12" points="118.09 81.23 118.11 81.21 118.08 81.21 104.62 65.05 91.16 81.21 91.13 81.21 91.14 81.23 91.13 81.25 91.16 81.25 104.62 97.41 118.08 81.25 118.11 81.25 118.09 81.23"/><polygon class="cls-11" points="131.59 0.17 131.6 0.15 131.57 0.15 118.11 -16.01 104.65 0.15 104.62 0.15 104.63 0.17 104.62 0.19 104.65 0.19 118.11 16.34 131.57 0.19 131.6 0.19 131.59 0.17"/><polygon class="cls-12" points="131.59 32.59 131.6 32.57 131.57 32.57 118.11 16.41 104.65 32.57 104.62 32.57 104.63 32.59 104.62 32.61 104.65 32.61 118.11 48.77 131.57 32.61 131.6 32.61 131.59 32.59"/><polygon class="cls-9" points="131.59 65.02 131.6 65 131.57 65 118.11 48.84 104.65 65 104.62 65 104.63 65.02 104.62 65.03 104.65 65.03 118.11 81.19 131.57 65.03 131.6 65.03 131.59 65.02"/><polygon class="cls-12" points="145.08 -16.05 145.09 -16.06 145.06 -16.06 131.6 -32.22 118.14 -16.06 118.11 -16.06 118.13 -16.05 118.11 -16.03 118.14 -16.03 131.6 0.13 145.06 -16.03 145.09 -16.03 145.08 -16.05"/><polygon class="cls-15" points="145.08 16.38 145.09 16.36 145.06 16.36 131.6 0.2 118.14 16.36 118.11 16.36 118.13 16.38 118.11 16.4 118.14 16.4 131.6 32.56 145.06 16.4 145.09 16.4 145.08 16.38"/><polygon class="cls-18" points="145.08 48.8 145.09 48.78 145.06 48.78 131.6 32.63 118.14 48.78 118.11 48.78 118.13 48.8 118.11 48.82 118.14 48.82 131.6 64.98 145.06 48.82 145.09 48.82 145.08 48.8"/><polygon class="cls-13" points="145.08 81.23 145.09 81.21 145.06 81.21 131.6 65.05 118.14 81.21 118.11 81.21 118.13 81.23 118.11 81.25 118.14 81.25 131.6 97.41 145.06 81.25 145.09 81.25 145.08 81.23"/><polygon class="cls-10" points="158.31 0.17 158.32 0.15 158.29 0.15 144.83 -16.01 131.37 0.15 131.34 0.15 131.35 0.17 131.34 0.19 131.37 0.19 144.83 16.34 158.29 0.19 158.32 0.19 158.31 0.17"/><polygon class="cls-17" points="158.31 32.59 158.32 32.57 158.29 32.57 144.83 16.41 131.37 32.57 131.34 32.57 131.35 32.59 131.34 32.61 131.37 32.61 144.83 48.77 158.29 32.61 158.32 32.61 158.31 32.59"/><polygon class="cls-16" points="158.31 65.02 158.32 65 158.29 65 144.83 48.84 131.37 65 131.34 65 131.35 65.02 131.34 65.03 131.37 65.03 144.83 81.19 158.29 65.03 158.32 65.03 158.31 65.02"/><polygon class="cls-11" points="171.8 -16.05 171.82 -16.06 171.78 -16.06 158.32 -32.22 144.86 -16.06 144.83 -16.06 144.85 -16.05 144.83 -16.03 144.86 -16.03 158.32 0.13 171.78 -16.03 171.82 -16.03 171.8 -16.05"/><polygon class="cls-14" points="171.8 16.38 171.82 16.36 171.78 16.36 158.32 0.2 144.86 16.36 144.83 16.36 144.85 16.38 144.83 16.4 144.86 16.4 158.32 32.56 171.78 16.4 171.82 16.4 171.8 16.38"/><polygon class="cls-13" points="171.8 48.8 171.82 48.78 171.78 48.78 158.32 32.63 144.86 48.78 144.83 48.78 144.85 48.8 144.83 48.82 144.86 48.82 158.32 64.98 171.78 48.82 171.82 48.82 171.8 48.8"/><polygon class="cls-14" points="171.8 81.23 171.82 81.21 171.78 81.21 158.32 65.05 144.86 81.21 144.83 81.21 144.85 81.23 144.83 81.25 144.86 81.25 158.32 97.41 171.78 81.25 171.82 81.25 171.8 81.23"/><polygon class="cls-9" points="185.29 0.17 185.31 0.15 185.28 0.15 171.82 -16.01 158.36 0.15 158.32 0.15 158.34 0.17 158.32 0.19 158.36 0.19 171.82 16.34 185.28 0.19 185.31 0.19 185.29 0.17"/><polygon class="cls-16" points="185.29 32.59 185.31 32.57 185.28 32.57 171.82 16.41 158.36 32.57 158.32 32.57 158.34 32.59 158.32 32.61 158.36 32.61 171.82 48.77 185.28 32.61 185.31 32.61 185.29 32.59"/><polygon class="cls-9" points="185.29 65.02 185.31 65 185.28 65 171.82 48.84 158.36 65 158.32 65 158.34 65.02 158.32 65.03 158.36 65.03 171.82 81.19 185.28 65.03 185.31 65.03 185.29 65.02"/><polygon class="cls-10" points="198.79 -16.05 198.8 -16.06 198.77 -16.06 185.31 -32.22 171.85 -16.06 171.82 -16.06 171.83 -16.05 171.82 -16.03 171.85 -16.03 185.31 0.13 198.77 -16.03 198.8 -16.03 198.79 -16.05"/><polygon class="cls-13" points="198.79 16.38 198.8 16.36 198.77 16.36 185.31 0.2 171.85 16.36 171.82 16.36 171.83 16.38 171.82 16.4 171.85 16.4 185.31 32.56 198.77 16.4 198.8 16.4 198.79 16.38"/><polygon class="cls-18" points="198.79 48.8 198.8 48.78 198.77 48.78 185.31 32.63 171.85 48.78 171.82 48.78 171.83 48.8 171.82 48.82 171.85 48.82 185.31 64.98 198.77 48.82 198.8 48.82 198.79 48.8"/><polygon class="cls-11" points="198.79 81.23 198.8 81.21 198.77 81.21 185.31 65.05 171.85 81.21 171.82 81.21 171.83 81.23 171.82 81.25 171.85 81.25 185.31 97.41 198.77 81.25 198.8 81.25 198.79 81.23"/><rect class="cls-1" x="49.91" y="-80.39" width="230.21" height="160.78"/></g><ellipse class="cls-19" cx="99.91" cy="136.32" rx="39.36" ry="55.96"/><g class="cls-20"><polygon class="cls-16" points="6.83 14.41 6.84 14.39 6.81 14.39 -6.73 -1.7 -20.11 14.53 -20.14 14.53 -20.12 14.55 -20.14 14.57 -20.11 14.57 -6.57 30.66 6.81 14.43 6.84 14.43 6.83 14.41"/><polygon class="cls-17" points="7 46.84 7.01 46.82 6.98 46.82 -6.56 30.73 -19.94 46.96 -19.97 46.96 -19.96 46.98 -19.97 46.99 -19.94 46.99 -6.4 63.09 6.98 46.86 7.01 46.86 7 46.84"/><polygon class="cls-16" points="7.16 79.26 7.18 79.24 7.14 79.24 -6.4 63.15 -19.78 79.38 -19.81 79.38 -19.79 79.4 -19.81 79.42 -19.78 79.42 -6.23 95.51 7.14 79.28 7.18 79.28 7.16 79.26"/><polygon class="cls-17" points="7.33 111.69 7.34 111.67 7.31 111.67 -6.23 95.58 -19.61 111.8 -19.64 111.8 -19.63 111.82 -19.64 111.84 -19.61 111.84 -6.07 127.93 7.31 111.7 7.34 111.7 7.33 111.69"/><polygon class="cls-13" points="20.16 -1.87 20.18 -1.89 20.15 -1.89 6.61 -17.98 -6.77 -1.75 -6.8 -1.75 -6.79 -1.73 -6.8 -1.71 -6.77 -1.71 6.77 14.38 20.15 -1.85 20.18 -1.85 20.16 -1.87"/><polygon class="cls-14" points="20.33 30.56 20.35 30.54 20.31 30.54 6.77 14.45 -6.61 30.68 -6.64 30.68 -6.62 30.7 -6.64 30.71 -6.61 30.71 6.94 46.8 20.31 30.58 20.35 30.57 20.33 30.56"/><polygon class="cls-15" points="20.5 62.98 20.51 62.96 20.48 62.96 6.94 46.87 -6.44 63.1 -6.47 63.1 -6.46 63.12 -6.47 63.14 -6.44 63.14 7.1 79.23 20.48 63 20.51 63 20.5 62.98"/><polygon class="cls-18" points="20.66 95.4 20.68 95.39 20.65 95.39 7.1 79.3 -6.28 95.52 -6.31 95.52 -6.29 95.54 -6.31 95.56 -6.28 95.56 7.27 111.65 20.65 95.42 20.68 95.42 20.66 95.4"/><polygon class="cls-9" points="33.74 14.28 33.76 14.26 33.72 14.26 20.18 -1.83 6.8 14.39 6.77 14.39 6.79 14.41 6.77 14.43 6.8 14.43 20.35 30.52 33.72 14.29 33.76 14.29 33.74 14.28"/><polygon class="cls-10" points="33.91 46.7 33.92 46.68 33.89 46.68 20.35 30.59 6.97 46.82 6.94 46.82 6.95 46.84 6.94 46.86 6.97 46.86 20.51 62.95 33.89 46.72 33.92 46.72 33.91 46.7"/><polygon class="cls-11" points="34.07 79.12 34.09 79.1 34.06 79.1 20.51 63.01 7.13 79.24 7.1 79.24 7.12 79.26 7.1 79.28 7.13 79.28 20.68 95.37 34.06 79.14 34.09 79.14 34.07 79.12"/><polygon class="cls-12" points="34.24 111.55 34.25 111.53 34.22 111.53 20.68 95.44 7.3 111.67 7.27 111.67 7.29 111.69 7.27 111.7 7.3 111.7 20.84 127.79 34.22 111.57 34.25 111.57 34.24 111.55"/><polygon class="cls-18" points="47.15 -2.01 47.16 -2.02 47.13 -2.02 33.59 -18.11 20.21 -1.89 20.18 -1.89 20.2 -1.87 20.18 -1.85 20.21 -1.85 33.76 14.24 47.13 -1.99 47.16 -1.99 47.15 -2.01"/><polygon class="cls-11" points="47.31 30.42 47.33 30.4 47.3 30.4 33.76 14.31 20.38 30.54 20.35 30.54 20.36 30.56 20.35 30.57 20.38 30.57 33.92 46.67 47.3 30.44 47.33 30.44 47.31 30.42"/><polygon class="cls-12" points="47.48 62.84 47.5 62.82 47.47 62.82 33.92 46.73 20.54 62.96 20.51 62.96 20.53 62.98 20.51 63 20.54 63 34.09 79.09 47.47 62.86 47.5 62.86 47.48 62.84"/><polygon class="cls-9" points="47.65 95.27 47.66 95.25 47.63 95.25 34.09 79.16 20.71 95.39 20.68 95.39 20.69 95.4 20.68 95.42 20.71 95.42 34.25 111.51 47.63 95.28 47.66 95.28 47.65 95.27"/><polygon class="cls-12" points="60.72 14.14 60.74 14.12 60.71 14.12 47.16 -1.97 33.79 14.26 33.76 14.26 33.77 14.28 33.76 14.29 33.79 14.29 47.33 30.38 60.71 14.16 60.74 14.16 60.72 14.14"/><polygon class="cls-15" points="60.89 46.56 60.91 46.54 60.87 46.54 47.33 30.45 33.95 46.68 33.92 46.68 33.94 46.7 33.92 46.72 33.95 46.72 47.5 62.81 60.87 46.58 60.91 46.58 60.89 46.56"/><polygon class="cls-18" points="61.06 78.98 61.07 78.97 61.04 78.97 47.5 62.88 34.12 79.1 34.09 79.1 34.1 79.12 34.09 79.14 34.12 79.14 47.66 95.23 61.04 79 61.07 79 61.06 78.98"/><polygon class="cls-13" points="61.22 111.41 61.24 111.39 61.21 111.39 47.66 95.3 34.28 111.53 34.25 111.53 34.27 111.55 34.25 111.57 34.28 111.57 47.83 127.66 61.21 111.43 61.24 111.43 61.22 111.41"/><polygon class="cls-15" points="73.87 -2.14 73.89 -2.16 73.85 -2.16 60.31 -18.25 46.93 -2.02 46.9 -2.02 46.92 -2 46.9 -1.99 46.93 -1.99 60.48 14.11 73.85 -2.12 73.89 -2.12 73.87 -2.14"/><polygon class="cls-10" points="74.04 30.28 74.05 30.26 74.02 30.26 60.48 14.17 47.1 30.4 47.07 30.4 47.08 30.42 47.07 30.44 47.1 30.44 60.64 46.53 74.02 30.3 74.05 30.3 74.04 30.28"/><polygon class="cls-17" points="74.2 62.7 74.22 62.69 74.19 62.69 60.64 46.6 47.27 62.82 47.23 62.83 47.25 62.84 47.23 62.86 47.27 62.86 60.81 78.95 74.19 62.72 74.22 62.72 74.2 62.7"/><polygon class="cls-16" points="74.37 95.13 74.38 95.11 74.35 95.11 60.81 79.02 47.43 95.25 47.4 95.25 47.41 95.27 47.4 95.29 47.43 95.29 60.98 111.38 74.35 95.15 74.38 95.15 74.37 95.13"/><polygon class="cls-11" points="87.44 14 87.46 13.98 87.43 13.98 73.89 -2.11 60.51 14.12 60.48 14.12 60.49 14.14 60.48 14.16 60.51 14.16 74.05 30.25 87.43 14.02 87.46 14.02 87.44 14"/><polygon class="cls-14" points="87.61 46.42 87.63 46.41 87.6 46.41 74.05 30.32 60.67 46.54 60.64 46.54 60.66 46.56 60.64 46.58 60.67 46.58 74.22 62.67 87.6 46.44 87.63 46.44 87.61 46.42"/><polygon class="cls-13" points="87.78 78.85 87.79 78.83 87.76 78.83 74.22 62.74 60.84 78.97 60.81 78.97 60.83 78.99 60.81 79 60.84 79 74.38 95.09 87.76 78.87 87.79 78.87 87.78 78.85"/><polygon class="cls-14" points="87.94 111.27 87.96 111.25 87.93 111.25 74.38 95.16 61.01 111.39 60.98 111.39 60.99 111.41 60.98 111.43 61.01 111.43 74.55 127.52 87.93 111.29 87.96 111.29 87.94 111.27"/><polygon class="cls-14" points="100.85 -2.28 100.87 -2.3 100.84 -2.3 87.3 -18.39 73.92 -2.16 73.89 -2.16 73.9 -2.14 73.89 -2.12 73.92 -2.12 87.46 13.97 100.84 -2.26 100.87 -2.26 100.85 -2.28"/><polygon class="cls-9" points="101.02 30.14 101.04 30.12 101 30.12 87.46 14.03 74.08 30.26 74.05 30.26 74.07 30.28 74.05 30.3 74.08 30.3 87.63 46.39 101 30.16 101.04 30.16 101.02 30.14"/><polygon class="cls-16" points="101.19 62.57 101.2 62.55 101.17 62.55 87.63 46.46 74.25 62.69 74.22 62.69 74.23 62.7 74.22 62.72 74.25 62.72 87.79 78.81 101.17 62.59 101.2 62.59 101.19 62.57"/><polygon class="cls-9" points="101.35 94.99 101.37 94.97 101.34 94.97 87.79 78.88 74.42 95.11 74.38 95.11 74.4 95.13 74.38 95.15 74.42 95.15 87.96 111.24 101.34 95.01 101.37 95.01 101.35 94.99"/><polygon class="cls-10" points="114.43 13.86 114.44 13.84 114.41 13.84 100.87 -2.25 87.49 13.98 87.46 13.98 87.48 14 87.46 14.02 87.49 14.02 101.04 30.11 114.41 13.88 114.45 13.88 114.43 13.86"/><polygon class="cls-13" points="114.6 46.29 114.61 46.27 114.58 46.27 101.04 30.18 87.66 46.41 87.63 46.41 87.64 46.42 87.63 46.44 87.66 46.44 101.2 62.53 114.58 46.3 114.61 46.3 114.6 46.29"/><polygon class="cls-18" points="114.76 78.71 114.78 78.69 114.75 78.69 101.2 62.6 87.83 78.83 87.79 78.83 87.81 78.85 87.79 78.87 87.83 78.87 101.37 94.96 114.75 78.73 114.78 78.73 114.76 78.71"/><polygon class="cls-11" points="114.93 111.13 114.94 111.11 114.91 111.11 101.37 95.03 87.99 111.25 87.96 111.25 87.97 111.27 87.96 111.29 87.99 111.29 101.53 127.38 114.91 111.15 114.94 111.15 114.93 111.13"/><polygon class="cls-13" points="127.84 -2.42 127.86 -2.44 127.82 -2.44 114.28 -18.53 100.9 -2.3 100.87 -2.3 100.89 -2.28 100.87 -2.26 100.9 -2.26 114.44 13.83 127.82 -2.4 127.86 -2.4 127.84 -2.42"/><polygon class="cls-12" points="128 30 128.02 29.99 127.99 29.99 114.45 13.9 101.07 30.12 101.04 30.12 101.05 30.14 101.04 30.16 101.07 30.16 114.61 46.25 127.99 30.02 128.02 30.02 128 30"/><polygon class="cls-17" points="128.17 62.43 128.19 62.41 128.16 62.41 114.61 46.32 101.23 62.55 101.2 62.55 101.22 62.57 101.2 62.59 101.23 62.59 114.78 78.68 128.16 62.45 128.19 62.45 128.17 62.43"/><polygon class="cls-12" points="128.34 94.85 128.35 94.83 128.32 94.83 114.78 78.74 101.4 94.97 101.37 94.97 101.38 94.99 101.37 95.01 101.4 95.01 114.94 111.1 128.32 94.87 128.35 94.87 128.34 94.85"/><polygon class="cls-9" points="141.41 13.72 141.43 13.71 141.4 13.71 127.86 -2.38 114.48 13.84 114.44 13.84 114.46 13.86 114.45 13.88 114.48 13.88 128.02 29.97 141.4 13.74 141.43 13.74 141.41 13.72"/><polygon class="cls-18" points="141.58 46.15 141.6 46.13 141.56 46.13 128.02 30.04 114.64 46.27 114.61 46.27 114.63 46.29 114.61 46.3 114.64 46.3 128.19 62.4 141.56 46.17 141.6 46.17 141.58 46.15"/><polygon class="cls-15" points="141.75 78.57 141.76 78.55 141.73 78.55 128.19 62.46 114.81 78.69 114.78 78.69 114.79 78.71 114.78 78.73 114.81 78.73 128.35 94.82 141.73 78.59 141.76 78.59 141.75 78.57"/><polygon class="cls-10" points="141.91 111 141.93 110.98 141.9 110.98 128.35 94.89 114.97 111.11 114.94 111.11 114.96 111.13 114.94 111.15 114.98 111.15 128.52 127.24 141.9 111.01 141.93 111.01 141.91 111"/><polygon class="cls-18" points="154.82 -2.56 154.84 -2.58 154.81 -2.58 141.26 -18.67 127.89 -2.44 127.86 -2.44 127.87 -2.42 127.86 -2.4 127.89 -2.4 141.43 13.69 154.81 -2.54 154.84 -2.54 154.82 -2.56"/><polygon class="cls-11" points="154.99 29.87 155 29.85 154.97 29.85 141.43 13.76 128.05 29.99 128.02 29.99 128.04 30 128.02 30.02 128.05 30.02 141.6 46.11 154.97 29.89 155 29.89 154.99 29.87"/><polygon class="cls-16" points="155.16 62.29 155.17 62.27 155.14 62.27 141.6 46.18 128.22 62.41 128.19 62.41 128.2 62.43 128.19 62.45 128.22 62.45 141.76 78.54 155.14 62.31 155.17 62.31 155.16 62.29"/><polygon class="cls-11" points="155.32 94.71 155.34 94.69 155.31 94.69 141.76 78.61 128.38 94.83 128.35 94.83 128.37 94.85 128.35 94.87 128.38 94.87 141.93 110.96 155.31 94.73 155.34 94.73 155.32 94.71"/><polygon class="cls-12" points="168.4 13.59 168.41 13.57 168.38 13.57 154.84 -2.52 141.46 13.71 141.43 13.71 141.45 13.72 141.43 13.74 141.46 13.74 155 29.83 168.38 13.6 168.41 13.6 168.4 13.59"/><polygon class="cls-15" points="168.56 46.01 168.58 45.99 168.55 45.99 155.01 29.9 141.63 46.13 141.6 46.13 141.61 46.15 141.6 46.17 141.63 46.17 155.17 62.26 168.55 46.03 168.58 46.03 168.56 46.01"/><polygon class="cls-14" points="168.73 78.43 168.75 78.41 168.72 78.41 155.17 62.32 141.79 78.55 141.76 78.55 141.78 78.57 141.76 78.59 141.79 78.59 155.34 94.68 168.72 78.45 168.75 78.45 168.73 78.43"/><polygon class="cls-9" points="168.9 110.86 168.91 110.84 168.88 110.84 155.34 94.75 141.96 110.98 141.93 110.98 141.94 111 141.93 111.01 141.96 111.01 155.5 127.1 168.88 110.88 168.91 110.88 168.9 110.86"/><polygon class="cls-15" points="181.81 -2.7 181.82 -2.71 181.79 -2.71 168.25 -18.8 154.87 -2.58 154.84 -2.58 154.85 -2.56 154.84 -2.54 154.87 -2.54 168.41 13.55 181.79 -2.68 181.82 -2.68 181.81 -2.7"/><polygon class="cls-10" points="181.97 29.73 181.99 29.71 181.96 29.71 168.41 13.62 155.04 29.85 155 29.85 155.02 29.87 155 29.89 155.04 29.89 168.58 45.98 181.96 29.75 181.99 29.75 181.97 29.73"/><polygon class="cls-17" points="182.14 62.15 182.16 62.13 182.12 62.13 168.58 46.04 155.2 62.27 155.17 62.27 155.19 62.29 155.17 62.31 155.2 62.31 168.75 78.4 182.13 62.17 182.16 62.17 182.14 62.15"/><polygon class="cls-10" points="182.31 94.58 182.32 94.56 182.29 94.56 168.75 78.47 155.37 94.69 155.34 94.69 155.35 94.71 155.34 94.73 155.37 94.73 168.91 110.82 182.29 94.59 182.32 94.59 182.31 94.58"/><polygon class="cls-11" points="195.38 13.45 195.4 13.43 195.37 13.43 181.82 -2.66 168.45 13.57 168.41 13.57 168.43 13.59 168.41 13.6 168.45 13.6 181.99 29.69 195.37 13.47 195.4 13.47 195.38 13.45"/><polygon class="cls-14" points="195.55 45.87 195.56 45.85 195.53 45.85 181.99 29.76 168.61 45.99 168.58 45.99 168.6 46.01 168.58 46.03 168.61 46.03 182.16 62.12 195.53 45.89 195.56 45.89 195.55 45.87"/><polygon class="cls-13" points="195.72 78.3 195.73 78.28 195.7 78.28 182.16 62.19 168.78 78.41 168.75 78.41 168.76 78.43 168.75 78.45 168.78 78.45 182.32 94.54 195.7 78.31 195.73 78.31 195.72 78.3"/><polygon class="cls-12" points="195.88 110.72 195.9 110.7 195.87 110.7 182.32 94.61 168.94 110.84 168.91 110.84 168.93 110.86 168.91 110.88 168.94 110.88 182.49 126.97 195.87 110.74 195.9 110.74 195.88 110.72"/><rect class="cls-1" x="-34.36" y="-50.31" width="230.21" height="160.78" transform="translate(-0.15 0.41) rotate(-0.29)"/></g><path class="cls-6" d="M126.1,122.66a21.81,21.81,0,0,0-4.28-5.68c-4.77,5.24-13.63,14.91-13.63,14.91s7.95-10.41,12.31-16.09a28.78,28.78,0,0,0-13.67-6.1c-.07,0-.72-.14-.8.75v21.65H77.43a9.19,9.19,0,0,0-9.32,4.27c-1.08,1.75-.49,3.17.48,3.13a3.61,3.61,0,0,0,2.64-1.56,5.67,5.67,0,0,1,4.09-2.38c1.62,6.69,6.9,12.29,14.07,15.3a6.84,6.84,0,0,0-1.21-.12c-4.07,0-7.37,3.6-7.37,8s3.3,8,7.37,8,7.37-3.6,7.37-8a8.16,8.16,0,0,0-3.85-7.06,32.13,32.13,0,0,0,19.45,0,8.17,8.17,0,0,0-3.77,7c0,4.44,3.3,8,7.37,8s7.36-3.6,7.36-8-3.3-8-7.36-8a6.79,6.79,0,0,0-1.08.1c8.3-3.5,14.08-10.46,14.53-18.57-3.69.15-20.4.65-20.4.65s17.06-2.41,20.39-2.84a18.51,18.51,0,0,0-1.28-5.67c-6,2.57-19,8.06-19,8.06S120.29,125.78,126.1,122.66Zm-37.93,39.2A3.08,3.08,0,1,1,91,158.78,3,3,0,0,1,88.17,161.85Zm26.65-6.15a3.08,3.08,0,1,1-2.82,3.07A3,3,0,0,1,114.82,155.71Zm5-10.93c-.48.18-9,5.28-18.92,5.17-10.44.41-19.42-7.14-19.8-7.93-1.33-1.33-1.78-3.19-1.08-3.59s1.78.24,3,1.43c.3.62,8,8.2,18,8.61C110.49,149.33,119.36,144.94,119.86,144.78Z"/></svg>