<svg id="Layer_1" data-name="Layer 1" xmlns="http://www.w3.org/2000/svg" xmlns:xlink="http://www.w3.org/1999/xlink" width="157" height="262" viewBox="0 0 157 262"><defs><style>.cls-1,.cls-2,.cls-6,.cls-7{fill:none;}.cls-2{stroke:#007534;}.cls-2,.cls-7{stroke-linecap:round;}.cls-3{fill:#dee19f;}.cls-4{fill:url(#Hexagon_Chinese_Color);}.cls-5{fill:url(#radial-gradient);}.cls-6,.cls-7{stroke:#ed1e79;stroke-miterlimit:10;}.cls-6{stroke-width:0.5px;stroke-dasharray:1.98 1.98;}.cls-8{fill:#4839b2;}.cls-9{fill:url(#radial-gradient-2);}.cls-10{fill:url(#New_Gradient_Swatch);}.cls-11{fill:url(#New_Gradient_Swatch-2);}.cls-12{fill:url(#linear-gradient);}.cls-13{fill:url(#linear-gradient-2);}.cls-14{font-size:84.38px;fill:#ed1e79;font-family:LoudnoiseSkew, Loud noise Skew;}</style><pattern id="Hexagon_Chinese_Color" data-name="Hexagon Chinese Color" width="55.43" height="96" patternTransform="translate(-142.44 25.1) scale(1.83)" patternUnits="userSpaceOnUse" viewBox="0 0 55.43 96"><rect class="cls-1" width="55.43" height="96"/><polyline class="cls-2" points="55.43 125.33 80.83 110.67 80.83 93.63"/><polyline class="cls-2" points="55.43 122.67 78.52 109.33 78.52 93.63"/><polyline class="cls-2" points="55.43 120 76.21 108 76.21 93.62"/><polyline class="cls-2" points="55.43 128 83.14 112 83.14 93.63"/><polyline class="cls-2" points="55.43 92 55.43 96 52.83 97.5"/><line class="cls-2" x1="55.43" y1="96" x2="76.21" y2="108"/><line class="cls-2" x1="16.14" y1="97.31" x2="20.77" y2="94.63"/><line class="cls-2" x1="13.84" y1="95.98" x2="20.78" y2="91.97"/><line class="cls-2" x1="39.28" y1="97.3" x2="34.66" y2="94.63"/><line class="cls-2" x1="41.59" y1="95.98" x2="34.65" y2="91.97"/><polyline class="cls-2" points="0 125.33 25.4 110.67 25.4 93.63"/><polyline class="cls-2" points="0 122.67 23.09 109.33 23.09 93.63"/><polyline class="cls-2" points="0 120 20.79 108 20.79 93.62"/><polyline class="cls-2" points="30.02 93.63 30.02 110.67 55.43 125.33"/><polyline class="cls-2" points="32.33 93.63 32.33 109.33 55.43 122.67"/><polyline class="cls-2" points="34.64 93.62 34.64 108 55.43 120"/><polyline class="cls-2" points="27.71 93.63 27.71 112 55.43 128"/><polyline class="cls-2" points="0 128 27.71 112 27.71 93.63"/><line class="cls-2" x1="2.31" y1="94.67" x2="20.8" y2="105.32"/><line class="cls-2" x1="4.62" y1="93.33" x2="20.82" y2="102.71"/><line class="cls-2" x1="6.93" y1="92" x2="20.82" y2="99.96"/><polyline class="cls-2" points="55.43 92 55.43 96 58.03 97.5"/><line class="cls-2" x1="55.43" y1="96" x2="34.64" y2="108"/><line class="cls-2" x1="53.12" y1="94.67" x2="34.63" y2="105.32"/><line class="cls-2" x1="50.81" y1="93.33" x2="34.61" y2="102.71"/><line class="cls-2" x1="48.5" y1="92" x2="34.61" y2="99.96"/><polyline class="cls-2" points="0 92 0 96 -2.6 97.5"/><line class="cls-2" y1="96" x2="20.78" y2="108"/><polyline class="cls-2" points="-25.4 93.63 -25.4 110.67 0 125.33"/><polyline class="cls-2" points="-23.09 93.63 -23.09 109.33 0 122.67"/><polyline class="cls-2" points="-20.78 93.62 -20.78 108 0 120"/><polyline class="cls-2" points="-27.71 93.63 -27.71 112 0 128"/><polyline class="cls-2" points="0 92 0 96 2.6 97.5"/><line class="cls-2" y1="96" x2="-20.78" y2="108"/><line class="cls-2" x1="55.43" y1="8" x2="55.43" y2="24"/><polyline class="cls-2" points="55.43 66.67 80.83 81.33 80.83 98.37"/><polyline class="cls-2" points="55.43 69.33 78.52 82.67 78.52 98.38"/><polyline class="cls-2" points="55.43 72 76.21 84 76.21 98.38"/><polyline class="cls-2" points="55.43 29.33 80.83 14.67 80.83 -2.37"/><polyline class="cls-2" points="55.43 26.67 78.52 13.33 78.52 -2.38"/><polyline class="cls-2" points="55.43 24 76.21 12 76.21 -2.38"/><polygon class="cls-2" points="110.85 32 110.85 64 83.14 80 55.43 64 55.43 32 83.14 16 110.85 32"/><polyline class="cls-2" points="55.43 64 83.14 80 83.14 98.37"/><polyline class="cls-2" points="55.43 32 83.14 16 83.14 -2.37"/><polyline class="cls-2" points="55.43 72 55.43 96 58.89 98"/><line class="cls-2" x1="55.43" y1="96" x2="51.96" y2="98"/><polyline class="cls-2" points="55.43 -4 55.43 0 52.83 1.5"/><line class="cls-2" x1="55.43" x2="76.21" y2="12"/><polyline class="cls-2" points="53.39 3.84 55.43 2.67 73.89 13.35"/><polyline class="cls-2" points="53.96 6.18 55.43 5.33 71.64 14.68"/><polyline class="cls-2" points="54.52 8.52 55.43 8 69.27 16.05"/><rect class="cls-3" width="55.43" height="96"/><line class="cls-2" x1="34.66" y1="30.71" x2="36.98" y2="29.37"/><line class="cls-2" x1="34.66" y1="33.37" x2="39.28" y2="30.69"/><line class="cls-2" x1="34.65" y1="36.03" x2="41.59" y2="32.02"/><line class="cls-2" x1="34.65" y1="38.68" x2="43.89" y2="33.35"/><line class="cls-2" x1="34.65" y1="41.34" x2="46.19" y2="34.67"/><line class="cls-2" x1="34.64" y1="44" x2="48.5" y2="36"/><line class="cls-2" x1="46.16" y1="50.63" x2="48.48" y2="49.29"/><line class="cls-2" x1="43.86" y1="49.31" x2="48.49" y2="46.63"/><line class="cls-2" x1="41.55" y1="47.98" x2="48.49" y2="43.97"/><line class="cls-2" x1="39.25" y1="46.65" x2="48.49" y2="41.32"/><line class="cls-2" x1="36.95" y1="45.33" x2="48.5" y2="38.66"/><line class="cls-2" x1="9.27" y1="50.63" x2="6.94" y2="49.29"/><line class="cls-2" x1="11.57" y1="49.3" x2="6.94" y2="46.63"/><line class="cls-2" x1="13.87" y1="47.98" x2="6.94" y2="43.97"/><line class="cls-2" x1="16.18" y1="46.65" x2="6.94" y2="41.32"/><line class="cls-2" x1="18.48" y1="45.33" x2="6.93" y2="38.66"/><line class="cls-2" x1="20.79" y1="44" x2="6.93" y2="36"/><line class="cls-2" x1="20.77" y1="30.71" x2="18.45" y2="29.37"/><line class="cls-2" x1="20.77" y1="33.37" x2="16.14" y2="30.69"/><line class="cls-2" x1="20.78" y1="36.02" x2="13.84" y2="32.02"/><line class="cls-2" x1="20.78" y1="38.68" x2="11.54" y2="33.35"/><line class="cls-2" x1="20.78" y1="41.34" x2="9.23" y2="34.67"/><line class="cls-2" x1="39.22" y1="62.66" x2="39.22" y2="65.34"/><line class="cls-2" x1="36.91" y1="61.33" x2="36.91" y2="66.67"/><line class="cls-2" x1="34.61" y1="60" x2="34.61" y2="68"/><line class="cls-2" x1="32.31" y1="58.66" x2="32.31" y2="69.34"/><line class="cls-2" x1="30.01" y1="57.33" x2="30.01" y2="70.67"/><line class="cls-2" x1="27.71" y1="56" x2="27.71" y2="72"/><line class="cls-2" x1="16.21" y1="62.66" x2="16.21" y2="65.34"/><line class="cls-2" x1="18.51" y1="61.33" x2="18.51" y2="66.67"/><line class="cls-2" x1="20.81" y1="60" x2="20.81" y2="68"/><line class="cls-2" x1="23.11" y1="58.66" x2="23.11" y2="69.34"/><line class="cls-2" x1="25.41" y1="57.33" x2="25.41" y2="70.67"/><line class="cls-2" x1="18.45" y1="2.63" x2="20.77" y2="1.29"/><line class="cls-2" x1="16.14" y1="1.31" x2="20.77" y2="-1.37"/><line class="cls-2" x1="13.84" y1="-0.02" x2="20.78" y2="-4.03"/><line class="cls-2" x1="11.5" y1="14.66" x2="11.5" y2="17.34"/><line class="cls-2" x1="9.2" y1="13.33" x2="9.2" y2="18.67"/><line class="cls-2" x1="6.9" y1="12" x2="6.9" y2="20"/><line class="cls-2" x1="4.6" y1="10.66" x2="4.6" y2="21.34"/><line class="cls-2" x1="2.3" y1="9.33" x2="2.3" y2="22.67"/><line class="cls-2" y1="8" y2="24"/><line class="cls-2" x1="36.98" y1="2.63" x2="34.66" y2="1.29"/><line class="cls-2" x1="39.28" y1="1.3" x2="34.66" y2="-1.37"/><line class="cls-2" x1="41.59" y1="-0.02" x2="34.65" y2="-4.03"/><line class="cls-2" x1="55.43" y1="8" x2="55.43" y2="24"/><line class="cls-2" x1="43.92" y1="14.66" x2="43.92" y2="17.34"/><line class="cls-2" x1="46.22" y1="13.33" x2="46.22" y2="18.67"/><line class="cls-2" x1="48.52" y1="12" x2="48.52" y2="20"/><line class="cls-2" x1="50.83" y1="10.66" x2="50.83" y2="21.34"/><line class="cls-2" x1="53.13" y1="9.33" x2="53.13" y2="22.67"/><line class="cls-2" x1="6.94" y1="78.71" x2="9.27" y2="77.37"/><line class="cls-2" x1="6.94" y1="81.37" x2="11.57" y2="78.69"/><line class="cls-2" x1="6.94" y1="84.03" x2="13.87" y2="80.02"/><line class="cls-2" x1="6.94" y1="86.68" x2="16.18" y2="81.35"/><line class="cls-2" x1="6.93" y1="89.34" x2="18.48" y2="82.67"/><line class="cls-2" x1="6.93" y1="92" x2="20.79" y2="84"/><line class="cls-2" x1="16.14" y1="97.31" x2="20.77" y2="94.63"/><line class="cls-2" x1="13.84" y1="95.98" x2="20.78" y2="91.97"/><line class="cls-2" x1="11.54" y1="94.65" x2="20.78" y2="89.32"/><line class="cls-2" x1="9.23" y1="93.33" x2="20.78" y2="86.66"/><line class="cls-2" x1="39.28" y1="97.3" x2="34.66" y2="94.63"/><line class="cls-2" x1="41.59" y1="95.98" x2="34.65" y2="91.97"/><line class="cls-2" x1="43.89" y1="94.65" x2="34.65" y2="89.32"/><line class="cls-2" x1="46.19" y1="93.33" x2="34.65" y2="86.66"/><line class="cls-2" x1="48.5" y1="92" x2="34.64" y2="84"/><line class="cls-2" x1="48.48" y1="78.71" x2="46.16" y2="77.37"/><line class="cls-2" x1="48.49" y1="81.37" x2="43.86" y2="78.69"/><line class="cls-2" x1="48.49" y1="84.02" x2="41.55" y2="80.02"/><line class="cls-2" x1="48.49" y1="86.68" x2="39.25" y2="81.35"/><line class="cls-2" x1="48.5" y1="89.34" x2="36.95" y2="82.67"/><polygon class="cls-2" points="48.5 36 48.5 60 27.71 72 6.93 60 6.93 36 27.71 24 48.5 36"/><polygon class="cls-2" points="27.71 18.67 53.12 33.33 53.12 62.67 27.71 77.33 2.31 62.67 2.31 33.33 27.71 18.67"/><polygon class="cls-2" points="27.71 21.33 50.81 34.67 50.81 61.33 27.71 74.67 4.62 61.33 4.62 34.67 27.71 21.33"/><polyline class="cls-2" points="0 66.67 25.4 81.33 25.4 98.37"/><polyline class="cls-2" points="0 69.33 23.09 82.67 23.09 98.38"/><polyline class="cls-2" points="0 72 20.79 84 20.79 98.38"/><polyline class="cls-2" points="30.02 98.37 30.02 81.33 55.43 66.67"/><polyline class="cls-2" points="32.33 98.38 32.33 82.67 55.43 69.33"/><polyline class="cls-2" points="34.64 98.38 34.64 84 55.43 72"/><polyline class="cls-2" points="0 29.33 25.4 14.67 25.4 -2.37"/><polyline class="cls-2" points="0 26.67 23.09 13.33 23.09 -2.38"/><polyline class="cls-2" points="0 24 20.79 12 20.79 -2.38"/><polyline class="cls-2" points="30.02 -2.37 30.02 14.67 55.43 29.33"/><polyline class="cls-2" points="32.33 -2.38 32.33 13.33 55.43 26.67"/><polyline class="cls-2" points="34.64 -2.38 34.64 12 55.43 24"/><polygon class="cls-2" points="55.43 32 55.43 64 27.71 80 0 64 0 32 27.71 16 55.43 32"/><polyline class="cls-2" points="27.71 -2.37 27.71 16 55.43 32"/><polyline class="cls-2" points="0 64 27.71 80 27.71 98.37"/><polyline class="cls-2" points="27.71 98.37 27.71 80 55.43 64"/><polyline class="cls-2" points="0 32 27.71 16 27.71 -2.37"/><polyline class="cls-2" points="27.71 24 27.71 48 48.5 60"/><polyline class="cls-2" points="30.02 25.32 30.02 46.67 48.51 57.32"/><polyline class="cls-2" points="32.33 26.64 32.33 45.33 48.53 54.71"/><polyline class="cls-2" points="34.64 27.96 34.64 44 48.53 51.96"/><line class="cls-2" x1="27.71" y1="48" x2="6.93" y2="60"/><polyline class="cls-2" points="46.2 61.34 27.71 50.67 9.24 61.35"/><polyline class="cls-2" points="43.9 62.68 27.71 53.33 11.49 62.68"/><polyline class="cls-2" points="41.61 64.02 27.71 56 13.87 64.05"/><polyline class="cls-2" points="25.4 25.32 25.4 46.67 6.92 57.32"/><polyline class="cls-2" points="23.09 26.64 23.09 45.33 6.89 54.71"/><polyline class="cls-2" points="20.79 27.96 20.79 44 6.89 51.96"/><line class="cls-2" x1="2.31" y1="-1.33" x2="20.8" y2="9.32"/><line class="cls-2" x1="4.62" y1="-2.67" x2="20.82" y2="6.71"/><line class="cls-2" x1="6.93" y1="-4" x2="20.82" y2="3.96"/><polyline class="cls-2" points="55.43 -4 55.43 0 58.03 1.5"/><line class="cls-2" x1="55.43" x2="34.64" y2="12"/><polyline class="cls-2" points="57.46 3.84 55.43 2.67 36.96 13.35"/><polyline class="cls-2" points="56.89 6.18 55.43 5.33 39.21 14.68"/><polyline class="cls-2" points="56.33 8.52 55.43 8 41.59 16.05"/><line class="cls-2" x1="53.12" y1="-1.33" x2="34.63" y2="9.32"/><line class="cls-2" x1="50.81" y1="-2.67" x2="34.61" y2="6.71"/><line class="cls-2" x1="48.5" y1="-4" x2="34.61" y2="3.96"/><polyline class="cls-2" points="0 72 0 96 3.46 98"/><polyline class="cls-2" points="2.31 73.32 2.31 94.67 7.8 97.82"/><polyline class="cls-2" points="4.62 74.64 4.62 93.33 12.16 97.71"/><polyline class="cls-2" points="6.93 75.96 6.93 92 16.49 97.46"/><line class="cls-2" y1="96" x2="-3.46" y2="98"/><polyline class="cls-2" points="53.12 73.32 53.12 94.67 47.62 97.82"/><polyline class="cls-2" points="50.81 74.64 50.81 93.33 43.27 97.71"/><polyline class="cls-2" points="48.5 75.96 48.5 92 38.94 97.46"/><polyline class="cls-2" points="0 -4 0 0 -2.6 1.5"/><line class="cls-2" x2="20.78" y2="12"/><polyline class="cls-2" points="-2.03 3.84 0 2.67 18.47 13.35"/><polyline class="cls-2" points="-1.47 6.18 0 5.33 16.22 14.68"/><polyline class="cls-2" points="-0.9 8.52 0 8 13.84 16.05"/><polyline class="cls-2" points="55.43 72 55.43 96 58.89 98"/><line class="cls-2" x1="55.43" y1="96" x2="51.96" y2="98"/><line class="cls-2" y1="8" y2="24"/><polyline class="cls-2" points="-25.4 98.37 -25.4 81.33 0 66.67"/><polyline class="cls-2" points="-23.09 98.38 -23.09 82.67 0 69.33"/><polyline class="cls-2" points="-20.78 98.38 -20.78 84 0 72"/><polyline class="cls-2" points="-25.4 -2.37 -25.4 14.67 0 29.33"/><polyline class="cls-2" points="-23.09 -2.38 -23.09 13.33 0 26.67"/><polyline class="cls-2" points="-20.78 -2.38 -20.78 12 0 24"/><polygon class="cls-2" points="0 32 0 64 -27.71 80 -55.43 64 -55.43 32 -27.71 16 0 32"/><polyline class="cls-2" points="-27.71 -2.37 -27.71 16 0 32"/><polyline class="cls-2" points="-27.71 98.37 -27.71 80 0 64"/><polyline class="cls-2" points="0 -4 0 0 2.6 1.5"/><line class="cls-2" x2="-20.78" y2="12"/><polyline class="cls-2" points="2.03 3.84 0 2.67 -18.47 13.35"/><polyline class="cls-2" points="1.47 6.18 0 5.33 -16.22 14.68"/><polyline class="cls-2" points="0.9 8.52 0 8 -13.84 16.05"/><polyline class="cls-2" points="0 72 0 96 3.46 98"/><line class="cls-2" y1="96" x2="-3.46" y2="98"/><polyline class="cls-2" points="55.43 -29.33 80.83 -14.67 80.83 2.37"/><polyline class="cls-2" points="55.43 -26.67 78.52 -13.33 78.52 2.38"/><polyline class="cls-2" points="55.43 -24 76.21 -12 76.21 2.38"/><polyline class="cls-2" points="55.43 -32 83.14 -16 83.14 2.37"/><polyline class="cls-2" points="55.43 -24 55.43 0 58.89 2"/><line class="cls-2" x1="55.43" x2="51.96" y2="2"/><line class="cls-2" x1="16.14" y1="1.31" x2="20.77" y2="-1.37"/><line class="cls-2" x1="13.84" y1="-0.02" x2="20.78" y2="-4.03"/><line class="cls-2" x1="39.28" y1="1.3" x2="34.66" y2="-1.37"/><line class="cls-2" x1="41.59" y1="-0.02" x2="34.65" y2="-4.03"/><polyline class="cls-2" points="0 -29.33 25.4 -14.67 25.4 2.37"/><polyline class="cls-2" points="0 -26.67 23.09 -13.33 23.09 2.38"/><polyline class="cls-2" points="0 -24 20.79 -12 20.79 2.38"/><polyline class="cls-2" points="30.02 2.37 30.02 -14.67 55.43 -29.33"/><polyline class="cls-2" points="32.33 2.38 32.33 -13.33 55.43 -26.67"/><polyline class="cls-2" points="34.64 2.38 34.64 -12 55.43 -24"/><polyline class="cls-2" points="0 -32 27.71 -16 27.71 2.37"/><polyline class="cls-2" points="27.71 2.37 27.71 -16 55.43 -32"/><polyline class="cls-2" points="0 -24 0 0 3.46 2"/><polyline class="cls-2" points="2.31 -22.68 2.31 -1.33 7.8 1.82"/><polyline class="cls-2" points="4.62 -21.36 4.62 -2.67 12.16 1.71"/><polyline class="cls-2" points="6.93 -20.04 6.93 -4 16.49 1.46"/><line class="cls-2" x2="-3.46" y2="2"/><polyline class="cls-2" points="53.12 -22.68 53.12 -1.33 47.62 1.82"/><polyline class="cls-2" points="50.81 -21.36 50.81 -2.67 43.27 1.71"/><polyline class="cls-2" points="48.5 -20.04 48.5 -4 38.94 1.46"/><polyline class="cls-2" points="55.43 -24 55.43 0 58.89 2"/><line class="cls-2" x1="55.43" x2="51.96" y2="2"/><polyline class="cls-2" points="-25.4 2.37 -25.4 -14.67 0 -29.33"/><polyline class="cls-2" points="-23.09 2.38 -23.09 -13.33 0 -26.67"/><polyline class="cls-2" points="-20.78 2.38 -20.78 -12 0 -24"/><polyline class="cls-2" points="-27.71 2.37 -27.71 -16 0 -32"/><polyline class="cls-2" points="0 -24 0 0 3.46 2"/><line class="cls-2" x2="-3.46" y2="2"/></pattern><radialGradient id="radial-gradient" cx="94.81" cy="53.53" r="76.52" gradientUnits="userSpaceOnUse"><stop offset="0" stop-color="#fff"/><stop offset="0.47" stop-color="#fcdf90"/><stop offset="1" stop-color="#ed1e79"/></radialGradient><radialGradient id="radial-gradient-2" cx="93.78" cy="135.62" r="90.34" gradientUnits="userSpaceOnUse"><stop offset="0" stop-color="#fff"/><stop offset="0.71" stop-color="#fcdf90"/></radialGradient><linearGradient id="New_Gradient_Swatch" x1="-17.14" y1="-284.21" x2="-0.72" y2="-284.21" gradientTransform="translate(-211.14 75.19) rotate(90)" gradientUnits="userSpaceOnUse"><stop offset="0.02" stop-color="#fff"/><stop offset="0.12" stop-color="#f4fbfd"/><stop offset="0.28" stop-color="#d6eff9"/><stop offset="0.5" stop-color="#a5dcf3"/><stop offset="0.75" stop-color="#62c1ea"/><stop offset="0.96" stop-color="#29abe2"/></linearGradient><linearGradient id="New_Gradient_Swatch-2" x1="0.34" y1="-275.32" x2="17.6" y2="-275.32" xlink:href="#New_Gradient_Swatch"/><linearGradient id="linear-gradient" x1="88.65" y1="-0.45" x2="158.81" y2="66.05" gradientUnits="userSpaceOnUse"><stop offset="0" stop-color="#fff"/><stop offset="0.14" stop-color="#fcdf90"/><stop offset="1" stop-color="#ed1e79"/></linearGradient><linearGradient id="linear-gradient-2" x1="86.73" y1="6.49" x2="0.51" y2="78.94" xlink:href="#linear-gradient"/></defs><title>5</title><path class="cls-4" d="M151,247.41,123.52,208.5l-54.33.65L63.8,262c-.14-.72-50.5-139.24-36.13-202.33C44.12-9,129-22.18,144.63,44.67,160.08,141.15,151,247.41,151,247.41Z"/><rect class="cls-5" x="57.48" y="37.18" width="74.65" height="32.7" rx="8.91" ry="8.91"/><rect class="cls-6" x="60.3" y="40.42" width="69.7" height="27.43" rx="6.81" ry="6.81"/><path class="cls-7" d="M102.2,61.24c-.83-5.77-11.34-9.16-15.88.76"/><circle class="cls-8" cx="77.2" cy="50.6" r="5.46"/><circle class="cls-8" cx="110.6" cy="49.98" r="5.46"/><ellipse class="cls-9" cx="93.78" cy="135.62" rx="47.75" ry="55.56"/><path class="cls-10" d="M68.48,71.47c-.86-4,3.75-13.42,3.75-13.42s7,9.45,5.25,13.42C75.11,75.47,71.54,75.47,68.48,71.47Z"/><path class="cls-11" d="M59.35,89.64c-.9-4.17,3.94-14.1,3.94-14.1s7.38,9.93,5.51,14.1C66.32,93.84,62.57,93.84,59.35,89.64Z"/><path class="cls-12" d="M97.82.64l9.41,24.45C140.61,31,156.72,89,156.72,89S143.94-8.78,97.82.64Z"/><path class="cls-13" d="M75.22.28,84.4,29.55C56.29,11.12,0,77.59,0,77.59S39.33,13.06,75.22.28Z"/><text class="cls-14" transform="translate(67.57 160.33)">$</text></svg>