<svg id="Layer_1" data-name="Layer 1" xmlns="http://www.w3.org/2000/svg" xmlns:xlink="http://www.w3.org/1999/xlink" width="144" height="262" viewBox="0 0 144 262"><defs><style>.cls-1{fill:url(#linear-gradient);}.cls-2{fill:url(#radial-gradient);}.cls-3,.cls-4{fill:none;stroke:#d47662;stroke-miterlimit:10;}.cls-3{stroke-width:0.5px;stroke-dasharray:2.01 2.01;}.cls-4{stroke-linecap:round;}.cls-5{fill:#0071bc;}.cls-6{fill:#2e3192;}.cls-7{fill:url(#radial-gradient-2);}.cls-8{fill:#a67c52;}</style><linearGradient id="linear-gradient" x1="13.45" y1="131.46" x2="141.95" y2="131.46" gradientUnits="userSpaceOnUse"><stop offset="0.02" stop-color="#fff"/><stop offset="0.13" stop-color="#fff4f7"/><stop offset="0.3" stop-color="#ffd6e2"/><stop offset="0.54" stop-color="#ffa5c1"/><stop offset="0.82" stop-color="#ff6292"/><stop offset="0.96" stop-color="#ff3f7a"/></linearGradient><radialGradient id="radial-gradient" cx="83.14" cy="54.62" r="32.23" gradientUnits="userSpaceOnUse"><stop offset="0" stop-color="#fff"/><stop offset="1" stop-color="#fcdf90"/></radialGradient><radialGradient id="radial-gradient-2" cx="94.09" cy="134.54" r="193.38" gradientTransform="translate(15.87) scale(0.7 1)" gradientUnits="userSpaceOnUse"><stop offset="0" stop-color="#fff"/><stop offset="0.71" stop-color="#fcdf90"/></radialGradient></defs><title>3</title><path class="cls-1" d="M139.29,247.44l-27.46-38.9-54.31.65L52.14,262C52,261.28,1.66,122.81,16,59.75c16.44-68.64,101.32-81.81,116.91-15C148.38,141.21,139.29,247.44,139.29,247.44Z"/><rect class="cls-2" x="41.39" y="36.33" width="83.49" height="36.57" rx="9.97" ry="9.97"/><rect class="cls-3" x="45.08" y="40.66" width="75.9" height="29.19" rx="7.61" ry="7.61"/><path class="cls-4" d="M91.35,64.63C89.7,58,77.2,52.94,73.17,63.58"/><circle class="cls-5" cx="62.15" cy="49.62" r="4.74"/><circle class="cls-5" cx="101.91" cy="49.5" r="5.31"/><path class="cls-6" d="M108.14,68.47c-.85-4,3.75-13.41,3.75-13.41s7,9.44,5.24,13.41C114.76,72.47,111.2,72.47,108.14,68.47Z"/><path class="cls-6" d="M115.24,88.9c-.9-4.17,3.94-14.1,3.94-14.1s7.38,9.93,5.51,14.1C122.2,93.11,118.45,93.11,115.24,88.9Z"/><path class="cls-6" d="M77.7,0,72.27,23.64C46.19,21.5-.37,57.3-.37,57.3S5.09,40.15,22.07,25.49C41.39,8.82,57.41-.39,77.7,0Z"/><path class="cls-6" d="M95.18.73V22.63c34.57-7.53,49.26,56.5,49.26,56.5S142.4,10,95.18.73Z"/><ellipse class="cls-7" cx="82.05" cy="134.54" rx="39.34" ry="55.93"/><path class="cls-6" d="M85.18,168.74s-6.87-22.51-7-22.37,9-7.31,9-7.31-9-7.31-9.08-7.17,7.39-6.74,7.39-6.74,11.8-27.24,24.86-11.76S85.18,168.74,85.18,168.74Z"/><path class="cls-8" d="M80.57,167.88s-41.31-45-25.44-55.35c18.33-12.62,25.72,11.76,25.72,11.76S72.3,131,72.37,131.1c.29.29,10.54,7.24,10.25,7.24-.64,0-9.39,7.85-9.39,6.81C73.23,144.58,80.57,167.88,80.57,167.88Z"/></svg>