<?xml version="1.0" encoding="UTF-8"?>
<svg width="1024px" height="1238px" viewBox="0 0 1024 1238" version="1.1" xmlns="http://www.w3.org/2000/svg" xmlns:xlink="http://www.w3.org/1999/xlink">
    <!-- Generator: Sketch 45.1 (43504) - http://www.bohemiancoding.com/sketch -->
    <title>BG</title>
    <desc>Created with Sketch.</desc>
    <defs>
        <linearGradient x1="49.9581128%" y1="0%" x2="49.9992746%" y2="99.2081233%" id="linearGradient-1">
            <stop stop-color="#00B2F8" offset="0%"></stop>
            <stop stop-color="#6CDDD0" offset="40.830168%"></stop>
            <stop stop-color="#F6FAE3" offset="100%"></stop>
        </linearGradient>
        <polygon id="path-2" points="1.29155342e-14 247.074335 1.29155342e-14 0 1390.93452 0 1390.93452 247.074335"></polygon>
        <linearGradient x1="50%" y1="0%" x2="50%" y2="100%" id="linearGradient-4">
            <stop stop-color="#FDFBFB" offset="0%"></stop>
            <stop stop-color="#FFFFFF" stop-opacity="0" offset="100%"></stop>
        </linearGradient>
        <polygon id="path-5" points="1.32494873e-14 345.326794 1.32494873e-14 0 1426.8995 0 1426.8995 345.326794"></polygon>
        <linearGradient x1="16.0196816%" y1="6.10671795%" x2="74.1904727%" y2="43.4695668%" id="linearGradient-7">
            <stop stop-color="#F2F2F2" offset="0%"></stop>
            <stop stop-color="#DCE595" offset="100%"></stop>
        </linearGradient>
        <linearGradient x1="50%" y1="2.86765176%" x2="50%" y2="97.0244739%" id="linearGradient-8">
            <stop stop-color="#F6CFC5" offset="0%"></stop>
            <stop stop-color="#E0FEA5" offset="100%"></stop>
        </linearGradient>
        <filter x="-37.1%" y="-19.2%" width="174.2%" height="138.4%" filterUnits="objectBoundingBox" id="filter-9">
            <feOffset dx="0" dy="0" in="SourceAlpha" result="shadowOffsetOuter1"></feOffset>
            <feGaussianBlur stdDeviation="11" in="shadowOffsetOuter1" result="shadowBlurOuter1"></feGaussianBlur>
            <feColorMatrix values="0 0 0 0 0   0 0 0 0 0   0 0 0 0 0  0 0 0 0.0949671649 0" type="matrix" in="shadowBlurOuter1" result="shadowMatrixOuter1"></feColorMatrix>
            <feMerge>
                <feMergeNode in="shadowMatrixOuter1"></feMergeNode>
                <feMergeNode in="SourceGraphic"></feMergeNode>
            </feMerge>
        </filter>
        <linearGradient x1="68.366887%" y1="50%" x2="0%" y2="50%" id="linearGradient-10">
            <stop stop-color="#FFD195" offset="0%"></stop>
            <stop stop-color="#CEAD90" offset="100%"></stop>
        </linearGradient>
        <linearGradient x1="21.40625%" y1="73.1308699%" x2="91.2942217%" y2="73.1308699%" id="linearGradient-11">
            <stop stop-color="#68EAB1" offset="0%"></stop>
            <stop stop-color="#A6F1CB" offset="43.0125957%"></stop>
            <stop stop-color="#F6FFCD" offset="100%"></stop>
        </linearGradient>
        <linearGradient x1="31.1287525%" y1="-3.91734097%" x2="31.1287522%" y2="179.851093%" id="linearGradient-12">
            <stop stop-color="#F6CFC5" offset="0%"></stop>
            <stop stop-color="#E0FEA5" offset="100%"></stop>
        </linearGradient>
        <filter x="-37.1%" y="-19.2%" width="174.2%" height="138.4%" filterUnits="objectBoundingBox" id="filter-13">
            <feOffset dx="0" dy="0" in="SourceAlpha" result="shadowOffsetOuter1"></feOffset>
            <feGaussianBlur stdDeviation="11" in="shadowOffsetOuter1" result="shadowBlurOuter1"></feGaussianBlur>
            <feColorMatrix values="0 0 0 0 0   0 0 0 0 0   0 0 0 0 0  0 0 0 0.0949671649 0" type="matrix" in="shadowBlurOuter1" result="shadowMatrixOuter1"></feColorMatrix>
            <feMerge>
                <feMergeNode in="shadowMatrixOuter1"></feMergeNode>
                <feMergeNode in="SourceGraphic"></feMergeNode>
            </feMerge>
        </filter>
        <filter x="-52.4%" y="-27.0%" width="204.8%" height="154.1%" filterUnits="objectBoundingBox" id="filter-14">
            <feOffset dx="0" dy="0" in="SourceAlpha" result="shadowOffsetOuter1"></feOffset>
            <feGaussianBlur stdDeviation="11" in="shadowOffsetOuter1" result="shadowBlurOuter1"></feGaussianBlur>
            <feColorMatrix values="0 0 0 0 0   0 0 0 0 0   0 0 0 0 0  0 0 0 0.0949671649 0" type="matrix" in="shadowBlurOuter1" result="shadowMatrixOuter1"></feColorMatrix>
            <feMerge>
                <feMergeNode in="shadowMatrixOuter1"></feMergeNode>
                <feMergeNode in="SourceGraphic"></feMergeNode>
            </feMerge>
        </filter>
        <linearGradient x1="60.2595568%" y1="-76.3828399%" x2="60.2595568%" y2="100%" id="linearGradient-15">
            <stop stop-color="#F2F2F2" offset="0%"></stop>
            <stop stop-color="#DCE595" offset="100%"></stop>
        </linearGradient>
        <filter x="-52.4%" y="-27.0%" width="204.8%" height="154.1%" filterUnits="objectBoundingBox" id="filter-16">
            <feOffset dx="0" dy="0" in="SourceAlpha" result="shadowOffsetOuter1"></feOffset>
            <feGaussianBlur stdDeviation="11" in="shadowOffsetOuter1" result="shadowBlurOuter1"></feGaussianBlur>
            <feColorMatrix values="0 0 0 0 0   0 0 0 0 0   0 0 0 0 0  0 0 0 0.0949671649 0" type="matrix" in="shadowBlurOuter1" result="shadowMatrixOuter1"></feColorMatrix>
            <feMerge>
                <feMergeNode in="shadowMatrixOuter1"></feMergeNode>
                <feMergeNode in="SourceGraphic"></feMergeNode>
            </feMerge>
        </filter>
        <linearGradient x1="45.809713%" y1="70.3358149%" x2="45.809713%" y2="-21.9535918%" id="linearGradient-17">
            <stop stop-color="#F1D8BE" offset="0%"></stop>
            <stop stop-color="#F7E9C4" offset="62.905355%"></stop>
            <stop stop-color="#F8D585" offset="100%"></stop>
        </linearGradient>
        <filter x="-31.4%" y="-16.3%" width="162.9%" height="132.5%" filterUnits="objectBoundingBox" id="filter-18">
            <feOffset dx="0" dy="0" in="SourceAlpha" result="shadowOffsetOuter1"></feOffset>
            <feGaussianBlur stdDeviation="11" in="shadowOffsetOuter1" result="shadowBlurOuter1"></feGaussianBlur>
            <feColorMatrix values="0 0 0 0 0   0 0 0 0 0   0 0 0 0 0  0 0 0 0.0949671649 0" type="matrix" in="shadowBlurOuter1" result="shadowMatrixOuter1"></feColorMatrix>
            <feMerge>
                <feMergeNode in="shadowMatrixOuter1"></feMergeNode>
                <feMergeNode in="SourceGraphic"></feMergeNode>
            </feMerge>
        </filter>
        <linearGradient x1="31.1287525%" y1="-3.91734097%" x2="28.3590696%" y2="252.956285%" id="linearGradient-19">
            <stop stop-color="#F6CFC5" offset="0%"></stop>
            <stop stop-color="#E0FEA5" offset="100%"></stop>
        </linearGradient>
    </defs>
    <g id="Welcome" stroke="none" stroke-width="1" fill="none" fill-rule="evenodd">
        <g id="Desktop">
            <g id="BG" transform="translate(-85.000000, -24.000000)">
                <rect fill="url(#linearGradient-1)" x="85" y="0" width="1024" height="1213"></rect>
                <g id="Page-1" opacity="0.428725091" transform="translate(705.660725, 730.500000) rotate(-365.000000) translate(-705.660725, -730.500000) translate(10.160725, 606.500000)">
                    <mask id="mask-3" fill="white">
                        <use xlink:href="#path-2"></use>
                    </mask>
                    <g id="Clip-2"></g>
                    <path d="M14.3707627,0.0027843231 C62.8927618,0.0027843231 104.170452,27.0478427 119.568326,64.8255384 C126.598068,62.3716217 134.263014,61.0073033 142.295487,61.0073033 C163.131904,61.0073033 181.52735,70.0953339 192.608381,83.9724002 C200.980763,80.5179834 210.336756,78.5782383 220.21111,78.5782383 C229.970745,78.5782383 239.216268,80.4771466 247.516419,83.8573149 C260.296995,69.931987 279.920362,61.0073033 301.935838,61.0073033 C331.346458,61.0073033 356.482723,76.9206379 366.735226,99.421681 C375.617471,95.3602817 385.721264,93.053006 396.44964,93.053006 C401.72885,93.053006 406.850853,93.6191517 411.762537,94.6679134 C421.951307,75.4969207 444.191973,62.1989936 470.005931,62.1989936 C493.805929,62.1989936 514.559494,73.5033454 525.644773,90.2853888 C540.407443,77.6130063 560.657517,69.7834897 583.004405,69.7834897 C594.988319,69.7834897 606.354023,72.0480725 616.608651,76.0871972 C628.541578,59.0508523 650.059938,47.6778206 674.622607,47.6778206 C690.642939,47.6778206 705.356747,52.5262552 716.97101,60.6156419 C729.723968,25.4719158 767.394375,-0.000928107699 811.896951,-0.000928107699 C861.487539,-0.000928107699 902.595274,31.6326947 910.185865,73.0318667 C921.156426,68.4098904 933.465378,65.8167574 946.469019,65.8167574 C985.556421,65.8167574 1018.36401,89.2292022 1027.49693,120.851688 C1033.74701,119.125407 1040.40285,118.189875 1047.30725,118.189875 C1060.97371,118.189875 1073.66081,121.839194 1084.16825,128.076078 C1095.50634,110.965485 1116.69541,99.4439556 1140.9819,99.4439556 C1150.7904,99.4439556 1160.08478,101.339151 1168.43592,104.70447 L1168.43592,247.074335 L-0.00101158948,247.074335 L-0.00101158948,0.83065639 C4.70885146,0.303491217 9.49944289,0.0027843231 14.3707627,0.0027843231" id="Fill-1" fill="url(#linearGradient-4)" mask="url(#mask-3)"></path>
                </g>
                <g id="Page-1" opacity="0.428725091" transform="translate(729.265076, 883.019299) rotate(7.000000) translate(-729.265076, -883.019299) translate(15.765076, 710.019299)">
                    <mask id="mask-6" fill="white">
                        <use xlink:href="#path-5"></use>
                    </mask>
                    <g id="Clip-2"></g>
                    <path d="M14.7423433,0.00389154693 C64.5189614,0.00389154693 106.863957,37.803784 122.659969,90.6042928 C129.871477,87.1745427 137.734613,85.2676848 145.974779,85.2676848 C167.349958,85.2676848 186.221049,97.9696939 197.588599,117.365164 C206.177463,112.537051 215.775372,109.82594 225.905044,109.82594 C235.917031,109.82594 245.401613,112.479975 253.916378,117.204313 C267.027418,97.7413898 287.15818,85.2676848 309.742904,85.2676848 C339.913986,85.2676848 365.700192,107.509173 376.217791,138.958061 C385.329701,133.281591 395.694745,130.056796 406.700521,130.056796 C412.116234,130.056796 417.370675,130.848077 422.409359,132.313893 C432.861577,105.519295 455.677313,86.9332668 482.158736,86.9332668 C506.574123,86.9332668 527.864307,102.732947 539.236215,126.188598 C554.380599,108.476871 575.154273,97.5338407 598.078978,97.5338407 C610.372756,97.5338407 622.032341,100.698966 632.552119,106.344303 C644.793593,82.5332244 666.868346,66.6375524 692.066124,66.6375524 C708.50069,66.6375524 723.594948,73.4140328 735.509518,84.7202738 C748.592225,35.6011685 787.236665,-0.00129718231 832.889931,-0.00129718231 C883.762768,-0.00129718231 925.933414,44.2118647 933.720273,102.073979 C944.974496,95.6140109 957.601717,91.9896835 970.941589,91.9896835 C1011.03966,91.9896835 1044.69554,124.712404 1054.06462,168.91 C1060.4763,166.497241 1067.30424,165.189681 1074.38717,165.189681 C1088.407,165.189681 1101.42215,170.290202 1112.20127,179.007267 C1123.83252,155.092414 1145.56947,138.989193 1170.48393,138.989193 C1180.54605,138.989193 1190.08075,141.638039 1198.64782,146.341622 L1198.64782,345.326794 L-0.00103774585,345.326794 L-0.00103774585,1.16097817 C4.83060685,0.424178615 9.74506718,0.00389154693 14.7423433,0.00389154693" id="Fill-1" fill="url(#linearGradient-4)" mask="url(#mask-6)"></path>
                </g>
                <path d="M85,1103.95584 C158,1003.95584 257.5,956.789169 383.5,962.455836 C572.5,970.955836 683.393276,1054.1 841.5,1121.34324 C946.904482,1166.17206 1036.07115,1189.33873 1109,1190.84324 L1109,1439.84324 L85,1439.84324 L85,1103.95584 Z" id="Rectangle-2" fill="url(#linearGradient-7)"></path>
                <path d="M85,1095.06667 C145.666667,1015.73333 239,978.9 365,984.566667 C554,993.066667 687.393276,1110.32343 845.5,1177.56667 C950.904482,1222.39549 1038.73782,1236.53893 1109,1219.99698 L1109,1439.56667 L85,1439.56667 L85,1095.06667 Z" id="Rectangle-2" fill="url(#linearGradient-8)"></path>
                <g id="Tree" transform="translate(778.000000, 1031.000000)">
                    <g id="Group" filter="url(#filter-9)" transform="translate(37.000000, 0.000000)">
                        <rect id="Rectangle-3" fill="url(#linearGradient-10)" x="34" y="113" width="19.25" height="58.0273438"></rect>
                        <path d="M45.1943396,0.0133958191 C52.0621069,29.256792 66.3514937,69.0233801 88.0625,119.31316 C69.2315252,125.516305 54.0559748,128.617877 42.5358491,128.617877 C31.0157233,128.617877 16.8371069,125.516305 0,119.31316 C19.4955975,73.6757386 31.7911164,42.8815562 36.8865566,26.9306128 C41.9943064,10.9411353 45.086529,-0.445668878 45.1943396,0.0133958191 Z" id="Rectangle" fill="url(#linearGradient-11)"></path>
                    </g>
                    <path d="M33.5,172.1454 C45.5601045,168.125365 47.5,140.1454 48.5,150.1454 C49.1666667,156.812066 55.5,164.1454 67.5,172.1454 C72.1666667,162.1454 75.6666667,155.978733 78,153.6454 C79.1472411,152.498158 79.4168284,160.214037 80,161.6454 C80.401947,162.631956 80.901947,162.96529 81.5,162.6454 C83.5,161.978733 85,159.6454 86,155.6454 C86.0976344,155.254862 87.8300075,156.250724 87.96473,156.779141 C90.3215767,166.023313 94,170.6454 99,170.6454 C101.623907,170.940732 104.290573,170.107398 107,168.1454 C109.709427,166.183401 111.876093,163.516734 113.5,160.1454 C135.5,179.478733 146.833333,189.312066 147.5,189.6454 C148.166667,189.978733 99,191.312066 0,193.6454 C8.46668703,191.185259 14.1333537,188.685259 17,186.1454 C20.5380069,183.010712 24.5,175.1454 33.5,172.1454 Z" id="Rectangle-4" fill="url(#linearGradient-12)"></path>
                </g>
                <g id="tree" transform="translate(852.000000, 1052.000000)">
                    <g id="Group" filter="url(#filter-13)" transform="translate(37.000000, 0.000000)">
                        <rect id="Rectangle-3" fill="url(#linearGradient-10)" x="34" y="113" width="19.25" height="58.0273438"></rect>
                        <path d="M45.1943396,0.0133958191 C52.0621069,29.256792 66.3514937,69.0233801 88.0625,119.31316 C69.2315252,125.516305 54.0559748,128.617877 42.5358491,128.617877 C31.0157233,128.617877 16.8371069,125.516305 0,119.31316 C19.4955975,73.6757386 31.7911164,42.8815562 36.8865566,26.9306128 C41.9943064,10.9411353 45.086529,-0.445668878 45.1943396,0.0133958191 Z" id="Rectangle" fill="url(#linearGradient-11)"></path>
                    </g>
                    <path d="M33.5,172.1454 C45.5601045,168.125365 47.5,140.1454 48.5,150.1454 C49.1666667,156.812066 55.5,164.1454 67.5,172.1454 C72.1666667,162.1454 75.6666667,155.978733 78,153.6454 C79.1472411,152.498158 79.4168284,160.214037 80,161.6454 C80.401947,162.631956 80.901947,162.96529 81.5,162.6454 C83.5,161.978733 85,159.6454 86,155.6454 C86.0976344,155.254862 87.8300075,156.250724 87.96473,156.779141 C90.3215767,166.023313 94,170.6454 99,170.6454 C101.623907,170.940732 104.290573,170.107398 107,168.1454 C109.709427,166.183401 111.876093,163.516734 113.5,160.1454 C135.5,179.478733 146.833333,189.312066 147.5,189.6454 C148.166667,189.978733 99,191.312066 0,193.6454 C8.46668703,191.185259 14.1333537,188.685259 17,186.1454 C20.5380069,183.010712 24.5,175.1454 33.5,172.1454 Z" id="Rectangle-4" fill="url(#linearGradient-12)"></path>
                </g>
                <g id="tree" transform="translate(947.000000, 1075.000000)">
                    <g id="Group" filter="url(#filter-14)" transform="translate(26.286133, 0.000000)">
                        <rect id="Rectangle-3" fill="url(#linearGradient-10)" x="24.1548247" y="80.2792705" width="13.6758934" height="41.2247153"></rect>
                        <path d="M32.1076869,0.00951687242 C36.9867961,20.785079 47.1384912,49.0366956 62.5627722,84.7643667 C49.1845693,89.1713041 38.4033117,91.3747729 30.2189994,91.3747729 C22.0346871,91.3747729 11.9616873,89.1713041 0,84.7643667 C13.8503747,52.3418986 22.5855542,30.4646022 26.2055385,19.1324774 C29.8342679,7.77297666 32.0310943,-0.316619225 32.1076869,0.00951687242 Z" id="Rectangle" fill="url(#linearGradient-11)"></path>
                    </g>
                    <path d="M23.7996067,122.298293 C32.3675394,119.442315 33.745711,99.5643401 34.4561471,106.6687 C34.9297711,111.40494 39.4291992,116.614805 47.9544315,122.298293 C51.2697996,115.193933 53.7563257,110.81291 55.4140097,109.155226 C56.2290511,108.340185 56.4205756,113.821823 56.8348818,114.838715 C57.1204394,115.5396 57.4756574,115.776412 57.9005358,115.549151 C59.3214078,115.075527 60.3870619,113.417843 61.0974979,110.576098 C61.1668609,110.298646 62.3976011,111.006143 62.4933129,111.38155 C64.1677016,117.948942 66.7809861,121.232639 70.3331662,121.232639 C72.1972839,121.442453 74.09178,120.850423 76.0166543,119.456549 C77.9415287,118.062674 79.4808068,116.168178 80.6344885,113.773061 C96.264081,127.508157 104.315689,134.494111 104.789313,134.730923 C105.262937,134.967735 70.3331662,135.914983 0,137.572667 C6.01503945,135.824895 10.0408436,134.048805 12.0774124,132.244397 C14.5909399,130.017402 17.4056825,124.429601 23.7996067,122.298293 Z" id="Rectangle-4" fill="url(#linearGradient-15)"></path>
                </g>
                <g id="tree" transform="translate(173.000000, 916.000000)">
                    <g id="Group" filter="url(#filter-16)" transform="translate(26.286133, 0.000000)">
                        <rect id="Rectangle-3" fill="url(#linearGradient-10)" x="24.1548247" y="80.2792705" width="13.6758934" height="41.2247153"></rect>
                        <path d="M32.1076869,0.00951687242 C36.9867961,20.785079 47.1384912,49.0366956 62.5627722,84.7643667 C49.1845693,89.1713041 38.4033117,91.3747729 30.2189994,91.3747729 C22.0346871,91.3747729 11.9616873,89.1713041 0,84.7643667 C13.8503747,52.3418986 22.5855542,30.4646022 26.2055385,19.1324774 C29.8342679,7.77297666 32.0310943,-0.316619225 32.1076869,0.00951687242 Z" id="Rectangle" fill="url(#linearGradient-11)"></path>
                    </g>
                    <path d="M23.7996067,122.298293 C32.3675394,119.442315 33.745711,99.5643401 34.4561471,106.6687 C34.9297711,111.40494 39.4291992,116.614805 47.9544315,122.298293 C51.2697996,115.193933 53.7563257,110.81291 55.4140097,109.155226 C56.2290511,108.340185 56.4205756,113.821823 56.8348818,114.838715 C57.1204394,115.5396 57.4756574,115.776412 57.9005358,115.549151 C59.3214078,115.075527 60.3870619,113.417843 61.0974979,110.576098 C61.1668609,110.298646 62.3976011,111.006143 62.4933129,111.38155 C64.1677016,117.948942 66.7809861,121.232639 70.3331662,121.232639 C72.1972839,121.442453 74.09178,120.850423 76.0166543,119.456549 C77.9415287,118.062674 79.4808068,116.168178 80.6344885,113.773061 C96.264081,127.508157 104.315689,134.494111 104.789313,134.730923 C105.262937,134.967735 70.3331662,135.914983 0,137.572667 C6.01503945,135.824895 10.0408436,134.048805 12.0774124,132.244397 C14.5909399,130.017402 17.4056825,124.429601 23.7996067,122.298293 Z" id="Rectangle-4" fill="url(#linearGradient-17)"></path>
                </g>
                <g id="tree" transform="translate(49.000000, 937.000000)">
                    <g id="Group" filter="url(#filter-18)" transform="translate(43.914063, 0.000000)">
                        <rect id="Rectangle-3" fill="url(#linearGradient-10)" x="40.3534628" y="134.115921" width="22.8471812" height="68.8707135"></rect>
                        <path d="M53.6396501,0.0158990496 C61.7907734,34.723908 78.7503687,81.9215413 104.518436,141.608799 C82.1685817,148.971104 64.1572286,152.652256 50.4843766,152.652256 C36.8115246,152.652256 19.9833991,148.971104 0,141.608799 C23.1386726,87.44327 37.7318127,50.8946848 43.7794203,31.9630436 C49.8416377,12.9856676 53.5116933,-0.528949486 53.6396501,0.0158990496 Z" id="Rectangle" fill="url(#linearGradient-11)"></path>
                    </g>
                    <path d="M39.7600296,204.313617 C54.0737642,199.542372 56.3761613,166.333887 57.5630279,178.202553 C58.3542722,186.114997 65.8710937,194.818685 80.1134924,204.313617 C85.652203,192.444952 89.8062359,185.125941 92.5755912,182.356586 C93.9372134,180.994964 94.2571774,190.152682 94.9493243,191.851518 C95.4263818,193.02243 96.0198151,193.418052 96.7296242,193.038385 C99.1033573,192.24714 100.883657,189.477785 102.070524,184.730319 C102.186403,184.266803 104.242498,185.448758 104.402396,186.075919 C107.199658,197.047518 111.565456,202.533317 117.499789,202.533317 C120.614016,202.883837 123.778993,201.894782 126.994721,199.566151 C130.210449,197.23752 132.781994,194.072543 134.709354,190.071218 C160.820418,213.017305 174.271572,224.68816 175.062817,225.083782 C175.854061,225.479404 117.499789,227.061893 0,229.831248 C10.0488277,226.911389 16.7744048,223.944223 20.1767314,220.929749 C24.3758735,217.209293 29.0782306,207.874217 39.7600296,204.313617 Z" id="Rectangle-4" fill="url(#linearGradient-19)"></path>
                </g>
            </g>
        </g>
    </g>
</svg>