<?xml version="1.0" encoding="UTF-8"?>
<svg width="55px" height="55px" viewBox="0 0 55 55" version="1.1" xmlns="http://www.w3.org/2000/svg" xmlns:xlink="http://www.w3.org/1999/xlink">
    <!-- Generator: Sketch 45.1 (43504) - http://www.bohemiancoding.com/sketch -->
    <title>Artboard</title>
    <desc>Created with Sketch.</desc>
    <defs></defs>
    <g id="Welcome" stroke="none" stroke-width="1" fill="none" fill-rule="evenodd">
        <g id="Artboard">
            <g id="Courage-icon" transform="translate(13.000000, 0.000000)">
                <polygon id="Fill-1" fill="#F4D731" points="9.7705328 36.4242227 -5.3031838e-05 37.8436199 7.07015161 44.7351072 5.40097451 54.4664495 14.1400911 49.8720362 22.8789425 54.4664495 21.2100306 44.7351072 28.27997 37.843885 28.27997 37.8436199 18.5096494 36.4242227 14.1400911 27.5705574"></polygon>
                <polygon id="Fill-1" fill="#FAF9F5" opacity="0.438519022" points="11.0758947 38.2072234 4.14844771 39.1924046 9.16129636 43.9756773 7.97783243 50.7300485 14.173957 47.5411387 20.3698936 50.7300485 19.1866176 43.9756773 24.1992783 39.1925886 24.1992783 39.1924046 17.2720193 38.2072234 14.173957 32.0620338"></polygon>
                <polygon id="Fill-2" fill="#57C5EC" points="3.60470142 0.70993145 3.60470142 22.0511711 13.7602994 27.6058236 23.655532 22.0511711 23.655532 0.70993145"></polygon>
                <polygon id="Fill-3" fill-opacity="0.610000014" fill="#FAFDFE" points="5.76446568 20.7168324 5.76446568 2.9721755 21.5530278 2.9721755 21.5530278 20.7175133 13.7620489 25.0296894"></polygon>
            </g>
        </g>
    </g>
</svg>