<?xml version="1.0" encoding="UTF-8"?>
<svg width="55px" height="55px" viewBox="0 0 55 55" version="1.1" xmlns="http://www.w3.org/2000/svg" xmlns:xlink="http://www.w3.org/1999/xlink">
    <!-- Generator: Sketch 45.1 (43504) - http://www.bohemiancoding.com/sketch -->
    <title>Artboard</title>
    <desc>Created with Sketch.</desc>
    <defs></defs>
    <g id="Welcome" stroke="none" stroke-width="1" fill="none" fill-rule="evenodd">
        <g id="Artboard">
            <g id="honesty-icon" transform="translate(9.000000, 3.000000)">
                <g id="Group-3" transform="translate(0.000000, 0.134200)" fill="#6BCCEC">
                    <path d="M36.9216,0.8754 C37.4256,0.8634 37.3546,1.2334 37.3546,1.5414 C37.3426,12.3474 37.3296,23.1534 37.3146,33.9594 C37.3146,33.9974 37.2936,34.0354 37.2816,34.0724 L37.3076,37.8404 C37.1396,40.0774 36.0556,41.1034 33.8346,41.1224 C33.1236,41.1284 32.4126,41.1264 31.7026,41.1284 L14.1896,41.1304 C12.7106,40.8534 0.3326,31.8004 0.0386,31.8894 C0.0306,21.7234 0.0226,11.5584 0.0186,1.3924 C0.0186,1.2364 0.0706,1.0814 0.0986,0.9264 C0.2446,0.9084 0.3906,0.8904 0.5376,0.8714 C2.5046,0.8694 4.4706,0.8674 6.4376,0.8654 C6.7536,0.8944 7.0686,0.9474 7.3846,0.9484 C16.9546,0.9524 26.5236,0.9534 36.0926,0.9494 C36.3696,0.9494 36.6456,0.9004 36.9216,0.8754" id="Fill-1"></path>
                </g>
                <path d="M14.1892,41.2645 C10.7172,41.2705 7.2452,41.2945 3.7732,41.2685 C3.0622,41.2625 2.7642,41.4265 2.8222,42.1925 C2.8892,43.0655 2.8732,43.9495 2.8262,44.8245 C2.7902,45.5055 3.0352,45.7015 3.7122,45.6975 C8.7812,45.6655 24.5002,45.6815 29.5672,45.6765 C29.9412,46.4575 29.3972,47.2915 29.5692,48.0915 C23.5442,48.0985 7.0792,48.0885 1.0552,48.1335 C0.2102,48.1405 -0.0188,47.9145 0.0012,47.0755 C0.0622,44.5225 0.0302,41.9685 0.0352,39.4145 C0.2222,38.7985 0.3222,38.1805 0.0662,37.5565 C0.0642,37.3055 0.0622,37.0555 0.0592,36.8055 C0.0592,36.8055 0.0732,32.7295 0.0382,32.0235 C-0.0118,31.0295 13.7442,41.2685 14.1892,41.2645 C14.6242,41.2605 14.1362,40.7605 14.1892,41.2645 C14.2392,41.7385 13.9102,40.2945 14.1892,41.2645" id="Fill-4" fill="#6BCCEC"></path>
                <path d="M28.4119,48.0926 C28.4109,47.2876 29.5679,46.4816 29.5679,45.6766 C31.0409,45.6796 32.5129,45.6856 33.9849,45.6836 C35.4669,45.6826 36.4899,44.9186 37.2739,43.4496 C37.3389,44.6076 37.4009,45.5056 36.9699,46.3456 C36.3989,47.4596 35.5319,48.1136 34.2249,48.0986 C32.6729,48.0826 29.9639,48.0936 28.4119,48.0926" id="Fill-6" fill="#6BCCEC"></path>
                <path d="M0.0667,37.5565 C0.3217,38.1805 0.2217,38.7985 0.0357,39.4145 C0.0457,38.7945 0.0567,38.1755 0.0667,37.5565" id="Fill-8" fill="#6A6866"></path>
                <path d="M5.1881,22.5821 C5.0171,21.9091 4.4351,21.0451 5.5011,20.6221 C6.5451,20.2091 7.3361,20.7741 7.7441,21.6871 C8.5751,23.5451 9.2951,25.4501 10.0701,27.3321 C10.2601,27.7931 10.3421,28.3401 11.0751,28.3171 C11.9061,28.2911 11.8751,27.6311 11.9971,27.1371 C12.1971,26.3271 12.3001,25.4981 12.2951,24.6491 C12.2731,20.7711 12.2821,16.8931 12.2871,13.0161 C12.2891,11.6221 12.8201,10.9341 13.8621,10.9351 C14.8981,10.9351 15.4451,11.6401 15.4471,13.0211 C15.4541,16.8591 15.4491,20.6971 15.4501,24.5341 C15.4501,24.8531 15.4571,25.1741 15.4781,25.4921 C15.4901,25.6651 15.6031,25.7901 15.7811,25.7971 C15.9611,25.8031 16.0881,25.6891 16.1021,25.5141 C16.1291,25.1971 16.1361,24.8771 16.1361,24.5571 C16.1381,20.2401 16.1431,15.9231 16.1331,11.6051 C16.1321,10.8781 16.2761,10.2701 17.0001,9.9171 C17.6121,9.6191 18.1691,9.7221 18.6951,10.0821 C19.3081,10.5001 19.3051,11.1511 19.3041,11.8031 C19.2981,16.0001 19.2981,20.1971 19.2971,24.3941 C19.2971,24.6741 19.2931,24.9541 19.3021,25.2331 C19.3091,25.4701 19.3001,25.7661 19.6141,25.7851 C20.0491,25.8101 19.9571,25.4361 19.9771,25.1801 C19.9971,24.9021 19.9861,24.6221 19.9861,24.3421 C19.9851,20.5041 19.9771,16.6671 19.9861,12.8291 C19.9881,11.6441 20.5611,10.9651 21.5211,10.9361 C22.5271,10.9061 23.1441,11.6091 23.1471,12.8561 C23.1571,16.7331 23.1501,20.6091 23.1491,24.4861 L23.1491,25.6931 C23.8361,25.3521 23.6391,24.8561 23.6411,24.4581 C23.6591,21.4211 23.6571,18.3841 23.6541,15.3471 C23.6541,14.6321 23.7701,13.9751 24.5041,13.6431 C25.5751,13.1581 26.5491,13.8321 26.5711,15.1321 C26.6181,17.8461 26.6551,20.5631 26.6171,23.2781 C26.5871,25.3691 26.7601,27.4281 27.2001,29.4681 C27.2281,30.3651 27.2551,31.2631 27.2811,32.1621 C27.2451,34.0981 27.0901,36.0231 26.7351,37.9291 C26.2051,39.1871 25.7671,40.4971 24.7181,41.4601 C24.4441,41.7131 24.5481,42.0361 24.6011,42.3441 C24.6011,43.1481 24.6021,43.9531 24.6021,44.7581 C24.5771,45.8721 24.5511,46.9851 24.5271,48.0991 C21.0851,48.0971 17.6441,48.0961 14.2021,48.0951 C14.1881,46.9821 14.1751,45.8711 14.1621,44.7591 C13.9891,43.9591 14.3241,43.1161 13.9501,42.3341 C12.8031,41.7351 11.5581,41.2741 10.7631,40.1641 C10.2371,39.4281 9.7351,38.6761 9.2221,37.9301 C8.9431,36.9621 8.6631,35.9921 8.3831,35.0221 C8.3131,34.9151 8.2441,34.8061 8.1741,34.6991 C7.4571,30.5911 6.2141,26.6131 5.1881,22.5821 Z" id="Fill-10" fill="#F8D8C1"></path>
            </g>
        </g>
    </g>
</svg>