<?xml version="1.0" encoding="UTF-8"?>
<svg width="55px" height="55px" viewBox="0 0 55 55" version="1.1" xmlns="http://www.w3.org/2000/svg" xmlns:xlink="http://www.w3.org/1999/xlink">
    <!-- Generator: Sketch 45.1 (43504) - http://www.bohemiancoding.com/sketch -->
    <title>Artboard</title>
    <desc>Created with Sketch.</desc>
    <defs></defs>
    <g id="Welcome" stroke="none" stroke-width="1" fill="none" fill-rule="evenodd">
        <g id="Artboard"></g>
        <g id="hope-icon" transform="translate(24.526776, 24.736973) rotate(18.000000) translate(-24.526776, -24.736973) translate(1.526776, -3.263027)">
            <path d="M25.2971182,46.7782044 C24.2851664,46.8122237 23.4830005,47.1346678 22.7478872,47.794347 C20.8669634,49.4827411 19.5648612,51.5386918 18.8492228,53.9496269 C18.6483115,54.6258227 18.3374537,55.1366057 17.7246128,55.4661987 L15.7524777,55.4661987 C15.3563251,55.0643762 14.7987039,55.0789207 14.3120796,54.9132614 C12.0130632,54.1298307 10.2152157,52.7064423 8.8998016,50.6744037 C7.97339117,49.2436197 8.21547075,48.4239511 9.81166752,47.8404456 C12.323921,46.9219238 14.3145448,45.2192317 16.3709886,43.6077509 C16.8659945,43.2199798 17.0834224,42.6490467 17.4265739,42.0593784 C16.9401961,41.9587995 16.5179126,41.8720255 16.0956292,41.784512 C16.5896491,41.4233648 17.099446,41.0819389 17.5720188,40.6946609 C17.9109795,40.4165899 18.1057279,40.0628382 17.7675067,39.6324197 C17.4423509,39.2185179 17.0649336,39.0927943 16.5943329,39.3930518 C15.6346427,40.0051532 14.6729803,40.6140499 13.7120576,41.2244257 C12.491306,41.0193237 11.3489468,40.5938355 10.2677237,39.9962786 C11.0464706,39.6356244 11.8370502,39.2966637 12.601006,38.905688 C13.0896024,38.6557198 13.1707065,38.1989241 12.9022496,37.7539611 C12.6564723,37.3464687 12.2916273,37.0425134 11.783063,37.4031676 C10.7306824,38.1491277 9.46876255,38.4267057 8.32640334,38.9702754 C7.08938165,38.3727185 6.02171706,37.554529 5.12809338,36.51053 C5.35957273,36.1959744 5.70592894,36.2736273 6.02516829,36.2359102 C7.03638052,36.116596 8.03995073,35.9603043 8.98287778,35.5434443 C9.5279266,35.3023508 9.74609404,34.8941188 9.47936277,34.3616424 C9.23531107,33.874525 8.84113058,33.6667113 8.26058333,33.9393589 C6.78690544,34.6318249 5.16408484,34.54653 3.60190739,34.7775163 C2.82661181,33.9166794 2.26479985,32.9261746 1.82994408,31.859003 C3.57750222,31.6945763 5.35661452,31.9916291 7.08050704,31.5178237 C7.5940017,31.376816 8.16173007,31.1973517 8.0848168,30.4876296 C8.00100106,29.7162783 7.36745269,29.7340275 6.86332568,29.8420019 C4.9545455,30.2502339 3.02629049,29.9869539 1.11060783,30.0895049 C1.05957884,29.9211339 1.00854985,29.7530093 0.957520854,29.5846383 C2.8628498,29.3854527 4.76546705,29.1840484 6.67868453,29.0415616 C11.8789581,28.6537906 17.0550729,28.6071989 22.1508233,29.8474253 C24.9611157,30.5312631 27.6481496,31.5387776 29.3321064,34.1641823 C30.5570488,36.0744416 30.2168555,37.8685915 28.3726627,39.1758705 C27.2194568,39.9935669 25.9060149,40.4375438 24.5942986,40.9123353 C22.9889807,41.4938686 21.2813583,41.6782633 19.4080765,42.2173957 C20.1214964,42.4333445 20.5728688,42.5844593 21.0321297,42.7069782 C23.9146515,43.4761109 26.8161552,43.8808916 29.8305636,43.6927992 C31.677961,43.5774293 33.4353798,43.0333665 35.2647816,42.9184897 C32.4542427,45.5261452 29.0567471,46.6524808 25.2971182,46.7782044 Z" id="Fill-1" fill="#F8F8F8"></path>
            <path d="M34.9807202,0 C37.0324802,2.4671409 37.461666,5.07948025 35.6867445,7.88927961 C35.0388982,7.39945058 34.3912983,6.90962155 33.7436985,6.41979251 C33.8743524,5.7433502 33.4964421,5.14801194 33.4402362,4.49227705 C33.2962704,2.8132506 33.7501079,1.33809361 34.7342033,0 L34.9807202,0 Z" id="Fill-3" fill="#9BD04C"></path>
            <path d="M36.9827084,23.816316 C36.9053021,23.334622 36.6277241,22.9576977 36.1233506,22.9532604 C35.5551292,22.94833 35.2213453,23.3378267 35.230713,23.9080202 C35.2395876,24.4612041 35.6152793,24.6958882 36.1334578,24.6833158 C36.6674133,24.6700039 36.9541124,24.3751697 36.9827084,23.816316 L36.9827084,23.816316 Z M35.2647323,42.9184157 C33.4353305,43.0332926 31.6779117,43.5773553 29.8305143,43.6927252 C26.8161059,43.8810641 23.9146022,43.4760369 21.0320804,42.7069042 C20.573066,42.5843854 20.1216936,42.433517 19.4080272,42.2175682 C21.281309,41.6781893 22.9889314,41.4937947 24.5942493,40.9125079 C25.9059656,40.4374699 27.219654,39.993493 28.3726134,39.176043 C30.2170527,37.8685175 30.557246,36.0746142 29.3320571,34.1643549 C27.6481003,31.5387036 24.9610664,30.5311892 22.150774,29.8473514 C17.0550236,28.6073715 11.8789088,28.6537166 6.67863523,29.0414877 C4.76541775,29.1839744 2.86280049,29.3853787 0.95747155,29.5845644 C0.533709039,28.5568355 0.295327219,27.4864592 0.222111706,26.3781193 C2.18635818,27.1317214 4.23022961,27.4936082 6.32266486,27.6040478 C7.01143302,27.6405323 7.59124071,27.4369093 7.58976161,26.6273479 C7.58828251,25.8648712 6.97272987,25.9225562 6.43088577,25.8710341 C4.22776444,25.6619878 2.05940199,25.28531 0,24.4286639 L0,20.7190779 C1.21335607,21.2069348 2.2800346,21.7169782 3.39650953,22.0692509 C6.25758441,22.9712561 9.17535816,22.7089621 12.0889411,22.3606338 C13.9378177,22.1395082 15.8438862,21.9920911 17.608947,21.567096 C22.3193915,20.4331183 25.8216568,22.6140531 29.3069124,25.1403581 C29.8403749,25.5749674 30.3440089,26.0554288 30.9171606,26.4301344 C31.4104409,26.752825 31.7550715,27.6942729 32.2988877,27.3991922 C32.8330898,27.1092884 32.4887057,26.2035854 32.5025107,25.5739813 C32.5616747,22.8738819 34.3577967,20.2561192 36.7462987,19.4596232 C37.8294939,19.4384227 38.6730746,19.9834716 39.4542866,20.639946 C40.3301611,21.3760454 41.2439991,22.0164962 42.4243219,22.1409873 C42.8924575,22.2329381 43.3603465,22.3248889 43.9263493,22.436068 C43.4675814,22.8152109 43.0864663,23.130506 42.7051047,23.4458011 C40.8214692,24.9862851 40.1790462,27.0188167 40.4238375,29.3656574 C40.7650168,32.6337316 40.2887462,35.7400908 38.7090661,38.6457852 C37.882002,40.1672874 36.8882924,41.5610938 35.5331892,42.6677081 C35.4328568,42.7527564 35.3325244,42.8382977 35.2319455,42.9235926 L35.2647323,42.9184157 Z" id="Fill-5" fill="#FFFFFF"></path>
            <path d="M42.70508,23.4457025 C43.0864416,23.1306539 43.4675567,22.8153588 43.9263246,22.4362159 C43.3603219,22.3250368 42.8924328,22.233086 42.4242973,22.1411352 C41.7414455,18.691871 40.3338342,15.5714604 38.1827279,12.7885314 C37.8361252,12.1017354 37.234131,11.6424744 36.6994359,11.1230634 C36.7189107,10.9485294 36.6511186,10.8435132 36.4669704,10.8311874 L36.482501,10.8395689 C34.714975,8.61647975 32.3959907,7.10459174 29.9392035,5.77192151 C29.6882494,5.63584419 29.4114109,5.5468516 29.163908,5.40559743 C28.6960189,5.13861965 27.9244211,5.00328188 28.2621492,4.22305597 C28.6028356,3.43592758 29.208281,3.8700438 29.7175849,4.09634629 C31.1414664,4.7289086 32.4667411,5.53304665 33.7436985,6.41976786 C34.3912983,6.90959689 35.0388982,7.39942593 35.6867445,7.88950148 C38.0552787,10.0305006 39.9293,12.5669127 41.5940285,15.2709563 C41.8928069,15.9311285 42.1913388,16.5915472 42.4896243,17.251966 C43.7064316,20.6556245 44.5581474,24.1243634 44.376711,27.7789761 C44.3666038,27.9830921 44.3685759,28.1877011 44.3641386,28.3920636 C44.3545244,28.8690738 44.2914161,29.3372093 43.6800543,29.3520003 C42.9873418,29.3692565 42.9151124,28.8594596 42.9385315,28.3368438 C43.0119935,26.6987392 42.9442014,25.0685231 42.70508,23.4457025" id="Fill-7" fill="#B27317"></path>
            <path d="M36.6993619,11.1231127 C37.234057,11.6425237 37.8360512,12.1017847 38.1829005,12.7883342 C35.7741841,14.2649703 33.3827238,14.4634163 30.9754865,12.7577661 C30.1637065,12.1823957 30.1607483,11.7916664 31.0511672,11.3043026 C32.4102148,10.5610542 33.8257147,10.4082137 35.3183744,10.6958989 C35.7029407,10.769854 36.0613762,11.0597578 36.4824271,10.8398648 C36.4824271,10.8396182 36.467143,10.8312367 36.467143,10.8309902 C36.3300796,11.0992005 36.568708,11.0681394 36.6993619,11.1231127" id="Fill-9" fill="#9BD04C"></path>
            <path d="M36.7462987,19.4596725 C34.3577967,20.2561685 32.5616747,22.8739312 32.5025107,25.5740306 C32.4887057,26.2036347 32.8330898,27.1093377 32.2988877,27.3992416 C31.7550715,27.6943223 31.4104409,26.7526278 30.9171606,26.4301837 C30.3440089,26.0554781 29.8403749,25.5750167 29.3069124,25.1401609 C30.2086711,23.4924421 31.0574287,21.7988711 32.5841078,20.6126319 C33.8033802,19.6652676 35.1153431,18.9626945 36.7462987,19.4596725" id="Fill-11" fill="#F8F8F8"></path>
            <path d="M42.4896243,17.251966 C42.1913388,16.5915472 41.8928069,15.9311285 41.5940285,15.2709563 C41.6107916,13.1760559 42.5941474,11.6380371 44.2842671,10.4633842 C45.202296,9.82564503 45.4581805,10.2466959 45.5784807,11.1169004 C45.940614,13.7334306 44.8717168,15.8707319 42.4896243,17.251966" id="Fill-13" fill="#9BD04C"></path>
            <path d="M35.2320441,43.0451266 C35.3577638,42.919304 35.4834835,42.7934814 35.609512,42.6676588 C35.4834835,42.7934814 35.3577638,42.919304 35.2320441,43.0451266" id="Fill-15" fill="#0F8DD2"></path>
            <path d="M36.9827084,23.816316 C36.9541124,24.3751697 36.6674133,24.6700039 36.1334578,24.6833158 C35.6152793,24.6958882 35.2395876,24.4612041 35.230713,23.9080202 C35.2213453,23.3378267 35.5551292,22.94833 36.1233506,22.9532604 C36.6277241,22.9576977 36.9053021,23.334622 36.9827084,23.816316" id="Fill-17" fill="#9B9B9B"></path>
            <path d="M36.7990785,11.208458 C36.6207618,11.137424 36.2950816,11.1775598 36.4821459,10.8309902 C36.7334714,10.8472356 36.8256578,10.9829329 36.7990785,11.208458" id="Fill-19" fill="#FDFEFE"></path>
        </g>
    </g>
</svg>