<?xml version="1.0" encoding="UTF-8"?>
<svg width="55px" height="55px" viewBox="0 0 55 55" version="1.1" xmlns="http://www.w3.org/2000/svg" xmlns:xlink="http://www.w3.org/1999/xlink">
    <!-- Generator: Sketch 45.1 (43504) - http://www.bohemiancoding.com/sketch -->
    <title>Artboard</title>
    <desc>Created with Sketch.</desc>
    <defs></defs>
    <g id="Welcome" stroke="none" stroke-width="1" fill="none" fill-rule="evenodd">
        <g id="Artboard">
            <g id="Humility-icon" transform="translate(4.000000, 4.000000)">
                <circle id="Oval-4" fill="#FFFFFF" cx="23.1484375" cy="23.1484375" r="23.1484375"></circle>
                <path d="M12.7089461,29.9568015 C15.4322917,31.7723652 19.2147161,32.6801471 24.0562194,32.6801471 C28.8977226,32.6801471 32.6801471,31.7723652 35.4034926,29.9568015" id="Line-7" stroke="#7C848B" stroke-width="2" stroke-linecap="round"></path>
                <g id="Page-1" transform="translate(6.354473, 14.524510)" fill="#7C848B">
                    <path d="M1.16825594,2.02157664 C0.764146802,1.50861682 0.390966846,1.03498359 9.92613956e-05,0.538687576 C0.167600133,0.433372266 0.285034385,0.354052508 0.407591283,0.283493156 C1.16525968,-0.152717904 1.49755512,-0.100250693 2.08240669,0.544400884 C4.18965077,2.86733666 7.69827693,3.2261324 10.2094368,1.36616501 C10.5037474,1.14820231 10.7764075,0.895007546 11.0290603,0.630386168 C11.7758068,-0.151860907 12.2204138,-0.176809019 13.1154271,0.589345572 C12.7606114,1.04574365 12.402896,1.50604583 12.0311659,1.9842497 C12.3911043,2.41217646 12.7591616,2.84981585 13.1534121,3.31868798 C12.8514659,3.57578684 12.5627613,3.82164952 12.2414843,4.09522175 C11.8626018,3.63910934 11.5000538,3.20270783 11.1268738,2.75354661 C10.6951217,3.00340861 10.2851167,3.24079655 9.85800397,3.48808756 C10.0563374,4.015045 10.2508046,4.53162325 10.4596733,5.08638545 C10.0809841,5.22531406 9.72684489,5.35529181 9.34438618,5.49574396 C9.1230492,4.94517153 8.91708015,4.43249736 8.69815951,3.8879239 C8.21788725,3.964387 7.74892347,4.03913611 7.24091159,4.12007464 L7.24091159,5.82616361 L6.02191506,5.82616361 L6.02191506,4.12588317 C5.51747937,4.04180232 5.06320696,3.96619621 4.56911322,3.88392458 C4.3599546,4.40307383 4.15485544,4.91241523 3.93506491,5.45794091 C3.56459126,5.32234507 3.22321037,5.19722363 2.82403057,5.05105817 C3.01743463,4.53495602 3.2031064,4.03923133 3.40134315,3.51036946 C2.9826393,3.27555251 2.57166774,3.04511576 2.11971502,2.79173055 C1.76325615,3.20146995 1.41114671,3.60616259 1.0420262,4.03047093 C0.73331427,3.77403863 0.452438602,3.54084044 0.127682152,3.27117231 C0.479115025,2.84905407 0.820882527,2.43874334 1.16825594,2.02157664" id="Fill-1"></path>
                </g>
                <g id="Page-1" transform="translate(27.233456, 14.524510)" fill="#7C848B">
                    <path d="M1.16825594,2.02157664 C0.764146802,1.50861682 0.390966846,1.03498359 9.92613956e-05,0.538687576 C0.167600133,0.433372266 0.285034385,0.354052508 0.407591283,0.283493156 C1.16525968,-0.152717904 1.49755512,-0.100250693 2.08240669,0.544400884 C4.18965077,2.86733666 7.69827693,3.2261324 10.2094368,1.36616501 C10.5037474,1.14820231 10.7764075,0.895007546 11.0290603,0.630386168 C11.7758068,-0.151860907 12.2204138,-0.176809019 13.1154271,0.589345572 C12.7606114,1.04574365 12.402896,1.50604583 12.0311659,1.9842497 C12.3911043,2.41217646 12.7591616,2.84981585 13.1534121,3.31868798 C12.8514659,3.57578684 12.5627613,3.82164952 12.2414843,4.09522175 C11.8626018,3.63910934 11.5000538,3.20270783 11.1268738,2.75354661 C10.6951217,3.00340861 10.2851167,3.24079655 9.85800397,3.48808756 C10.0563374,4.015045 10.2508046,4.53162325 10.4596733,5.08638545 C10.0809841,5.22531406 9.72684489,5.35529181 9.34438618,5.49574396 C9.1230492,4.94517153 8.91708015,4.43249736 8.69815951,3.8879239 C8.21788725,3.964387 7.74892347,4.03913611 7.24091159,4.12007464 L7.24091159,5.82616361 L6.02191506,5.82616361 L6.02191506,4.12588317 C5.51747937,4.04180232 5.06320696,3.96619621 4.56911322,3.88392458 C4.3599546,4.40307383 4.15485544,4.91241523 3.93506491,5.45794091 C3.56459126,5.32234507 3.22321037,5.19722363 2.82403057,5.05105817 C3.01743463,4.53495602 3.2031064,4.03923133 3.40134315,3.51036946 C2.9826393,3.27555251 2.57166774,3.04511576 2.11971502,2.79173055 C1.76325615,3.20146995 1.41114671,3.60616259 1.0420262,4.03047093 C0.73331427,3.77403863 0.452438602,3.54084044 0.127682152,3.27117231 C0.479115025,2.84905407 0.820882527,2.43874334 1.16825594,2.02157664" id="Fill-1"></path>
                </g>
            </g>
        </g>
    </g>
</svg>