<?xml version="1.0" encoding="UTF-8"?>
<svg width="61px" height="45px" viewBox="0 0 61 45" version="1.1" xmlns="http://www.w3.org/2000/svg" xmlns:xlink="http://www.w3.org/1999/xlink">
    <!-- Generator: Sketch 45.1 (43504) - http://www.bohemiancoding.com/sketch -->
    <title>Empathy</title>
    <desc>Created with Sketch.</desc>
    <defs></defs>
    <g id="Welcome" stroke="none" stroke-width="1" fill="none" fill-rule="evenodd">
        <g id="Desktop" transform="translate(-517.000000, -339.000000)" stroke="#D0D5D6">
            <g id="Product-Card-1" transform="translate(479.000000, 286.000000)">
                <g id="Empathy" transform="translate(39.000000, 54.000000)">
                    <path d="M35.3348457,27.0599394 C35.3348457,29.6665464 35.3209623,32.1345675 35.3385644,34.6023406 C35.3606291,37.7737042 34.6238176,38.5206803 31.4122913,38.5234074 C30.090394,38.524647 28.7675049,38.497624 27.4465993,38.5377867 C25.3105401,38.602989 24.4430759,39.2837711 24.0716952,41.393551 C23.870138,42.5394268 23.4367778,42.9142784 22.2299143,42.8951887 C17.1909864,42.8148634 12.1503231,42.861224 7.11015555,42.861224 L5.78255609,42.861224 C5.96700688,41.4012365 6.1993058,40.037441 6.30219165,38.6642247 C6.60390754,34.6239094 6.03518426,30.8570474 3.63063017,27.3631428 C-0.0192146978,22.0596866 -1.00939812,16.1825489 1.64852789,10.1958314 C4.71849318,3.28066213 10.544312,0.264990824 17.8858998,0.0118668185 C25.8366215,-0.262330194 32.7569971,4.23737666 35.3435228,11.2088233 C36.0158757,13.020854 36.270983,14.8432973 35.794981,16.7904431 C35.6219344,17.4984962 35.8693563,18.4351294 36.2164411,19.1201261 C37.1101846,20.8843087 38.1918496,22.5520513 39.1507954,24.2852441 C40.0445388,25.9011719 39.3563192,27.0264705 37.4981758,27.057956 C36.8072291,27.0696082 36.1162824,27.0599394 35.3348457,27.0599394 Z" id="Page-1" fill="#F6E59D"></path>
                    <path d="M54.8983423,27.0599394 C54.8983423,29.6665464 54.8844589,32.1345675 54.902061,34.6023406 C54.9241257,37.7737042 54.1873142,38.5206803 50.9757879,38.5234074 C49.6538905,38.524647 48.3310015,38.497624 47.0100958,38.5377867 C44.8740366,38.602989 44.0065725,39.2837711 43.6351917,41.393551 C43.4336346,42.5394268 43.0002744,42.9142784 41.7934109,42.8951887 C36.754483,42.8148634 31.7138196,42.861224 26.6736521,42.861224 L25.3460527,42.861224 C25.5305035,41.4012365 25.7628024,40.037441 25.8656882,38.6642247 C26.1674041,34.6239094 25.5986808,30.8570474 23.1941267,27.3631428 C19.5442819,22.0596866 18.5540985,16.1825489 21.2120245,10.1958314 C24.2819898,3.28066213 30.1078086,0.264990824 37.4493964,0.0118668185 C45.4001181,-0.262330194 52.3204937,4.23737666 54.9070194,11.2088233 C55.5793723,13.020854 55.8344796,14.8432973 55.3584776,16.7904431 C55.185431,17.4984962 55.4328529,18.4351294 55.7799377,19.1201261 C56.6736811,20.8843087 57.7553462,22.5520513 58.714292,24.2852441 C59.6080354,25.9011719 58.9198158,27.0264705 57.0616724,27.057956 C56.3707257,27.0696082 55.6797789,27.0599394 54.8983423,27.0599394 Z" id="Page-1" fill="#22A7C6" opacity="0.541836504" transform="translate(39.405380, 21.447939) scale(-1, 1) translate(-39.405380, -21.447939) "></path>
                </g>
            </g>
        </g>
    </g>
</svg>