<?xml version="1.0" encoding="UTF-8"?>
<svg width="30px" height="47px" viewBox="0 0 30 47" version="1.1" xmlns="http://www.w3.org/2000/svg" xmlns:xlink="http://www.w3.org/1999/xlink">
    <!-- Generator: Sketch 45.1 (43504) - http://www.bohemiancoding.com/sketch -->
    <title>hourglass</title>
    <desc>Created with Sketch.</desc>
    <defs>
        <polygon id="path-1" points="0 0.0240227943 0 52.7088368 33.6819359 52.7088368 33.6819359 0.0240227943 2.82621109e-05 0.0240227943 33.6819642 0.0239758309 33.6819642 52.7088429 2.82621109e-05 52.7088429 2.82621109e-05 0.0240227943"></polygon>
        <linearGradient x1="50%" y1="0%" x2="50%" y2="100%" id="linearGradient-3">
            <stop stop-color="#FDFAFA" offset="0%"></stop>
            <stop stop-color="#FFFFFF" stop-opacity="0.499179121" offset="100%"></stop>
        </linearGradient>
        <linearGradient x1="50.0011265%" y1="-6.90134669%" x2="50%" y2="95.9364399%" id="linearGradient-4">
            <stop stop-color="#F09970" offset="0%"></stop>
            <stop stop-color="#F7E9C4" offset="52.8667102%"></stop>
            <stop stop-color="#F8D585" offset="100%"></stop>
        </linearGradient>
        <linearGradient x1="50%" y1="100%" x2="50%" y2="-32.8656494%" id="linearGradient-5">
            <stop stop-color="#F09970" offset="0%"></stop>
            <stop stop-color="#F7E9C4" offset="52.8667102%"></stop>
            <stop stop-color="#F8D585" offset="100%"></stop>
        </linearGradient>
    </defs>
    <g id="Welcome" stroke="none" stroke-width="1" fill="none" fill-rule="evenodd">
        <g id="Desktop" transform="translate(-94.000000, -341.000000)">
            <g id="hourglass" transform="translate(91.000000, 338.000000)">
                <g id="Group-3" transform="translate(0.000000, 0.117288)">
                    <mask id="mask-2" fill="white">
                        <use xlink:href="#path-1"></use>
                    </mask>
                    <g id="Clip-2"></g>
                    <path d="M0.65938331,52.707565 C0.435406081,52.7072824 0.208178709,52.7277725 2.82621109e-05,52.6145827 C2.82621109e-05,52.5466123 2.82621109e-05,52.4789246 0.000169572665,52.4109542 C0.170448791,52.3140152 0.350478437,52.2815137 0.548595835,52.2837747 C1.33979363,52.2926773 2.13127405,52.2899924 2.92247184,52.2881553 C3.19887529,52.2875901 3.20028839,52.2832095 3.20509295,52.0073713 C3.20834309,51.8153302 3.1990166,51.6225826 3.20961489,51.4309655 C3.22162628,51.2165974 3.28917273,51.1494749 3.50071463,51.1395831 C3.7037779,51.1302566 3.90783034,51.1313871 4.11103491,51.1383113 C4.25446513,51.1431159 4.32158764,51.0872982 4.31664177,50.9424549 C4.31353294,50.8521575 4.31734832,50.7615774 4.31777226,50.6711386 C4.32356599,49.5860149 4.31423949,48.5006085 4.33769704,47.4159087 C4.42290731,43.4538434 5.72621455,39.9205143 8.10659084,36.7677345 C9.16486559,35.3657925 10.363603,34.0894756 11.5865046,32.83379 C12.3514186,32.0483859 13.1245286,31.2706126 13.8356033,30.4346194 C14.2901994,29.9000415 14.7087613,29.3400278 15.0633094,28.7321098 C15.9456525,27.2193803 15.9897414,25.697183 15.1411716,24.1559088 C14.7685356,23.4788899 14.3074393,22.8658848 13.8076239,22.2801525 C12.9924033,21.3247519 12.100451,20.4415609 11.2298367,19.5383038 C10.028697,18.2922274 8.86415673,17.0150626 7.85251447,15.6059137 C6.35066589,13.5142349 5.28151024,11.2295258 4.75329139,8.70049084 C4.47010503,7.34518131 4.3557848,5.97432762 4.35635004,4.59202778 C4.35677397,3.73300092 4.35776314,2.87383275 4.35832839,2.01466458 C4.35832839,1.93553067 4.35465431,1.85639676 4.35663266,1.77740416 C4.35974149,1.64753976 4.29530388,1.59709189 4.16953748,1.59921155 C3.96605029,1.60246169 3.76228047,1.60444004 3.5592172,1.59666796 C3.32520692,1.5879067 3.25766048,1.52474088 3.25116019,1.28960012 C3.24239894,0.9733471 3.24296418,0.656387526 3.25158412,0.340134505 C3.25822572,0.0921344816 3.31206504,0.042817098 3.55144512,0.0271316265 C3.64145994,0.0213378937 3.73218132,0.0252945893 3.82262007,0.0252945893 C13.4426187,0.0333492909 23.0627586,0.0412626819 32.6827572,0.0494586941 C33.2626958,0.0498826258 33.2628371,0.0501652469 33.2624131,0.624875272 C33.2621305,0.862135693 33.2683482,1.09982005 33.2590217,1.33693916 C33.2504017,1.55356824 33.188649,1.61221212 32.9677806,1.62083206 C32.7532712,1.62916938 32.5383379,1.625354 32.3235458,1.62323434 C32.2123344,1.62224517 32.154821,1.67057338 32.1538318,1.78291527 C32.1528427,1.87335402 32.1508643,1.96379278 32.1504404,2.05423153 C32.1453532,3.18457466 32.1604734,4.31534171 32.1323526,5.4451196 C32.0373919,9.24594958 30.8103924,12.6581755 28.5718919,15.7192448 C27.5548798,17.1101646 26.3944376,18.375318 25.1982437,19.6102309 C24.3568807,20.4790082 23.4974299,21.3305456 22.7080691,22.2482163 C22.1985033,22.8407315 21.7231346,23.457976 21.3476724,24.1462997 C21.0756496,24.6454086 20.872869,25.1695294 20.7739516,25.7320867 C20.6169555,26.6233324 20.794159,27.4614453 21.168208,28.2693177 C21.4790912,28.9408255 21.8999141,29.5415367 22.3627061,30.1142683 C23.2095803,31.16251 24.1669593,32.1088668 25.1017286,33.0755723 C26.3992421,34.4174574 27.6602975,35.7897241 28.7384971,37.3198348 C30.2426066,39.4546134 31.290707,41.7853897 31.780772,44.3579483 C31.9949988,45.4820738 32.1069167,46.6165149 32.1111561,47.7605652 C32.1148301,48.7440866 32.1103082,49.7276081 32.1097429,50.7109882 C32.1097429,50.8015683 32.1132757,50.8918657 32.1112974,50.9823045 C32.1084712,51.1120276 32.1724848,51.1626168 32.2983925,51.1606384 C32.5017384,51.157247 32.7055082,51.1555512 32.9087128,51.163182 C33.1486581,51.1723672 33.2092804,51.2312937 33.217759,51.4661518 C33.2255311,51.6806612 33.224118,51.8957359 33.2187482,52.1103866 C33.2153567,52.2484471 33.2594456,52.3250374 33.4107892,52.3150043 C33.500804,52.308928 33.5915254,52.3147217 33.6819642,52.314863" id="Fill-1" fill="#151D38" mask="url(#mask-2)"></path>
                </g>
                <path d="M31.1308706,46.6842027 C31.7130701,46.6849092 31.6790142,46.7839679 31.6161311,46.1713867 C31.4394929,44.4530503 31.0274313,42.7926513 30.3545104,41.1982443 C29.5378767,39.2634202 28.3845,37.5432468 27.0352668,35.945731 C26.0059607,34.7269275 24.879433,33.5988453 23.7733953,32.4515449 C22.9258146,31.572452 22.0882669,30.6837499 21.3985301,29.6697053 C21.1245289,29.2669703 21.1243876,29.2641441 20.766448,29.6219424 C19.9837288,30.4043789 19.4629994,31.3488987 19.0827327,32.3767916 C18.5713298,33.7590915 18.3677013,35.1965024 18.3356238,36.6631647 C18.3332215,36.7762131 18.3320911,36.8892616 18.3292649,37.0021687 C18.3255908,37.1448924 18.2676534,37.248473 18.1115053,37.2476251 C17.9505526,37.2467773 17.9091486,37.1280764 17.8989742,36.9939727 C17.8937457,36.9264262 17.8962893,36.8583146 17.8953001,36.7904855 C17.8807452,35.8165732 17.7941218,34.8498677 17.586254,33.8970106 C17.2965673,32.5693979 16.8202094,31.321767 15.9932601,30.2271755 C15.8225569,30.0012199 15.638288,29.7871344 15.4336703,29.5914193 C15.2534993,29.4191617 15.251521,29.4209988 15.1134606,29.6148768 C14.988966,29.7898193 14.8694172,29.9685772 14.7401181,30.1398456 C14.0298912,31.0802673 13.2133988,31.9264349 12.3940802,32.7694937 C11.1964733,34.0017217 9.99533359,35.2301344 8.92264517,36.5764 C7.38631682,38.5041586 6.18093779,40.6082727 5.48201578,42.9858228 C5.16562145,44.0623266 4.95916673,45.1597444 4.84809664,46.2746847 C4.80047498,46.7534448 4.79849663,46.6877354 5.24178784,46.6857571 C5.63788133,46.6840614 6.03185515,46.6525491 6.42597029,46.616091 C7.85476131,46.4835417 9.23126742,46.1551359 10.5357051,45.5436852 C11.461148,45.1100031 12.3044894,44.5430651 13.1433088,43.9672246 C13.7679015,43.5384884 14.3960269,43.1141328 15.0849158,42.7934992 C16.7345752,42.0254763 18.4478244,41.7674432 20.2321528,42.2088974 C21.1279204,42.4304723 21.9434236,42.8488929 22.7337735,43.3169135 C22.8593986,43.3912428 22.9812083,43.4672679 23.1301496,43.5011824 C23.8208756,43.6581784 24.4546535,43.9519631 25.046886,44.3359039 C25.4640347,44.6063723 25.878216,44.8817865 26.2870274,45.1646903 C27.7244384,46.159234 29.3263348,46.6313525 30.9913971,46.677985 C31.0856512,46.6822243 31.1082609,46.6842027 31.1308706,46.6842027 Z" id="Fill-4" fill="url(#linearGradient-3)"></path>
                <path d="M11.1319085,12.0198051 C11.0645034,12.0215008 10.9970982,12.0332296 10.930117,12.043404 C9.4635961,12.2676638 8.42807236,13.1182121 7.62429792,14.3108731 C7.5249566,14.45826 7.54050076,14.5727216 7.63701587,14.7080971 C7.88657031,15.0575581 8.12043928,15.4181826 8.37437435,15.7643935 C9.38629923,17.1444324 10.5521113,18.3907915 11.740957,19.6169431 C12.6614539,20.5661261 13.6010278,21.4980692 14.4349014,22.5273753 C14.9344342,23.1439133 15.3846496,23.7922461 15.7161642,24.5174519 C16.136987,25.4378075 16.2838087,26.3936321 16.0909198,27.3926977 C15.9938394,27.8953394 15.8203101,28.3728277 15.5747123,28.8212061 C15.4889368,28.9777782 15.5101334,29.0727389 15.6456502,29.1905919 C16.1013768,29.5868267 16.4624252,30.064739 16.7783956,30.5768484 C17.2748196,31.3813294 17.621737,32.2495415 17.8612584,33.1614185 C17.9358704,33.4451701 17.9949382,33.7330197 18.0617781,34.0187496 C18.0694089,34.0512511 18.0859422,34.1104602 18.0923012,34.1097536 C18.1428904,34.1033946 18.1587171,34.0570448 18.1693154,34.0150755 C18.1858488,33.9495075 18.1936208,33.881961 18.2081758,33.8158277 C18.3915969,32.9744646 18.6419992,32.1548634 19.0163309,31.3769488 C19.4217509,30.5345966 19.9297623,29.7651606 20.6361738,29.1404267 C20.9189362,28.8904483 20.9223277,28.8914375 20.7620815,28.5438135 C20.3382911,27.6247297 20.188078,26.6687638 20.3829453,25.6698394 C20.5345715,24.8927727 20.8745647,24.1944159 21.3027357,23.5354848 C21.8346286,22.7168728 22.4710913,21.9821992 23.1399142,21.2756464 C24.0800533,20.2823745 25.0368671,19.3049294 25.9730495,18.3081248 C26.9959966,17.2190443 27.9393859,16.0643958 28.7673244,14.8178954 C28.873166,14.6586384 28.9271466,14.5208606 28.8530999,14.319917 C27.7727807,11.3888535 25.1810038,10.1495599 22.3724566,10.7805116 C21.6883722,10.9342574 21.0834217,11.2612501 20.5228427,11.6721811 C20.0764427,11.9995977 19.6434671,12.3456673 19.1945235,12.6696924 C18.7139263,13.0167511 18.1930556,13.2811431 17.5987034,13.3790713 C16.7142407,13.5249038 15.8645403,13.3842998 15.0419716,13.0592856 C14.6325949,12.8977676 14.2355122,12.70502 13.8343316,12.523012 C13.1152021,12.1970085 12.3662562,12.0044023 11.5725148,12.0186746 C11.4255518,12.0186746 11.2787302,12.016131 11.1319085,12.0198051 Z" id="Fill-6" fill="url(#linearGradient-4)"></path>
                <path d="M5.27919275,5.07658167 C5.17744915,5.07658167 5.07528161,5.08308196 4.97410326,5.07587512 C4.80947646,5.06428765 4.74998472,5.14144322 4.76383315,5.29716745 C4.7697682,5.36457258 4.76510495,5.43268427 4.76722461,5.50051334 C4.82431407,7.33034371 5.12841438,9.11608518 5.73039735,10.8475634 C6.09116319,11.8853481 6.55169429,12.8780548 7.10181628,13.8290748 C7.24298552,14.0731181 7.24849663,14.0729768 7.41708012,13.8350098 C7.725985,13.3992081 8.0808158,13.0056582 8.49414917,12.6670781 C9.44333217,11.8898701 10.5274667,11.5291042 11.7585643,11.5802586 C12.5982316,11.6151623 13.3829291,11.8329219 14.1389406,12.1823829 C14.5488825,12.3717391 14.9526068,12.5760741 15.3800712,12.7251567 C16.7319893,13.1967101 18.0016646,13.1059887 19.1469866,12.1707954 C19.1995542,12.1279783 19.2552305,12.0891179 19.3090698,12.0478553 C19.6143006,11.8146928 19.9167052,11.5774324 20.2251862,11.3486506 C21.0871806,10.7090791 22.0424399,10.3023873 23.1202155,10.2133616 C24.8361496,10.0716272 26.3695104,10.4949936 27.6431424,11.6969812 C28.2933123,12.3105516 28.7753226,13.0428229 29.1302947,13.8612936 C29.1537522,13.9152742 29.1578503,14.009811 29.2398104,13.9989301 C29.2796599,13.9935603 29.3123027,13.920644 29.3443802,13.875566 C29.3705226,13.8389665 29.3910127,13.7982691 29.413481,13.7591261 C30.8706755,11.218221 31.6136864,8.47750279 31.702712,5.55534183 C31.7196693,5.00564377 31.760508,5.07799478 31.2506596,5.07771216 C26.9107298,5.07573381 22.5708001,5.07658167 18.2310116,5.07658167 L5.27919275,5.07658167 Z" id="Fill-8" fill="url(#linearGradient-3)"></path>
                <path d="M18.2305312,47.9786215 L31.1125426,47.9786215 C31.7734521,47.9786215 31.7816481,47.9653383 31.7009598,47.299059 C31.6854156,47.1715969 31.6363809,47.12341 31.5121689,47.119312 C31.2186669,47.1095616 30.9250235,47.0962784 30.6320867,47.0755057 C29.1789903,46.9729143 27.8067235,46.5994305 26.55881,45.8297119 C26.1071815,45.5510475 25.6698253,45.2494907 25.2279472,44.9551408 C24.8516372,44.7043146 24.4747619,44.4534884 24.0605807,44.2693607 C22.6125715,43.6256912 21.1631491,43.5471225 19.7116071,44.2662519 C19.234684,44.5025231 18.7782509,44.7721437 18.3366554,45.0674827 C17.8484274,45.3941927 17.3657106,45.7289574 16.8773413,46.0553848 C16.5106404,46.300276 16.1331999,46.5272208 15.7222688,46.6926954 C15.4482677,46.8033416 15.1677662,46.8850191 14.8679052,46.8799319 C14.726312,46.8775296 14.6167964,46.8296254 14.6193399,46.670227 C14.6214596,46.5327319 14.7182573,46.478186 14.8465673,46.4715444 C15.3240557,46.4468151 15.7383782,46.2431866 16.1429503,46.0125677 C16.6048945,45.7493062 17.0380114,45.4416731 17.4755089,45.1409642 C18.0714155,44.7314462 18.6684526,44.3230587 19.3141005,43.9935225 C20.0350669,43.6252672 20.7844368,43.3543749 21.6074295,43.3461789 C21.641344,43.3458963 21.6758238,43.3466028 21.7087492,43.3402438 C21.7261304,43.3368524 21.7525554,43.320743 21.7539685,43.3081663 C21.7556643,43.2906438 21.7426637,43.2637948 21.7275435,43.2536205 C21.680911,43.2225321 21.630887,43.1958244 21.5810044,43.1702472 C20.1500937,42.4331714 18.6475386,42.2493263 17.0720672,42.5621879 C15.9780409,42.7792409 14.9957913,43.2435874 14.0735986,43.8520707 C13.3946014,44.3000251 12.7259198,44.763665 12.0397158,45.1998907 C10.7776712,46.0021107 9.40964373,46.5403626 7.93874217,46.8248208 C6.99238538,47.007818 6.03698472,47.0772014 5.07706213,47.1177576 C4.782147,47.1303342 4.78228831,47.1358453 4.77027691,47.4212926 C4.76843988,47.4663707 4.76773332,47.5115901 4.76716808,47.5568095 C4.75967862,48.0361349 4.74173218,47.9776323 5.17922966,47.9777736 C9.52961639,47.9791867 13.8800031,47.9786215 18.2305312,47.9786215" id="Fill-14" fill="url(#linearGradient-5)"></path>
                <path d="M32.457268,49.3406574 C32.8267951,49.3405161 32.8267951,49.339103 32.8262299,48.9698585 C32.8256646,48.6117775 32.8256646,48.6116362 32.477758,48.6083861 C32.409929,48.6078208 32.3420999,48.6082448 32.2742708,48.6082448 L4.22808245,48.6082448 C4.13750238,48.6082448 4.04706363,48.6068317 3.95676618,48.6086687 C3.6624163,48.6150277 3.65831829,48.6155929 3.65817698,48.9164431 C3.65817698,49.4011383 3.62949094,49.3398095 4.07193428,49.3399508 C8.79707661,49.3413639 13.5223602,49.3407987 18.2476439,49.3407987 C22.9842324,49.3407987 27.7208208,49.34094 32.457268,49.3406574 Z" id="Fill-16" fill="#9B9B9B"></path>
                <path d="M18.2483363,3.71440445 C13.5456624,3.71440445 8.84298841,3.71440445 4.14045577,3.71440445 C4.03857086,3.71440445 3.93668595,3.71935032 3.83522497,3.71496969 C3.70140388,3.70903465 3.66650017,3.77771158 3.6561845,3.90036914 C3.61124775,4.43692532 3.61718279,4.44667574 4.1595327,4.44695837 L4.19344723,4.44695837 L32.307606,4.44695837 C32.4092083,4.44695837 32.5113758,4.44130594 32.6126955,4.44709968 C32.7770397,4.45642617 32.8274875,4.37531391 32.8272049,4.22156803 C32.8266397,3.59641014 32.8452926,3.71652411 32.3562168,3.71624149 C27.6536842,3.71313266 22.9510102,3.71440445 18.2483363,3.71440445" id="Fill-18" fill="#9B9B9B"></path>
            </g>
        </g>
    </g>
</svg>