<?xml version="1.0" encoding="UTF-8"?>
<svg width="43px" height="47px" viewBox="0 0 43 47" version="1.1" xmlns="http://www.w3.org/2000/svg" xmlns:xlink="http://www.w3.org/1999/xlink">
    <!-- Generator: Sketch 45.1 (43504) - http://www.bohemiancoding.com/sketch -->
    <title>intuition icon</title>
    <desc>Created with Sketch.</desc>
    <defs></defs>
    <g id="Welcome" stroke="none" stroke-width="1" fill="none" fill-rule="evenodd">
        <g id="Desktop" transform="translate(-382.000000, -339.000000)">
            <g id="Product-Card-1" transform="translate(333.000000, 286.000000)">
                <g id="intuition-icon" transform="translate(49.000000, 53.000000)">
                    <path d="M38.3416916,29.1268495 C38.3416916,31.9325561 38.3267477,34.5890912 38.3456944,37.2453594 C38.3694444,40.6589602 37.5763533,41.4629923 34.1195221,41.4659277 C32.6966547,41.467262 31.2727199,41.4381749 29.8509199,41.4814053 C27.5517029,41.551588 26.6179795,42.28437 26.2182317,44.5553005 C26.0012791,45.7887013 25.5348177,46.1921851 24.2357707,46.1716373 C18.8119561,46.0851765 13.3862735,46.1350783 7.96112457,46.1350783 L6.53211954,46.1350783 C6.73065917,44.563573 6.9807017,43.0956072 7.09144625,41.617501 C7.41620799,37.2685757 6.80404412,33.2139907 4.21582379,29.4532124 C0.287194073,23.7446642 -0.778622195,17.418615 2.08232328,10.9746162 C5.38678067,3.53124782 11.657591,0.285231527 19.5599488,0.0127732377 C28.1179678,-0.282367672 35.5669401,4.56103875 38.3510315,12.064983 C39.0747405,14.0154215 39.3493336,15.9770678 38.8369733,18.0729418 C38.6507089,18.8350779 38.9170296,19.8432536 39.2906256,20.5805721 C40.2526356,22.4795077 41.4169211,24.2746369 42.4491137,26.1402156 C43.4111236,27.8795723 42.670336,29.0908242 40.6702626,29.1247147 C39.9265396,29.1372568 39.1828165,29.1268495 38.3416916,29.1268495 Z" id="Page-1" fill="#FFFFFF"></path>
                    <circle id="Oval" stroke="#F58282" stroke-dasharray="2" cx="19.7149619" cy="16.7067035" r="12.4951418"></circle>
                    <path d="M19.6721355,23.4879172 C20.421821,23.4879172 25.49259,20.2028472 26.4311814,15.9791858 C27.3697728,11.7555244 22.6768157,8.93975018 19.4491775,12.6941159 C19.0439412,13.1654839 19.5625734,13.1785129 19.285775,12.6941159 C17.4085922,9.40904589 10.4751273,10.3476373 12.3523101,16.4484815 C13.4289218,19.9474696 18.92245,23.4879172 19.6721355,23.4879172 Z" id="Oval-3" fill="#F58282"></path>
                </g>
            </g>
        </g>
    </g>
</svg>