<?xml version="1.0" encoding="UTF-8"?>
<svg width="64px" height="48px" viewBox="0 0 64 48" version="1.1" xmlns="http://www.w3.org/2000/svg" xmlns:xlink="http://www.w3.org/1999/xlink">
    <!-- Generator: Sketch 45.1 (43504) - http://www.bohemiancoding.com/sketch -->
    <title>Page 1</title>
    <desc>Created with Sketch.</desc>
    <defs>
        <linearGradient x1="50%" y1="0%" x2="50%" y2="97.0244739%" id="linearGradient-1">
            <stop stop-color="#11BCFF" offset="0%"></stop>
            <stop stop-color="#A5FECA" offset="100%"></stop>
        </linearGradient>
        <path d="M0.327065625,0.214918498 C0.20986867,0.120848409 0.15173898,0.10115932 0.15173898,0.10115932 C0.15173898,0.10115932 0.222369678,0.147725577 0.327065625,0.214918498 Z" id="path-2"></path>
        <path d="M16.902082,0.582896407 C17.2367279,0.247430229 17.6777279,0.0798338418 18.1187278,0.0798338418 C18.5600012,0.0798338418 19.0012746,0.247430229 19.3361939,0.582896407 L26.2144809,7.46090996 C26.8834994,8.1302019 26.8834994,9.22518319 26.2144809,9.89474853 L9.81409447,26.2943147 C9.14507594,26.9636067 8.04982125,26.9636067 7.38052932,26.2943147 L0.501968951,19.4165746 C-0.167322984,18.7464624 -0.167322984,17.6512077 0.501968951,16.9821892 L16.902082,0.582896407 Z" id="path-4"></path>
        <path d="M21.5663468,2.81304931 C22.2356388,3.48206784 22.2356388,4.57732253 21.5663468,5.24688787 L5.16596042,21.6467275 C4.49694189,22.315746 3.40168719,22.315746 2.73266866,21.6467275 L0.182086776,19.0966924 L19.015765,0.262467425 L21.5663468,2.81304931 Z" id="path-6"></path>
    </defs>
    <g id="Welcome" stroke="none" stroke-width="1" fill="none" fill-rule="evenodd">
        <g id="Desktop" transform="translate(-225.000000, -339.000000)">
            <g id="Product-Card-1" transform="translate(187.000000, 286.000000)">
                <g id="Page-1" transform="translate(32.000000, 47.000000)">
                    <g id="Group-17" transform="translate(16.951021, 6.481852)">
                        <path d="M37.3664211,1.65149425 C37.3664211,1.65149425 31.3468947,7.6702004 29.7231509,9.29421759 C28.0991337,10.9185082 19.0606852,8.3835103 17.4478775,9.99631795 L1.31542659,28.3501729 C-0.156578223,30.1046036 -0.221374869,31.9451564 0.438074537,33.0494334 C0.438074537,33.0494334 1.70147242,35.2295534 2.74587405,35.7009012 C5.3623462,36.8833716 8.13028392,34.7625802 8.13028392,34.7625802 L20.3754829,43.7206481 C21.9891108,44.9917012 24.1648564,45.1125456 26.217297,43.7206481 C28.2700109,42.3290239 35.4411131,35.7416383 38.2522486,31.6381242 C41.1246265,27.4457539 42.5094156,24.8065892 43.8723324,23.4439458 C45.2355225,22.0807557 51.5156025,15.8001289 51.5156025,15.8001289 L37.3664211,1.65149425 Z" id="Fill-1" fill="#ECC19C"></path>
                        <path d="M8.9305635,32.7978748 L7.52116811,34.3256539 C6.0491633,36.0809048 5.6352303,38.2815301 7.24749114,39.8946112 C7.24749114,39.8946112 8.10816557,40.7552856 8.86631367,41.5139805 C10.8963352,43.544002 15.2445455,40.6144828 15.2445455,40.6144828 L17.7732551,42.4646047 C16.9751901,38.0474967 12.5744863,35.6038156 8.9305635,32.7978748" id="Fill-3" fill="#ECC19C"></path>
                        <path d="M15.6216237,37.5423836 L14.3781843,39.2087783 C13.0967418,41.1072927 12.9127412,43.339086 14.6846697,44.7760952 C14.6846697,44.7760952 15.6298258,45.5424454 16.4626131,46.2177522 C18.6930394,48.0268636 22.712892,44.6609923 22.712892,44.6609923 C22.712892,44.6609923 19.5370362,39.9548967 15.6216237,37.5423836" id="Fill-5" fill="#ECC19C"></path>
                        <path d="M29.7230689,9.29408089 C28.9914409,10.0254354 27.0333246,9.89447512 25.0768487,9.79987749 L41.6787335,26.4012155 C42.7493819,24.6599082 43.3240762,23.9922567 43.8722503,23.4440825 C45.2357139,22.0808924 51.5155205,15.7999922 51.5155205,15.7999922 L37.366339,1.65135755 C37.366339,1.65135755 31.3470861,7.6703371 29.7230689,9.29408089" id="Fill-7"></path>
                        <path d="M33.7855725,19.6265485 C33.7855725,19.6265485 38.2505262,26.7664827 40.9014472,27.6118465 L43.0246993,24.4067365 C43.0246993,24.4067365 40.4823195,23.1020547 33.7855725,19.6265485" id="Fill-9"></path>
                        <path d="M51.7556235,15.4470282 C52.4249154,16.1160467 52.4249154,17.2121216 51.7556235,17.8811401 L46.703399,22.9325445 C46.034107,23.6023832 44.9383055,23.6023832 44.2698338,22.9325445 L30.4257707,9.09012183 C29.7567522,8.42028308 29.7567522,7.32475499 30.4257707,6.65573646 L35.4788155,1.60378533 C36.1470138,0.934766799 37.2430887,0.934766799 37.911287,1.60378533 L51.7556235,15.4470282 Z" id="Fill-11" fill="url(#linearGradient-1)"></path>
                        <path d="M52.7780982,14.4250456 C53.4473901,15.0940642 53.4473901,16.1893189 52.7780982,16.8586108 L47.7256002,21.9111087 L31.4487922,5.63375392 L36.5001965,0.581802793 C37.1697619,-0.0874891417 38.2650166,-0.0874891417 38.9343085,0.581802793 L52.7780982,14.4250456 Z" id="Fill-13"></path>
                        <path d="M47.8724179,14.6998162 C45.95996,16.7235494 44.0912466,18.8142665 42.0470081,20.7103203 L44.2697791,22.9325445 C44.9385242,23.6023832 46.0340523,23.6023832 46.7036177,22.9325445 L51.7555688,17.8811401 C52.4248607,17.2121216 52.4248607,16.1160467 51.7555688,15.4470282 L49.3873471,13.0790799 C48.8829175,13.6195987 48.379855,14.1623048 47.8724179,14.6998162" id="Fill-15"></path>
                    </g>
                    <g id="Group-33" transform="translate(7.928703, 7.966683)">
                        <path d="M14.307072,0.166663522 C14.307072,0.166663522 20.3265984,6.18536967 21.9503422,7.80938686 C23.5740859,9.43367746 32.6128079,6.89867957 34.2258889,8.51148722 L50.6596306,26.9528313 C52.1316354,28.7075354 52.5455684,30.9078873 50.9333076,32.5212417 C50.9333076,32.5212417 50.0723597,33.381096 49.3136648,34.1400643 C47.2833699,36.1703592 44.6346362,34.3694499 44.6346362,34.3694499 C44.6346362,34.3694499 45.3769269,35.008394 45.3769269,35.8228632 C45.3769269,36.5296115 41.4415559,41.0071417 39.9690043,40.2241139 C39.5545245,40.0048442 38.9751823,39.6270005 38.9751823,39.6270005 C38.9751823,39.6270005 39.1862499,39.6917971 39.6187743,40.2552819 C39.7076305,40.372572 39.7751612,40.751236 39.5455022,41.0194449 C38.7288457,41.9692488 36.8735291,43.3688017 35.2730246,43.6115841 C34.8421406,43.7488327 34.4066087,43.6689988 34.4066087,43.6689988 C33.8138698,44.1351519 31.7679909,44.4900297 30.5546258,44.3855896 C29.3404406,44.280876 26.416116,43.4551972 25.1171757,42.5748377 C23.0647351,41.1829402 16.2323799,34.2568076 13.420971,30.1532934 C10.5485932,25.9609231 9.16407749,23.3217585 7.80116071,21.9591151 C6.43797052,20.5959249 0.157343753,14.3152982 0.157343753,14.3152982 L14.307072,0.166663522 Z" id="Fill-23" fill="#F0D0B4"></path>
                        <path d="M50.6596033,26.9527493 L48.0835949,24.0617799 C48.5593171,27.0303959 47.2745937,30.1532114 41.8620233,31.2309683 C41.8620233,33.8280288 39.6955734,36.176292 36.5601813,37.1933533 C35.5652657,40.0247206 34.0927141,40.2891019 31.8871675,40.9469109 C29.2838187,42.6061971 26.025395,43.8846322 21.2832101,39.1424473 C22.9214443,40.7667379 24.3518918,42.0558358 25.1171483,42.5750291 C26.4160887,43.4551152 29.3404133,44.280794 30.5545985,44.385781 C31.7679635,44.4902211 33.8138424,44.1353433 34.4065814,43.6691902 C34.4065814,43.6691902 34.8421132,43.7490241 35.2729973,43.6117755 C36.8735018,43.3687197 38.7288184,41.9694402 39.5454748,41.0193628 C39.7751338,40.7514273 39.7076031,40.37249 39.618747,40.2551999 C39.3975635,39.9678527 39.2357086,39.8114659 39.128261,39.7264374 C39.0369442,39.6676556 38.975155,39.6269185 38.975155,39.6269185 C38.975155,39.6269185 39.0257346,39.6441429 39.128261,39.7264374 C39.3283924,39.852203 39.6854575,40.0739333 39.968977,40.2240319 C41.4415286,41.0070597 45.3768995,36.5295294 45.3768995,35.8227812 C45.3768995,35.008312 44.6346088,34.3693678 44.6346088,34.3693678 C44.6346088,34.3693678 47.2833426,36.1702771 49.3136375,34.1399823 C50.0726058,33.3812874 50.9332802,32.5211597 50.9332802,32.5211597 C52.5455411,30.9080787 52.1316081,28.7074534 50.6596033,26.9527493" id="Fill-25" fill="#F5E0CD"></path>
                        <path d="M44.6345815,34.3693405 C44.6345815,34.3693405 43.1666777,32.3084244 42.0186562,31.7342769 C42.0186562,31.7342769 43.1869096,33.7541825 44.6345815,34.3693405" id="Fill-27" fill="#F0D0B4"></path>
                        <path d="M39.1753137,39.8286083 C39.1753137,39.8286083 37.70741,37.7674188 36.5602086,37.1932713 C36.5602086,37.1932713 37.7279152,39.213997 39.1753137,39.8286083" id="Fill-29" fill="#F0D0B4"></path>
                        <path d="M34.502628,43.5812363 C34.502628,43.5812363 33.0339041,41.5205936 31.8872495,40.9467195 C31.8872495,40.9467195 33.0549561,42.9668985 34.502628,43.5812363" id="Fill-31" fill="#F0D0B4"></path>
                    </g>
                    <g id="Group-36" transform="translate(46.752010, 47.492387)">
                        <mask id="mask-3" fill="white">
                            <use xlink:href="#path-2"></use>
                        </mask>
                        <g id="Clip-35"></g>
                        <path d="M0.327065625,0.214918498 C0.20986867,0.120848409 0.15173898,0.10115932 0.15173898,0.10115932 L0.15173898,0.10115932 C0.15173898,0.10115932 0.222369678,0.147725577 0.327065625,0.214918498" id="Fill-34" mask="url(#mask-3)"></path>
                    </g>
                    <g id="Group-51" transform="translate(6.288282, 6.481852)">
                        <path d="M36.7178804,10.3271089 C36.7178804,10.3271089 31.5623094,9.57634273 29.0836326,9.89321747 C26.6049559,10.2098188 24.7119096,15.848494 23.5067466,18.6888836 C22.3021305,21.5287265 25.4823608,23.6577201 29.4447987,21.7865461 C32.5424612,20.3241104 34.5850592,16.7477183 34.5850592,16.7477183 C34.5850592,16.7477183 39.625254,19.9000615 44.4480929,19.6263845 L36.7178804,10.3271089 Z" id="Fill-37" fill="#DFB28B"></path>
                        <path d="M36.5881231,9.826507 C36.5881231,9.826507 31.0623636,9.0760142 28.58314,9.39288894 C26.1041899,9.70949027 24.211417,15.3484389 23.0062541,18.1877349 C21.801638,21.028398 24.9818683,23.1579384 28.9437594,21.2859441 C32.042242,19.8237819 34.0840198,15.6822646 34.0840198,15.6822646 C34.0840198,15.6822646 39.6250899,19.9000615 44.4482023,19.6263845 L36.5881231,9.826507 Z" id="Fill-39" fill="#ECC19C"></path>
                        <path d="M22.8135592,18.79141 C22.8135592,18.79141 24.6013452,18.6311955 26.3631578,19.8325308 C28.1249704,21.0333192 29.6464612,17.7902061 29.5461221,17.0900196 C29.4460564,16.388466 26.840247,14.351336 24.1587048,15.3700377 L22.8135592,18.79141 Z" id="Fill-41" fill="#F9ECE1"></path>
                        <path d="M23.5909003,9.29408089 C24.3222548,10.0254354 26.2803712,9.89447512 28.2371205,9.79987749 L11.6352356,26.4012155 C10.5645873,24.6599082 9.98961956,23.9922567 9.44144541,23.4440825 C8.07852862,22.0808924 1.79762846,15.7999922 1.79762846,15.7999922 L15.9473567,1.65135755 C15.9473567,1.65135755 21.9671565,7.6703371 23.5909003,9.29408089" id="Fill-43"></path>
                        <path d="M1.55842768,15.4470282 C0.888588936,16.1160467 0.888588936,17.2121216 1.55842768,17.8811401 L6.61065221,22.9325445 C7.27967074,23.6023832 8.37547224,23.6023832 9.04394396,22.9325445 L22.888007,9.09012183 C23.5570256,8.42028308 23.5570256,7.32475499 22.888007,6.65573646 L17.8352357,1.60378533 C17.166764,0.934766799 16.0709625,0.934766799 15.4024907,1.60378533 L1.55842768,15.4470282 Z" id="Fill-45" fill="url(#linearGradient-1)"></path>
                        <path d="M0.53559759,14.4250456 C-0.133420941,15.0940642 -0.133420941,16.1893189 0.53559759,16.8586108 L5.58836893,21.9111087 L21.8651769,5.63375392 L16.8129524,0.581802793 C16.1439339,-0.0874891417 15.0486792,-0.0874891417 14.3796607,0.581802793 L0.53559759,14.4250456 Z" id="Fill-47" fill="url(#linearGradient-1)"></path>
                    </g>
                    <g id="Group-54" transform="translate(0.000000, 0.193570)">
                        <mask id="mask-5" fill="white">
                            <use xlink:href="#path-4"></use>
                        </mask>
                        <g id="Clip-53"></g>
                        <path d="M16.902082,0.582896407 L0.501968951,16.9821892 C-0.167322984,17.6512077 -0.167322984,18.7464624 0.501968951,19.4165746 L0.501968951,19.4165746 L7.38052932,26.2943147 C8.04982125,26.9636067 9.14507594,26.9636067 9.81409447,26.2943147 L9.81409447,26.2943147 L26.2144809,9.89474853 C26.8834994,9.22518319 26.8834994,8.1302019 26.2144809,7.46090996 L26.2144809,7.46090996 L19.3361939,0.582896407 C19.0012746,0.247430229 18.5600012,0.0798338418 18.1187278,0.0798338418 L18.1187278,0.0798338418 C17.6777279,0.0798338418 17.2367279,0.247430229 16.902082,0.582896407" id="Fill-52" mask="url(#mask-5)"></path>
                    </g>
                    <g id="Group-57" transform="translate(4.647861, 4.841430)">
                        <mask id="mask-7" fill="white">
                            <use xlink:href="#path-6"></use>
                        </mask>
                        <g id="Clip-56"></g>
                        <path d="M21.5663468,2.81304931 C22.2356388,3.48206784 22.2356388,4.57732253 21.5663468,5.24688787 L5.16596042,21.6467275 C4.49694189,22.315746 3.40168719,22.315746 2.73266866,21.6467275 L0.182086776,19.0966924 L19.015765,0.262467425 L21.5663468,2.81304931 Z" id="Fill-55" mask="url(#mask-7)"></path>
                    </g>
                    <path d="M5.61625609,21.0906246 C5.61625609,22.2572377 6.56195903,23.203214 7.72829865,23.203214 L7.72829865,23.203214 C8.89491168,23.203214 9.84088802,22.2572377 9.84088802,21.0906246 L9.84088802,21.0906246 C9.84088802,19.9240116 8.89491168,18.9783087 7.72829865,18.9783087 L7.72829865,18.9783087 C6.56195903,18.9783087 5.61625609,19.9240116 5.61625609,21.0906246" id="Fill-58"></path>
                    <path d="M5.8852852,21.0906246 C5.8852852,22.1090529 6.71014377,22.9339115 7.72829865,22.9339115 L7.72829865,22.9339115 C8.74672694,22.9339115 9.57158551,22.1090529 9.57158551,21.0906246 L9.57158551,21.0906246 C9.57158551,20.0724697 8.74672694,19.2473378 7.72829865,19.2473378 L7.72829865,19.2473378 C6.71014377,19.2473378 5.8852852,20.0724697 5.8852852,21.0906246" id="Fill-60"></path>
                    <path d="M6.18712274,21.0906246 C6.18712274,21.9417299 6.87746675,22.6318005 7.72829865,22.6318005 L7.72829865,22.6318005 C8.57940396,22.6318005 9.26974797,21.9417299 9.26974797,21.0906246 L9.26974797,21.0906246 C9.26974797,20.2395193 8.57940396,19.5494487 7.72829865,19.5494487 L7.72829865,19.5494487 C6.87746675,19.5494487 6.18712274,20.2395193 6.18712274,21.0906246" id="Fill-62"></path>
                    <path d="M8.12282,20.353802 L6.99749092,21.4788577 C6.91738367,21.5592383 6.91683686,21.6899253 6.99749092,21.7705793 L6.99749092,21.7705793 C7.07814497,21.85096 7.20855847,21.8506866 7.28921252,21.7705793 L7.28921252,21.7705793 L8.4139948,20.6452502 C8.49492226,20.5648696 8.49492226,20.4341827 8.41426821,20.353802 L8.41426821,20.353802 C8.37407788,20.3133383 8.32131099,20.2933798 8.2685441,20.2933798 L8.2685441,20.2933798 C8.21577722,20.2933798 8.16301033,20.3133383 8.12282,20.353802" id="Fill-64"></path>
                </g>
            </g>
        </g>
    </g>
</svg>